<?xml version="1.0" encoding="UTF-8"?>
<svg width="1986px" height="98px" viewBox="0 0 1986 98" version="1.1" xmlns="http://www.w3.org/2000/svg" xmlns:xlink="http://www.w3.org/1999/xlink">
    <!-- Generator: Sketch 48.2 (47327) - http://www.bohemiancoding.com/sketch -->
    <title>Shape</title>
    <desc>Created with Sketch.</desc>
    <defs></defs>
    <g id="Page-1" stroke="none" stroke-width="1" fill="none" fill-rule="evenodd">
        <g id="Asset-1" fill="#FCFCFC" fill-rule="nonzero">
            <polygon id="Shape" points="1986 48.73 1986 97.79 1896.45 49.01 1804.33 97.7 1714.98 49.03 1623.47 97.76 1535.44 49.06 1444.15 97.68 1353.48 49.03 1263.41 97.72 1172.58 48.98 1081.04 97.75 992.44 49.1 903.17 97.75 812.41 49.05 723.06 97.72 631.56 48.98 540.8 97.68 449.51 49.06 361.46 97.78 270.55 49.01 179.8 97.7 89.14 49.06 0 97.8 0 48.71 88.95 0.05 179.8 48.8 270.55 0.11 361.15 48.72 449.14 0.04 540.73 48.83 631.48 0.13 722.85 48.78 812.26 0.06 903.02 48.76 992.51 0 1081.34 48.76 1172.65 0.13 1263.34 48.78 1353.41 0.09 1444.24 48.83 1535.81 0.04 1623.84 48.74 1715.19 0.09 1804.62 48.8 1896.74 0.11"></polygon>
        </g>
    </g>
</svg>