<?xml version="1.0" encoding="UTF-8"?>
<svg width="18px" height="28px" viewBox="0 0 18 28" version="1.1" xmlns="http://www.w3.org/2000/svg" xmlns:xlink="http://www.w3.org/1999/xlink">
    <!-- Generator: Sketch 48.2 (47327) - http://www.bohemiancoding.com/sketch -->
    <title>chick</title>
    <desc>Created with Sketch.</desc>
    <defs></defs>
    <g id="Page-1" stroke="none" stroke-width="1" fill="none" fill-rule="evenodd">
        <g id="chick" fill-rule="nonzero">
            <path d="M6.50954,24.001474 C6.4932505,24.0013454 6.4769644,24.0020129 6.46074,24.003474 C6.2787721,24.0130003 6.116391,24.120755 6.03691,24.284724 L5.53887,25.282764 C5.5043305,25.3519134 5.4862916,25.4281285 5.48617,25.505424 L5.48617,26.192924 L3.77133,27.052304 C3.5248765,27.1761131 3.4251986,27.4760886 3.5485409,27.722776 C3.6718833,27.9694635 3.9716695,28.0697091 4.21859,27.946834 L5.98617,27.062064 L6.75766,27.446834 C6.9184838,27.5396353 7.1174867,27.5356844 7.2745003,27.436573 C7.431514,27.3374616 7.520683,27.1595103 7.5060856,26.9744069 C7.4914882,26.7893035 7.3755282,26.6275289 7.20492,26.554254 L6.48617,26.192924 L6.48617,25.622614 L6.93148,24.731984 C7.0103901,24.5803931 7.0064183,24.3990011 6.9209484,24.2510096 C6.8354785,24.103018 6.6803486,24.0089247 6.50961,24.001514 L6.50954,24.001474 Z" id="path6568" fill="#CC8634"></path>
            <path d="M11.44899,24.001474 C11.2814166,24.0144871 11.1315904,24.1108158 11.050198,24.2578717 C10.9688056,24.4049277 10.9667362,24.5830367 11.04469,24.731944 L11.49001,25.622564 L11.49001,26.192874 L10.77126,26.554204 C10.6006518,26.6274789 10.4846918,26.7892535 10.4700944,26.9743569 C10.455497,27.1594603 10.544666,27.3374116 10.7016797,27.436523 C10.8586933,27.5356344 11.0576962,27.5395853 11.21852,27.446784 L11.99001,27.062024 L13.75759,27.946784 C13.9174326,28.027083 14.1079935,28.0158855 14.2573317,27.9174186 C14.4066698,27.8189518 14.4920375,27.6482146 14.4812065,27.4696641 C14.4703754,27.2911136 14.3649955,27.1319473 14.20485,27.052254 L12.49001,26.192874 L12.49001,25.505374 C12.4898868,25.4280818 12.471848,25.3518704 12.43731,25.282724 L11.93927,24.284674 C11.8577261,24.1151167 11.6879094,24.0056822 11.49981,24.001474 C11.4828876,24.0006133 11.4659324,24.0006133 11.44901,24.001474 L11.44899,24.001474 Z" id="path7020" fill="#CC8634"></path>
            <path d="M6.50954,24.001474 C6.4932505,24.0013454 6.4769644,24.0020129 6.46074,24.003474 C6.2787721,24.0130003 6.116391,24.120755 6.03691,24.284724 L5.66191,25.036674 C5.9709,25.152934 6.29302,25.252764 6.62871,25.335504 L6.93144,24.731984 C7.0103501,24.5803931 7.0063783,24.3990011 6.9209084,24.2510096 C6.8354385,24.103018 6.6803086,24.0089247 6.50957,24.001514 L6.50954,24.001474 Z M11.44899,24.001474 C11.2814166,24.0144871 11.1315904,24.1108158 11.050198,24.2578717 C10.9688056,24.4049277 10.9667362,24.5830367 11.04469,24.731944 L11.35329,25.349124 C11.68985,25.269624 12.01573,25.175434 12.32595,25.062024 L11.93923,24.284674 C11.8576861,24.1151167 11.6878694,24.0056822 11.49977,24.001474 C11.4828476,24.0006133 11.4658924,24.0006133 11.44897,24.001474 L11.44899,24.001474 Z" id="path42183" fill="#B77B35"></path>
            <path d="M10.31618,1.300354 C10.31518,1.300354 10.31518,1.296354 10.31418,1.296354 C10.3121818,1.2962339 10.3101782,1.2962339 10.30818,1.296354 L10.31618,1.300354 Z" id="path39478" fill="#000000"></path>
            <path d="M9.37477,1.255424 C9.6838,1.276224 9.99046,1.322224 10.29274,1.394104 C10.29343,1.394754 10.29374,1.395104 10.29474,1.396104 C11.51293,1.654774 12.60096,2.333744 13.36896,3.314074 L13.9881,4.036724 C14.60175,4.752644 14.93929,5.664104 14.93928,6.607044 L14.93928,7.126574 C14.93828,7.144274 14.94628,7.161374 14.96078,7.171474 L15.12484,7.280844 C15.94559,7.828024 16.43932,8.747554 16.4393,9.733974 L16.4393,9.886314 C16.43929,10.668714 16.12924,11.419014 15.57602,11.972254 L14.45297,13.093344 C14.43097,13.115144 14.43377,13.151444 14.45897,13.169544 L15.83201,14.198834 C16.2408,14.505414 16.58669,14.887634 16.84959,15.325794 L17.37694,16.204694 C17.74526,16.818574 17.93942,17.522004 17.93944,18.237904 L17.93944,19.579694 L17.89254,19.579694 C16.99561,19.579704 16.12614,19.272814 15.42574,18.712514 L14.94332,18.327744 C14.34878,17.852114 13.90482,17.214114 13.66403,16.491804 L13.03707,14.612904 C13.02307,14.539404 12.91188,14.573504 12.94137,14.642204 L13.56832,16.523064 C13.81521,17.263644 14.27123,17.916264 14.88082,18.403924 L15.36324,18.788694 C15.70524,19.062284 16.08914,19.271804 16.4941,19.421504 C16.0597,22.777854 13.07597,24.948324 8.94918,24.933224 C4.8403,24.918324 1.90998,22.573774 1.52926,19.609004 C2.34351,19.465844 3.10272,19.082434 3.69528,18.489864 L3.85738,18.329704 C4.30197,17.885114 4.63708,17.344144 4.8359,16.747674 L5.4902,14.614864 C5.5095,14.551864 5.4629,14.548664 5.4414,14.610864 L4.74023,16.716334 C4.54631,17.298084 4.22072,17.825694 3.7871,18.259304 L3.62499,18.419464 C2.88422,19.160264 1.87965,19.577654 0.83202,19.577664 L0.53906,19.577664 L0.53906,18.235864 C0.53908,17.520954 0.75565,16.814914 1.10351,16.202664 C1.81148,14.956654 2.76776,14.000134 4.07617,13.093284 C4.10287,13.075284 4.10577,13.037084 4.08217,13.015184 L2.97475,11.980024 C2.37797,11.422164 2.03921,10.640694 2.03921,9.823774 L2.03921,9.731974 C2.03919,8.745554 2.53291,7.826014 3.35366,7.278844 L3.51772,7.169474 C3.53172,7.159474 3.53982,7.143574 3.53922,7.126474 L3.53922,6.409674 C3.53921,5.586384 3.79702,4.782744 4.27554,4.112804 L4.58609,3.679204 C5.50173,2.397264 6.88822,1.530144 8.44156,1.269054 C8.44256,1.269104 8.44456,1.269104 8.44556,1.269054 C8.75483,1.239054 9.06622,1.234654 9.37524,1.255354 L9.37477,1.255424 Z" id="path7010" fill="#FFD158"></path>
            <path d="M7.73897,5.627924 C7.73897,6.04213756 7.4031836,6.377924 6.98897,6.377924 C6.5747564,6.377924 6.23897,6.04213756 6.23897,5.627924 C6.23897,5.21371044 6.5747564,4.877924 6.98897,4.877924 C7.4031836,4.877924 7.73897,5.21371044 7.73897,5.627924 Z" id="circle6149-3-4" fill="#43B6C2"></path>
            <path d="M12.23897,5.627924 C12.23897,6.04213756 11.9031836,6.377924 11.48897,6.377924 C11.0747564,6.377924 10.73897,6.04213756 10.73897,5.627924 C10.73897,5.21371044 11.0747564,4.877924 11.48897,4.877924 C11.9031836,4.877924 12.23897,5.21371044 12.23897,5.627924 Z" id="circle6151-7-1" fill="#43B6C2"></path>
            <polygon id="path6155-9-2" fill="#FF766C" points="7.23897 8.627644 9.23972 7.627944 11.23897 8.627644 9.23897 10.627644"></polygon>
            <path d="M8.71488,0.214644 C8.5820115,0.211274162 8.4572838,0.278480324 8.3870218,0.391301649 C8.3167598,0.504122975 8.3114597,0.645705313 8.37309,0.763464 L8.87309,1.763464 C8.9330974,1.88348333 9.0525763,1.96237191 9.1865199,1.97041283 C9.3204634,1.97845376 9.448522,1.91442541 9.5224567,1.80244692 C9.5963914,1.69046843 9.6049696,1.5475522 9.54496,1.427534 L9.04496,0.427534 C8.9838615,0.300022133 8.8562409,0.217711305 8.71488,0.214644 Z" id="path9122-3-9" fill="#FFD158"></path>
            <path d="M9.71488,0.214644 C9.5820115,0.211274181 9.4572839,0.278480346 9.3870218,0.391301665 C9.3167598,0.504122984 9.3114597,0.645705311 9.37309,0.763464 L9.87309,1.763464 C9.9330974,1.88348333 10.0525763,1.96237191 10.1865199,1.97041283 C10.3204634,1.97845376 10.448522,1.91442541 10.5224567,1.80244692 C10.5963914,1.69046843 10.6049696,1.5475522 10.54496,1.427534 L10.04496,0.427534 C9.9838615,0.300022137 9.8562409,0.217711312 9.71488,0.214644 Z" id="path9124-1-3" fill="#FFD158"></path>
            <path d="M7.17973,0.718544 C6.9988486,0.729076601 6.8513614,0.86741857 6.8292874,1.04725668 C6.8072134,1.22709479 6.9168653,1.39699899 7.08983,1.450964 L8.58983,1.950964 C8.7179487,1.99780637 8.8613985,1.97138865 8.964425,1.88197856 C9.0674515,1.79256847 9.1138053,1.65426781 9.0854701,1.52082968 C9.0571349,1.38739155 8.9585798,1.27986186 8.82811,1.240034 L7.32811,0.740034 C7.2805856,0.722946563 7.2300996,0.715633694 7.17968,0.718534 L7.17973,0.718544 Z" id="path9126-5-2" fill="#FFD158"></path>
            <path d="M12.96266,14.382334 C12.84336,14.563744 13.00256,16.906404 14.30837,18.786624 C14.89915,19.436984 15.67356,20.071474 16.24391,20.521004 C16.35786,20.170234 16.44432,19.804564 16.49391,19.421394 C16.48691,19.418394 16.47981,19.414394 16.47241,19.411394 L16.50951,19.411394 L16.50951,19.333294 C14.38748,18.429754 13.56902,16.294404 12.96263,14.382124 L12.96266,14.382334 Z" id="path39493" fill="#ECC355"></path>
            <path d="M5.48316,14.471834 C5.60246,14.653244 5.44326,16.995904 4.13745,18.876124 C3.54667,19.526484 2.39726,20.270344 1.82691,20.719874 C1.71296,20.369104 1.6265,20.003434 1.57691,19.620264 C1.58391,19.617264 1.59101,19.613264 1.59841,19.610264 L1.56131,19.610264 L1.56131,19.532164 C3.68334,18.628624 4.8768,16.383904 5.48319,14.471624 L5.48316,14.471834 Z" id="path39554" fill="#ECC355"></path>
        </g>
    </g>
</svg>