<?xml version="1.0" encoding="UTF-8"?>
<svg width="27px" height="28px" viewBox="0 0 27 28" version="1.1" xmlns="http://www.w3.org/2000/svg" xmlns:xlink="http://www.w3.org/1999/xlink">
    <!-- Generator: Sketch 48.2 (47327) - http://www.bohemiancoding.com/sketch -->
    <title>chic</title>
    <desc>Created with Sketch.</desc>
    <defs></defs>
    <g id="Page-1" stroke="none" stroke-width="1" fill="none" fill-rule="evenodd">
        <g id="chic">
            <path d="M15.50954,24.001474 C15.4932505,24.0013454 15.4769644,24.0020129 15.46074,24.003474 C15.2787721,24.0130003 15.116391,24.120755 15.03691,24.284724 L14.53887,25.282764 C14.5043305,25.3519134 14.4862916,25.4281285 14.48617,25.505424 L14.48617,26.192924 L12.77133,27.052304 C12.5248765,27.1761131 12.4251986,27.4760886 12.5485409,27.722776 C12.6718833,27.9694635 12.9716695,28.0697091 13.21859,27.946834 L14.98617,27.062064 L15.75766,27.446834 C15.9184838,27.5396353 16.1174867,27.5356844 16.2745003,27.436573 C16.431514,27.3374616 16.520683,27.1595103 16.5060856,26.9744069 C16.4914882,26.7893035 16.3755282,26.6275289 16.20492,26.554254 L15.48617,26.192924 L15.48617,25.622614 L15.93148,24.731984 C16.0103901,24.5803931 16.0064183,24.3990011 15.9209484,24.2510096 C15.8354785,24.103018 15.6803486,24.0089247 15.50961,24.001514 L15.50954,24.001474 Z" id="path6568" fill="#CC8634"></path>
            <path d="M20.44899,24.001474 C20.2814166,24.0144871 20.1315904,24.1108158 20.050198,24.2578717 C19.9688056,24.4049277 19.9667362,24.5830367 20.04469,24.731944 L20.49001,25.622564 L20.49001,26.192874 L19.77126,26.554204 C19.6006518,26.6274789 19.4846918,26.7892535 19.4700944,26.9743569 C19.455497,27.1594603 19.544666,27.3374116 19.7016797,27.436523 C19.8586933,27.5356344 20.0576962,27.5395853 20.21852,27.446784 L20.99001,27.062024 L22.75759,27.946784 C22.9174326,28.027083 23.1079935,28.0158855 23.2573317,27.9174186 C23.4066698,27.8189518 23.4920375,27.6482146 23.4812065,27.4696641 C23.4703754,27.2911136 23.3649955,27.1319473 23.20485,27.052254 L21.49001,26.192874 L21.49001,25.505374 C21.4898868,25.4280818 21.471848,25.3518704 21.43731,25.282724 L20.93927,24.284674 C20.8577261,24.1151167 20.6879094,24.0056822 20.49981,24.001474 C20.4828876,24.0006133 20.4659324,24.0006133 20.44901,24.001474 L20.44899,24.001474 Z" id="path7020" fill="#CC8634"></path>
            <path d="M15.50954,24.001474 C15.4932505,24.0013454 15.4769644,24.0020129 15.46074,24.003474 C15.2787721,24.0130003 15.116391,24.120755 15.03691,24.284724 L14.66191,25.036674 C14.9709,25.152934 15.29302,25.252764 15.62871,25.335504 L15.93144,24.731984 C16.0103501,24.5803931 16.0063783,24.3990011 15.9209084,24.2510096 C15.8354385,24.103018 15.6803086,24.0089247 15.50957,24.001514 L15.50954,24.001474 Z M20.44899,24.001474 C20.2814166,24.0144871 20.1315904,24.1108158 20.050198,24.2578717 C19.9688056,24.4049277 19.9667362,24.5830367 20.04469,24.731944 L20.35329,25.349124 C20.68985,25.269624 21.01573,25.175434 21.32595,25.062024 L20.93923,24.284674 C20.8576861,24.1151167 20.6878694,24.0056822 20.49977,24.001474 C20.4828476,24.0006133 20.4658924,24.0006133 20.44897,24.001474 L20.44899,24.001474 Z" id="path42183" fill="#B77B35"></path>
            <path d="M9.9883,22.131874 C7.50752,26.463374 4.06413,27.357974 1.96315,26.125974 C0.17009,25.083074 -1.09916,21.457974 1.38988,17.131174 L2.20236,19.047374 L3.53948,18.381374 L4.55883,19.936674 L6.19876,20.409074 L7.93464,22.381274 L9.9883,22.131874 Z" id="path6035-9-0" fill="#E79983" fill-rule="nonzero"></path>
            <path d="M19.31618,1.300354 C19.31518,1.300354 19.31518,1.296354 19.31418,1.296354 C19.3121818,1.2962339 19.3101782,1.2962339 19.30818,1.296354 L19.31618,1.300354 Z" id="path39478" fill="#000000"></path>
            <path d="M18.37477,1.255424 C18.6838,1.276224 18.99046,1.322224 19.29274,1.394104 C19.29343,1.394754 19.29374,1.395104 19.29474,1.396104 C20.51293,1.654774 21.60096,2.333744 22.36896,3.314074 L22.9881,4.036724 C23.60175,4.752644 23.93929,5.664104 23.93928,6.607044 L23.93928,7.126574 C23.93828,7.144274 23.94628,7.161374 23.96078,7.171474 L24.12484,7.280844 C24.94559,7.828024 25.43932,8.747554 25.4393,9.733974 L25.4393,9.886314 C25.43929,10.668714 25.12924,11.419014 24.57602,11.972254 L23.45297,13.093344 C23.43097,13.115144 23.43377,13.151444 23.45897,13.169544 L24.83201,14.198834 C25.2408,14.505414 25.58669,14.887634 25.84959,15.325794 L26.37694,16.204694 C26.74526,16.818574 26.93942,17.522004 26.93944,18.237904 L26.93944,19.579694 L26.89254,19.579694 C25.99561,19.579704 25.12614,19.272814 24.42574,18.712514 L23.94332,18.327744 C23.34878,17.852114 22.90482,17.214114 22.66403,16.491804 L22.03707,14.612904 C22.02307,14.539404 21.91188,14.573504 21.94137,14.642204 L22.56832,16.523064 C22.81521,17.263644 23.27123,17.916264 23.88082,18.403924 L24.36324,18.788694 C24.70524,19.062284 25.08914,19.271804 25.4941,19.421504 C25.0597,22.777854 22.07597,24.948324 17.94918,24.933224 C13.8403,24.918324 10.90998,22.573774 10.52926,19.609004 C11.34351,19.465844 12.10272,19.082434 12.69528,18.489864 L12.85738,18.329704 C13.30197,17.885114 13.63708,17.344144 13.8359,16.747674 L14.4902,14.614864 C14.5095,14.551864 14.4629,14.548664 14.4414,14.610864 L13.74023,16.716334 C13.54631,17.298084 13.22072,17.825694 12.7871,18.259304 L12.62499,18.419464 C11.88422,19.160264 10.87965,19.577654 9.83202,19.577664 L9.53906,19.577664 L9.53906,18.235864 C9.53908,17.520954 9.75565,16.814914 10.10351,16.202664 C10.81148,14.956654 11.76776,14.000134 13.07617,13.093284 C13.10287,13.075284 13.10577,13.037084 13.08217,13.015184 L11.97475,11.980024 C11.37797,11.422164 11.03921,10.640694 11.03921,9.823774 L11.03921,9.731974 C11.03919,8.745554 11.53291,7.826014 12.35366,7.278844 L12.51772,7.169474 C12.53172,7.159474 12.53982,7.143574 12.53922,7.126474 L12.53922,6.409674 C12.53921,5.586384 12.79702,4.782744 13.27554,4.112804 L13.58609,3.679204 C14.50173,2.397264 15.88822,1.530144 17.44156,1.269054 C17.44256,1.269104 17.44456,1.269104 17.44556,1.269054 C17.75483,1.239054 18.06622,1.234654 18.37524,1.255354 L18.37477,1.255424 Z" id="path7010" fill="#FFD158"></path>
            <path d="M16.73897,5.627924 C16.73897,6.04213756 16.4031836,6.377924 15.98897,6.377924 C15.5747564,6.377924 15.23897,6.04213756 15.23897,5.627924 C15.23897,5.21371044 15.5747564,4.877924 15.98897,4.877924 C16.4031836,4.877924 16.73897,5.21371044 16.73897,5.627924 Z" id="circle6149-3-4" fill="#43B6C2" fill-rule="nonzero"></path>
            <path d="M21.23897,5.627924 C21.23897,6.04213756 20.9031836,6.377924 20.48897,6.377924 C20.0747564,6.377924 19.73897,6.04213756 19.73897,5.627924 C19.73897,5.21371044 20.0747564,4.877924 20.48897,4.877924 C20.9031836,4.877924 21.23897,5.21371044 21.23897,5.627924 Z" id="circle6151-7-1" fill="#43B6C2" fill-rule="nonzero"></path>
            <polygon id="path6155-9-2" fill="#FF766C" points="16.23897 8.627644 18.23972 7.627944 20.23897 8.627644 18.23897 10.627644"></polygon>
            <path d="M17.71488,0.214644 C17.5820115,0.211274162 17.4572838,0.278480324 17.3870218,0.391301649 C17.3167598,0.504122975 17.3114597,0.645705313 17.37309,0.763464 L17.87309,1.763464 C17.9330974,1.88348333 18.0525763,1.96237191 18.1865199,1.97041283 C18.3204634,1.97845376 18.448522,1.91442541 18.5224567,1.80244692 C18.5963914,1.69046843 18.6049696,1.5475522 18.54496,1.427534 L18.04496,0.427534 C17.9838615,0.300022133 17.8562409,0.217711305 17.71488,0.214644 Z" id="path9122-3-9" fill="#FFD158"></path>
            <path d="M18.71488,0.214644 C18.5820115,0.211274181 18.4572839,0.278480346 18.3870218,0.391301665 C18.3167598,0.504122984 18.3114597,0.645705311 18.37309,0.763464 L18.87309,1.763464 C18.9330974,1.88348333 19.0525763,1.96237191 19.1865199,1.97041283 C19.3204634,1.97845376 19.448522,1.91442541 19.5224567,1.80244692 C19.5963914,1.69046843 19.6049696,1.5475522 19.54496,1.427534 L19.04496,0.427534 C18.9838615,0.300022137 18.8562409,0.217711312 18.71488,0.214644 Z" id="path9124-1-3" fill="#FFD158"></path>
            <path d="M16.17973,0.718544 C15.9988486,0.729076601 15.8513614,0.86741857 15.8292874,1.04725668 C15.8072134,1.22709479 15.9168653,1.39699899 16.08983,1.450964 L17.58983,1.950964 C17.7179487,1.99780637 17.8613985,1.97138865 17.964425,1.88197856 C18.0674515,1.79256847 18.1138053,1.65426781 18.0854701,1.52082968 C18.0571349,1.38739155 17.9585798,1.27986186 17.82811,1.240034 L16.32811,0.740034 C16.2805856,0.722946563 16.2300996,0.715633694 16.17968,0.718534 L16.17973,0.718544 Z" id="path9126-5-2" fill="#FFD158"></path>
            <path d="M21.96266,14.382334 C21.84336,14.563744 22.00256,16.906404 23.30837,18.786624 C23.89915,19.436984 24.67356,20.071474 25.24391,20.521004 C25.35786,20.170234 25.44432,19.804564 25.49391,19.421394 C25.48691,19.418394 25.47981,19.414394 25.47241,19.411394 L25.50951,19.411394 L25.50951,19.333294 C23.38748,18.429754 22.56902,16.294404 21.96263,14.382124 L21.96266,14.382334 Z" id="path39493" fill="#ECC355"></path>
            <path d="M14.48316,14.471834 C14.60246,14.653244 14.44326,16.995904 13.13745,18.876124 C12.54667,19.526484 11.39726,20.270344 10.82691,20.719874 C10.71296,20.369104 10.6265,20.003434 10.57691,19.620264 C10.58391,19.617264 10.59101,19.613264 10.59841,19.610264 L10.56131,19.610264 L10.56131,19.532164 C12.68334,18.628624 13.8768,16.383904 14.48319,14.471624 L14.48316,14.471834 Z" id="path39554" fill="#ECC355"></path>
        </g>
    </g>
</svg>