<?xml version="1.0" encoding="UTF-8"?>
<svg width="220px" height="58px" viewBox="0 0 220 58" version="1.1" xmlns="http://www.w3.org/2000/svg" xmlns:xlink="http://www.w3.org/1999/xlink">
    <!-- Generator: Sketch 48.2 (47327) - http://www.bohemiancoding.com/sketch -->
    <title>stars</title>
    <desc>Created with Sketch.</desc>
    <defs></defs>
    <g id="Page-1" stroke="none" stroke-width="1" fill="none" fill-rule="evenodd">
        <g id="stars" fill="#F7E590" fill-rule="nonzero">
            <path d="M32.8295052,2.0351262 L38.7317572,19.6231368 L57.0097686,19.6243869 C59.8627676,19.6243869 61.0892689,23.2438889 58.8242671,24.9783909 L44.1285108,36.2321482 L49.5407623,53.4664062 C50.3907621,56.1739103 47.3390129,58.4281586 45.0012616,56.819407 L30.0000093,46.4969017 L14.9987426,56.819407 C12.6609923,58.4281585 9.60923692,56.1739102 10.4592377,53.4664062 L15.8714935,36.2321482 L1.17573258,24.9783904 C-1.08926868,23.2438883 0.137232008,19.6243864 2.99023366,19.6243864 L21.2682471,19.6231363 L27.1705011,2.03512566 C28.0810008,-0.678375311 31.9190035,-0.678375311 32.8295052,2.0351262 Z" id="Shape"></path>
            <path d="M112.829505,2.0351262 L118.731757,19.6231368 L137.009769,19.6243869 C139.862768,19.6243869 141.089269,23.2438889 138.824267,24.9783909 L124.128511,36.2321482 L129.540762,53.4664062 C130.390762,56.1739103 127.339013,58.4281586 125.001262,56.819407 L110.000009,46.4969017 L94.9987426,56.819407 C92.6609923,58.4281585 89.6092369,56.1739102 90.4592377,53.4664062 L95.8714935,36.2321482 L81.1757326,24.9783904 C78.9107313,23.2438883 80.137232,19.6243864 82.9902337,19.6243864 L101.268247,19.6231363 L107.170501,2.03512566 C108.081001,-0.678375311 111.919003,-0.678375311 112.829505,2.0351262 Z" id="Shape"></path>
            <path d="M192.829505,2.0351262 L198.731757,19.6231368 L217.009769,19.6243869 C219.862768,19.6243869 221.089269,23.2438889 218.824267,24.9783909 L204.128511,36.2321482 L209.540762,53.4664062 C210.390762,56.1739103 207.339013,58.4281586 205.001262,56.819407 L190.000009,46.4969017 L174.998743,56.819407 C172.660992,58.4281585 169.609237,56.1739102 170.459238,53.4664062 L175.871493,36.2321482 L161.175733,24.9783904 C158.910731,23.2438883 160.137232,19.6243864 162.990234,19.6243864 L181.268247,19.6231363 L187.170501,2.03512566 C188.081001,-0.678375311 191.919003,-0.678375311 192.829505,2.0351262 Z" id="Shape"></path>
        </g>
    </g>
</svg>