<?xml version="1.0" encoding="UTF-8"?>
<svg width="100px" height="147px" viewBox="0 0 100 147" version="1.1" xmlns="http://www.w3.org/2000/svg" xmlns:xlink="http://www.w3.org/1999/xlink">
    <!-- Generator: Sketch 48.2 (47327) - http://www.bohemiancoding.com/sketch -->
    <title>if_Happy_Easter_and_Egg_Icons_Flat_Color-20_1902022</title>
    <desc>Created with Sketch.</desc>
    <defs></defs>
    <g id="Artboard" stroke="none" stroke-width="1" fill="none" fill-rule="evenodd">
        <g id="if_Happy_Easter_and_Egg_Icons_Flat_Color-20_1902022" fill-rule="nonzero">
            <g id="Group" fill="#FFEDBD">
                <path d="M50,0.0440528634 C27.6211454,0.0440528634 8.72246696,25.5947137 2.46696035,53.7885463 L2.68722467,53.8325991 L15.5506608,77.4008811 L33.7885463,53.8325991 L47.7092511,77.4008811 L63.7885463,53.8325991 L78.8105727,77.4008811 L97.7092511,54.3171806 C91.5418502,25.9471366 72.5110132,0.0440528634 50,0.0440528634 Z" id="Shape"></path>
                <path d="M97.7092511,75.5947137 L78.8105727,98.6784141 L63.7885463,75.1101322 L47.753304,98.6784141 L33.8325991,75.1101322 L15.5506608,98.6784141 L2.68722467,75.1101322 L2.46696035,75.0660793 C1.05726872,81.4977974 0.264317181,88.061674 0.264317181,94.4933921 C0.264317181,129.118943 22.5550661,146.784141 50,146.784141 C77.4889868,146.784141 99.7356828,129.162996 99.7356828,94.4933921 C99.7797357,87.4008811 97.5330396,74.8017621 97.7092511,75.5947137 Z" id="Shape"></path>
            </g>
            <g id="Group" opacity="0.1" transform="translate(49.339207, 0.000000)">
                <path d="M29.4713656,98.6784141 L14.4493392,75.1101322 L0.264317181,95.9030837 L0.264317181,146.696035 C0.396475771,146.696035 0.528634361,146.696035 0.660792952,146.696035 C28.1497797,146.696035 50.3964758,129.07489 50.3964758,94.4052863 C50.3964758,87.7973568 48.4140969,76.2995595 48.3259912,75.5506608 L29.4713656,98.6784141 Z" id="Shape" fill="#231F20"></path>
                <path d="M48.3700441,75.599174 C48.3700441,75.549174 48.3700441,75.549174 48.3700441,75.599174 Z" id="Shape" fill="#231F20"></path>
                <path d="M29.4273128,77.4449339 L48.3259912,54.3612335 C42.2026432,25.9471366 23.1718062,0.0440528634 0.660792952,0.0440528634 C0.528634361,0.0440528634 0.440528634,0.0440528634 0.308370044,0.0440528634 L0.308370044,74.5374449 L14.4052863,53.8325991 L29.4273128,77.4449339 Z" id="Shape" fill="#4D4748"></path>
            </g>
        </g>
    </g>
</svg>