<?xml version="1.0" encoding="UTF-8" standalone="no"?>
<svg width="48px" height="28px" viewBox="0 0 48 28" version="1.1" xmlns="http://www.w3.org/2000/svg" xmlns:xlink="http://www.w3.org/1999/xlink">
    <!-- Generator: Sketch 45.2 (43514) - http://www.bohemiancoding.com/sketch -->
    <title>Group 2</title>
    <desc>Created with Sketch.</desc>
    <defs></defs>
    <g id="Page-1" stroke="none" stroke-width="1" fill="none" fill-rule="evenodd">
        <g id="Group-2" fill-rule="nonzero">
            <path d="M45,0.3 L3,0.3 C1.3,0.3 0,1.7 0,3.3 L0,24.6 C0,26.3 1.4,27.6 3,27.6 L45,27.6 C46.7,27.6 48,26.2 48,24.6 L48,3.3 C48,1.7 46.6,0.3 45,0.3 Z" id="Shape" fill="#3DC9AE"></path>
            <path d="M4,18.7 L4,9.3 C6.7,9.3 9,7.1 9,4.3 L39,4.3 C39,7 41.2,9.3 44,9.3 L44,18.7 C41.3,18.7 39,20.9 39,23.7 L9,23.7 C9,20.9 6.7,18.7 4,18.7 Z" id="Shape" fill="#4CDBC4"></path>
            <path d="M23.7,20.3 L23.7,19.2 C22.3,19.1 21.1,18.5 20,17.5 L21.1,16.2 C22,16.9 22.8,17.4 23.7,17.5 L23.7,14.6 C22.6,14.3 21.7,14 21.2,13.5 C20.7,13.1 20.4,12.4 20.4,11.5 C20.4,10.6 20.7,9.9 21.3,9.4 C21.9,8.8 22.7,8.5 23.7,8.5 L23.7,7.7 L24.7,7.7 L24.7,8.5 C25.8,8.6 26.9,9 27.9,9.6 L26.9,11 C26.2,10.5 25.5,10.2 24.7,10.1 L24.7,13 L24.7,13 C25.9,13.3 26.7,13.6 27.3,14.1 C27.8,14.6 28.1,15.2 28.1,16.1 C28.1,17 27.8,17.7 27.2,18.3 C26.6,18.9 25.7,19.2 24.7,19.2 L24.7,20.3 L23.7,20.3 Z M22.6,10.5 C22.3,10.7 22.2,11 22.2,11.4 C22.2,11.7 22.3,12 22.5,12.2 C22.7,12.4 23.1,12.6 23.7,12.8 L23.7,10.2 C23.2,10.1 22.9,10.3 22.6,10.5 Z M25.8,17.2 C26.1,17 26.2,16.7 26.2,16.3 C26.2,15.9 26.1,15.7 25.9,15.5 C25.7,15.3 25.3,15.1 24.7,14.9 L24.7,17.6 C25.1,17.5 25.5,17.4 25.8,17.2 Z" id="Shape" fill="#FFFFFF"></path>
            <g id="Group" transform="translate(8.000000, 12.000000)" fill="#FFFFFF">
                <circle id="Oval" cx="2.3" cy="2" r="1.8"></circle>
                <circle id="Oval" cx="29.7" cy="2" r="1.8"></circle>
            </g>
        </g>
    </g>
</svg>