<?xml version="1.0" ?><!DOCTYPE svg  PUBLIC '-//W3C//DTD SVG 1.1//EN'  'http://www.w3.org/Graphics/SVG/1.1/DTD/svg11.dtd'><svg enable-background="new -24 -24 512 512" height="512px" id="Layer_1" version="1.1" viewBox="-24 -24 512 512" width="512px" xml:space="preserve" xmlns="http://www.w3.org/2000/svg" xmlns:xlink="http://www.w3.org/1999/xlink"><g id="Layer_13"><g><g><g><g><path d="M448,288h-32c-8.836,0-16-7.164-16-16s7.164-16,16-16h32c8.836,0,16,7.164,16,16S456.836,288,448,288z" fill="#FBD462"/></g></g><g><path d="M40,272c0,0,0,10.594,0,16c0,83.944,89.547,160,200,160s200-76.056,200-160c0-5.406,0-16,0-16H40z" fill="#EDAE53"/></g><g><path d="M240,96C129.547,96,40,172.055,40,256c0,5.405,0,16,0,16c0,80,96.656,144,200,144s200-64,200-144      c0,0,0-10.595,0-16C440,172.055,350.453,96,240,96z" fill="#FBD462"/></g><g><g><path d="M360,448c0,8.836-7.164,16-16,16h-32c-8.836,0-16-7.164-16-16v-64c0-8.837,7.164-16,16-16h32       c8.836,0,16,7.163,16,16V448z" fill="#FBD462"/></g></g><g><g><path d="M192,448c0,8.836-7.164,16-16,16h-32c-8.836,0-16-7.164-16-16v-64c0-8.837,7.164-16,16-16h32       c8.836,0,16,7.163,16,16V448z" fill="#FBD462"/></g></g><g><g><path d="M80,297.453C80,305.488,73.484,312,65.453,312H14.547C6.516,312,0,305.488,0,297.453v-50.906       C0,238.512,6.516,232,14.547,232h50.906C73.484,232,80,238.512,80,246.547V297.453z" fill="#FBD462"/></g></g><g><g><g><path d="M272,32c0,17.668-14.328,32-32,32s-32-14.332-32-32s14.328-32,32-32S272,14.332,272,32z" fill="#FBD462"/></g></g></g><g><circle cx="104" cy="216" fill="#EDAE53" r="16"/></g></g><g><g><path d="M287.992,152c-1.195,0-2.422-0.271-3.57-0.845C284.313,151.105,269.328,144,240,144      s-44.313,7.104-44.469,7.176c-3.953,1.922-8.734,0.301-10.688-3.652c-1.938-3.944-0.359-8.711,3.578-10.68      C189.141,136.484,206.5,128,240,128s50.859,8.483,51.578,8.844c3.953,1.977,5.555,6.781,3.578,10.734      C293.75,150.383,290.93,152,287.992,152z" fill="#EDAE53"/></g></g></g></g><g id="Layer_1_1_"/></svg>