<?xml version="1.0" encoding="UTF-8" standalone="no"?>
<svg width="60px" height="64px" viewBox="0 0 60 64" version="1.1" xmlns="http://www.w3.org/2000/svg" xmlns:xlink="http://www.w3.org/1999/xlink">
    <!-- Generator: Sketch 47.1 (45422) - http://www.bohemiancoding.com/sketch -->
    <title>start</title>
    <desc>Created with Sketch.</desc>
    <defs></defs>
    <g id="Page-1" stroke="none" stroke-width="1" fill="none" fill-rule="evenodd">
        <g id="start" fill-rule="nonzero">
            <path d="M8,2 C8,0.895 7.105,0 6,0 L2,0 C0.895,0 0,0.895 0,2 L0,62 C0,63.105 0.895,64 2,64 L6,64 C7.105,64 8,63.105 8,62 L8,2 Z" id="Shape" fill="#84462D"></path>
            <path d="M4,0 L2,0 C0.896,0 0,0.896 0,2 L0,62 C0,63.104 0.896,64 2,64 L4,64 L4,0 Z" id="Shape" fill="#9C6144"></path>
            <path d="M60,2 C60,0.895 59.105,0 58,0 L54,0 C52.895,0 52,0.895 52,2 L52,62 C52,63.105 52.895,64 54,64 L58,64 C59.105,64 60,63.105 60,62 L60,2 Z" id="Shape" fill="#84462D"></path>
            <path d="M56,0 L54,0 C52.896,0 52,0.896 52,2 L52,62 C52,63.104 52.896,64 54,64 L56,64 L56,0 Z" id="Shape" fill="#9C6144"></path>
            <rect id="Rectangle-path" fill="#FFFFFF" x="0" y="8" width="60" height="36"></rect>
            <g id="Group" transform="translate(0.000000, 8.000000)" fill="#3E3E3F">
                <rect id="Rectangle-path" x="0" y="0" width="12" height="12"></rect>
                <rect id="Rectangle-path" x="24" y="0" width="12" height="12"></rect>
                <rect id="Rectangle-path" x="48" y="0" width="12" height="12"></rect>
                <rect id="Rectangle-path" x="12" y="12" width="12" height="12"></rect>
                <rect id="Rectangle-path" x="36" y="12" width="12" height="12"></rect>
                <rect id="Rectangle-path" x="0" y="24" width="12" height="12"></rect>
                <rect id="Rectangle-path" x="24" y="24" width="12" height="12"></rect>
                <rect id="Rectangle-path" x="48" y="24" width="12" height="12"></rect>
            </g>
        </g>
    </g>
</svg>