<?xml version="1.0" encoding="UTF-8"?>
<svg width="42px" height="24px" viewBox="0 0 42 24" version="1.1" xmlns="http://www.w3.org/2000/svg" xmlns:xlink="http://www.w3.org/1999/xlink">
    <!-- Generator: Sketch 48.2 (47327) - http://www.bohemiancoding.com/sketch -->
    <title>ticket</title>
    <desc>Created with Sketch.</desc>
    <defs></defs>
    <g id="Page-1" stroke="none" stroke-width="1" fill="none" fill-rule="evenodd">
        <g id="ticket" fill-rule="nonzero">
            <path d="M42,20 L42,4 C39.791,4 38,2.209 38,0 L4,0 C4,2.209 2.209,4 0,4 L0,20 C2.209,20 4,21.791 4,24 L38,24 C38,21.791 39.791,20 42,20 Z" id="Shape" fill="#FFB74D"></path>
            <rect id="Rectangle-path" fill="#FFCC80" x="9" y="6" width="23" height="12"></rect>
            <path d="M36,24 L34,24 C34,23.448 34.448,23 35,23 C35.552,23 36,23.448 36,24 Z" id="Shape" fill="#BF8020"></path>
            <circle id="Oval" fill="#BF8020" cx="35" cy="21" r="1"></circle>
            <circle id="Oval" fill="#BF8020" cx="35" cy="18" r="1"></circle>
            <circle id="Oval" fill="#BF8020" cx="35" cy="15" r="1"></circle>
            <circle id="Oval" fill="#BF8020" cx="35" cy="12" r="1"></circle>
            <circle id="Oval" fill="#BF8020" cx="35" cy="9" r="1"></circle>
            <circle id="Oval" fill="#BF8020" cx="35" cy="6" r="1"></circle>
            <circle id="Oval" fill="#BF8020" cx="35" cy="3" r="1"></circle>
            <path d="M36,0 C36,0.552 35.552,1 35,1 C34.448,1 34,0.552 34,0 L36,0 Z" id="Shape" fill="#BF8020"></path>
        </g>
    </g>
</svg>