<?xml version="1.0" encoding="UTF-8" standalone="no"?>
<svg width="47px" height="85px" viewBox="0 0 47 85" version="1.1" xmlns="http://www.w3.org/2000/svg" xmlns:xlink="http://www.w3.org/1999/xlink">
    <!-- Generator: Sketch 45.2 (43514) - http://www.bohemiancoding.com/sketch -->
    <title>Artboard</title>
    <desc>Created with Sketch.</desc>
    <defs></defs>
    <g id="Page-1" stroke="none" stroke-width="1" fill="none" fill-rule="evenodd">
        <g id="Artboard" fill-rule="nonzero" fill="#4E4E6A">
            <g id="upgradeArrow">
                <polygon id="Fill-9" points="23.2028065 0 0 31.9038589 15.9519295 31.9038589 15.9519295 49.3059638 30.4536835 49.3059638 30.4536835 31.9038589 46.405613 31.9038589"></polygon>
                <path d="M27.5533327,55.1066654 L18.8522803,55.1066654 C17.2570873,55.1066654 15.9519295,56.4118233 15.9519295,58.0070163 C15.9519295,59.6022092 17.2570873,60.9073671 18.8522803,60.9073671 L27.5533327,60.9073671 C29.1485257,60.9073671 30.4536835,59.6022092 30.4536835,58.0070163 C30.4536835,56.4118233 29.1485257,55.1066654 27.5533327,55.1066654" id="Fill-11"></path>
                <path d="M27.5533327,66.7080687 L18.8522803,66.7080687 C17.2570873,66.7080687 15.9519295,68.0132266 15.9519295,69.6084195 C15.9519295,71.2036125 17.2570873,72.5087703 18.8522803,72.5087703 L27.5533327,72.5087703 C29.1485257,72.5087703 30.4536835,71.2036125 30.4536835,69.6084195 C30.4536835,68.0132266 29.1485257,66.7080687 27.5533327,66.7080687" id="Fill-13"></path>
                <path d="M27.5533327,78.3094719 L18.8522803,78.3094719 C17.2570873,78.3094719 15.9519295,79.6146298 15.9519295,81.2098228 C15.9519295,82.8050157 17.2570873,84.1101736 18.8522803,84.1101736 L27.5533327,84.1101736 C29.1485257,84.1101736 30.4536835,82.8050157 30.4536835,81.2098228 C30.4536835,79.6146298 29.1485257,78.3094719 27.5533327,78.3094719" id="Fill-15"></path>
            </g>
        </g>
    </g>
</svg>