<?xml version="1.0" encoding="UTF-8" standalone="no"?>
<svg width="60px" height="60px" viewBox="0 0 60 60" version="1.1" xmlns="http://www.w3.org/2000/svg" xmlns:xlink="http://www.w3.org/1999/xlink">
    <!-- Generator: Sketch 45.2 (43514) - http://www.bohemiancoding.com/sketch -->
    <title>upgrade</title>
    <desc>Created with Sketch.</desc>
    <defs></defs>
    <g id="Page-1" stroke="none" stroke-width="1" fill="none" fill-rule="evenodd">
        <g id="upgrade" fill-rule="nonzero">
            <g id="Group" transform="translate(43.000000, 6.000000)">
                <polygon id="Shape" fill="#D92258" points="8.4 5.3 4.8 8.7 0.2 8.7 8.4 0.7 16.5 9 11.9 9"></polygon>
                <polyline id="Shape" fill="#FD2B69" points="8.4 0.7 16.5 9 11.9 9 8.4 5.3 4.8 8.7"></polyline>
            </g>
            <g id="Group" transform="translate(43.000000, 16.000000)">
                <polygon id="Shape" fill="#D92258" points="8.4 5.4 4.8 9 0.2 9 8.4 0.9 16.5 9 11.9 9"></polygon>
                <polyline id="Shape" fill="#FD2B69" points="8.4 0.9 16.5 9 11.9 9 8.4 5.4 4.8 9"></polyline>
            </g>
            <path d="M44.2,30 C44,38 37.8,44.1 30,44.1 C22.1,44.1 15.7,37.8 15.7,29.9 C15.7,22.3 22,16.2 29,15.8 L29,0.5 C13,0.9 0.4,14 0.4,30 C0.4,46.3 13.7,59.3 30,59.3 C46.1,59.3 59.3,46 59.5,30 L44.2,30 Z" id="Shape" fill="#0A56A5"></path>
            <path d="M0.5,30 C0.5,46.3 13.7,59.3 30,59.3 C46.2,59.3 59.3,46 59.5,30 L44.2,30 C44,38 37.8,44.1 30,44.1 C22.1,44.1 15.7,37.8 15.7,29.9" id="Shape" fill="#197ADF"></path>
        </g>
    </g>
</svg>