<?xml version="1.0" encoding="UTF-8" standalone="no"?>
<svg width="85px" height="85px" viewBox="0 0 85 85" version="1.1" xmlns="http://www.w3.org/2000/svg" xmlns:xlink="http://www.w3.org/1999/xlink">
    <!-- Generator: Sketch 45.2 (43514) - http://www.bohemiancoding.com/sketch -->
    <title>Shape</title>
    <desc>Created with Sketch.</desc>
    <defs></defs>
    <g id="Page-1" stroke="none" stroke-width="1" fill="none" fill-rule="evenodd">
        <path d="M80.5304403,60.710583 C86.0869803,66.2671232 86.0869802,75.2760547 80.5304401,80.8325949 C74.9739,86.389135 65.9649685,86.3891351 60.4084283,80.832595 L42.4998376,62.6221742 L24.2894168,80.5307648 C18.7328766,86.0873047 9.72394518,86.0873045 4.16740513,80.5307645 C-1.38913491,74.9742245 -1.38913506,65.9652931 4.1674048,60.4087529 L22.3778256,42.5001622 L4.46923498,24.2897413 C0.874783647,20.6952901 -0.529009427,15.4562632 0.786651029,10.5461515 C2.10231148,5.63603972 5.93754534,1.80080586 10.8476571,0.485145408 C15.7577689,-0.830515048 20.9967957,0.573278026 24.591247,4.16772936 L42.4998376,22.3781502 L60.7102585,4.46955954 C64.3047097,0.875108295 69.5437365,-0.528684711 74.4538482,0.786975756 C79.36396,2.10263622 83.1991938,5.93787004 84.5148542,10.8479817 C85.8305147,15.7580935 84.4267217,20.9971203 80.8322705,24.5915715 L62.6218496,42.5001622 L80.5304403,60.710583 Z" id="Shape" fill="#FD2B69"></path>
    </g>
</svg>