<?xml version="1.0" encoding="UTF-8" standalone="no"?>
<svg width="5px" height="6px" viewBox="0 0 5 6" version="1.1" xmlns="http://www.w3.org/2000/svg" xmlns:xlink="http://www.w3.org/1999/xlink">
    <!-- Generator: Sketch 45.2 (43514) - http://www.bohemiancoding.com/sketch -->
    <title>upgrade2</title>
    <desc>Created with Sketch.</desc>
    <defs></defs>
    <g id="Page-1" stroke="none" stroke-width="1" fill="none" fill-rule="evenodd">
        <g id="upgrade2" transform="translate(-1.000000, 0.000000)">
            <g id="_469637008">
                <rect id="_469638064" x="0" y="0" width="6.82666" height="6.82666"></rect>
                <rect id="_469637104" x="0.853331" y="0.853331" width="5.12" height="5.12"></rect>
            </g>
            <g id="_469636600" transform="translate(1.000000, 0.000000)">
                <path d="M4.55596,4.43935 L4.257716,4.3433303 L4.2392514,4.4001492 L4.23618447,4.40943266 L4.23307817,4.41866494 L4.22991675,4.42790116 L4.22671203,4.43710982 L4.22345219,4.44630667 L4.22015298,4.45547202 L4.21681833,4.46459407 L4.2134325,4.4736925 L4.20999549,4.48279093 L4.20651911,4.49185392 L4.2030073,4.50086573 L4.19943643,4.50988148 L4.195838,4.51884605 L4.1732908,4.57408625 L4.4630708,4.69322025 L4.4862558,4.63644465 L4.49047234,4.62594855 L4.49464557,4.61541705 L4.49875581,4.60485795 L4.50281487,4.59428705 L4.50681487,4.58368865 L4.51077944,4.57303515 L4.51468101,4.56236585 L4.51853534,4.55166505 L4.52233849,4.54092485 L4.52607865,4.53018075 L4.52977156,4.51939335 L4.53342117,4.50855085 L4.53700778,4.49770435 L4.55596058,4.43935005 L4.55596,4.43935 Z M4.406956,4.810988 L4.131846,4.661031 L4.1056925,4.7093932 L4.10112557,4.71771603 L4.09651533,4.72601918 L4.09184998,4.73431446 L4.08718069,4.742531 L4.0824366,4.75075935 L4.07765314,4.75896801 L4.07282637,4.76715699 L4.06797991,4.77528297 L4.06309408,4.7833814 L4.05818069,4.79142864 L4.05318069,4.79951132 L4.04817282,4.80753494 L4.04314132,4.81549951 L4.03805864,4.82344833 L4.03291691,4.83139715 L4.02775156,4.83930266 L4.02256652,4.84714518 L4.01732243,4.85499164 L4.01204684,4.86279873 L4.00671613,4.87059401 L3.97712553,4.91351131 L4.23434953,5.09229831 L4.26494403,5.04805031 L4.27118419,5.03892039 L4.27733773,5.02981409 L4.28347946,5.02063299 L4.28957395,5.01141252 L4.29560938,5.0021763 L4.30160544,4.99290465 L4.30755426,4.98359756 L4.31347946,4.97422748 L4.31933379,4.96485346 L4.32514875,4.95544401 L4.33091647,4.94599125 L4.3366645,4.93647944 L4.34233773,4.92695975 L4.34796371,4.91741644 L4.35353851,4.90784951 L4.35908182,4.89822353 L4.36459363,4.88854243 L4.37003851,4.87884952 L4.37543615,4.86912905 L4.3808141,4.85932984 L4.4069558,4.81098734 L4.406956,4.810988 Z M4.154932,5.195358 L3.91818,4.990118 L3.8806131,5.033681 L3.8744753,5.04072431 L3.86829813,5.04774006 L3.86210522,5.05470463 L3.85585719,5.06165739 L3.84956979,5.06858652 L3.84327058,5.07546054 L3.83696349,5.0822755 L3.83058947,5.08907471 L3.82417215,5.09586999 L3.81772727,5.10262196 L3.81123908,5.1093385 L3.80475877,5.11599992 L3.7982194,5.12263772 L3.79164066,5.12925583 L3.78505011,5.13581882 L3.77843987,5.14233457 L3.77176664,5.14884244 L3.76503829,5.15534244 L3.75831782,5.16177551 L3.75155404,5.16817708 L3.71314464,5.20424008 L3.92676264,5.43337408 L3.96640834,5.39623628 L3.9743296,5.38873628 L3.98218787,5.38122053 L3.99000283,5.37366935 L3.99778236,5.36608274 L4.00556976,5.35840951 L4.01328236,5.35072447 L4.02097527,5.34299219 L4.02860125,5.33523628 L4.03623117,5.32740951 L4.04379416,5.31955912 L4.05128629,5.3117166 L4.05879416,5.30377959 L4.06625873,5.29580321 L4.07368786,5.28778746 L4.08106975,5.27973234 L4.08840046,5.2716536 L4.09569574,5.26353155 L4.10295558,5.25537013 L4.11018786,5.24715753 L4.11736503,5.23891737 L4.15493193,5.19535827 L4.154932,5.195358 Z M3.827471,5.517114 L3.639117,5.266728 L3.5953217,5.2998343 L3.58786501,5.30541698 L3.58043588,5.31092092 L3.57292013,5.31642092 L3.56541226,5.32187368 L3.55789257,5.32726738 L3.5502784,5.33266895 L3.54272328,5.33798391 L3.53509336,5.34327919 L3.52741619,5.34855872 L3.5197469,5.35377919 L3.51206186,5.35894848 L3.50431777,5.36410202 L3.49655005,5.36922013 L3.48879808,5.37426737 L3.48098312,5.37929887 L3.47316029,5.38428706 L3.46528627,5.38924375 L3.45740832,5.3941532 L3.44951462,5.39901934 L3.44156974,5.40385792 L3.39340434,5.43287362 L3.55443934,5.70167262 L3.60391574,5.67184582 L3.61316377,5.66621196 L3.62243149,5.6605033 L3.63165984,5.65475133 L3.64082126,5.64897574 L3.6499748,5.64315291 L3.65912047,5.63725921 L3.66823858,5.63131827 L3.67726614,5.62537339 L3.68630945,5.61935764 L3.69534095,5.6132789 L3.70431733,5.60716866 L3.71322678,5.60104268 L3.72215198,5.59484189 L3.73105355,5.58858992 L3.73986851,5.58233008 L3.74872678,5.57597969 L3.75750631,5.56960567 L3.7662504,5.56320016 L3.77499843,5.55671985 L3.78366772,5.55022772 L3.82747082,5.51711352 L3.827471,5.517114 Z M3.439585,5.762421 L3.307805,5.478149 L3.2611239,5.49996 L3.2526554,5.50385764 L3.2441869,5.50771197 L3.2357184,5.51150725 L3.22715934,5.51529071 L3.21863178,5.51901512 L3.21009635,5.52268441 L3.20150974,5.52632614 L3.19287982,5.52993638 L3.18427746,5.53348756 L3.17563179,5.53699543 L3.16693888,5.54047968 L3.15827746,5.54390094 L3.14960817,5.54727102 L3.14086408,5.55061748 L3.1321318,5.55391669 L3.12336802,5.55716866 L3.11455306,5.56039307 L3.10579715,5.56355055 L3.09700187,5.56666079 L3.08812392,5.56975528 L3.03276172,5.58876318 L3.13365972,5.88538918 L3.19052192,5.86587738 L3.20083692,5.86228683 L3.21116372,5.85862541 L3.22147872,5.85491281 L3.23173072,5.85116084 L3.24196692,5.84735769 L3.25218742,5.84350336 L3.26237242,5.83960179 L3.27259682,5.83562935 L3.28274642,5.83161754 L3.29287242,5.82756636 L3.30297482,5.82345612 L3.31305752,5.81929864 L3.32311662,5.81509392 L3.33315202,5.81083408 L3.34319142,5.80651518 L3.35317961,5.80215691 L3.36312055,5.79775927 L3.37309693,5.79329077 L3.38300638,5.78878683 L3.39291977,5.78422384 L3.43958517,5.76242074 L3.439585,5.762421 Z M3.008298,5.92059 L2.9397862,5.614846 L2.88955,5.6261531 L2.88030591,5.62820034 L2.87106182,5.63020034 L2.86184922,5.63214522 L2.85258938,5.63404286 L2.84332954,5.63589719 L2.83404608,5.63770034 L2.82473899,5.63946412 L2.81544765,5.64117278 L2.80612088,5.64283813 L2.79674293,5.64446411 L2.7873886,5.64603891 L2.77805002,5.6475586 L2.76869963,5.64903104 L2.75928231,5.65046017 L2.74986892,5.65184993 L2.74045553,5.65318064 L2.73103033,5.6544641 L2.72162876,5.65570032 L2.7121327,5.65688536 L2.70262089,5.65803497 L2.64782559,5.66439717 L2.68289649,5.97572417 L2.73936889,5.96920055 L2.75042399,5.96786984 L2.76146339,5.96648008 L2.77252639,5.96503126 L2.78360119,5.96352339 L2.79462089,5.96195646 L2.80559329,5.96034622 L2.81657359,5.95867693 L2.82756969,5.95694858 L2.83856579,5.95516118 L2.84949889,5.95331866 L2.86040439,5.9514289 L2.87131779,5.94948008 L2.88221939,5.94747614 L2.89310919,5.94541315 L2.90396749,5.94329898 L2.91482969,5.94112575 L2.92566829,5.9388974 L2.93650289,5.93661394 L2.94727059,5.93428323 L2.95956589,5.93155882 L3.00829819,5.92059032 L3.008298,5.92059 Z M2.552625,5.9837278 L2.55174705,5.6704048 L2.49161715,5.67070795 L2.48193211,5.67071189 L2.47222739,5.67066071 L2.46247148,5.67055834 L2.45274313,5.67040874 L2.44301478,5.67020795 L2.43326675,5.66995598 L2.42353447,5.66964889 L2.41374313,5.66928669 L2.40396754,5.66888118 L2.39231794,5.66833 L2.37903054,5.66760952 L2.3714833,5.66715677 L2.3602825,5.66642842 L2.347125,5.66548354 L2.3337667,5.66442448 L2.320684,5.6632985 L2.3094596,5.66225519 L2.30468795,5.66179456 L2.25493595,5.65683787 L2.22390445,5.96867287 L2.28390835,5.97457051 L2.29703035,5.97575949 L2.30816025,5.97670437 L2.32334525,5.97790516 L2.33669175,5.97887367 L2.35217995,5.97988548 L2.36318785,5.98053902 L2.37865245,5.98136185 L2.39006975,5.98190122 L2.40146735,5.9823776 L2.41287675,5.98279493 L2.42428225,5.98314926 L2.43566415,5.98344847 L2.44707755,5.98368469 L2.45842795,5.98385792 L2.46977835,5.98397996 L2.48116415,5.98403508 L2.49248695,5.98403115 L2.55262475,5.983728 L2.552625,5.9837278 Z" id="_469636624" fill="#282840"></path>
                <g id="Group" fill="#4E4E6A">
                    <path d="M2.59541,1.61307 C2.009843,1.5839676 1.43386,1.789995 0.9993,2.183401 C0.562394,2.578929 0.302694,3.126964 0.273434,3.715691 C0.249245,4.202443 0.38658,4.683974 0.66367,5.084821 C0.941331,5.486494 1.342194,5.78416 1.80704,5.933809 L1.908658,5.9665216 L2.038859,5.5608956 L1.93741,5.5282342 C1.561989,5.4073762 1.238406,5.1670842 1.014162,4.8426792 C0.790209,4.5187032 0.679461,4.1296442 0.699012,3.7362792 C0.7226419,3.2607712 0.932079,2.8185352 1.284981,2.4990592 C1.636241,2.1810672 2.101599,2.0151302 2.574821,2.0386502 L2.681636,2.04395729 L2.7016636,1.61835929 L2.5954116,1.61307583 L2.59541,1.61307 Z" id="_469636792"></path>
                    <polygon id="_469636768" points="1.98787 2.89674 3.01493 1.86968 1.98787 0.842626"></polygon>
                </g>
            </g>
        </g>
    </g>
</svg>