<?xml version="1.0" encoding="UTF-8" standalone="no"?>
<svg width="63px" height="55px" viewBox="0 0 63 55" version="1.1" xmlns="http://www.w3.org/2000/svg" xmlns:xlink="http://www.w3.org/1999/xlink">
    <!-- Generator: Sketch 45.2 (43514) - http://www.bohemiancoding.com/sketch -->
    <title>upgradeGift</title>
    <desc>Created with Sketch.</desc>
    <defs></defs>
    <g id="Page-1" stroke="none" stroke-width="1" fill="none" fill-rule="evenodd">
        <g id="upgradeGift">
            <g id="Group" fill-rule="nonzero">
                <path d="M16.093,21.824 C14.833,20.562 12.788,20.562 11.529,21.824 L9.452,23.9 L9.45,23.898 L4.884,28.462 C3.624,29.724 1.579,29.726 0.32,28.462 L5.894,34.038 C7.154,35.3 9.199,35.298 10.458,34.036 L12.532,31.962 L12.534,31.962 L17.1,27.396 C18.36,26.136 20.405,26.136 21.666,27.398 L16.093,21.824 Z" id="Shape" fill="#F26606"></path>
                <path d="M46.907,21.824 C48.167,20.562 50.21,20.562 51.471,21.822 L53.547,23.9 L53.549,23.898 L58.115,28.462 C59.375,29.724 61.42,29.724 62.679,28.462 L57.105,34.036 C55.845,35.298 53.8,35.298 52.541,34.036 L53.215,34.714 L53.215,34.714 L45.899,27.398 C44.637,26.136 42.592,26.136 41.333,27.398 L46.907,21.824 Z" id="Shape" fill="#F26606"></path>
                <path d="M29.45,5.602 C24.82,0.853 18.827,-0.813 16.062,1.883 C15.103,2.82 14.667,4.166 14.691,5.716 C17.598,5.835 21.195,7.607 24.214,10.706 C27.235,13.803 28.916,17.444 28.961,20.353 C30.509,20.415 31.866,20.017 32.827,19.08 C35.591,16.383 34.079,10.35 29.45,5.602 Z" id="Shape" fill="#EAB818"></path>
                <path d="M15.132,3.228 C14.78,3.994 14.605,4.869 14.632,5.839 C17.54,5.921 21.159,7.648 24.218,10.708 C27.279,13.767 29.005,17.386 29.087,20.294 C30.056,20.321 30.933,20.144 31.696,19.794 C33.059,16.737 31.331,11.698 27.278,7.646 C23.225,3.594 18.188,1.865 15.132,3.228 Z" id="Shape" fill="#ED9015"></path>
                <path d="M24.218,10.708 C21.163,7.651 17.55,5.925 14.644,5.841 C14.732,8.745 16.458,12.357 19.513,15.413 C22.568,18.468 26.181,20.194 29.085,20.282 C29.001,17.376 27.274,13.763 24.218,10.708 Z" id="Shape" fill="#F26606"></path>
                <path d="M17.931,6.541 C18.71,8.643 20.12,10.852 22.097,12.828 C24.076,14.807 26.285,16.217 28.388,16.996 C27.605,14.894 26.197,12.685 24.218,10.709 C22.241,8.73 20.032,7.32 17.931,6.541 Z" id="Shape" fill="#DB4D07"></path>
                <path d="M33.612,5.537 C38.301,0.849 44.315,-0.74 47.048,1.99 C47.995,2.939 48.411,4.291 48.368,5.84 C45.458,5.922 41.841,7.649 38.782,10.709 C35.723,13.768 33.995,17.387 33.913,20.295 C32.362,20.338 31.013,19.92 30.065,18.973 C27.335,16.242 28.921,10.228 33.612,5.537 Z" id="Shape" fill="#EAB818"></path>
                <path d="M47.868,3.228 C48.218,3.994 48.395,4.871 48.368,5.839 C45.458,5.921 41.841,7.648 38.782,10.708 C35.723,13.767 33.995,17.386 33.913,20.294 C32.944,20.321 32.067,20.144 31.304,19.794 C29.939,16.737 31.669,11.698 35.722,7.646 C39.775,3.594 44.812,1.865 47.868,3.228 Z" id="Shape" fill="#ED9015"></path>
                <path d="M38.782,10.708 C41.837,7.651 45.45,5.925 48.356,5.839 C48.27,8.745 46.542,12.357 43.487,15.413 C40.432,18.468 36.819,20.194 33.913,20.28 C33.999,17.376 35.726,13.763 38.782,10.708 Z" id="Shape" fill="#F26606"></path>
                <path d="M45.069,6.541 C44.292,8.643 42.878,10.852 40.903,12.828 C38.924,14.807 36.715,16.215 34.614,16.996 C35.395,14.894 36.803,12.685 38.782,10.709 C40.759,8.732 42.968,7.32 45.069,6.541 Z" id="Shape" fill="#DB4D07"></path>
                <path d="M35.479,18.183 C35.479,20.382 33.696,22.162 31.499,22.162 L31.499,22.162 C29.302,22.164 27.522,20.383 27.522,18.185 L27.522,6.175 C27.522,3.978 29.301,2.198 31.499,2.196 L31.499,2.196 C33.696,2.196 35.479,3.977 35.478,6.175 L35.479,18.183 Z" id="Shape" fill="#EAB818"></path>
                <path d="M31.499,6.306 C29.302,6.304 27.522,8.087 27.522,10.285 L27.522,18.185 C27.522,20.382 29.301,22.164 31.499,22.162 C33.696,22.162 35.479,20.383 35.479,18.183 L35.477,10.285 C35.479,8.085 33.696,6.304 31.499,6.306 Z" id="Shape" fill="#ED9015"></path>
            </g>
            <g id="Group" transform="translate(5.000000, 13.000000)" fill-rule="nonzero">
                <rect id="Rectangle-path" fill="#652E90" x="0.056" y="0.246" width="52.887" height="10.965"></rect>
                <rect id="Rectangle-path" fill="#56267B" x="0.056" y="4.083" width="52.887" height="7.127"></rect>
                <rect id="Rectangle-path" fill="#EAB818" x="19.966" y="0.246" width="13.068" height="10.965"></rect>
                <rect id="Rectangle-path" fill="#ED9015" x="19.966" y="3.996" width="13.068" height="7.215"></rect>
            </g>
            <g id="Group" transform="translate(10.000000, 23.900000)" fill-rule="nonzero">
                <rect id="Rectangle-path" fill="#652E90" x="0.159" y="0.21" width="42.682" height="30.197"></rect>
                <polygon id="Shape" fill="#56267B" points="0.159 0.21 42.841 30.408 42.841 0.21"></polygon>
            </g>
            <g id="upgrade" transform="translate(12.000000, 29.000000)" fill="#40195E">
                <polygon id="Shape" fill-rule="nonzero" points="34.0879444 5.36527689 27.3380799 2.91967382 38.5276546 0.0451495952 37.699912 11.5733462"></polygon>
                <rect id="Rectangle-path" fill-rule="nonzero" transform="translate(28.971605, 10.781804) rotate(-45.000000) translate(-28.971605, -10.781804) " x="19.9793973" y="9.40851721" width="17.9844163" height="2.74657403"></rect>
                <polygon id="Shape" fill-rule="nonzero" points="22.4017241 19.9937457 6.49401677 11.595921 7.85602956 9.01486917 23.7637369 17.4126939"></polygon>
                <polygon id="Shape" fill-rule="nonzero" points="0 21.3181339 10.3543072 10.8961023 8.48059896 9.01486917 0 17.4954681"></polygon>
                <g id="Group" transform="translate(5.718949, 8.277426)">
                    <path d="M3.18304646,5.74904845 C1.75330928,5.74904845 0.59446967,4.59020884 0.59446967,3.16047166 C0.59446967,1.73073448 1.75330928,0.571894872 3.18304646,0.571894872 C4.61278364,0.571894872 5.77162325,1.73073448 5.77162325,3.16047166 C5.77162325,4.59020884 4.61278364,5.74904845 3.18304646,5.74904845 Z" id="Shape"></path>
                    <path d="M3.18304646,0.0300997301 C1.45231198,0.0300997301 0.0451495952,1.43726211 0.0451495952,3.1679966 C0.0451495952,3.52166842 0.105349055,3.86029039 0.210698111,4.18386249 C0.526745277,5.10190426 1.2491388,5.82429778 2.16718057,6.14034495 C2.48322774,6.245694 2.82937463,6.30589346 3.18304646,6.30589346 C3.53671829,6.30589346 3.88286519,6.245694 4.19891235,6.14034495 C5.11695412,5.82429778 5.83934764,5.10190426 6.15539481,4.18386249 C6.2682688,3.86781532 6.32094333,3.52166842 6.32094333,3.1679966 C6.32094333,1.43726211 4.91378094,0.0300997301 3.18304646,0.0300997301 Z M4.94388067,3.1679966 C4.94388067,4.13871289 4.15376276,4.92130588 3.19057139,4.92130588 C2.22738003,4.92130588 1.42973718,4.13118796 1.42973718,3.1679966 C1.42973718,3.1002722 1.43726211,3.02502288 1.44478705,2.95729848 C1.54261117,2.15965564 2.1747055,1.5275613 2.97234835,1.42973718 C3.04007274,1.42221225 3.11532207,1.41468732 3.18304646,1.41468732 C3.25077085,1.41468732 3.32602018,1.42221225 3.39374457,1.42973718 C4.19138742,1.5275613 4.82348175,2.15965564 4.92130588,2.95729848 C4.93635574,3.02502288 4.94388067,3.09274727 4.94388067,3.1679966 Z" id="Shape"></path>
                </g>
                <g id="Group" transform="translate(18.661833, 14.899366)">
                    <path d="M3.37869471,6.13282001 C1.85865834,6.13282001 0.6245694,4.89873108 0.6245694,3.37869471 C0.6245694,1.85865834 1.85865834,0.6245694 3.37869471,0.6245694 C4.89873108,0.6245694 6.13282001,1.85865834 6.13282001,3.37869471 C6.13282001,4.89873108 4.89873108,6.13282001 3.37869471,6.13282001 Z" id="Shape"></path>
                    <path d="M3.37869471,0.0376246627 C1.53508624,0.0376246627 0.0300997301,1.53508624 0.0300997301,3.37869471 C0.0300997301,3.75494133 0.0902991904,4.12366303 0.210698111,4.46228499 C0.541795142,5.44052622 1.31686319,6.21559427 2.29510442,6.5466913 C2.63372639,6.65956529 2.99492315,6.72728968 3.37869471,6.72728968 C3.75494133,6.72728968 4.12366303,6.65956529 4.46228499,6.5466913 C5.44052622,6.21559427 6.20806934,5.44052622 6.5466913,4.46228499 C6.66709022,4.12366303 6.72728968,3.76246627 6.72728968,3.37869471 C6.71976475,1.53508624 5.22230318,0.0376246627 3.37869471,0.0376246627 Z M5.25240291,3.37869471 C5.25240291,4.40961046 4.40961046,5.25240291 3.37869471,5.25240291 C2.34777895,5.25240291 1.50498651,4.40961046 1.50498651,3.37869471 C1.50498651,3.30344538 1.51251144,3.22819606 1.52003637,3.15294673 C1.62538543,2.30262935 2.30262935,1.62538543 3.15294673,1.52003637 C3.22819606,1.51251144 3.30344538,1.50498651 3.37869471,1.50498651 C3.45394403,1.50498651 3.52919336,1.51251144 3.60444268,1.52003637 C4.45476006,1.62538543 5.13200399,2.30262935 5.23735304,3.15294673 C5.24487797,3.22819606 5.25240291,3.30344538 5.25240291,3.37869471 Z" id="Shape"></path>
                </g>
            </g>
            <rect id="Rectangle-path" fill="#EAB818" fill-rule="nonzero" x="27.417" y="24.21" width="8.166" height="30.197"></rect>
            <polygon id="Shape" fill="#ED9015" fill-rule="nonzero" points="35.583 42.199 35.583 23.8999996 27.417 23.8999996 27.417 36.3193946"></polygon>
        </g>
    </g>
</svg>