<?xml version="1.0" encoding="UTF-8" standalone="no"?>
<svg width="105px" height="23px" viewBox="0 0 105 23" version="1.1" xmlns="http://www.w3.org/2000/svg" xmlns:xlink="http://www.w3.org/1999/xlink">
    <!-- Generator: Sketch 45.2 (43514) - http://www.bohemiancoding.com/sketch -->
    <title>Artboard</title>
    <desc>Created with Sketch.</desc>
    <defs></defs>
    <g id="Page-1" stroke="none" stroke-width="1" fill="none" fill-rule="evenodd">
        <g id="Artboard" fill-rule="nonzero" fill="#FFFFFF">
            <path d="M104.556338,6.64444444 L104.778169,7.07037037 L104.926056,7.4962963 L105,8.09259259 C105,8.34814815 104.852113,8.77407407 104.556338,9.28518519 L104.408451,9.54074074 L65.1443662,9.54074074 L65.1443662,10.3074074 L68.028169,10.3074074 L68.028169,13.2037037 L68.471831,13.6296296 C68.693662,13.8 68.7676056,14.1407407 68.7676056,14.6518519 L68.693662,14.9925926 L68.6197183,15.0777778 L68.6197183,15.2481481 L68.3978873,15.7592593 L53.3133803,15.7592593 L53.0915493,16.1851852 L53.3133803,16.3555556 L53.5352113,16.6111111 L53.3133803,17.2925926 L51.834507,17.2925926 L51.6866197,17.037037 L51.1690141,15.7592593 C50.9471831,15.0777778 50.8732394,14.5666667 51.0950704,14.1407407 C51.0950704,13.8 51.2429577,13.6296296 51.5387324,13.6296296 L51.6866197,13.6296296 C52.278169,13.6296296 52.6478873,13.7148148 52.7957746,13.9703704 C53.165493,13.9703704 53.5352113,13.8851852 54.0528169,13.6296296 L46.8802817,13.5444444 L45.9190141,13.8851852 L44.2183099,14.3962963 L42.443662,14.9074074 C41.9260563,15.0777778 41.6302817,15.162963 41.556338,15.2481481 L41.556338,18.2296296 L33.0528169,19.2518519 L33.0528169,16.1851852 C32.6091549,16.1851852 32.3133803,16.2703704 32.2394366,16.4407407 L31.7957746,16.9518519 L30.6866197,17.6333333 L28.9859155,17.8037037 C28.3204225,17.7185185 27.5809859,17.462963 26.7676056,16.8666667 L26.6197183,16.9518519 L26.3239437,16.9518519 L26.3239437,18.2296296 L26.1021127,19.9333333 L25.6584507,21.5518519 L25.1408451,22.4037037 L23.3661972,22.6592593 L20.7042254,22.3185185 L18.1901408,21.8074074 L16.8591549,21.2962963 L15.8239437,20.0185185 L14.7147887,18.8259259 L13.9753521,18.2296296 L9.16901408,18.2296296 L8.79929577,20.9555556 C8.79929577,21.2111111 8.72535211,21.2962963 8.57746479,21.2962963 L8.13380282,21.637037 L6.87676056,21.2962963 L4.36267606,21.2962963 L3.62323944,21.4666667 L2.51408451,21.7222222 L1.33098592,21.9777778 L0.443661972,22.1481481 L0.221830986,22.1481481 L0.073943662,22.062963 L0,21.2962963 L0,16.3555556 L0.221830986,12.6074074 L0.221830986,9.7962963 C0.221830986,9.54074074 0.443661972,9.28518519 0.961267606,9.02962963 L4.21478873,8.77407407 L5.17605634,8.77407407 L5.25,8.68888889 L5.39788732,8.6037037 L5.54577465,8.51851852 L5.8415493,8.26296296 L14.6408451,8.26296296 C14.8626761,8.26296296 15.0105634,8.43333333 15.2323944,8.6037037 L16.2676056,9.7962963 L26.25,9.7962963 L26.5457746,8.68888889 L26.693662,7.66666667 L26.693662,7.41111111 L26.7676056,7.41111111 L28.2464789,7.07037037 L29.4295775,6.81481481 L29.7992958,6.81481481 C29.7992958,6.72962963 29.8732394,6.64444444 30.0211268,6.55925926 L33.1267606,6.55925926 L33.1267606,5.53703704 L32.0176056,5.53703704 L31.056338,5.70740741 L29.2077465,5.96296296 L27.1373239,6.21851852 L25.2887324,6.04814815 L25.2147887,5.79259259 L25.2147887,5.70740741 L25.1408451,3.83333333 L25.1408451,2.72592593 C25.1408451,2.47037037 25.2147887,2.3 25.2887324,2.3 L25.3626761,2.21481481 L25.584507,2.21481481 L26.3239437,2.12962963 L28.0985915,1.95925926 L30.1690141,1.87407407 L31.6478873,1.95925926 L36.4542254,1.95925926 L37.4894366,1.87407407 L37.4894366,1.10740741 L37.415493,0.851851852 L37.415493,0.17037037 L40.5211268,0 L40.8908451,1.19259259 L40.8169014,1.27777778 C40.7429577,1.36296296 40.6690141,1.44814815 40.5211268,1.44814815 L40.5211268,1.7037037 L45.8450704,1.7037037 L47.6197183,1.36296296 L50.0598592,1.02222222 L52.3521127,0.851851852 L53.6091549,1.02222222 L53.7570423,1.10740741 L53.8309859,5.96296296 L53.6091549,5.96296296 L46.3626761,5.45185185 L46.3626761,5.62222222 L45.3274648,5.36666667 L43.5528169,5.45185185 L43.5528169,6.47407407 L104.556338,6.47407407 L104.556338,6.64444444 M31.4260563,15.0777778 C31.4260563,14.4814815 31.1302817,14.1407407 30.5387324,14.1407407 L28.4683099,14.1407407 C27.8767606,14.1407407 27.5809859,14.4814815 27.5809859,15.0777778 C27.5809859,15.7592593 27.8767606,16.1851852 28.4683099,16.1851852 L30.5387324,16.1851852 C31.1302817,16.1 31.4260563,15.7592593 31.4260563,15.0777778 M20.0387324,19.6777778 C20.6302817,19.8481481 21.3697183,19.762963 22.2570423,19.337037 L23.6619718,17.9740741 L24.0316901,16.6962963 C24.1056338,16.1 24.0316901,15.6740741 23.8838028,15.3333333 C23.7359155,14.8222222 23.2922535,14.4814815 22.4788732,14.2259259 L20.0387324,14.3962963 C19.5950704,14.6518519 19.2992958,14.8222222 19.1514085,15.0777778 L18.5598592,15.9296296 C18.1901408,16.6962963 18.1161972,17.462963 18.4119718,18.3148148 C18.7816901,19.1666667 19.2992958,19.5925926 20.0387324,19.6777778" id="Shape"></path>
        </g>
    </g>
</svg>