<?xml version="1.0" encoding="UTF-8" standalone="no"?>
<svg width="77px" height="29px" viewBox="0 0 77 29" version="1.1" xmlns="http://www.w3.org/2000/svg" xmlns:xlink="http://www.w3.org/1999/xlink">
    <!-- Generator: Sketch 45.2 (43514) - http://www.bohemiancoding.com/sketch -->
    <title>Artboard Copy</title>
    <desc>Created with Sketch.</desc>
    <defs></defs>
    <g id="Page-1" stroke="none" stroke-width="1" fill="none" fill-rule="evenodd">
        <g id="Artboard-Copy" fill-rule="nonzero" fill="#FFFFFF">
            <path d="M76.55,7.3 L60.95,7.3 L60.75,7.1 L60.45,7.2 L48.45,7.2 L48.25,7.5 L47.75,7.4 L42.75,7.4 L42.75,6.5 L40.95,6.5 L40.95,5.7 L39.95,5.7 L39.95,7.5 L40.25,7.7 L40.25,8.5 L39.95,8.7 L39.85,10.4 L28.45,10.4 L28.25,10.5 C28.05,10.6 27.95,10.8 27.85,11 L25.85,15.9 L25.35,16.5 L24.55,16.6 L19.35,16.8 L18.65,16.5 L17.35,16.1 L16.55,16 L15.75,16.2 L14.95,16.3 L14.55,16.2 L12.05,27 L11.95,28.2 L12.45,29 L1.75,28.9 L1.85,26.4 C2.05,24.4 2.35,22.5 2.85,20.7 C3.35,18.9 3.95,17.1 4.65,15.6 L5.35,14.1 L5.65,13.2 C5.75,12.8 5.65,12.5 5.35,12.2 C5.15,12 4.75,11.8 4.05,11.6 L2.75,11.1 L2.35,10.7 L2.45,9.6 L2.55,8.8 L0.65,8.6 L0.35,8.5 C0.15,8.3 0.05,8.1 0.05,7.8 C0.15,7.5 0.35,7.3 0.75,7.3 L1.25,7.5 L1.55,6.2 L3.05,7.1 L3.65,3.8 L4.75,1.8 L4.75,1 L5.55,1.5 L8.75,1.5 L9.05,1.8 L19.95,1.8 L19.95,2 L25.95,2 L25.95,1.8 L36.45,1.8 L36.45,0.5 L38.95,0.5 L39.25,0.8 L39.25,1.7 L39.65,1.6 L39.95,2.1 L39.95,2.9 L40.95,2.9 L40.95,2.2 L42.45,2.2 L42.45,0.8 L47.65,0.8 L47.95,0.6 L48.45,0.8 L60.45,0.8 L60.75,0.9 L61.15,0.7 L76.45,0.7 L76.75,1 L77.05,2.1 L77.15,3.9 L76.95,5.9 L76.65,6.9 L76.55,7.3 M25.55,10.5 L19.85,10.5 L18.65,11.8 L18.05,12.6 C17.85,13 17.65,13.4 17.65,13.9 L17.75,14.9 L17.95,15.4 L17.55,15.7 L17.15,14.8 C16.85,14.2 16.75,13.7 16.75,13.3 C16.85,12.6 17.05,12 17.55,11.4 L18.15,10.8 L17.35,11 C16.75,11.2 16.35,11.4 16.05,11.7 C15.65,12.1 15.45,12.5 15.35,13 C15.25,13.5 15.25,14 15.45,14.4 L16.35,15.4 L17.65,15.9 L19.15,16 L20.25,16.1 L22.65,16.2 L24.85,16.1 L25.85,13.8 L26.65,11.7 L26.65,11.4 L26.55,10.9 L25.95,10.5 L25.55,10.5" id="Shape"></path>
        </g>
    </g>
</svg>