<?xml version="1.0" encoding="UTF-8"?>
<svg width="541px" height="250px" viewBox="0 0 541 250" version="1.1" xmlns="http://www.w3.org/2000/svg" xmlns:xlink="http://www.w3.org/1999/xlink">
    <!-- Generator: Sketch 48.2 (47327) - http://www.bohemiancoding.com/sketch -->
    <title>logomark</title>
    <desc>Created with Sketch.</desc>
    <defs>
        <linearGradient x1="52.1953648%" y1="104.076956%" x2="48.2337426%" y2="2.32598357%" id="linearGradient-1">
            <stop stop-color="#1979DE" offset="0%"></stop>
            <stop stop-color="#FC2B6A" offset="100%"></stop>
        </linearGradient>
        <linearGradient x1="112378%" y1="28890.0611%" x2="111631%" y2="16435.0032%" id="linearGradient-2">
            <stop stop-color="#1979DE" offset="0%"></stop>
            <stop stop-color="#FC2B6A" offset="100%"></stop>
        </linearGradient>
        <linearGradient x1="126930%" y1="43851.1635%" x2="126183%" y2="24773.1685%" id="linearGradient-3">
            <stop stop-color="#1979DE" offset="0%"></stop>
            <stop stop-color="#FC2B6A" offset="100%"></stop>
        </linearGradient>
    </defs>
    <g id="Page-1" stroke="none" stroke-width="1" fill="none" fill-rule="evenodd">
        <g id="logomark" transform="translate(0.000000, -1.000000)" fill-rule="nonzero">
            <path d="M103.23,130.7 C106.59,129.23 116.85,120 146.23,111.18 C152.01,109.5 166.81,101.44 167.77,103.12 C170.06,107.12 154.77,134.18 150.2,136.28 C132.13,144.58 133.3,149.28 124.2,153.2 C109.5,159.5 74.62,168 61.7,173.05 C55.5,175.46 55.97,174.16 54.07,177.84 C43.7,197.89 51.3,184.66 37.96,213.02 C35.65,217.86 29.44,228.16 23.14,239.6 C19.25,246.54 11.22,249.4 5.54,250.87 C-0.87,246.87 -0.11,241.71 1.78,232.99 C3.67,224.27 -0.93,213.81 2.44,205.99 C5.17,199.79 16.17,194.99 20.89,184.99 C26.67,172.6 29.23,163.99 30.89,160.3 C36.14,148.74 34.34,139.74 34.24,135.12 C34.13,132.81 39.06,130.12 42.95,125.68 C45.68,122.53 54.18,106.91 68.05,80.02 C65.42,79.28 60.49,83.69 54.44,86.81 C53.89,87.09 53.76,89.2 52.29,89.94 C51.02,90.67 50.65,87.78 48.04,88.49 C44.54,89.44 31.37,95.09 29.38,95.3 C28.01,95.52 33.22,82.71 32.38,80.95 C31.05,78.01 36.38,70.28 38.67,68.95 C53.27,60.02 76.45,55.07 82.86,52.13 C92.21,47.92 122.31,39.18 154.25,26.26 C166.25,21.32 176.25,21.34 189,19.57 C186.63,19.9 191.12,45.12 173.68,50.93 C149.12,59.12 137.91,63.88 139.59,63.25 C138.33,63.78 110.79,73.54 93.35,81.52 C86.74,97.07 77.35,124.52 76.41,126.8 C73.6110204,129.431365 71.614043,132.801265 70.65,136.52 C84.57,131.17 102.6,131.02 103.23,130.7 Z" id="Shape" fill="url(#linearGradient-1)"></path>
            <path d="M269.2,126.88 C257.89,147.97 249.99,174.34 235.44,204.18 C232.91,209.27 235.44,226.33 228.51,238.38 C224.27,245.68 207.02,249.38 200.83,250.89 C193.83,246.69 189.97,239.22 192.04,230.04 C194.11,220.86 200.62,204.86 204.29,196.68 C207.29,190.15 214,178.32 219.16,167.82 C225.46,154.77 228.25,145.7 230.09,141.82 C235.82,129.66 233.86,120.19 233.74,115.33 C233.63,112.9 239,110.04 243.25,105.4 C246.25,102.08 248,96 263.13,67.7 C260.26,66.93 221.57,81.25 214.96,84.53 C214.37,84.83 214.22,87.05 212.61,87.82 C211.24,88.6 210.83,85.56 207.98,86.3 C204.16,87.3 201.9,91.58 199.73,91.8 C198.24,92.02 198.87,75.15 198,73.3 C196.55,70.19 200.62,60.39 203.14,58.95 C219.07,49.56 279.86,31.05 286.86,27.95 C297.06,23.53 287.22,28.78 322.08,15.19 C335.15,9.99 359.36,2.87 373.27,1 C370.69,1.35 379.04,22.89 360.01,29 C333.21,37.62 308.89,47.09 298.23,64.45 C287.85,81.36 290.53,95.39 289.5,97.82 C289.39,98.04 271.28,122.98 269.2,126.88 Z" id="Shape" fill="url(#linearGradient-2)"></path>
            <path d="M420.72,188.11 C420.46,190.11 426.57,161.57 432.89,102 C432.89,101.89 404.46,149.45 399.95,157.69 C394.15,168.27 388.46,174.11 386.95,176.78 C385.44,179.45 384.31,186.96 378.77,196.99 C374.39,204.78 366.2,209.2 363.5,214.1 C350.61,237.59 341.78,248.42 339.5,250.87 C335.5,249.76 334.17,250.43 334.05,250.43 C321.8,247.32 320.4,240.75 321.43,228.95 C322.43,216.37 313.58,203.95 315.43,193.84 C318.23,177.21 326.36,161.06 329.54,143.21 C332.54,126.52 333.84,109.08 337.15,91.32 C337.92,87.2 333.95,77.18 336.66,70.95 C337.3,69.5 357.81,82.18 357.81,84.52 C358.07,92.32 360.24,100.15 359.47,107.6 C358.82,113.95 351.59,138.89 346.47,182.99 C348.92,182.66 350.61,179.09 353.32,174.42 C366.32,151.75 383.99,130.67 395.32,109.6 C407.72,86.46 411.88,85.09 422.2,63.87 C425.3,57.3 423.68,50.01 427.03,44.78 C429.74,40.66 437.32,41.04 442.21,42.48 C446.21,43.6 444.29,46.48 444.81,50.16 C446.1,60.62 461.2,61.23 459.01,88.16 C458.75,90.5 450.64,168.51 452.45,164.83 C459.51,149.7 473.45,124.18 481.38,107.28 C488.51,91.99 492.53,76.54 500.38,59.8 C507.57,44.4 506.8,69.08 514.56,52.45 C515.46,50.67 508.13,41.37 512.9,31.02 C516.25,23.67 521.43,18.42 523.75,13.63 C527.87,5.39 533.75,-0.85 538.47,1.49 C542.85,3.72 537.47,10.25 535.84,16.71 C534.55,22.28 534.95,29.41 531.98,37.54 C525.77,55.09 537.12,50.91 528.16,72.25 C520.65,90.11 505.16,106.95 495.78,127.46 C487.51,145.46 484.36,166.46 474.61,186.46 C464.86,206.46 451.95,217.82 448.61,224.94 C443.2,236.53 442.29,243.47 430.3,246.48 C422.45,231.46 418.27,213.61 420.72,188.11 Z" id="Shape" fill="url(#linearGradient-3)"></path>
        </g>
    </g>
</svg>