<?xml version="1.0" encoding="UTF-8" standalone="no"?>
<!-- Generator: Adobe Illustrator 22.1.0, SVG Export Plug-In . SVG Version: 6.00 Build 0)  -->

<svg
   xmlns:dc="http://purl.org/dc/elements/1.1/"
   xmlns:cc="http://creativecommons.org/ns#"
   xmlns:rdf="http://www.w3.org/1999/02/22-rdf-syntax-ns#"
   xmlns:svg="http://www.w3.org/2000/svg"
   xmlns="http://www.w3.org/2000/svg"
   xmlns:sodipodi="http://sodipodi.sourceforge.net/DTD/sodipodi-0.dtd"
   xmlns:inkscape="http://www.inkscape.org/namespaces/inkscape"
   version="1.1"
   id="Layer_1"
   x="0px"
   y="0px"
   viewBox="0 0 857 306.43121"
   xml:space="preserve"
   sodipodi:docname="logoh.svg"
   width="857"
   height="306.43121"
   inkscape:version="0.92.3 (2405546, 2018-03-11)"><metadata
   id="metadata31"><rdf:RDF><cc:Work
       rdf:about=""><dc:format>image/svg+xml</dc:format><dc:type
         rdf:resource="http://purl.org/dc/dcmitype/StillImage" /><dc:title></dc:title></cc:Work></rdf:RDF></metadata><defs
   id="defs29" /><sodipodi:namedview
   pagecolor="#ffffff"
   bordercolor="#666666"
   borderopacity="1"
   objecttolerance="10"
   gridtolerance="10"
   guidetolerance="10"
   inkscape:pageopacity="0"
   inkscape:pageshadow="2"
   inkscape:window-width="1025"
   inkscape:window-height="580"
   id="namedview27"
   showgrid="false"
   inkscape:zoom="0.236"
   inkscape:cx="333.67826"
   inkscape:cy="-20.199988"
   inkscape:window-x="688"
   inkscape:window-y="204"
   inkscape:window-maximized="0"
   inkscape:current-layer="Layer_1" />
<style
   type="text/css"
   id="style2">
	.st0{fill:#1C84E2;}
	.st1{fill:#F30E60;}
</style>
<g
   id="g24"
   transform="matrix(1.5222613,0,0,1.5222613,-253.18515,-423.94977)">
	<g
   id="g10">
		<path
   class="st0"
   d="m 224.4,278.5 h 20.1 l 5.5,57.9 54.8,-57.9 h 20.1 L 233.6,375 Z"
   id="path4"
   inkscape:connector-curvature="0"
   style="fill:#1c84e2" />
		<path
   class="st0"
   d="m 311.4,375 c -5.7,0 -9.7,-1.9 -12.1,-5.6 -2.3,-3.8 -2.3,-8.4 -0.1,-13.7 l 24.4,-57.9 c 2.2,-5.3 6.1,-9.8 11.5,-13.6 5.6,-3.8 11.2,-5.7 16.7,-5.7 h 60.3 c 5.6,0 9.5,1.9 11.8,5.7 2.4,3.8 2.5,8.3 0.4,13.6 l -4,9.6 h -20.2 c 1.1,-2.6 1,-4.9 -0.2,-6.8 -1.2,-1.9 -3.2,-2.9 -5.9,-2.9 h -40.3 c -2.8,0 -5.6,1 -8.4,2.9 -2.7,1.9 -4.6,4.2 -5.7,6.8 L 323.4,346 c -1.1,2.7 -1.2,5 -0.1,6.9 1.2,1.8 3.3,2.7 6.1,2.7 h 40.5 c 2.7,0 5.5,-0.9 8.2,-2.7 2.8,-1.9 4.8,-4.2 5.9,-6.9 l 4,-9.6 h -40.4 l 8.1,-19.3 h 60.5 l -15.9,38.6 c -2.2,5.4 -6.1,10 -11.7,13.7 -5.6,3.7 -11.1,5.6 -16.6,5.6 z"
   id="path6"
   inkscape:connector-curvature="0"
   style="fill:#1c84e2" />
		<path
   class="st0"
   d="m 419.7,375 c -5.7,0 -9.7,-1.9 -12.1,-5.6 -2.3,-3.8 -2.4,-8.4 -0.2,-13.7 l 23.9,-57.9 c 2.2,-5.3 6,-9.8 11.4,-13.6 5.6,-3.8 11.1,-5.7 16.7,-5.7 h 60.3 c 5.6,0 9.5,1.9 11.8,5.7 2.4,3.8 2.6,8.3 0.5,13.6 l -23.4,57.9 c -2.2,5.4 -6,10 -11.6,13.7 -5.5,3.7 -11,5.6 -16.5,5.6 z m 58.5,-19.3 c 2.7,0 5.5,-0.9 8.2,-2.7 2.8,-1.9 4.7,-4.2 5.8,-6.9 l 15.7,-38.6 c 1.1,-2.6 1,-4.9 -0.2,-6.8 -1.2,-1.9 -3.2,-2.9 -5.9,-2.9 h -40.3 c -2.8,0 -5.6,1 -8.4,2.9 -2.7,1.9 -4.5,4.2 -5.6,6.8 l -15.8,38.6 c -1.1,2.7 -1.1,5 0,6.9 1.3,1.8 3.3,2.7 6.2,2.7 z"
   id="path8"
   inkscape:connector-curvature="0"
   style="fill:#1c84e2" />
	</g>
	<g
   id="g22">
		<path
   class="st1"
   d="m 180.4,479.8 c -5.7,0 -9.8,-1.9 -12.2,-5.6 -2.4,-3.8 -2.5,-8.4 -0.3,-13.7 l 23.4,-57.9 c 2.1,-5.3 5.9,-9.8 11.3,-13.6 5.5,-3.8 11.1,-5.7 16.6,-5.7 h 60.3 c 5.6,0 9.5,1.9 11.9,5.7 2.5,3.8 2.7,8.3 0.6,13.6 l -3.8,9.6 H 268 c 1,-2.6 0.9,-4.9 -0.3,-6.8 -1.2,-1.9 -3.2,-2.9 -5.9,-2.9 h -40.3 c -2.8,0 -5.6,1 -8.4,2.9 -2.7,1.9 -4.5,4.2 -5.6,6.8 L 192,450.8 c -1.1,2.7 -1.1,5 0.1,6.9 1.3,1.8 3.3,2.7 6.2,2.7 h 40.5 c 2.7,0 5.5,-0.9 8.2,-2.7 2.8,-1.9 4.7,-4.2 5.8,-6.9 H 273 l -3.8,9.6 c -2.1,5.4 -6,10 -11.4,13.7 -5.5,3.7 -11,5.6 -16.5,5.6 h -60.9 z"
   id="path12"
   inkscape:connector-curvature="0"
   style="fill:#f30e60" />
		<path
   class="st1"
   d="m 268.4,479.8 38.1,-96.5 H 387 c 5.6,0 9.5,1.9 11.9,5.7 2.5,3.8 2.8,8.3 0.7,13.6 l -7.5,19.3 c -2.1,5.4 -5.9,10 -11.3,13.7 -5.4,3.7 -10.9,5.6 -16.4,5.6 l 25.6,38.6 h -30.4 l -38.1,-57.9 h 40.4 c 2.7,0 5.4,-0.9 8.1,-2.7 2.7,-1.9 4.6,-4.2 5.7,-6.9 1,-2.6 0.9,-4.9 -0.4,-6.8 -1.3,-1.9 -3.2,-2.9 -6,-2.9 H 319 l -30.3,77.2 z"
   id="path14"
   inkscape:connector-curvature="0"
   style="fill:#f30e60" />
		<path
   class="st1"
   d="m 396.9,479.8 c -5.7,0 -9.8,-1.9 -12.3,-5.6 -2.4,-3.8 -2.6,-8.4 -0.6,-13.7 l 29.8,-77.2 H 434 l -26,67.5 c -1,2.7 -1,5 0.2,6.9 1.3,1.8 3.4,2.7 6.2,2.7 h 40.5 c 2.7,0 5.5,-0.9 8.1,-2.7 2.7,-1.9 4.6,-4.2 5.6,-6.9 l 25.6,-67.5 h 20.1 l -29.1,77.2 c -2,5.4 -5.8,10 -11.2,13.7 -5.4,3.7 -10.9,5.6 -16.4,5.6 z"
   id="path16"
   inkscape:connector-curvature="0"
   style="fill:#f30e60" />
		<path
   class="st1"
   d="m 505.2,479.8 c -5.7,0 -9.8,-1.9 -12.3,-5.6 -2.5,-3.8 -2.7,-8.4 -0.7,-13.7 l 3.6,-9.6 H 516 c -1,2.7 -0.9,5 0.2,6.9 1.3,1.8 3.4,2.7 6.3,2.7 H 563 c 2.7,0 5.4,-0.9 8.1,-2.7 2.7,-1.9 4.6,-4.2 5.6,-6.9 1,-2.6 0.8,-4.9 -0.5,-6.8 -1.3,-1.9 -3.3,-2.9 -6,-2.9 h -50.5 c -5.7,0 -9.8,-1.9 -12.3,-5.6 -2.5,-3.8 -2.7,-8.4 -0.7,-13.7 l 7.3,-19.3 c 2,-5.3 5.7,-9.8 10.9,-13.6 5.4,-3.8 10.9,-5.7 16.5,-5.7 h 60.3 c 5.6,0 9.6,1.9 12,5.7 2.6,3.8 2.9,8.3 1,13.6 l -3.6,9.6 H 591 c 1,-2.6 0.8,-4.9 -0.5,-6.8 -1.3,-1.9 -3.3,-2.9 -6,-2.9 h -40.3 c -2.8,0 -5.6,1 -8.3,2.9 -2.6,1.9 -4.4,4.2 -5.4,6.8 -1,2.7 -0.9,5 0.2,6.9 1.3,1.8 3.4,2.7 6.2,2.7 h 50.4 c 5.6,0 9.6,1.9 12.1,5.7 2.6,3.8 2.9,8.3 1,13.6 l -7.1,19.3 c -2,5.4 -5.7,10 -11.1,13.7 -5.4,3.7 -10.8,5.6 -16.3,5.6 h -60.7 z"
   id="path18"
   inkscape:connector-curvature="0"
   style="fill:#f30e60" />
		<path
   class="st1"
   d="m 593.2,479.8 35.5,-96.5 h 20.1 l -14.1,38.6 h 60.5 l 14,-38.6 h 20.1 l -34.7,96.5 h -20.3 l 14,-38.6 h -60.6 l -14.1,38.6 z"
   id="path20"
   inkscape:connector-curvature="0"
   style="fill:#f30e60" />
	</g>
</g>
</svg>