<svg id="Layer_1" data-name="Layer 1" xmlns="http://www.w3.org/2000/svg" viewBox="0 0 1782.09 292"><defs><style>.cls-1{fill:#fff;}.cls-2{fill:#cfdee8;}</style></defs><title>Welcome-SVG</title><path class="cls-1" d="M192.32,457.69H143.78L102,178.31h47.35l29.2,215.9s56.82-125.14,78.92-174.86H295.7l29.2,174.59,90.76-215.63h47l-120,279.38H294.12L268.48,286Z" transform="translate(-101.96 -172)"/><path class="cls-2" d="M214.86,333H239l-51.82,116.8H150.55L133.06,333h29.25l12.07,89.28,11.28-24.86C185.94,396.86,199,368.19,214.86,333Z" transform="translate(-101.96 -172)"/><polygon class="cls-2" points="285.68 161.03 235.53 277.83 198.94 277.83 181.49 161.03 204.79 161.03 219.67 249.98 257.11 161.03 285.68 161.03"/><path class="cls-1" d="M660.33,223.69H521.83l-10.26,71.42H639l-6.31,45.78H505.26l-9.87,71H633.9l-6.32,45.77H443.3l39.07-279.77H666.64Z" transform="translate(-101.96 -172)"/><polygon class="cls-2" points="522.92 247.78 518.77 277.83 350.38 277.83 366.69 161.03 396.46 161.03 384.41 247.78 522.92 247.78"/><path class="cls-1" d="M842.25,457.69H669.42l39.07-279.38h45.37L721.11,411.92H848.57Z" transform="translate(-101.96 -172)"/><polygon class="cls-2" points="737.6 247.78 733.45 277.83 576.5 277.83 592.83 161.03 622.28 161.03 610.12 247.78 737.6 247.78"/><path class="cls-1" d="M999.31,175.55c40.65,0,80.11,20.92,93.92,63.93l-43.41,20.12c-9.86-25.25-33.54-38.28-58-38.28-30.77,0-63.92,14.6-67.87,44.2l-14.6,105c-4.34,29.6,24.47,44.2,55.25,44.2,24.86,0,52.08-12.63,68.66-37.88l38.27,18.94c-26.83,43.4-72.21,64.71-113.25,64.71-53.27,0-103-30-94.3-90l14.59-105C886.85,205.94,944.86,175.55,999.31,175.55Z" transform="translate(-101.96 -172)"/><path class="cls-2" d="M1060,398.82a129.53,129.53,0,0,1-43.56,38.64,122.68,122.68,0,0,1-58.21,15.13,119.45,119.45,0,0,1-41.67-7.18c-13-4.9-23.47-11.91-31.23-20.87-12.1-14-16.69-31.79-13.63-52.93L877.11,333h29.51l-5.06,36.34c-1.83,12.58,1.32,24,9.13,33.05,11,12.78,30.69,20.12,53.9,20.12,27.36,0,54-13.54,71.17-35.74Z" transform="translate(-101.96 -172)"/><path class="cls-1" d="M1240,172c56.43,0,109.3,30,100.62,90.36l-15.39,110.88C1316.58,433.62,1255.42,464,1199,464c-56.82,0-108.51-30.38-99.83-90.76l15.39-110.88C1123.23,202,1183.21,172,1240,172Zm-95.49,201.24c-4.34,30,26.83,45.38,60.77,45.38,34.32,0,69.84-15.39,74.57-45.38l15.39-110.88c4.34-32-27.62-45.37-61.55-45.37-33.94.39-69.45,14.2-73.79,45.37Z" transform="translate(-101.96 -172)"/><path class="cls-2" d="M1293.4,333l-5.76,41.44c-5.64,35.73-46.64,52-82.34,52-25.4,0-47.56-8.07-59.26-21.59-7.86-9.08-11.07-20.41-9.28-32.73l5.42-39.13h-29.51l-5.73,41.33c-3,20.8,1.61,38.42,13.69,52.35,8.12,9.38,19.3,16.74,33.21,21.87,13.42,4.95,29,7.56,45.15,7.56,27.67,0,55.66-7.82,76.78-21.48,16.46-10.64,37.06-30.12,41.71-62.5l5.44-39.13Z" transform="translate(-101.96 -172)"/><path class="cls-1" d="M1404.59,457.69h-45.38l39.07-279.38h50.9l51.3,176.28,103.38-176.28h51.3l-39.07,279.38h-45.77l27.91-198.77L1510.74,419h-35.91l-44.48-161.28Z" transform="translate(-101.96 -172)"/><polygon class="cls-2" points="1282.62 161.03 1310.77 161.03 1295.72 277.83 1266.29 277.83 1282.62 161.03"/><polygon class="cls-2" points="1420.28 161.03 1446.82 161.03 1404.12 239.16 1378.86 239.16 1357.31 161.03 1384.07 161.03 1396.08 202.29 1420.28 161.03"/><polygon class="cls-2" points="1523.63 161.03 1507.3 277.83 1477.4 277.83 1493.8 161.03 1523.63 161.03"/><path class="cls-1" d="M1877.73,223.69h-138.5L1729,295.11h127.45l-6.31,45.78H1722.66l-9.87,71H1851.3L1845,457.69H1660.7l39.07-279.77H1884Z" transform="translate(-101.96 -172)"/><polygon class="cls-2" points="1740.32 247.78 1736.17 277.83 1567.78 277.83 1584.09 161.03 1613.86 161.03 1601.81 247.78 1740.32 247.78"/></svg>