<?xml version="1.0" encoding="UTF-8" standalone="no"?>
<svg width="657px" height="53px" viewBox="0 0 657 53" version="1.1" xmlns="http://www.w3.org/2000/svg" xmlns:xlink="http://www.w3.org/1999/xlink">
    <!-- Generator: Sketch 45.2 (43514) - http://www.bohemiancoding.com/sketch -->
    <title>Artboard</title>
    <desc>Created with Sketch.</desc>
    <defs></defs>
    <g id="Page-1" stroke="none" stroke-width="1" fill="none" fill-rule="evenodd">
        <g id="Artboard" fill="#009688">
            <path d="M40.512004,18.952 L48.144004,9.808 C43.104004,4.48 35.256004,1.168 27.768004,1.168 C12.360004,1.168 0.768004028,12.112 0.768004028,26.656 C0.768004028,41.488 12.072004,52.576 27.264004,52.576 C34.752004,52.576 42.816004,48.904 48.216004,43.216 L40.512004,34.936 C36.984004,38.536 32.160004,40.84 27.984004,40.84 C20.208004,40.84 14.304004,34.648 14.304004,26.512 C14.304004,18.448 20.208004,12.328 27.984004,12.328 C32.376004,12.328 37.200004,14.92 40.512004,18.952 Z M103.512003,17.08 L108.480003,6.64 C103.224003,3.256 95.7360034,0.952 88.3200034,0.952 C76.1520034,0.952 68.1600034,6.928 68.1600034,16.36 C68.1600034,34.216 94.7280034,29.032 94.7280034,37.6 C94.7280034,40.264 92.2800034,41.704 88.3920034,41.704 C83.1360034,41.704 75.2880034,38.536 70.1040034,34.072 L64.9920034,44.368 C71.0400034,49.336 79.8240034,52.432 88.2480034,52.432 C99.4800034,52.432 108.552003,47.176 108.552003,36.88 C108.552003,18.736 81.9840034,23.488 81.9840034,15.136 C81.9840034,12.832 84.0720034,11.68 87.2400034,11.68 C91.4160034,11.68 98.1840034,14.056 103.512003,17.08 Z M134.040003,18.736 C130.440003,18.736 127.920003,21.256 127.920003,24.928 C127.920003,28.6 130.440003,31.192 134.040003,31.192 C137.640003,31.192 140.232003,28.6 140.232003,24.928 C140.232003,21.256 137.640003,18.736 134.040003,18.736 Z M134.040003,40.12 C130.440003,40.12 127.920003,42.64 127.920003,46.312 C127.920003,49.984 130.440003,52.576 134.040003,52.576 C137.640003,52.576 140.232003,49.984 140.232003,46.312 C140.232003,42.64 137.640003,40.12 134.040003,40.12 Z M196.104002,38.968 C193.080002,40.48 189.912002,41.344 187.392002,41.344 C179.184002,41.344 172.992002,35.08 172.992002,26.8 C172.992002,18.592 179.112002,12.328 187.248002,12.328 C191.856002,12.328 196.968002,14.488 200.568002,17.872 L208.056002,8.656 C202.872002,4.048 194.880002,1.168 187.320002,1.168 C171.336002,1.168 159.456002,12.112 159.456002,26.8 C159.456002,41.488 171.048002,52.576 186.456002,52.576 C193.512002,52.576 202.080002,49.84 207.480002,46.096 L207.480002,26.224 L196.104002,26.224 L196.104002,38.968 Z M255.144001,1.168 C270.768001,1.168 282.432001,12.112 282.432001,26.728 C282.432001,41.488 270.768001,52.576 255.144001,52.576 C239.520001,52.576 227.856001,41.488 227.856001,26.728 C227.856001,12.04 239.520001,1.168 255.144001,1.168 Z M255.288001,12.4 C247.728001,12.4 241.392001,18.592 241.392001,26.8 C241.392001,35.008 247.800001,41.344 255.288001,41.344 C262.848001,41.344 268.896001,35.008 268.896001,26.8 C268.896001,18.592 262.848001,12.4 255.288001,12.4 Z M377.472,52 L374.016,43.072 L352.2,43.072 L348.672,52 L335.136,52 L356.808,1.528 L370.344,1.528 L391.512,52 L377.472,52 Z M356.16,32.992 L370.128,32.992 L363.216,14.992 L356.16,32.992 Z M433.127999,1.528 C446.015999,1.528 453.431999,8.008 453.431999,19.24 C453.431999,31.12 446.015999,38.032 433.127999,38.032 L424.127999,38.032 L424.127999,52 L410.951999,52 L410.951999,1.528 L433.127999,1.528 Z M432.479999,27.52 C437.807999,27.52 440.903999,24.784 440.903999,19.672 C440.903999,14.704 437.807999,12.04 432.479999,12.04 L424.127999,12.04 L424.127999,27.52 L432.479999,27.52 Z M474.815999,1.528 L474.815999,52 L487.991999,52 L487.991999,1.528 L474.815999,1.528 Z M585.695997,18.952 L593.327997,9.808 C588.287997,4.48 580.439997,1.168 572.951997,1.168 C557.543997,1.168 545.951997,12.112 545.951997,26.656 C545.951997,41.488 557.255997,52.576 572.447997,52.576 C579.935997,52.576 587.999997,48.904 593.399997,43.216 L585.695997,34.936 C582.167997,38.536 577.343997,40.84 573.167997,40.84 C565.391997,40.84 559.487997,34.648 559.487997,26.512 C559.487997,18.448 565.391997,12.328 573.167997,12.328 C577.559997,12.328 582.383997,14.92 585.695997,18.952 Z M636.095997,1.528 C648.983997,1.528 656.399997,8.008 656.399997,19.24 C656.399997,31.12 648.983997,38.032 636.095997,38.032 L627.095997,38.032 L627.095997,52 L613.919997,52 L613.919997,1.528 L636.095997,1.528 Z M635.447997,27.52 C640.775997,27.52 643.871997,24.784 643.871997,19.672 C643.871997,14.704 640.775997,12.04 635.447997,12.04 L627.095997,12.04 L627.095997,27.52 L635.447997,27.52 Z" id="CS:GO-API-CP"></path>
        </g>
    </g>
</svg>