<?xml version="1.0" encoding="UTF-8" standalone="no"?>
<svg width="63px" height="55px" viewBox="0 0 63 55" version="1.1" xmlns="http://www.w3.org/2000/svg" xmlns:xlink="http://www.w3.org/1999/xlink">
    <!-- Generator: Sketch 45.2 (43514) - http://www.bohemiancoding.com/sketch -->
    <title>gift</title>
    <desc>Created with Sketch.</desc>
    <defs></defs>
    <g id="Page-1" stroke="none" stroke-width="1" fill="none" fill-rule="evenodd">
        <g id="gift">
            <g id="Group" fill-rule="nonzero">
                <g transform="translate(0.000000, 15.000000)" id="Shape">
                    <g>
                        <path d="M16.093,6.824 C14.833,5.562 12.788,5.562 11.529,6.824 L9.452,8.9 L9.45,8.898 L4.884,13.462 C3.624,14.724 1.579,14.726 0.32,13.462 L5.894,19.038 C7.154,20.3 9.199,20.298 10.458,19.036 L12.532,16.962 L12.534,16.962 L17.1,12.396 C18.36,11.136 20.405,11.136 21.666,12.398 L16.093,6.824 Z" fill="#F26606"></path>
                        <path d="M25.913,1.585 C24.651,0.325 22.608,0.325 21.347,1.587 L19.271,3.661 L19.271,3.66 L16.101,6.832 L21.667,12.398 L26.921,7.162 C28.181,5.9 30.226,5.9 31.485,7.16 L25.913,1.585 Z" fill="#1BC1A9"></path>
                        <path d="M28.837,4.511 L25.913,1.585 C24.651,0.325 22.608,0.325 21.347,1.587 L19.47,3.464 C19.976,4.116 20.527,4.763 21.144,5.38 C22.505,6.741 23.976,7.821 25.449,8.628 L26.922,7.161 C27.686,6.395 28.738,6.102 29.731,6.265 C29.476,5.683 29.183,5.095 28.837,4.511 Z" fill="#0CAFAF"></path>
                    </g>
                    <g transform="translate(31.000000, 0.000000)">
                        <path d="M15.907,6.824 C17.167,5.562 19.21,5.562 20.471,6.822 L22.547,8.9 L22.549,8.898 L27.115,13.462 C28.375,14.724 30.42,14.724 31.679,13.462 L26.105,19.036 C24.845,20.298 22.8,20.298 21.541,19.036 L22.215,19.714 L22.215,19.714 L14.899,12.398 C13.637,11.136 11.592,11.136 10.333,12.398 L15.907,6.824 Z" fill="#F26606"></path>
                        <path d="M6.089,1.587 C7.349,0.325 9.394,0.325 10.653,1.585 L12.729,3.661 L12.729,3.661 L15.899,6.831 L10.333,12.397 L5.079,7.159 C3.817,5.899 1.774,5.899 0.515,7.159 L6.089,1.587 Z" fill="#1BC1A9"></path>
                        <path d="M3.163,4.509 L6.089,1.587 C7.349,0.325 9.394,0.325 10.653,1.585 L12.53,3.464 C12.022,4.118 11.473,4.763 10.856,5.38 C9.495,6.741 8.024,7.821 6.551,8.628 L5.078,7.159 C4.312,6.395 3.262,6.1 2.269,6.264 C2.524,5.683 2.817,5.097 3.163,4.509 Z" fill="#0CAFAF"></path>
                    </g>
                </g>
                <g transform="translate(14.000000, 0.000000)" id="Shape">
                    <g>
                        <path d="M15.45,5.602 C10.82,0.853 4.827,-0.813 2.062,1.883 C1.103,2.82 0.667,4.166 0.691,5.716 C3.598,5.835 7.195,7.607 10.214,10.706 C13.235,13.803 14.916,17.444 14.961,20.353 C16.509,20.415 17.866,20.017 18.827,19.08 C21.591,16.383 20.079,10.35 15.45,5.602 Z" fill="#EAB818"></path>
                        <path d="M1.132,3.228 C0.78,3.994 0.605,4.869 0.632,5.839 C3.54,5.921 7.159,7.648 10.218,10.708 C13.279,13.767 15.005,17.386 15.087,20.294 C16.056,20.321 16.933,20.144 17.696,19.794 C19.059,16.737 17.331,11.698 13.278,7.646 C9.225,3.594 4.188,1.865 1.132,3.228 Z" fill="#ED9015"></path>
                        <g>
                            <path d="M2.653,1.439 C2.731,1.39 2.815,1.343 2.897,1.298 C2.815,1.343 2.731,1.39 2.653,1.439 Z" fill="#F26606"></path>
                            <path d="M0.679,4.875 C0.652,5.135 0.638,5.402 0.64,5.676 C0.638,5.402 0.651,5.134 0.679,4.875 Z" fill="#F26606"></path>
                            <path d="M0.987,3.542 C1.069,3.327 1.163,3.12 1.272,2.923 C1.163,3.121 1.069,3.328 0.987,3.542 Z" fill="#F26606"></path>
                            <path d="M1.415,2.679 C1.565,2.445 1.733,2.22 1.929,2.021 C1.733,2.222 1.565,2.445 1.415,2.679 Z" fill="#F26606"></path>
                            <path d="M0.7,4.662 C0.743,4.348 0.813,4.045 0.905,3.756 C0.813,4.044 0.745,4.347 0.7,4.662 Z" fill="#F26606"></path>
                            <path d="M3.519,1.013 C3.589,0.988 3.658,0.954 3.73,0.931 C3.657,0.955 3.589,0.988 3.519,1.013 Z" fill="#F26606"></path>
                            <path d="M20.269,15.113 C20.265,15.113 20.261,15.111 20.255,15.111 C20.259,15.166 20.261,15.222 20.261,15.277 C20.261,15.222 20.269,15.169 20.269,15.113 Z" fill="#F26606"></path>
                            <path d="M5.813,0.669 C5.813,0.665 5.813,0.661 5.813,0.657 C5.756,0.655 5.706,0.665 5.649,0.665 C5.702,0.666 5.759,0.667 5.813,0.669 Z" fill="#F26606"></path>
                            <path d="M1.995,1.955 C1.985,1.963 1.975,1.971 1.966,1.978 C1.962,1.98 1.962,1.982 1.96,1.984 C1.97,1.974 1.983,1.966 1.995,1.955 Z" fill="#F26606"></path>
                            <path d="M4.638,0.724 C4.708,0.714 4.783,0.712 4.853,0.704 C4.782,0.712 4.708,0.714 4.638,0.724 Z" fill="#F26606"></path>
                            <path d="M20.2,16.289 C20.212,16.219 20.214,16.144 20.221,16.074 C20.214,16.144 20.21,16.218 20.2,16.289 Z" fill="#F26606"></path>
                            <path d="M19.913,17.408 C19.938,17.338 19.972,17.269 19.995,17.197 C19.972,17.269 19.938,17.337 19.913,17.408 Z" fill="#F26606"></path>
                            <path d="M18.94,18.966 C18.944,18.964 18.944,18.962 18.946,18.962 C18.956,18.952 18.962,18.939 18.971,18.929 C18.96,18.941 18.952,18.955 18.94,18.966 Z" fill="#F26606"></path>
                            <path d="M19.487,18.271 C19.536,18.193 19.583,18.111 19.628,18.029 C19.581,18.111 19.536,18.193 19.487,18.271 Z" fill="#F26606"></path>
                            <path d="M18.905,18.996 C18.704,19.193 18.481,19.361 18.247,19.512 C18.481,19.361 18.704,19.193 18.905,18.996 Z" fill="#F26606"></path>
                            <path d="M17.171,20.021 C16.882,20.111 16.579,20.181 16.265,20.226 C16.579,20.181 16.882,20.111 17.171,20.021 Z" fill="#F26606"></path>
                            <path d="M15.251,20.287 C15.526,20.289 15.792,20.273 16.05,20.246 C15.792,20.273 15.524,20.289 15.251,20.287 Z" fill="#F26606"></path>
                            <path d="M18.003,19.654 C17.806,19.763 17.599,19.857 17.384,19.937 C17.599,19.857 17.806,19.763 18.003,19.654 Z" fill="#F26606"></path>
                            <path d="M10.218,10.708 C7.163,7.651 3.55,5.925 0.644,5.841 C0.732,8.745 2.458,12.357 5.513,15.413 C8.568,18.468 12.181,20.194 15.085,20.282 C15.001,17.376 13.274,13.763 10.218,10.708 Z" fill="#F26606"></path>
                            <path d="M3.931,6.541 C4.71,8.643 6.12,10.852 8.097,12.828 C10.076,14.807 12.285,16.217 14.388,16.996 C13.605,14.894 12.197,12.685 10.218,10.709 C8.241,8.73 6.032,7.32 3.931,6.541 Z" fill="#DB4D07"></path>
                        </g>
                    </g>
                    <g transform="translate(14.000000, 0.000000)">
                        <path d="M5.612,5.537 C10.301,0.849 16.315,-0.74 19.048,1.99 C19.995,2.939 20.411,4.291 20.368,5.84 C17.458,5.922 13.841,7.649 10.782,10.709 C7.723,13.768 5.995,17.387 5.913,20.295 C4.362,20.338 3.013,19.92 2.065,18.973 C-0.665,16.242 0.921,10.228 5.612,5.537 Z" fill="#EAB818"></path>
                        <path d="M19.868,3.228 C20.218,3.994 20.395,4.871 20.368,5.839 C17.458,5.921 13.841,7.648 10.782,10.708 C7.723,13.767 5.995,17.386 5.913,20.294 C4.944,20.321 4.067,20.144 3.304,19.794 C1.939,16.737 3.669,11.698 7.722,7.646 C11.775,3.594 16.812,1.865 19.868,3.228 Z" fill="#ED9015"></path>
                        <g>
                            <path d="M18.347,1.441 C18.267,1.39 18.185,1.343 18.103,1.296 C18.185,1.343 18.267,1.388 18.347,1.441 Z" fill="#F26606"></path>
                            <path d="M20.319,4.876 C20.348,5.134 20.362,5.399 20.36,5.675 C20.362,5.402 20.349,5.134 20.319,4.876 Z" fill="#F26606"></path>
                            <path d="M20.011,3.542 C19.931,3.327 19.837,3.12 19.728,2.923 C19.837,3.121 19.931,3.328 20.011,3.542 Z" fill="#F26606"></path>
                            <path d="M19.585,2.679 C19.435,2.443 19.267,2.22 19.071,2.021 C19.265,2.222 19.435,2.443 19.585,2.679 Z" fill="#F26606"></path>
                            <path d="M20.3,4.662 C20.255,4.348 20.187,4.045 20.093,3.756 C20.187,4.042 20.255,4.345 20.3,4.662 Z" fill="#F26606"></path>
                            <path d="M17.481,1.013 C17.411,0.986 17.344,0.954 17.272,0.931 C17.345,0.955 17.411,0.986 17.481,1.013 Z" fill="#F26606"></path>
                            <path d="M0.731,15.113 C0.735,15.113 0.739,15.111 0.743,15.111 C0.741,15.166 0.741,15.222 0.741,15.277 C0.741,15.222 0.729,15.169 0.731,15.113 Z" fill="#F26606"></path>
                            <path d="M15.187,0.667 C15.187,0.665 15.187,0.661 15.187,0.657 C15.244,0.655 15.294,0.665 15.351,0.665 C15.294,0.666 15.241,0.667 15.187,0.667 Z" fill="#F26606"></path>
                            <path d="M19.005,1.955 C19.013,1.963 19.025,1.969 19.036,1.978 C19.036,1.98 19.038,1.984 19.04,1.984 C19.028,1.974 19.015,1.966 19.005,1.955 Z" fill="#F26606"></path>
                            <path d="M16.362,0.724 C16.292,0.714 16.219,0.71 16.147,0.704 C16.22,0.71 16.292,0.714 16.362,0.724 Z" fill="#F26606"></path>
                            <path d="M0.8,16.289 C0.788,16.219 0.786,16.144 0.779,16.072 C0.786,16.144 0.79,16.218 0.8,16.289 Z" fill="#F26606"></path>
                            <path d="M1.087,17.408 C1.062,17.338 1.028,17.269 1.005,17.195 C1.028,17.269 1.062,17.337 1.087,17.408 Z" fill="#F26606"></path>
                            <path d="M2.06,18.966 C2.056,18.964 2.056,18.962 2.052,18.96 C2.044,18.95 2.038,18.939 2.031,18.929 C2.038,18.941 2.048,18.955 2.06,18.966 Z" fill="#F26606"></path>
                            <path d="M1.515,18.271 C1.462,18.193 1.417,18.113 1.37,18.029 C1.417,18.111 1.464,18.193 1.515,18.271 Z" fill="#F26606"></path>
                            <path d="M2.095,18.996 C2.296,19.193 2.519,19.361 2.753,19.512 C2.519,19.361 2.296,19.193 2.095,18.996 Z" fill="#F26606"></path>
                            <path d="M3.829,20.019 C4.118,20.111 4.419,20.181 4.735,20.228 C4.419,20.181 4.118,20.111 3.829,20.019 Z" fill="#F26606"></path>
                            <path d="M5.749,20.287 C5.474,20.289 5.208,20.273 4.948,20.246 C5.208,20.273 5.474,20.289 5.749,20.287 Z" fill="#F26606"></path>
                            <path d="M2.997,19.654 C3.192,19.763 3.401,19.859 3.616,19.937 C3.401,19.859 3.192,19.763 2.997,19.654 Z" fill="#F26606"></path>
                            <path d="M10.782,10.708 C13.837,7.651 17.45,5.925 20.356,5.839 C20.27,8.745 18.542,12.357 15.487,15.413 C12.432,18.468 8.819,20.194 5.913,20.28 C5.999,17.376 7.726,13.763 10.782,10.708 Z" fill="#F26606"></path>
                            <path d="M17.069,6.541 C16.292,8.643 14.878,10.852 12.903,12.828 C10.924,14.807 8.715,16.215 6.614,16.996 C7.395,14.894 8.803,12.685 10.782,10.709 C12.759,8.732 14.968,7.32 17.069,6.541 Z" fill="#DB4D07"></path>
                        </g>
                    </g>
                </g>
                <path d="M35.479,18.183 C35.479,20.382 33.696,22.162 31.499,22.162 L31.499,22.162 C29.302,22.164 27.522,20.383 27.522,18.185 L27.522,6.175 C27.522,3.978 29.301,2.198 31.499,2.196 L31.499,2.196 C33.696,2.196 35.479,3.977 35.478,6.175 L35.479,18.183 Z" id="Shape" fill="#EAB818"></path>
                <path d="M31.499,6.306 C29.302,6.304 27.522,8.087 27.522,10.285 L27.522,18.185 C27.522,20.382 29.301,22.164 31.499,22.162 C33.696,22.162 35.479,20.383 35.479,18.183 L35.477,10.285 C35.479,8.085 33.696,6.304 31.499,6.306 Z" id="Shape" fill="#ED9015"></path>
            </g>
            <g id="Group" transform="translate(5.000000, 13.000000)" fill-rule="nonzero">
                <rect id="Rectangle-path" fill="#E83862" x="0.056" y="0.246" width="52.887" height="10.965" rx="1.10000002"></rect>
                <rect id="Rectangle-path" fill="#BC2A54" x="0.056" y="4.083" width="52.887" height="7.127" rx="1.10000002"></rect>
                <rect id="Rectangle-path" fill="#EAB818" x="19.966" y="0.246" width="13.068" height="10.965"></rect>
                <rect id="Rectangle-path" fill="#ED9015" x="19.966" y="3.996" width="13.068" height="7.215"></rect>
            </g>
            <g id="Group" transform="translate(10.000000, 24.000000)" fill-rule="nonzero">
                <rect id="Rectangle-path" fill="#BC2A54" x="0.159" y="0.21" width="42.682" height="30.197" rx="1.10000002"></rect>
                <polygon id="Shape" fill="#AA1F4D" points="0.159 0.21 42.841 30.408 42.841 0.21"></polygon>
            </g>
            <g id="Stars" transform="translate(25.000000, 37.000000)" fill="#E83862">
                <polygon id="Star" points="2.5 3.75 1.03053687 4.52254249 1.31117935 2.88627124 0.122358709 1.72745751 1.76526843 1.48872876 2.5 0 3.23473157 1.48872876 4.87764129 1.72745751 3.68882065 2.88627124 3.96946313 4.52254249"></polygon>
                <polygon id="Star" points="11.5 3.75 10.0305369 4.52254249 10.3111794 2.88627124 9.12235871 1.72745751 10.7652684 1.48872876 11.5 0 12.2347316 1.48872876 13.8776413 1.72745751 12.6888206 2.88627124 12.9694631 4.52254249"></polygon>
            </g>
            <g id="Stars" transform="translate(13.000000, 28.000000)" fill="#E83862">
                <polygon id="Star" points="2.5 3.75 1.03053687 4.52254249 1.31117935 2.88627124 0.122358709 1.72745751 1.76526843 1.48872876 2.5 0 3.23473157 1.48872876 4.87764129 1.72745751 3.68882065 2.88627124 3.96946313 4.52254249"></polygon>
                <polygon id="Star" points="10.5 3.75 9.03053687 4.52254249 9.31117935 2.88627124 8.12235871 1.72745751 9.76526843 1.48872876 10.5 0 11.2347316 1.48872876 12.8776413 1.72745751 11.6888206 2.88627124 11.9694631 4.52254249"></polygon>
                <polygon id="Star" points="22.817 3.75 21.3475369 4.52254249 21.6281794 2.88627124 20.4393587 1.72745751 22.0822684 1.48872876 22.817 0 23.5517316 1.48872876 25.1946413 1.72745751 24.0058206 2.88627124 24.2864631 4.52254249"></polygon>
                <polygon id="Star" points="32.151 3.75 30.6815369 4.52254249 30.9621794 2.88627124 29.7733587 1.72745751 31.4162684 1.48872876 32.151 0 32.8857316 1.48872876 34.5286413 1.72745751 33.3398206 2.88627124 33.6204631 4.52254249"></polygon>
            </g>
            <g id="Stars" transform="translate(13.000000, 46.000000)" fill="#E83862">
                <polygon id="Star" points="2.5 3.75 1.03053687 4.52254249 1.31117935 2.88627124 0.122358709 1.72745751 1.76526843 1.48872876 2.5 0 3.23473157 1.48872876 4.87764129 1.72745751 3.68882065 2.88627124 3.96946313 4.52254249"></polygon>
                <polygon id="Star" points="10.5 3.75 9.03053687 4.52254249 9.31117935 2.88627124 8.12235871 1.72745751 9.76526843 1.48872876 10.5 0 11.2347316 1.48872876 12.8776413 1.72745751 11.6888206 2.88627124 11.9694631 4.52254249"></polygon>
                <polygon id="Star" points="22.817 3.75 21.3475369 4.52254249 21.6281794 2.88627124 20.4393587 1.72745751 22.0822684 1.48872876 22.817 0 23.5517316 1.48872876 25.1946413 1.72745751 24.0058206 2.88627124 24.2864631 4.52254249"></polygon>
                <polygon id="Star" points="32.151 3.75 30.6815369 4.52254249 30.9621794 2.88627124 29.7733587 1.72745751 31.4162684 1.48872876 32.151 0 32.8857316 1.48872876 34.5286413 1.72745751 33.3398206 2.88627124 33.6204631 4.52254249"></polygon>
            </g>
            <rect id="Rectangle-path" fill="#EAB818" fill-rule="nonzero" x="27.417" y="24.21" width="8.166" height="30.197"></rect>
            <polygon id="Shape" fill="#F26606" fill-rule="nonzero" points="35.583 42.199 35.583 24.21 27.417 24.21 27.417 36.419"></polygon>
        </g>
    </g>
</svg>