<?xml version="1.0" encoding="UTF-8" standalone="no"?>
<svg width="63px" height="55px" viewBox="0 0 63 55" version="1.1" xmlns="http://www.w3.org/2000/svg" xmlns:xlink="http://www.w3.org/1999/xlink">
    <!-- Generator: Sketch 45.2 (43514) - http://www.bohemiancoding.com/sketch -->
    <title>upgradeGift</title>
    <desc>Created with Sketch.</desc>
    <defs></defs>
    <g id="Page-1" stroke="none" stroke-width="1" fill="none" fill-rule="evenodd">
        <g id="upgradeGift" fill-rule="nonzero">
            <g id="Group">
                <path d="M16.093,21.824 C14.833,20.562 12.788,20.562 11.529,21.824 L9.452,23.9 L9.45,23.898 L4.884,28.462 C3.624,29.724 1.579,29.726 0.32,28.462 L5.894,34.038 C7.154,35.3 9.199,35.298 10.458,34.036 L12.532,31.962 L12.534,31.962 L17.1,27.396 C18.36,26.136 20.405,26.136 21.666,27.398 L16.093,21.824 Z" id="Shape" fill="#F26606"></path>
                <path d="M46.907,21.824 C48.167,20.562 50.21,20.562 51.471,21.822 L53.547,23.9 L53.549,23.898 L58.115,28.462 C59.375,29.724 61.42,29.724 62.679,28.462 L57.105,34.036 C55.845,35.298 53.8,35.298 52.541,34.036 L53.215,34.714 L53.215,34.714 L45.899,27.398 C44.637,26.136 42.592,26.136 41.333,27.398 L46.907,21.824 Z" id="Shape" fill="#F26606"></path>
                <path d="M29.45,5.602 C24.82,0.853 18.827,-0.813 16.062,1.883 C15.103,2.82 14.667,4.166 14.691,5.716 C17.598,5.835 21.195,7.607 24.214,10.706 C27.235,13.803 28.916,17.444 28.961,20.353 C30.509,20.415 31.866,20.017 32.827,19.08 C35.591,16.383 34.079,10.35 29.45,5.602 Z" id="Shape" fill="#EAB818"></path>
                <path d="M15.132,3.228 C14.78,3.994 14.605,4.869 14.632,5.839 C17.54,5.921 21.159,7.648 24.218,10.708 C27.279,13.767 29.005,17.386 29.087,20.294 C30.056,20.321 30.933,20.144 31.696,19.794 C33.059,16.737 31.331,11.698 27.278,7.646 C23.225,3.594 18.188,1.865 15.132,3.228 Z" id="Shape" fill="#ED9015"></path>
                <path d="M24.218,10.708 C21.163,7.651 17.55,5.925 14.644,5.841 C14.732,8.745 16.458,12.357 19.513,15.413 C22.568,18.468 26.181,20.194 29.085,20.282 C29.001,17.376 27.274,13.763 24.218,10.708 Z" id="Shape" fill="#F26606"></path>
                <path d="M17.931,6.541 C18.71,8.643 20.12,10.852 22.097,12.828 C24.076,14.807 26.285,16.217 28.388,16.996 C27.605,14.894 26.197,12.685 24.218,10.709 C22.241,8.73 20.032,7.32 17.931,6.541 Z" id="Shape" fill="#DB4D07"></path>
                <path d="M33.612,5.537 C38.301,0.849 44.315,-0.74 47.048,1.99 C47.995,2.939 48.411,4.291 48.368,5.84 C45.458,5.922 41.841,7.649 38.782,10.709 C35.723,13.768 33.995,17.387 33.913,20.295 C32.362,20.338 31.013,19.92 30.065,18.973 C27.335,16.242 28.921,10.228 33.612,5.537 Z" id="Shape" fill="#EAB818"></path>
                <path d="M47.868,3.228 C48.218,3.994 48.395,4.871 48.368,5.839 C45.458,5.921 41.841,7.648 38.782,10.708 C35.723,13.767 33.995,17.386 33.913,20.294 C32.944,20.321 32.067,20.144 31.304,19.794 C29.939,16.737 31.669,11.698 35.722,7.646 C39.775,3.594 44.812,1.865 47.868,3.228 Z" id="Shape" fill="#ED9015"></path>
                <path d="M38.782,10.708 C41.837,7.651 45.45,5.925 48.356,5.839 C48.27,8.745 46.542,12.357 43.487,15.413 C40.432,18.468 36.819,20.194 33.913,20.28 C33.999,17.376 35.726,13.763 38.782,10.708 Z" id="Shape" fill="#F26606"></path>
                <path d="M45.069,6.541 C44.292,8.643 42.878,10.852 40.903,12.828 C38.924,14.807 36.715,16.215 34.614,16.996 C35.395,14.894 36.803,12.685 38.782,10.709 C40.759,8.732 42.968,7.32 45.069,6.541 Z" id="Shape" fill="#DB4D07"></path>
                <path d="M35.479,18.183 C35.479,20.382 33.696,22.162 31.499,22.162 L31.499,22.162 C29.302,22.164 27.522,20.383 27.522,18.185 L27.522,6.175 C27.522,3.978 29.301,2.198 31.499,2.196 L31.499,2.196 C33.696,2.196 35.479,3.977 35.478,6.175 L35.479,18.183 Z" id="Shape" fill="#EAB818"></path>
                <path d="M31.499,6.306 C29.302,6.304 27.522,8.087 27.522,10.285 L27.522,18.185 C27.522,20.382 29.301,22.164 31.499,22.162 C33.696,22.162 35.479,20.383 35.479,18.183 L35.477,10.285 C35.479,8.085 33.696,6.304 31.499,6.306 Z" id="Shape" fill="#ED9015"></path>
            </g>
            <g id="Group" transform="translate(5.000000, 13.000000)">
                <rect id="Rectangle-path" fill="#F01260" x="0.056" y="0.246" width="52.887" height="10.965"></rect>
                <rect id="Rectangle-path" fill="#B40F49" x="0.056" y="4.083" width="52.887" height="7.127"></rect>
                <rect id="Rectangle-path" fill="#EAB818" x="19.966" y="0.246" width="13.068" height="10.965"></rect>
                <rect id="Rectangle-path" fill="#ED9015" x="19.966" y="3.996" width="13.068" height="7.215"></rect>
            </g>
            <g id="Group" transform="translate(10.000000, 23.900000)">
                <rect id="Rectangle-path" fill="#F01260" x="0.159" y="0.21" width="42.682" height="30.197"></rect>
                <polygon id="Shape" fill="#B40F49" points="0.159 0.21 42.841 30.408 42.841 0.21"></polygon>
            </g>
            <g id="awp" transform="translate(13.000000, 35.000000)" fill="#8B113C">
                <path d="M38.8921702,2.87560142 L38.9746855,3.05993484 L39.0296955,3.24426827 L39.0572007,3.50233506 C39.0572007,3.61293512 39.0021906,3.79726854 38.8921702,4.01846865 L38.8371602,4.12906871 L24.2319675,4.12906871 L24.2319675,4.46086887 L25.3046652,4.46086887 L25.3046652,5.71433615 L25.4696957,5.89866957 C25.5522109,5.97240295 25.5797159,6.11986967 25.5797159,6.34106982 L25.5522109,6.48853654 L25.5247058,6.52540323 L25.5247058,6.59913657 L25.4421906,6.82033672 L19.8311561,6.82033672 L19.7486409,7.00467013 L19.8311561,7.07840352 L19.9136713,7.18900355 L19.8311561,7.48393703 L19.2810547,7.48393703 L19.2260445,7.37333696 L19.0335091,6.82033672 C18.9509938,6.52540323 18.9234888,6.30420313 19.006004,6.11986967 C19.006004,5.97240295 19.0610141,5.89866957 19.1710344,5.89866957 L19.2260445,5.89866957 C19.4460851,5.89866957 19.5836105,5.93553626 19.6386206,6.04613633 C19.776146,6.04613633 19.9136713,6.00926964 20.1062068,5.89866957 L17.438215,5.86180288 L17.080649,6.00926964 L16.4480324,6.23046975 L15.7879107,6.45166985 C15.5953752,6.52540323 15.4853549,6.56226992 15.4578498,6.59913657 L15.4578498,7.88947055 L12.2947667,8.3318708 L12.2947667,7.00467013 C12.1297363,7.00467013 12.019716,7.04153682 11.9922109,7.11527016 L11.8271805,7.33647031 L11.4146044,7.63140376 L10.7819878,7.70513714 C10.5344421,7.66827045 10.2593914,7.55767042 9.95683565,7.29960362 L9.90182552,7.33647031 L9.79180525,7.33647031 L9.79180525,7.88947055 L9.70929003,8.62680425 L9.5442596,9.32727129 L9.35172412,9.69593812 L8.69160241,9.8065382 L7.70141987,9.65907143 L6.76624742,9.43787133 L6.27115615,9.21667122 L5.88608519,8.66367094 L5.4735091,8.14753735 L5.19845839,7.88947055 L3.41062879,7.88947055 L3.27310343,9.0692045 C3.27310343,9.17980453 3.24559836,9.21667122 3.19058822,9.21667122 L3.0255578,9.36413794 L2.55797159,9.21667122 L1.62279918,9.21667122 L1.34774848,9.2904046 L0.935172412,9.40100463 L0.495091278,9.51160471 L0.165030425,9.58533805 L0.0825152127,9.58533805 L0.0275050709,9.5484714 L0,9.21667122 L0,7.07840352 L0.0825152127,5.45626936 L0.0825152127,4.23966876 C0.0825152127,4.12906871 0.165030425,4.01846865 0.357565922,3.9078686 L1.56778904,3.79726854 L1.92535496,3.79726854 L1.95286003,3.76040186 L2.00787017,3.72353517 L2.06288032,3.68666849 L2.1729006,3.57606843 L5.44600405,3.57606843 C5.52851927,3.57606843 5.5835294,3.6498018 5.66604462,3.72353517 L6.05111558,4.23966876 L9.76430017,4.23966876 L9.87432043,3.76040186 L9.9293306,3.31800164 L9.9293306,3.20740158 L9.95683565,3.20740158 L10.5069371,3.05993484 L10.9470182,2.94933479 L11.0845436,2.94933479 C11.0845436,2.91246811 11.1120486,2.87560142 11.1670588,2.83873474 L12.3222718,2.83873474 L12.3222718,2.39633452 L11.9096957,2.39633452 L11.5521298,2.47006789 L10.864503,2.58066794 L10.094361,2.691268 L9.40673425,2.61753463 L9.37922916,2.50693457 L9.37922916,2.47006789 L9.35172412,1.65900082 L9.35172412,1.17973392 C9.35172412,1.06913386 9.37922916,0.995400492 9.40673425,0.995400492 L9.43423933,0.958533805 L9.51675451,0.958533805 L9.79180525,0.921667122 L10.4519269,0.847933753 L11.2220689,0.811067066 L11.7721703,0.847933753 L13.56,0.847933753 L13.9450709,0.811067066 L13.9450709,0.479266905 L13.9175659,0.368666849 L13.9175659,0.0737333696 L15.0727789,0 L15.2103042,0.516133587 L15.1827991,0.553000274 C15.155294,0.589866957 15.127789,0.626733644 15.0727789,0.626733644 L15.0727789,0.737333696 L17.0531439,0.737333696 L17.7132657,0.589866957 L18.620933,0.442400218 L19.4735902,0.368666849 L19.9411764,0.442400218 L19.9961866,0.479266905 L20.0236916,2.58066794 L19.9411764,2.58066794 L17.2456795,2.35946783 L17.2456795,2.4332012 L16.8606085,2.32260115 L16.2004868,2.35946783 L16.2004868,2.80186805 L38.8921702,2.80186805 L38.8921702,2.87560142 M11.6896551,6.52540323 C11.6896551,6.26733644 11.5796349,6.11986967 11.3595943,6.11986967 L10.5894523,6.11986967 C10.3694117,6.11986967 10.2593914,6.26733644 10.2593914,6.52540323 C10.2593914,6.82033672 10.3694117,7.00467013 10.5894523,7.00467013 L11.3595943,7.00467013 C11.5796349,6.96780344 11.6896551,6.82033672 11.6896551,6.52540323 M7.45387421,8.51620422 C7.67391478,8.58993756 7.94896548,8.55307091 8.27902636,8.36873745 L8.80162267,7.77887052 L8.93914803,7.22587024 C8.96665311,6.96780344 8.93914803,6.78347003 8.88413789,6.63600326 C8.82912776,6.41480316 8.66409732,6.26733644 8.36154154,6.15673636 L7.45387421,6.23046975 C7.28884378,6.34106982 7.17882351,6.41480316 7.12381338,6.52540323 L6.90377281,6.89407006 C6.76624742,7.22587024 6.73874238,7.55767042 6.84876264,7.92633724 C6.98628799,8.29500411 7.17882351,8.47933753 7.45387421,8.51620422" id="Shape"></path>
            </g>
            <rect id="Rectangle-path" fill="#EAB818" x="27.417" y="24.21" width="8.166" height="30.197"></rect>
            <polygon id="Shape" fill="#ED9015" points="35.583 42.199 35.583 23.8999996 27.417 23.8999996 27.417 36.3193946"></polygon>
        </g>
    </g>
</svg>