<?xml version="1.0" encoding="UTF-8" standalone="no"?>
<svg width="63px" height="55px" viewBox="0 0 63 55" version="1.1" xmlns="http://www.w3.org/2000/svg" xmlns:xlink="http://www.w3.org/1999/xlink">
    <!-- Generator: Sketch 45.2 (43514) - http://www.bohemiancoding.com/sketch -->
    <title>upgradeGift</title>
    <desc>Created with Sketch.</desc>
    <defs></defs>
    <g id="Page-1" stroke="none" stroke-width="1" fill="none" fill-rule="evenodd">
        <g id="upgradeGift">
            <g id="Group" fill-rule="nonzero">
                <path d="M16.093,21.824 C14.833,20.562 12.788,20.562 11.529,21.824 L9.452,23.9 L9.45,23.898 L4.884,28.462 C3.624,29.724 1.579,29.726 0.32,28.462 L5.894,34.038 C7.154,35.3 9.199,35.298 10.458,34.036 L12.532,31.962 L12.534,31.962 L17.1,27.396 C18.36,26.136 20.405,26.136 21.666,27.398 L16.093,21.824 Z" id="Shape" fill="#F26606"></path>
                <path d="M46.907,21.824 C48.167,20.562 50.21,20.562 51.471,21.822 L53.547,23.9 L53.549,23.898 L58.115,28.462 C59.375,29.724 61.42,29.724 62.679,28.462 L57.105,34.036 C55.845,35.298 53.8,35.298 52.541,34.036 L53.215,34.714 L53.215,34.714 L45.899,27.398 C44.637,26.136 42.592,26.136 41.333,27.398 L46.907,21.824 Z" id="Shape" fill="#F26606"></path>
                <path d="M29.45,5.602 C24.82,0.853 18.827,-0.813 16.062,1.883 C15.103,2.82 14.667,4.166 14.691,5.716 C17.598,5.835 21.195,7.607 24.214,10.706 C27.235,13.803 28.916,17.444 28.961,20.353 C30.509,20.415 31.866,20.017 32.827,19.08 C35.591,16.383 34.079,10.35 29.45,5.602 Z" id="Shape" fill="#EAB818"></path>
                <path d="M15.132,3.228 C14.78,3.994 14.605,4.869 14.632,5.839 C17.54,5.921 21.159,7.648 24.218,10.708 C27.279,13.767 29.005,17.386 29.087,20.294 C30.056,20.321 30.933,20.144 31.696,19.794 C33.059,16.737 31.331,11.698 27.278,7.646 C23.225,3.594 18.188,1.865 15.132,3.228 Z" id="Shape" fill="#ED9015"></path>
                <path d="M24.218,10.708 C21.163,7.651 17.55,5.925 14.644,5.841 C14.732,8.745 16.458,12.357 19.513,15.413 C22.568,18.468 26.181,20.194 29.085,20.282 C29.001,17.376 27.274,13.763 24.218,10.708 Z" id="Shape" fill="#F26606"></path>
                <path d="M17.931,6.541 C18.71,8.643 20.12,10.852 22.097,12.828 C24.076,14.807 26.285,16.217 28.388,16.996 C27.605,14.894 26.197,12.685 24.218,10.709 C22.241,8.73 20.032,7.32 17.931,6.541 Z" id="Shape" fill="#DB4D07"></path>
                <path d="M33.612,5.537 C38.301,0.849 44.315,-0.74 47.048,1.99 C47.995,2.939 48.411,4.291 48.368,5.84 C45.458,5.922 41.841,7.649 38.782,10.709 C35.723,13.768 33.995,17.387 33.913,20.295 C32.362,20.338 31.013,19.92 30.065,18.973 C27.335,16.242 28.921,10.228 33.612,5.537 Z" id="Shape" fill="#EAB818"></path>
                <path d="M47.868,3.228 C48.218,3.994 48.395,4.871 48.368,5.839 C45.458,5.921 41.841,7.648 38.782,10.708 C35.723,13.767 33.995,17.386 33.913,20.294 C32.944,20.321 32.067,20.144 31.304,19.794 C29.939,16.737 31.669,11.698 35.722,7.646 C39.775,3.594 44.812,1.865 47.868,3.228 Z" id="Shape" fill="#ED9015"></path>
                <path d="M38.782,10.708 C41.837,7.651 45.45,5.925 48.356,5.839 C48.27,8.745 46.542,12.357 43.487,15.413 C40.432,18.468 36.819,20.194 33.913,20.28 C33.999,17.376 35.726,13.763 38.782,10.708 Z" id="Shape" fill="#F26606"></path>
                <path d="M45.069,6.541 C44.292,8.643 42.878,10.852 40.903,12.828 C38.924,14.807 36.715,16.215 34.614,16.996 C35.395,14.894 36.803,12.685 38.782,10.709 C40.759,8.732 42.968,7.32 45.069,6.541 Z" id="Shape" fill="#DB4D07"></path>
                <path d="M35.479,18.183 C35.479,20.382 33.696,22.162 31.499,22.162 L31.499,22.162 C29.302,22.164 27.522,20.383 27.522,18.185 L27.522,6.175 C27.522,3.978 29.301,2.198 31.499,2.196 L31.499,2.196 C33.696,2.196 35.479,3.977 35.478,6.175 L35.479,18.183 Z" id="Shape" fill="#EAB818"></path>
                <path d="M31.499,6.306 C29.302,6.304 27.522,8.087 27.522,10.285 L27.522,18.185 C27.522,20.382 29.301,22.164 31.499,22.162 C33.696,22.162 35.479,20.383 35.479,18.183 L35.477,10.285 C35.479,8.085 33.696,6.304 31.499,6.306 Z" id="Shape" fill="#ED9015"></path>
            </g>
            <g id="Group" transform="translate(5.000000, 13.000000)" fill-rule="nonzero">
                <rect id="Rectangle-path" fill="#FF0000" x="0.056" y="0.246" width="52.887" height="10.965"></rect>
                <rect id="Rectangle-path" fill="#CE0505" x="0.056" y="4.083" width="52.887" height="7.127"></rect>
                <rect id="Rectangle-path" fill="#EAB818" x="19.966" y="0.246" width="13.068" height="10.965"></rect>
                <rect id="Rectangle-path" fill="#ED9015" x="19.966" y="3.996" width="13.068" height="7.215"></rect>
            </g>
            <g id="Group" transform="translate(10.000000, 23.900000)" fill-rule="nonzero">
                <rect id="Rectangle-path" fill="#FF0000" x="0.159" y="0.21" width="42.682" height="30.197"></rect>
                <polygon id="Shape" fill="#CE0505" points="0.159 0.21 42.841 30.408 42.841 0.21"></polygon>
            </g>
            <g id="if_play_1216560" transform="translate(22.000000, 27.000000)" fill="#C00F0F">
                <path d="M0.151500744,2.91401569 C0.151500744,0.98597146 1.53092944,0.156010393 3.23445662,1.06126366 L21.1570578,10.5853229 C22.8597273,11.4901204 22.860585,12.9566357 21.1570578,13.8618943 L3.23445662,23.3860103 C1.53178708,24.2908133 0.151500744,23.4613622 0.151500744,21.5332681 L0.151500744,2.91401569 Z" id="path-1"></path>
            </g>
            <rect id="Rectangle-path" fill="#EAB818" fill-rule="nonzero" x="27.417" y="24.21" width="8.166" height="30.197"></rect>
            <polygon id="Shape" fill="#ED9015" fill-rule="nonzero" points="35.583 42.199 35.583 23.8999996 27.417 23.8999996 27.417 36.3193946"></polygon>
        </g>
    </g>
</svg>