<?xml version="1.0" encoding="UTF-8" standalone="no"?>
<svg width="162px" height="165px" viewBox="0 0 162 165" version="1.1" xmlns="http://www.w3.org/2000/svg" xmlns:xlink="http://www.w3.org/1999/xlink">
    <!-- Generator: Sketch 45.2 (43514) - http://www.bohemiancoding.com/sketch -->
    <title>gift</title>
    <desc>Created with Sketch.</desc>
    <defs></defs>
    <g id="Page-1" stroke="none" stroke-width="1" fill="none" fill-rule="evenodd">
        <g id="Gifts" transform="translate(-1163.000000, -613.000000)" fill-rule="nonzero">
            <g id="jackpot" transform="translate(1117.000000, 613.000000)">
                <g id="gift" transform="translate(45.507528, 0.000000)">
                    <g id="Group" transform="translate(29.000000, 0.000000)">
                        <path d="M45.912444,15.2848934 C31.7946652,0.804260263 13.520832,-4.27570073 5.08980427,3.94493242 C2.16562504,6.80202933 0.836175469,10.9062475 0.909356179,15.6325017 C9.77336975,15.9953561 20.7413287,21.3985319 29.9468523,30.8479911 C39.1584742,40.291352 44.2841732,51.3934756 44.421387,60.2635876 C49.1415428,60.4526378 53.2793022,59.2390576 56.2095798,56.3819607 C64.6375583,48.1582784 60.0271735,29.7624773 45.912444,15.2848934 Z" id="Shape" fill="#EAB818"></path>
                        <path d="M2.25405174,8.04610141 C1.18073465,10.3817858 0.6471253,13.0498325 0.729453599,16.0075529 C9.59651636,16.257587 20.6315577,21.5235489 29.9590491,30.8540895 C39.2926389,40.1815809 44.5555516,51.2166223 44.8055857,60.083685 C47.7602569,60.1660133 50.4344021,59.6263056 52.7609388,58.5590869 C56.9169933,49.2376939 51.6479822,33.8727938 39.2895897,21.5174505 C26.9311972,9.16210725 11.5723955,3.89004689 2.25405174,8.04610141 Z" id="Shape" fill="#ED9015"></path>
                        <path d="M29.9590491,30.8540895 C20.6437545,21.5326965 9.62700833,16.2697838 0.766043955,16.0136513 C1.03437323,24.8685173 6.29728599,35.8822142 15.6125806,45.200558 C24.9278752,54.5158526 35.9446214,59.7787654 44.7994873,60.0470947 C44.5433549,51.1861303 39.2773929,40.1693842 29.9590491,30.8540895 Z" id="Shape" fill="#F26606"></path>
                        <path d="M10.7887521,18.1480887 C13.164076,24.5574992 17.4634427,31.2931738 23.4917038,37.3183856 C29.5260632,43.3527451 36.2617378,47.6521118 42.6741975,50.0274357 C40.2866769,43.6180251 35.9934085,36.8823506 29.9590491,30.8571387 C23.930788,24.8227793 17.1951135,20.5234126 10.7887521,18.1480887 Z" id="Shape" fill="#DB4D07"></path>
                        <path d="M58.6031989,15.0866956 C72.9008802,0.792063478 91.2387466,-4.0531094 99.5722,4.27119643 C102.459789,7.16488369 103.728255,11.2873971 103.597139,16.0106021 C94.7239779,16.2606362 83.695035,21.5265981 74.3675436,30.8571387 C65.0400522,40.1846301 59.771041,51.2196714 59.5210069,60.0867342 C54.7917035,60.2178497 50.6783378,58.9432856 47.7876997,56.0556967 C39.4633939,47.7283417 44.2994192,29.3904753 58.6031989,15.0866956 Z" id="Shape" fill="#EAB818"></path>
                        <path d="M102.072541,8.04610141 C103.13976,10.3817858 103.679467,13.0559309 103.597139,16.0075529 C94.7239779,16.257587 83.695035,21.5235489 74.3675436,30.8540895 C65.0400522,40.1815809 59.771041,51.2166223 59.5210069,60.083685 C56.5663358,60.1660133 53.8921906,59.6263056 51.5656539,58.5590869 C47.403501,49.2376939 52.6786105,33.8727938 65.037003,21.5174505 C77.3953955,9.16210725 92.7541971,3.89004689 102.072541,8.04610141 Z" id="Shape" fill="#ED9015"></path>
                        <path d="M74.3675436,30.8540895 C83.6828382,21.5326965 94.6995844,16.2697838 103.560549,16.0075529 C103.298318,24.8685173 98.0293067,35.8822142 88.7140121,45.200558 C79.3987175,54.5158526 68.3819713,59.7787654 59.5210069,60.0409963 C59.7832378,51.1861303 65.0491998,40.1693842 74.3675436,30.8540895 Z" id="Shape" fill="#F26606"></path>
                        <path d="M93.5378406,18.1480887 C91.1686151,24.5574992 86.8570515,31.2931738 80.8348889,37.3183856 C74.8005295,43.3527451 68.0648549,47.6460134 61.6584935,50.0274357 C64.0399158,43.6180251 68.3331842,36.8823506 74.3675436,30.8571387 C80.3958046,24.8288777 87.1314792,20.5234126 93.5378406,18.1480887 Z" id="Shape" fill="#DB4D07"></path>
                        <path d="M64.2960483,53.6468317 C64.2960483,60.3520143 58.8593314,65.7795837 52.1602471,65.7795837 L52.1602471,65.7795837 C45.4611629,65.785682 40.0335936,60.3550635 40.0335936,53.6529301 L40.0335936,17.0320828 C40.0335936,10.3329986 45.4581137,4.90542925 52.1602471,4.89933086 L52.1602471,4.89933086 C58.8593314,4.89933086 64.2960483,10.3299494 64.2929991,17.0320828 L64.2960483,53.6468317 Z" id="Shape" fill="#EAB818"></path>
                        <path d="M52.1602471,17.4315275 C45.4611629,17.4254291 40.0335936,22.8621461 40.0335936,29.5642795 L40.0335936,53.6529301 C40.0335936,60.3520143 45.4581137,65.785682 52.1602471,65.7795837 C58.8593314,65.7795837 64.2960483,60.3550635 64.2960483,53.6468317 L64.2899499,29.5642795 C64.2960483,22.8560477 58.8593314,17.4254291 52.1602471,17.4315275 Z" id="Shape" fill="#ED9015"></path>
                    </g>
                    <g id="Group" transform="translate(0.359595, 37.842847)">
                        <rect id="Rectangle-path" fill="#FFD449" x="0.170754991" y="0.750102283" width="161.262843" height="33.4344371" rx="4"></rect>
                        <rect id="Rectangle-path" fill="#E5C254" x="0.170754991" y="12.4498684" width="161.262843" height="21.7316218" rx="4"></rect>
                        <rect id="Rectangle-path" fill="#EAB818" x="60.8802528" y="0.750102283" width="39.8468969" height="33.4344371"></rect>
                        <rect id="Rectangle-path" fill="#ED9015" x="60.8802528" y="12.1845883" width="39.8468969" height="21.9999511"></rect>
                    </g>
                    <g id="Group" transform="translate(15.605576, 71.079087)">
                        <rect id="Rectangle-path" fill="#FFD449" x="0.484822207" y="0.640331217" width="130.145795" height="92.0765799" rx="4"></rect>
                        <polygon id="Shape" fill="#E5C254" points="0.484822207 0.640331217 130.630618 92.7199603 130.630618 0.640331217"></polygon>
                    </g>
                    <g id="ticket" transform="translate(41.553740, 88.885984)">
                        <path d="M24.8850733,49.1596902 L1.50818626,49.1596902 C0.772047727,49.1596902 0.161591385,48.5492338 0.161591385,47.8130953 L0.161591385,32.1566856 C0.161591385,31.420547 0.772047727,30.8100907 1.50818626,30.8100907 C4.93751453,30.8100907 7.72047727,28.027128 7.72047727,24.5977997 C7.72047727,21.1684714 4.93751453,18.3855087 1.50818626,18.3855087 C0.772047727,18.3855087 0.161591385,17.7750523 0.161591385,17.0389138 L0.161591385,1.38250407 C0.161591385,0.646365539 0.772047727,0.0359091966 1.50818626,0.0359091966 L24.8850733,0.0359091966 C25.6212118,0.0359091966 26.2316681,0.646365539 26.2316681,1.38250407 L26.2316681,47.8130953 C26.2316681,48.5492338 25.6212118,49.1596902 24.8850733,49.1596902 Z" id="Shape" fill="#AE933E"></path>
                        <path d="M77.4920463,49.1596902 L23.5384784,49.1596902 L23.5384784,0.0359091966 L77.4920463,0.0359091966 C78.2281848,0.0359091966 78.8386412,0.646365539 78.8386412,1.38250407 L78.8386412,17.0389138 C78.8386412,17.7750523 78.2281848,18.3855087 77.4920463,18.3855087 C74.062718,18.3855087 71.2797553,21.1684714 71.2797553,24.5977997 C71.2797553,28.027128 74.062718,30.8100907 77.4920463,30.8100907 C78.2281848,30.8100907 78.8386412,31.420547 78.8386412,32.1566856 L78.8386412,47.8130953 C78.8386412,48.5492338 78.2281848,49.1596902 77.4920463,49.1596902 Z" id="Shape" fill="#816B25"></path>
                        <g id="Group" transform="translate(33.216007, 14.184133)" fill="#AE933E">
                            <path d="M30.0021338,2.71114434 L1.45432246,2.71114434 C0.718183932,2.71114434 0.10772759,2.100688 0.10772759,1.36454947 C0.10772759,0.628410941 0.718183932,0.0179545983 1.45432246,0.0179545983 L30.0021338,0.0179545983 C30.7382723,0.0179545983 31.3487286,0.628410941 31.3487286,1.36454947 C31.3487286,2.100688 30.7382723,2.71114434 30.0021338,2.71114434 Z" id="Shape"></path>
                            <path d="M30.0021338,11.7602619 L1.45432246,11.7602619 C0.718183932,11.7602619 0.10772759,11.1498055 0.10772759,10.413667 C0.10772759,9.67752849 0.718183932,9.06707215 1.45432246,9.06707215 L30.0021338,9.06707215 C30.7382723,9.06707215 31.3487286,9.67752849 31.3487286,10.413667 C31.3487286,11.1498055 30.7382723,11.7602619 30.0021338,11.7602619 Z" id="Shape"></path>
                            <path d="M30.0021338,20.8093794 L1.45432246,20.8093794 C0.718183932,20.8093794 0.10772759,20.1989231 0.10772759,19.4627846 C0.10772759,18.726646 0.718183932,18.1161897 1.45432246,18.1161897 L30.0021338,18.1161897 C30.7382723,18.1161897 31.3487286,18.726646 31.3487286,19.4627846 C31.3487286,20.1989231 30.7382723,20.8093794 30.0021338,20.8093794 Z" id="Shape"></path>
                        </g>
                    </g>
                    <rect id="Rectangle-path" fill="#EAB818" x="68.713428" y="72.0243376" width="24.8997368" height="92.0765799"></rect>
                    <polygon id="Shape" fill="#ED9015" points="93.6131647 126.876329 93.6131647 71.0790856 68.713428 71.0790856 68.713428 108.948259"></polygon>
                </g>
            </g>
        </g>
    </g>
</svg>