<?xml version="1.0" encoding="UTF-8" standalone="no"?>
<svg width="214px" height="125px" viewBox="0 0 214 125" version="1.1" xmlns="http://www.w3.org/2000/svg" xmlns:xlink="http://www.w3.org/1999/xlink">
    <!-- Generator: Sketch 45.2 (43514) - http://www.bohemiancoding.com/sketch -->
    <title>Artboard</title>
    <desc>Created with Sketch.</desc>
    <defs></defs>
    <g id="Page-1" stroke="none" stroke-width="1" fill="none" fill-rule="evenodd">
        <g id="Artboard" fill-rule="nonzero">
            <g id="Group">
                <g id="if_17_1514641" transform="translate(15.508071, 19.397158) rotate(15.000000) translate(-15.508071, -19.397158) translate(4.008071, 2.397158)">
                    <path d="M2.7409604,16.3087144 L4.65963268,18.2273867 L8.80533529,16.5828104 L5.65323083,13.430706 C5.4133968,13.1908719 5.24208677,12.9510379 5.03651474,12.7112039 L1.16490817,14.2529941 C1.61031424,14.9724962 2.12424431,15.6577363 2.7409604,16.3087144 Z" id="Shape" fill="#EBF0F3"></path>
                    <path d="M19.0839368,32.6174288 C19.8719629,33.4054549 21.1739191,33.4054549 21.9962072,32.6174288 C22.7842333,31.8294027 22.7842333,30.5274465 21.9962072,29.7051584 L20.351631,28.0948441 L16.2059284,29.7394204 L19.0839368,32.6174288 Z" id="Shape" fill="#EBF0F3"></path>
                    <polygon id="Shape" fill="#E56353" points="8.49697725 22.0647312 12.6769419 20.420155 8.80533529 16.5485484 4.65963268 18.1931247"></polygon>
                    <polygon id="Shape" fill="#E56353" points="16.2059284 29.7736824 20.351631 28.0948441 16.5142864 24.2574996 12.3685838 25.9020758"></polygon>
                    <polygon id="Shape" fill="#EBF0F3" points="12.3685838 25.9020758 16.5142864 24.2574996 12.6769419 20.420155 8.49697725 22.0647312"></polygon>
                    <path d="M11.2721997,4.79668071 C11.9231778,5.03651474 12.5398938,5.4476588 13.0880859,5.96158888 C13.876112,6.74961499 15.1780682,6.74961499 16.0003564,5.96158888 C16.8226445,5.17356276 16.7883825,3.87160657 16.0003564,3.04931845 C14.5270901,1.57605223 12.6426799,0.685240101 10.7240076,0.41114406 L11.2721997,4.79668071 Z" id="Shape" fill="#EBF0F3"></path>
                    <path d="M3.22062847,2.63817439 L6.54404296,5.24208677 C7.94878517,4.35127464 9.73040943,4.17996461 11.2721997,4.7624187 L10.6897456,0.445406065 C8.08583319,0.0685240101 5.34487279,0.788026116 3.22062847,2.63817439 Z" id="Shape" fill="#E56353"></path>
                    <path d="M2.7409604,3.08358045 C1.13064617,4.69389469 0.239834035,6.74961499 0.034262005,8.8395973 L4.17996461,8.80533529 C4.35127464,7.77747514 4.83094271,6.783877 5.65323083,5.96158888 C5.92732687,5.68749284 6.23568492,5.4476588 6.54404296,5.24208677 L3.22062847,2.63817439 C3.04931845,2.77522241 2.91227043,2.91227043 2.7409604,3.08358045 Z" id="Shape" fill="#EBF0F3"></path>
                    <path d="M1.19917018,14.2187321 L5.07077675,12.6769419 C4.28275063,11.5120337 3.97439258,10.1415535 4.21422662,8.80533529 L0.0685240101,8.8395973 C-0.102786015,10.6554836 0.27409604,12.5398938 1.19917018,14.2187321 Z" id="Shape" fill="#E56353"></path>
                    <path d="M3.49472451,16.3087144 C2.84374642,15.6577363 2.32981634,14.9724962 1.91867228,14.2187321 C1.88441028,14.1502081 1.85014827,14.0474221 1.78162426,13.9788981 L1.16490817,14.2187321 C1.57605223,14.9724962 2.08998231,15.6919983 2.7409604,16.3087144 L4.65963268,18.2273867 L5.17356276,18.0218146 L3.49472451,16.3087144 Z" id="Shape" fill="#E1E6E9"></path>
                    <path d="M16.9254305,29.7736824 L16.7198585,29.5681103 L16.2059284,29.7736824 L19.0839368,32.6516908 C19.5636049,33.1313589 20.248845,33.3369309 20.8998231,33.2341449 C20.488679,33.1656209 20.111797,32.9600488 19.8034389,32.6516908 L16.9254305,29.7736824 Z" id="Shape" fill="#E1E6E9"></path>
                    <polygon id="Shape" fill="#D15241" points="5.37913479 18.1931247 5.17356276 17.9875526 4.65963268 18.1931247 8.49697725 22.0647312 9.04516933 21.8591592"></polygon>
                    <polygon id="Shape" fill="#D15241" points="13.0880859 25.9020758 12.8825139 25.6965038 12.3685838 25.9020758 16.2059284 29.7736824 16.7198585 29.5681103"></polygon>
                    <polygon id="Shape" fill="#E1E6E9" points="9.25074136 22.0647312 9.04516933 21.8591592 8.49697725 22.0647312 12.3685838 25.9020758 12.8825139 25.6965038"></polygon>
                    <path d="M11.9917018,4.79668071 C11.7518677,4.69389469 11.4777717,4.62537068 11.2379377,4.59110867 L11.2721997,4.79668071 C11.9231778,5.03651474 12.5398938,5.4476588 13.0880859,5.96158888 C13.567754,6.44125695 14.2529941,6.64682898 14.9039722,6.54404296 C14.4928281,6.47551895 14.1159461,6.26994692 13.807588,5.96158888 C13.293658,5.4476588 12.6426799,5.03651474 11.9917018,4.79668071 Z" id="Shape" fill="#E1E6E9"></path>
                    <path d="M3.94013058,2.63817439 C5.61896883,1.16490817 7.70895113,0.41114406 9.83319545,0.34262005 C7.4691171,0.239834035 5.10503875,0.993598146 3.22062847,2.63817439 L3.59751053,2.94653243 C3.73455855,2.84374642 3.83734456,2.7409604 3.94013058,2.63817439 Z" id="Shape" fill="#D15241"></path>
                    <path d="M3.49472451,3.08358045 C3.52898652,3.04931845 3.56324852,3.01505644 3.63177253,2.98079444 L3.25489048,2.67243639 C3.04931845,2.77522241 2.91227043,2.91227043 2.7409604,3.08358045 C1.13064617,4.69389469 0.239834035,6.74961499 0.034262005,8.8395973 L0.753764111,8.8395973 C0.993598146,6.71535299 1.88441028,4.65963268 3.49472451,3.08358045 Z" id="Shape" fill="#E1E6E9"></path>
                    <path d="M0.788026116,8.80533529 C0.788026116,8.80533529 0.788026116,8.80533529 0.788026116,8.80533529 L0.0685240101,8.80533529 C-0.102786015,10.6554836 0.27409604,12.5398938 1.19917018,14.1844701 L1.81588627,13.944636 C0.959336141,12.3685838 0.616716091,10.5869596 0.788026116,8.80533529 Z" id="Shape" fill="#D15241"></path>
                </g>
                <g id="if_17_1514641" transform="translate(93.000000, 24.000000) scale(-1, 1) translate(-93.000000, -24.000000) translate(86.000000, 14.000000)">
                    <path d="M1.61886116,9.6322239 L2.75206397,10.7654267 L5.20059148,9.79411002 L3.33890114,7.93241968 C3.19725079,7.79076933 3.09607197,7.64911898 2.97465738,7.50746863 L0.688015993,8.41807803 C0.951080931,8.84302908 1.2546174,9.24774437 1.61886116,9.6322239 Z" id="Shape" fill="#EBF0F3"></path>
                    <path d="M11.2713208,19.2644478 C11.7367434,19.7298704 12.5057025,19.7298704 12.9913608,19.2644478 C13.4567834,18.7990252 13.4567834,18.0300662 12.9913608,17.5444078 L12.0200441,16.5933269 L9.57151661,17.5646436 L11.2713208,19.2644478 Z" id="Shape" fill="#EBF0F3"></path>
                    <polygon id="Shape" fill="#E56353" points="5.01846959 13.0318323 7.48723286 12.0605156 5.20059148 9.77387425 2.75206397 10.7451909"></polygon>
                    <polygon id="Shape" fill="#E56353" points="9.57151661 17.5848793 12.0200441 16.5933269 9.75363849 14.3269213 7.30511098 15.298238"></polygon>
                    <polygon id="Shape" fill="#EBF0F3" points="7.30511098 15.298238 9.75363849 14.3269213 7.48723286 12.0605156 5.01846959 13.0318323"></polygon>
                    <path d="M6.65756652,2.83300703 C7.04204604,2.97465738 7.40628981,3.21748655 7.73006204,3.52102302 C8.19548462,3.98644561 8.96444367,3.98644561 9.45010202,3.52102302 C9.93576037,3.05560044 9.9155246,2.28664139 9.45010202,1.80098304 C8.57996415,0.930845167 7.4669971,0.40471529 6.33379429,0.242829174 L6.65756652,2.83300703 Z" id="Shape" fill="#EBF0F3"></path>
                    <path d="M1.90216186,1.55815387 L3.86503102,3.09607197 C4.69469736,2.56994209 5.74695712,2.46876327 6.65756652,2.81277126 L6.31355852,0.263064938 C4.77564042,0.040471529 3.15677926,0.465422583 1.90216186,1.55815387 Z" id="Shape" fill="#E56353"></path>
                    <path d="M1.61886116,1.8212188 C0.667780228,2.77229974 0.141650351,3.98644561 0.0202357645,5.22082724 L2.46876327,5.20059148 C2.56994209,4.59351854 2.85324279,4.00668137 3.33890114,3.52102302 C3.50078726,3.35913691 3.68290914,3.21748655 3.86503102,3.09607197 L1.90216186,1.55815387 C1.80098304,1.63909692 1.72003998,1.72003998 1.61886116,1.8212188 Z" id="Shape" fill="#EBF0F3"></path>
                    <path d="M0.708251757,8.39784227 L2.99489315,7.48723286 C2.52947056,6.79921687 2.34734868,5.98978629 2.48899903,5.20059148 L0.040471529,5.22082724 C-0.0607072935,6.29332276 0.161886116,7.40628981 0.708251757,8.39784227 Z" id="Shape" fill="#E56353"></path>
                    <path d="M2.06404798,9.6322239 C1.67956845,9.24774437 1.37603199,8.84302908 1.13320281,8.39784227 C1.11296705,8.35737074 1.09273128,8.29666344 1.05225975,8.25619191 L0.688015993,8.39784227 C0.930845167,8.84302908 1.23438163,9.26798014 1.61886116,9.6322239 L2.75206397,10.7654267 L3.05560044,10.6440121 L2.06404798,9.6322239 Z" id="Shape" fill="#E1E6E9"></path>
                    <path d="M9.99646766,17.5848793 L9.87505307,17.4634648 L9.57151661,17.5848793 L11.2713208,19.2846836 C11.5546215,19.5679843 11.9593368,19.6893989 12.3438163,19.6286916 C12.1009872,19.58822 11.8783938,19.4668054 11.6962719,19.2846836 L9.99646766,17.5848793 Z" id="Shape" fill="#E1E6E9"></path>
                    <polygon id="Shape" fill="#D15241" points="3.17701503 10.7451909 3.05560044 10.6237764 2.75206397 10.7451909 5.01846959 13.0318323 5.34224183 12.9104177"></polygon>
                    <polygon id="Shape" fill="#D15241" points="7.73006204 15.298238 7.60864745 15.1768234 7.30511098 15.298238 9.57151661 17.5848793 9.87505307 17.4634648"></polygon>
                    <polygon id="Shape" fill="#E1E6E9" points="5.46365641 13.0318323 5.34224183 12.9104177 5.01846959 13.0318323 7.30511098 15.298238 7.60864745 15.1768234"></polygon>
                    <path d="M7.08251757,2.83300703 C6.94086722,2.77229974 6.77898111,2.73182821 6.63733075,2.71159244 L6.65756652,2.83300703 C7.04204604,2.97465738 7.40628981,3.21748655 7.73006204,3.52102302 C8.01336274,3.80432373 8.41807803,3.92573831 8.80255756,3.86503102 C8.55972838,3.82455949 8.33713497,3.7031449 8.15501309,3.52102302 C7.85147662,3.21748655 7.4669971,2.97465738 7.08251757,2.83300703 Z" id="Shape" fill="#E1E6E9"></path>
                    <path d="M2.32711292,1.55815387 C3.31866538,0.688015993 4.55304701,0.242829174 5.80766441,0.202357645 C4.41139666,0.141650351 3.01512891,0.58683717 1.90216186,1.55815387 L2.12475527,1.74027575 C2.20569833,1.67956845 2.26640562,1.61886116 2.32711292,1.55815387 Z" id="Shape" fill="#D15241"></path>
                    <path d="M2.06404798,1.8212188 C2.08428374,1.80098304 2.10451951,1.78074728 2.14499104,1.76051151 L1.92239763,1.57838963 C1.80098304,1.63909692 1.72003998,1.72003998 1.61886116,1.8212188 C0.667780228,2.77229974 0.141650351,3.98644561 0.0202357645,5.22082724 L0.445186819,5.22082724 C0.58683717,3.96620984 1.11296705,2.75206397 2.06404798,1.8212188 Z" id="Shape" fill="#E1E6E9"></path>
                    <path d="M0.465422583,5.20059148 C0.465422583,5.20059148 0.465422583,5.20059148 0.465422583,5.20059148 L0.040471529,5.20059148 C-0.0607072935,6.29332276 0.161886116,7.40628981 0.708251757,8.3776065 L1.07249552,8.23595615 C0.566601406,7.30511098 0.364243761,6.25285123 0.465422583,5.20059148 Z" id="Shape" fill="#D15241"></path>
                </g>
                <g id="snow" transform="translate(0.000000, 19.000000)">
                    <path d="M0.658604587,11.1369447 C1.72854523,14.5355267 -0.193370128,36.9513487 4.16666667,39.5 C8.52670346,42.0492218 6.87659458,23.7476294 10.5,21.3326909 C14,19 20,27 23.11245,19 C23.3843439,18.3011451 26.2604561,12.7594298 28,12.5 C36.2740852,11.2660302 48.0147195,15.0498144 56.25,16 C66.1957444,17.1475386 76.0619675,15.3154169 77.0833333,16 C79.7564648,17.7928405 113.998919,18.2170388 113.998919,18.2170388 C113.998919,18.2170388 121.227413,20.8973033 127.859218,21.3326909 C131.568874,21.5762351 135.261476,19.3832557 136.987162,19.8227804 C141.799028,21.04862 151.067854,23.5 158.5,23.5 C167.5,23.5 170.764152,17.0309474 174,18.2170388 C182.5,21.3326909 190.307119,18.8077261 192,18.2170388 C202.827602,14.4390255 197.602186,7.70153869 197,7.1707914 C192.5,3.2046381 174,6.8907136 163,11.1369447 C155.195118,14.1497933 128.977707,7.42459363 127.859218,7.1707914 C124.117293,6.32086068 110.028786,6.03678986 110.028786,6.03678986 C110.028786,6.03678986 102.2376,5.47207079 95.2869992,7.1707914 C88.3363988,8.87065286 76.575079,5.7561416 74.4363446,4.33978052 C72.2987567,2.92284903 69.0900817,1.22298757 63.7449654,4.05570972 C58.3975558,6.88786144 54.1212335,6.32200152 46.6362363,4.62214006 C39.1512388,2.92284903 30.0630506,-1.89095326 23.11245,1.79055876 C16.1629964,5.47207079 9.21354265,4.33978052 9.21354265,4.33978052 C9.21354265,4.33978052 -0.410189281,7.73836259 0.658604587,11.1369447 Z" id="Fill-11" fill="#DCE0E9"></path>
                    <path d="M7.29166667,4.36145661 C3.27427152,5.52475766 0.750704556,8.30594383 3.125,9.70461173 C7.29166667,12.1591432 6.25,16.2924305 19.7916667,10.9966205 C33.3333333,5.70081054 43.0078415,7.37956633 49.3151015,9.70461173 C55.6223615,12.0302276 53.6028915,13.1927503 61.3493535,12.5464607 C69.0969623,11.9007415 71.3687227,9.18837864 77.2574098,12.1591432 C83.1449504,15.1304782 90.5989848,13.3222363 104.073586,13.451152 C117.548186,13.5806381 121.275204,14.6125339 125.575608,16.2924305 C127.100191,16.8879887 134.893191,22.1668037 141,21.5 C143.166985,21.2633865 154.701034,20.262095 157,21.5 C163.5,25 173.649119,15.6063601 174.5,15.5 C175.254239,15.4057202 186.028029,17.1214856 191.5,16.2924305 C197.905738,15.3219008 199.260788,9.05738785 197.5,7.508482 C196.407962,6.54785306 186.902507,3.43594379 174.5,4.36145661 C164.860355,5.08079624 152.870294,7.15902554 151,7.508482 C145.833129,8.47389003 139.773941,7.69182952 139.336903,7.508482 C134.137427,5.32718327 129.107674,3.59937107 123.888703,4.06825903 C118.669732,4.53714699 106.653828,7.508482 103.786892,6.99167848 C100.919956,6.47544539 95.4727767,6.47544539 93.1792275,6.86219239 C90.8856785,7.25008024 76.0888467,6.47544539 72.8790246,4.92503484 C69.6703496,3.37462429 70.0556658,2.50529917 62.4089731,4.36145661 C54.7622806,6.21704363 49.1327644,4.46242154 43.8679225,3.3113073 C38.6030804,2.15962264 29.2167308,-1.41407938 14.9118653,4.01235755 C14.9118653,4.01235755 10.3244246,3.48327301 7.29166667,4.36145661 Z" id="Fill-42" fill="#FFFFFF"></path>
                </g>
            </g>
        </g>
    </g>
</svg>