<?xml version="1.0" encoding="UTF-8" standalone="no"?>
<svg width="56px" height="38px" viewBox="0 0 56 38" version="1.1" xmlns="http://www.w3.org/2000/svg" xmlns:xlink="http://www.w3.org/1999/xlink">
    <!-- Generator: Sketch 45.2 (43514) - http://www.bohemiancoding.com/sketch -->
    <title>snow4</title>
    <desc>Created with Sketch.</desc>
    <defs></defs>
    <g id="Page-1" stroke="none" stroke-width="1" fill="none" fill-rule="evenodd">
        <g id="snow4" transform="translate(0.000000, -1.000000)" fill-rule="nonzero">
            <g id="Snow" transform="translate(28.000000, 19.500000) scale(-1, 1) translate(-28.000000, -19.500000) ">
                <path d="M1.3161302,12.1369447 C1.82970171,15.5355267 0.0898917675,24.5898918 2.5,27 C3.5,28 3.40775025,33.7867133 4,35.5 C5.00244542,38.3999191 6.76538665,39.0808473 7,37.5 C7.33763929,35.224954 8.48731502,23.4243149 8.96971278,22.3326909 C9.7115664,20.6539408 10.7912463,18.7316801 10.5,16.1013866 C10.0736529,12.2509759 22.1701484,16.6433023 24.0968485,16.1013866 C28.4777044,14.8691998 41.1888047,13.3149819 41,10.5 C40.9375933,9.56954866 49.5,7.5 52,8.5 C54.5,9.5 50.351991,4.42599552 48.5,3.5 C48.09067,3.29533502 46,2.5 39.933616,3.65155492 C37.3052677,4.15048268 34.8558695,3.7541925 34.5,3.5 C31,1 25.411917,4.12219857 24.0968485,3.5 C20.5040497,1.80070897 7,2 3,3.5 C-4.10782519e-15,5.5 0.803109145,8.73836259 1.3161302,12.1369447 Z" id="Fill-11" fill="#DCE0E9"></path>
                <path d="M1.3161302,12.1369447 C1.82970171,15.5355267 9.79124631,16.6302934 9.5,14 C9.07365292,10.1495892 23.5732999,14.5419157 25.5,14 C29.8808559,12.7678132 29.9984652,9.02779417 39.933616,8.5 C43.3112053,8.32056921 48.5,8.32056921 55.5,8.5 C56.1666667,4.16666667 53.8333333,2.5 48.5,3.5 C47.7858609,3.63390109 46,2.5 39.933616,3.65155492 C38.3953755,3.94355232 35.5086782,3.73408707 32,3.65155492 C29.5134983,3.59306669 26.0454248,3.75805694 25.5,3.5 C23.8643746,2.72639598 18.7288636,1.04303916 14.5,1 C9.43978315,0.948499763 5.17899582,2.68287657 3,3.5 C-3.88578059e-15,5.5 0.803109145,8.73836259 1.3161302,12.1369447 Z" id="Fill-11-Copy" fill="#FFFFFF"></path>
            </g>
        </g>
    </g>
</svg>