<?xml version="1.0" encoding="UTF-8" standalone="no"?>
<svg width="96px" height="40px" viewBox="0 0 96 40" version="1.1" xmlns="http://www.w3.org/2000/svg" xmlns:xlink="http://www.w3.org/1999/xlink">
    <!-- Generator: Sketch 45.2 (43514) - http://www.bohemiancoding.com/sketch -->
    <title>snow2</title>
    <desc>Created with Sketch.</desc>
    <defs></defs>
    <g id="Page-1" stroke="none" stroke-width="1" fill="none" fill-rule="evenodd">
        <g id="snow2" fill-rule="nonzero">
            <path d="M0.316130202,11.1369447 C0.829701711,14.5355267 -0.0928176613,36.9513487 2,39.5 C4.09281766,42.0492218 7.5964887,32.5148197 7.96971278,30 C8.30735207,27.724954 7.48731502,22.4243149 7.96971278,21.3326909 C8.7115664,19.6539408 9.79124631,17.7316801 9.5,15.1013866 C9.07365292,11.2509759 19.2794964,14.1441861 27,16 C31.7739573,17.1475386 36.5097444,15.3154169 37,16 C38.2831031,17.7928405 54.7194813,18.2170388 54.7194813,18.2170388 C54.7194813,18.2170388 58.1891584,20.8973033 61.3724247,21.3326909 C63.1530595,21.5762351 64.9255084,19.3832557 65.7538376,19.8227804 C68.0635333,21.04862 70.629189,21.1461624 72.1688026,19.8227804 C73.7089667,18.4999687 83.1637118,12.8356652 86.5,15.1013866 C87.2935832,15.6401847 94.7190514,12.0211803 95,11.1369447 C95.4021376,9.8712883 96.2351377,8.39962715 95,7.1707914 C93.4702909,5.64888717 89.623361,4.50283767 88,4.62214006 C84.1506907,4.90507002 76.2751729,6.03907156 76.2751729,6.03907156 C76.2751729,6.03907156 71.9128426,6.60436106 70.116168,8.87065286 C68.3200438,11.1369447 64.471285,5.18914083 62.6746104,4.33978052 C60.8784862,3.4898498 52.8138172,6.03678986 52.8138172,6.03678986 C52.8138172,6.03678986 49.0740478,5.47207079 45.7377596,7.1707914 C42.4014714,8.87065286 36.7560379,5.7561416 35.7294454,4.33978052 C34.7034032,2.92284903 33.1632392,1.22298757 30.5975834,4.05570972 C28.0308268,6.88786144 25.9781921,6.32200152 22.3853934,4.62214006 C18.7925946,2.92284903 14.4302643,-1.89095326 11.093976,1.79055876 C7.75823825,5.47207079 4.42250047,4.33978052 4.42250047,4.33978052 C4.42250047,4.33978052 -0.196890855,7.73836259 0.316130202,11.1369447 Z" id="Fill-11" fill="#DCE0E9"></path>
            <path d="M3.5,4.36145661 C1.57165033,5.52475766 0.360338187,8.30594383 1.5,9.70461173 C3.5,12.1591432 3,16.2924305 9.5,10.9966205 C16,5.70081054 20.6437639,7.37956633 23.6712487,9.70461173 C26.6987335,12.0302276 25.7293879,13.1927503 29.4476897,12.5464607 C33.1665419,11.9007415 34.2569869,9.18837864 37.0835567,12.1591432 C39.9095762,15.1304782 43.4875127,13.3222363 49.9553211,13.451152 C56.4231295,13.5806381 58.2120978,14.6125339 60.276292,16.2924305 C62.3404861,17.9723272 61.7900344,15.1304782 64.9551321,15.0009921 C68.1202298,14.8715061 65.5055839,17.3254671 70.046811,16.2924305 C74.5880382,15.2593939 74.8632641,13.5806381 77.0650712,13.451152 C79.2668783,13.3222363 80.3853541,15.0168035 83,14.5 C83.5260857,14.3961302 85.5,13.451152 87,12.1591432 C88.5,10.8671344 89.2337193,13.5829813 90,13.451152 C91.8877833,13.1263818 93.2078937,11.0094177 93.5,9.70461173 C93.7372234,8.64408935 90.9193849,4.1199172 87,4.01235755 C82.4342018,3.88705838 77.1268976,6.07080736 76.8289274,5.89646573 C76.2751729,5.57303571 72.5541189,6.2529803 70.9567078,7.39724945 C69.3587463,8.54265945 69.3774617,9.68978073 66.8817133,7.508482 C64.3859649,5.32718327 61.9716834,3.59937107 59.4665774,4.06825903 C56.9614714,4.53714699 51.1938376,7.508482 49.8177082,6.99167848 C48.4415787,6.47544539 45.8269328,6.47544539 44.7260292,6.86219239 C43.6251257,7.25008024 36.5226464,6.47544539 34.9819318,4.92503484 C33.4417678,3.37462429 33.6267196,2.50529917 29.9563071,4.36145661 C26.2858947,6.21704363 23.5837269,4.46242154 21.0566028,3.3113073 C18.5294786,2.15962264 14.0240308,-1.41407938 7.15769536,4.01235755 C7.15769536,4.01235755 4.95572382,3.48327301 3.5,4.36145661 Z" id="Fill-42" fill="#FFFFFF"></path>
        </g>
    </g>
</svg>