<?xml version="1.0" encoding="UTF-8" standalone="no"?>
<svg width="415px" height="259px" viewBox="0 0 415 259" version="1.1" xmlns="http://www.w3.org/2000/svg" xmlns:xlink="http://www.w3.org/1999/xlink">
    <!-- Generator: Sketch 45.2 (43514) - http://www.bohemiancoding.com/sketch -->
    <title>Yellow Ticket</title>
    <desc>Created with Sketch.</desc>
    <defs></defs>
    <g id="Page-1" stroke="none" stroke-width="1" fill="none" fill-rule="evenodd">
        <g id="Tickets" transform="translate(-43.000000, 0.000000)">
            <g id="Yellow-Ticket" transform="translate(43.000000, 0.000000)">
                <g id="ticket" fill-rule="nonzero">
                    <path d="M140.5,258.318781 L20.8491121,258.318781 L20.8491121,258.318781 C9.80341714,258.318781 0.849112138,249.364476 0.849112138,238.318781 L0.849112138,168.973315 C0.849112138,165.105138 4.0568691,161.897381 7.92504662,161.897381 C25.9450931,161.897381 40.568691,147.273783 40.568691,129.253737 C40.568691,111.23369 25.9450931,96.6100921 7.92504662,96.6100921 C4.0568691,96.6100921 0.849112138,93.4023352 0.849112138,89.5341576 L0.849112138,20.1886916 L0.849112138,20.1886916 C0.849112138,9.14299659 9.80341714,0.188691586 20.8491121,0.188691586 L137.839204,0.188691586 C141.707381,0.188691586 144.368178,258.318781 140.5,258.318781 Z" id="Shape" fill="#FFD155"></path>
                    <path d="M394.272377,258.318781 L123.687335,258.318781 L123.687335,0.188691586 L394.272377,0.188691586 L394.272377,0.188691586 C405.318072,0.188691586 414.272377,9.14299659 414.272377,20.1886916 L414.272377,89.5341576 C414.272377,93.4023352 411.06462,96.6100921 407.196443,96.6100921 C389.176396,96.6100921 374.552799,111.23369 374.552799,129.253737 C374.552799,147.273783 389.176396,161.897381 407.196443,161.897381 C411.06462,161.897381 414.272377,165.105138 414.272377,168.973315 L414.272377,238.318781 L414.272377,238.318781 C414.272377,249.364476 405.318072,258.318781 394.272377,258.318781 Z" id="Shape" fill="#DDB547"></path>
                    <g id="lines" transform="translate(12.539717, 5.533177)" fill="#CAA43D">
                        <path d="M382.787869,14.6186924 L8.13269659,14.6186924 C-1.52822295,14.6186924 -1.52822295,0.466823463 8.13269659,0.466823463 L382.787869,0.466823463 C392.448789,0.466823463 392.448789,14.6186924 382.787869,14.6186924 Z" id="Shape"></path>
                        <path d="M382.900862,247.151869 L8.24568966,246.151869 C-1.41522989,246.151869 -1.41522989,232 8.24568966,232 L382.900862,232 C392.561782,232 392.561782,247.151869 382.900862,247.151869 Z" id="Shape"></path>
                        <path d="M382.900862,217.151869 L8.24568966,216.151869 C-1.41522989,216.151869 -1.41522989,202 8.24568966,202 L382.900862,202 C392.561782,202 392.561782,217.151869 382.900862,217.151869 Z" id="Shape"></path>
                        <path d="M382.900862,189.151869 L8.24568966,188.151869 C-1.41522989,188.151869 -1.41522989,174 8.24568966,174 L382.900862,174 C392.561782,174 392.561782,189.151869 382.900862,189.151869 Z" id="Shape"></path>
                        <path d="M382.900862,44.151869 L8.24568966,43.151869 C-1.41522989,43.151869 -1.41522989,29 8.24568966,29 L382.900862,29 C392.561782,29 392.561782,44.151869 382.900862,44.151869 Z" id="Shape"></path>
                        <path d="M382.900862,73.6850455 L8.24568966,72.6850455 C-1.41522989,72.6850455 -1.41522989,58.5331765 8.24568966,58.5331765 L382.900862,58.5331765 C392.561782,58.5331765 392.561782,73.6850455 382.900862,73.6850455 Z" id="Shape"></path>
                        <path d="M352.219099,103.218222 L37.8711505,102.218222 C29.7653229,102.218222 29.7653229,88.0663531 37.8711505,88.0663531 L352.219099,88.0663531 C360.324927,88.0663531 360.324927,103.218222 352.219099,103.218222 Z" id="Shape"></path>
                        <path d="M352.219099,132.751399 L37.8711505,131.751399 C29.7653229,131.751399 29.7653229,117.59953 37.8711505,117.59953 L352.219099,117.59953 C360.324927,117.59953 360.324927,132.751399 352.219099,132.751399 Z" id="Shape"></path>
                        <path d="M352.219099,161.151869 L37.8711505,160.151869 C29.7653229,160.151869 29.7653229,146 37.8711505,146 L352.219099,146 C360.324927,146 360.324927,161.151869 352.219099,161.151869 Z" id="Shape"></path>
                    </g>
                </g>
                <g id="Admit-One" transform="translate(46.000000, 19.000000)">
                    <path d="M42.6062881,72 L62.2234756,20.953125 L73.7195693,20.953125 L93.1609756,72 L82.3680068,72 L78.1141006,60.328125 L57.3719131,60.328125 L53.1180068,72 L42.6062881,72 Z M60.7117568,51.2578125 L74.8094131,51.2578125 L67.7430068,31.9570312 L60.7117568,51.2578125 Z M99.7000381,72 L99.7000381,20.953125 L117.981288,20.953125 C121.614119,20.953125 124.971507,21.5331973 128.053554,22.6933594 C131.1356,23.8535214 133.79573,25.5058487 136.034022,27.6503906 C138.272315,29.7949326 140.02425,32.4843588 141.289882,35.71875 C142.555513,38.9531412 143.188319,42.5507614 143.188319,46.5117188 C143.188319,51.761745 142.086768,56.3320118 139.883632,60.2226562 C137.680496,64.1133007 134.686385,67.0488182 130.90121,69.0292969 C127.116035,71.0097755 122.786,72 117.910976,72 L99.7000381,72 Z M109.649257,62.7890625 L117.559413,62.7890625 C119.692236,62.7890625 121.672685,62.4550815 123.500819,61.7871094 C125.328953,61.1191373 126.946125,60.1347721 128.352382,58.8339844 C129.758639,57.5331966 130.86605,55.8281355 131.674647,53.71875 C132.483245,51.6093645 132.887538,49.2070447 132.887538,46.5117188 C132.887538,43.8163928 132.489105,41.414073 131.692226,39.3046875 C130.895347,37.195302 129.793795,35.4843816 128.387538,34.171875 C126.981281,32.8593684 125.369969,31.8632846 123.553554,31.1835938 C121.737138,30.5039029 119.762549,30.1640625 117.629726,30.1640625 L109.649257,30.1640625 L109.649257,62.7890625 Z M151.801601,72 L151.801601,20.953125 L164.914882,20.953125 L180.243007,57.8320312 L195.219569,20.953125 L208.754726,20.953125 L208.754726,72 L198.946132,72 L198.946132,36.2109375 L184.285976,72 L175.989101,72 L161.293788,36.4921875 L161.293788,72 L151.801601,72 Z M220.391444,72 L220.391444,20.953125 L230.481288,20.953125 L230.481288,72 L220.391444,72 Z M237.442226,30.375 L237.442226,20.953125 L279.700038,20.953125 L279.700038,30.375 L263.563319,30.375 L263.563319,72 L253.578944,72 L253.578944,30.375 L237.442226,30.375 Z" id="ADMIT" fill="#8B6E22"></path>
                    <path d="M13.3914443,140.882812 C13.3914443,134.273404 14.3406536,128.085966 16.2391006,122.320312 C18.1375476,116.554659 20.739084,111.585958 24.0437881,107.414062 C27.3484921,103.242167 31.1687664,99.656265 35.5047256,96.65625 C39.8406848,93.656235 44.492982,91.4179761 49.4617568,89.9414062 C54.4305317,88.4648364 59.492981,87.7265625 64.6492568,87.7265625 C69.8055326,87.7265625 74.867982,88.4648364 79.8367568,89.9414062 C84.8055317,91.4179761 89.4578289,93.656235 93.7937881,96.65625 C98.1297473,99.656265 101.950022,103.242167 105.254726,107.414062 C108.55943,111.585958 111.160966,116.554659 113.059413,122.320312 C114.95786,128.085966 115.907069,134.273404 115.907069,140.882812 C115.907069,147.492221 114.95786,153.691377 113.059413,159.480469 C111.160966,165.26956 108.55943,170.249979 105.254726,174.421875 C101.950022,178.593771 98.1297473,182.191391 93.7937881,185.214844 C89.4578289,188.238296 84.8055317,190.488274 79.8367568,191.964844 C74.867982,193.441414 69.8055326,194.179688 64.6492568,194.179688 C59.492981,194.179688 54.4305317,193.441414 49.4617568,191.964844 C44.492982,190.488274 39.8406848,188.238296 35.5047256,185.214844 C31.1687664,182.191391 27.3484921,178.593771 24.0437881,174.421875 C20.739084,170.249979 18.1375476,165.26956 16.2391006,159.480469 C14.3406536,153.691377 13.3914443,147.492221 13.3914443,140.882812 Z M27.8055068,140.882812 C27.8055068,147.30472 28.8250279,153.12888 30.8641006,158.355469 C32.9031733,163.582057 35.657052,167.824202 39.1258193,171.082031 C42.5945867,174.33986 46.50861,176.835929 50.8680068,178.570312 C55.2274036,180.304696 59.8211077,181.171875 64.6492568,181.171875 C69.477406,181.171875 74.07111,180.304696 78.4305068,178.570312 C82.7899036,176.835929 86.703927,174.33986 90.1726943,171.082031 C93.6414617,167.824202 96.407059,163.582057 98.4695693,158.355469 C100.53208,153.12888 101.563319,147.30472 101.563319,140.882812 C101.563319,134.460905 100.53208,128.648464 98.4695693,123.445312 C96.407059,118.242161 93.6414617,114.011735 90.1726943,110.753906 C86.703927,107.496077 82.7899036,105.011727 78.4305068,103.300781 C74.07111,101.589835 69.477406,100.734375 64.6492568,100.734375 C59.8211077,100.734375 55.2274036,101.589835 50.8680068,103.300781 C46.50861,105.011727 42.5945867,107.496077 39.1258193,110.753906 C35.657052,114.011735 32.9031733,118.242161 30.8641006,123.445312 C28.8250279,128.648464 27.8055068,134.460905 27.8055068,140.882812 Z M135.313319,192 L135.313319,89.90625 L154.227382,89.90625 L205.203944,168.234375 L205.203944,89.90625 L219.266444,89.90625 L219.266444,192 L204.571132,192 L149.446132,108.75 L149.446132,192 L135.313319,192 Z M245.141444,192 L245.141444,89.90625 L307.227382,89.90625 L307.227382,102.984375 L259.274257,102.984375 L259.274257,134.414062 L302.797694,134.414062 L302.797694,147.632812 L259.274257,147.632812 L259.274257,178.921875 L307.227382,178.921875 L307.227382,192 L245.141444,192 Z" id="ONE" fill="#FFFFFF"></path>
                </g>
                <g id="Left-Stars" transform="translate(4.000000, 13.000000)" fill="#CAA43D">
                    <polygon id="Star" points="5 7.19387755 2.06107374 8.67589783 2.62235871 5.53692851 0.244717419 3.31389809 3.53053687 2.85592864 5 0 6.46946313 2.85592864 9.75528258 3.31389809 7.37764129 5.53692851 7.93892626 8.67589783"></polygon>
                    <polygon id="Star" points="5 17.1938776 2.06107374 18.6758978 2.62235871 15.5369285 0.244717419 13.3138981 3.53053687 12.8559286 5 10 6.46946313 12.8559286 9.75528258 13.3138981 7.37764129 15.5369285 7.93892626 18.6758978"></polygon>
                    <polygon id="Star" points="5 27.1938776 2.06107374 28.6758978 2.62235871 25.5369285 0.244717419 23.3138981 3.53053687 22.8559286 5 20 6.46946313 22.8559286 9.75528258 23.3138981 7.37764129 25.5369285 7.93892626 28.6758978"></polygon>
                    <polygon id="Star" points="5 37.1938776 2.06107374 38.6758978 2.62235871 35.5369285 0.244717419 33.3138981 3.53053687 32.8559286 5 30 6.46946313 32.8559286 9.75528258 33.3138981 7.37764129 35.5369285 7.93892626 38.6758978"></polygon>
                    <polygon id="Star" points="5 47.1938776 2.06107374 48.6758978 2.62235871 45.5369285 0.244717419 43.3138981 3.53053687 42.8559286 5 40 6.46946313 42.8559286 9.75528258 43.3138981 7.37764129 45.5369285 7.93892626 48.6758978"></polygon>
                    <polygon id="Star" points="5 57.1938776 2.06107374 58.6758978 2.62235871 55.5369285 0.244717419 53.3138981 3.53053687 52.8559286 5 50 6.46946313 52.8559286 9.75528258 53.3138981 7.37764129 55.5369285 7.93892626 58.6758978"></polygon>
                    <polygon id="Star" points="5 67.1938776 2.06107374 68.6758978 2.62235871 65.5369285 0.244717419 63.3138981 3.53053687 62.8559286 5 60 6.46946313 62.8559286 9.75528258 63.3138981 7.37764129 65.5369285 7.93892626 68.6758978"></polygon>
                    <polygon id="Star" points="5 77.1938776 2.06107374 78.6758978 2.62235871 75.5369285 0.244717419 73.3138981 3.53053687 72.8559286 5 70 6.46946313 72.8559286 9.75528258 73.3138981 7.37764129 75.5369285 7.93892626 78.6758978"></polygon>
                    <polygon id="Star" points="5 160.193878 2.06107374 161.675898 2.62235871 158.536929 0.244717419 156.313898 3.53053687 155.855929 5 153 6.46946313 155.855929 9.75528258 156.313898 7.37764129 158.536929 7.93892626 161.675898"></polygon>
                    <polygon id="Star" points="5 170.193878 2.06107374 171.675898 2.62235871 168.536929 0.244717419 166.313898 3.53053687 165.855929 5 163 6.46946313 165.855929 9.75528258 166.313898 7.37764129 168.536929 7.93892626 171.675898"></polygon>
                    <polygon id="Star" points="5 180.193878 2.06107374 181.675898 2.62235871 178.536929 0.244717419 176.313898 3.53053687 175.855929 5 173 6.46946313 175.855929 9.75528258 176.313898 7.37764129 178.536929 7.93892626 181.675898"></polygon>
                    <polygon id="Star" points="5 190.193878 2.06107374 191.675898 2.62235871 188.536929 0.244717419 186.313898 3.53053687 185.855929 5 183 6.46946313 185.855929 9.75528258 186.313898 7.37764129 188.536929 7.93892626 191.675898"></polygon>
                    <polygon id="Star" points="5 200.193878 2.06107374 201.675898 2.62235871 198.536929 0.244717419 196.313898 3.53053687 195.855929 5 193 6.46946313 195.855929 9.75528258 196.313898 7.37764129 198.536929 7.93892626 201.675898"></polygon>
                    <polygon id="Star" points="5 210.193878 2.06107374 211.675898 2.62235871 208.536929 0.244717419 206.313898 3.53053687 205.855929 5 203 6.46946313 205.855929 9.75528258 206.313898 7.37764129 208.536929 7.93892626 211.675898"></polygon>
                    <polygon id="Star" points="5 220.193878 2.06107374 221.675898 2.62235871 218.536929 0.244717419 216.313898 3.53053687 215.855929 5 213 6.46946313 215.855929 9.75528258 216.313898 7.37764129 218.536929 7.93892626 221.675898"></polygon>
                    <polygon id="Star" points="5 230.193878 2.06107374 231.675898 2.62235871 228.536929 0.244717419 226.313898 3.53053687 225.855929 5 223 6.46946313 225.855929 9.75528258 226.313898 7.37764129 228.536929 7.93892626 231.675898"></polygon>
                </g>
                <g id="Left-Stars" transform="translate(401.000000, 13.000000)" fill="#CAA43D">
                    <polygon id="Star" points="5 7.19387755 2.06107374 8.67589783 2.62235871 5.53692851 0.244717419 3.31389809 3.53053687 2.85592864 5 0 6.46946313 2.85592864 9.75528258 3.31389809 7.37764129 5.53692851 7.93892626 8.67589783"></polygon>
                    <polygon id="Star" points="5 17.1938776 2.06107374 18.6758978 2.62235871 15.5369285 0.244717419 13.3138981 3.53053687 12.8559286 5 10 6.46946313 12.8559286 9.75528258 13.3138981 7.37764129 15.5369285 7.93892626 18.6758978"></polygon>
                    <polygon id="Star" points="5 27.1938776 2.06107374 28.6758978 2.62235871 25.5369285 0.244717419 23.3138981 3.53053687 22.8559286 5 20 6.46946313 22.8559286 9.75528258 23.3138981 7.37764129 25.5369285 7.93892626 28.6758978"></polygon>
                    <polygon id="Star" points="5 37.1938776 2.06107374 38.6758978 2.62235871 35.5369285 0.244717419 33.3138981 3.53053687 32.8559286 5 30 6.46946313 32.8559286 9.75528258 33.3138981 7.37764129 35.5369285 7.93892626 38.6758978"></polygon>
                    <polygon id="Star" points="5 47.1938776 2.06107374 48.6758978 2.62235871 45.5369285 0.244717419 43.3138981 3.53053687 42.8559286 5 40 6.46946313 42.8559286 9.75528258 43.3138981 7.37764129 45.5369285 7.93892626 48.6758978"></polygon>
                    <polygon id="Star" points="5 57.1938776 2.06107374 58.6758978 2.62235871 55.5369285 0.244717419 53.3138981 3.53053687 52.8559286 5 50 6.46946313 52.8559286 9.75528258 53.3138981 7.37764129 55.5369285 7.93892626 58.6758978"></polygon>
                    <polygon id="Star" points="5 67.1938776 2.06107374 68.6758978 2.62235871 65.5369285 0.244717419 63.3138981 3.53053687 62.8559286 5 60 6.46946313 62.8559286 9.75528258 63.3138981 7.37764129 65.5369285 7.93892626 68.6758978"></polygon>
                    <polygon id="Star" points="5 77.1938776 2.06107374 78.6758978 2.62235871 75.5369285 0.244717419 73.3138981 3.53053687 72.8559286 5 70 6.46946313 72.8559286 9.75528258 73.3138981 7.37764129 75.5369285 7.93892626 78.6758978"></polygon>
                    <polygon id="Star" points="5 160.193878 2.06107374 161.675898 2.62235871 158.536929 0.244717419 156.313898 3.53053687 155.855929 5 153 6.46946313 155.855929 9.75528258 156.313898 7.37764129 158.536929 7.93892626 161.675898"></polygon>
                    <polygon id="Star" points="5 170.193878 2.06107374 171.675898 2.62235871 168.536929 0.244717419 166.313898 3.53053687 165.855929 5 163 6.46946313 165.855929 9.75528258 166.313898 7.37764129 168.536929 7.93892626 171.675898"></polygon>
                    <polygon id="Star" points="5 180.193878 2.06107374 181.675898 2.62235871 178.536929 0.244717419 176.313898 3.53053687 175.855929 5 173 6.46946313 175.855929 9.75528258 176.313898 7.37764129 178.536929 7.93892626 181.675898"></polygon>
                    <polygon id="Star" points="5 190.193878 2.06107374 191.675898 2.62235871 188.536929 0.244717419 186.313898 3.53053687 185.855929 5 183 6.46946313 185.855929 9.75528258 186.313898 7.37764129 188.536929 7.93892626 191.675898"></polygon>
                    <polygon id="Star" points="5 200.193878 2.06107374 201.675898 2.62235871 198.536929 0.244717419 196.313898 3.53053687 195.855929 5 193 6.46946313 195.855929 9.75528258 196.313898 7.37764129 198.536929 7.93892626 201.675898"></polygon>
                    <polygon id="Star" points="5 210.193878 2.06107374 211.675898 2.62235871 208.536929 0.244717419 206.313898 3.53053687 205.855929 5 203 6.46946313 205.855929 9.75528258 206.313898 7.37764129 208.536929 7.93892626 211.675898"></polygon>
                    <polygon id="Star" points="5 220.193878 2.06107374 221.675898 2.62235871 218.536929 0.244717419 216.313898 3.53053687 215.855929 5 213 6.46946313 215.855929 9.75528258 216.313898 7.37764129 218.536929 7.93892626 221.675898"></polygon>
                    <polygon id="Star" points="5 230.193878 2.06107374 231.675898 2.62235871 228.536929 0.244717419 226.313898 3.53053687 225.855929 5 223 6.46946313 225.855929 9.75528258 226.313898 7.37764129 228.536929 7.93892626 231.675898"></polygon>
                </g>
                <path d="M79.9785156,240.820312 L79.9785156,239.683594 L83.1660156,239.109375 L83.1660156,240.667969 C83.1738282,241.511723 83.392576,242.146482 83.8222656,242.572266 C84.2519553,242.998049 84.8183559,243.210938 85.5214844,243.210938 C86.2168004,243.210938 86.7675761,242.98633 87.1738281,242.537109 C87.5800802,242.087888 87.7832031,241.488285 87.7832031,240.738281 L87.7832031,228.984375 L91.0878906,228.984375 L91.0878906,240.738281 C91.0878906,241.761724 90.8593773,242.699214 90.4023438,243.550781 C89.9453102,244.402348 89.2910199,245.083982 88.4394531,245.595703 C87.5878864,246.107424 86.6230523,246.363281 85.5449219,246.363281 C83.865226,246.363281 82.5175832,245.857427 81.5019531,244.845703 C80.486323,243.833979 79.9785156,242.492196 79.9785156,240.820312 Z M97.4472656,246 L103.986328,228.984375 L107.818359,228.984375 L114.298828,246 L110.701172,246 L109.283203,242.109375 L102.369141,242.109375 L100.951172,246 L97.4472656,246 Z M103.482422,239.085938 L108.181641,239.085938 L105.826172,232.652344 L103.482422,239.085938 Z M120.470703,237.503906 C120.470703,236.183587 120.708982,234.960943 121.185547,233.835938 C121.662112,232.710932 122.298824,231.771488 123.095703,231.017578 C123.892582,230.263668 124.812495,229.675783 125.855469,229.253906 C126.898443,228.832029 127.990229,228.621094 129.130859,228.621094 C130.255865,228.621094 131.287105,228.783202 132.224609,229.107422 C133.162114,229.431642 133.941403,229.869138 134.5625,230.419922 C135.183597,230.970706 135.691404,231.568356 136.085938,232.212891 C136.480471,232.857425 136.763671,233.542965 136.935547,234.269531 L133.818359,235.242188 C133.708984,234.804685 133.54297,234.394533 133.320312,234.011719 C133.097655,233.628904 132.804689,233.26758 132.441406,232.927734 C132.078123,232.587889 131.611331,232.31836 131.041016,232.119141 C130.4707,231.919921 129.833988,231.820312 129.130859,231.820312 C128.474606,231.820312 127.8418,231.937499 127.232422,232.171875 C126.623044,232.406251 126.068362,232.749998 125.568359,233.203125 C125.068357,233.656252 124.666017,234.253903 124.361328,234.996094 C124.056639,235.738285 123.904297,236.574214 123.904297,237.503906 C123.904297,238.378911 124.05078,239.177731 124.34375,239.900391 C124.63672,240.62305 125.029294,241.214841 125.521484,241.675781 C126.013674,242.136721 126.574216,242.492186 127.203125,242.742188 C127.832034,242.992189 128.490231,243.117188 129.177734,243.117188 C129.740237,243.117188 130.263669,243.046876 130.748047,242.90625 C131.232424,242.765624 131.646483,242.580079 131.990234,242.349609 C132.333986,242.119139 132.642577,241.849611 132.916016,241.541016 C133.189454,241.23242 133.408202,240.921877 133.572266,240.609375 C133.736329,240.296873 133.865234,239.972658 133.958984,239.636719 L137.052734,240.574219 C136.919921,241.121096 136.718751,241.656247 136.449219,242.179688 C136.179686,242.703128 135.820315,243.222654 135.371094,243.738281 C134.921873,244.253909 134.410159,244.703123 133.835938,245.085938 C133.261716,245.468752 132.57227,245.777343 131.767578,246.011719 C130.962887,246.246095 130.099614,246.363281 129.177734,246.363281 C127.990228,246.363281 126.867193,246.154299 125.808594,245.736328 C124.749995,245.318357 123.826176,244.732426 123.037109,243.978516 C122.248043,243.224606 121.623049,242.287115 121.162109,241.166016 C120.70117,240.044916 120.470703,238.824225 120.470703,237.503906 Z M144.806641,246 L144.806641,228.984375 L148.123047,228.984375 L148.123047,236.683594 L154.931641,228.984375 L159.279297,228.984375 L152.529297,236.402344 L159.326172,246 L155.177734,246 L150.232422,238.945312 L148.123047,241.277344 L148.123047,246 L144.806641,246 Z M166.552734,246 L166.552734,228.984375 L172.916016,228.984375 C174.580086,228.984375 175.927729,229.482417 176.958984,230.478516 C177.99024,231.474614 178.505859,232.746086 178.505859,234.292969 C178.505859,235.847664 177.992193,237.119136 176.964844,238.107422 C175.937495,239.095708 174.587899,239.589844 172.916016,239.589844 L169.869141,239.589844 L169.869141,246 L166.552734,246 Z M169.892578,236.730469 L172.505859,236.730469 C173.326176,236.730469 173.974607,236.511721 174.451172,236.074219 C174.927737,235.636717 175.166016,235.050785 175.166016,234.316406 C175.166016,233.55859 174.92969,232.96094 174.457031,232.523438 C173.984373,232.085935 173.333989,231.867188 172.505859,231.867188 L169.892578,231.867188 L169.892578,236.730469 Z M185.087891,237.503906 C185.087891,236.167962 185.326169,234.935553 185.802734,233.806641 C186.279299,232.677729 186.919918,231.740238 187.724609,230.994141 C188.529301,230.248043 189.457026,229.666018 190.507812,229.248047 C191.558599,228.830076 192.662104,228.621094 193.818359,228.621094 C194.974615,228.621094 196.082026,228.830076 197.140625,229.248047 C198.199224,229.666018 199.130855,230.248043 199.935547,230.994141 C200.740238,231.740238 201.38281,232.677729 201.863281,233.806641 C202.343752,234.935553 202.583984,236.167962 202.583984,237.503906 C202.583984,238.832038 202.343752,240.058588 201.863281,241.183594 C201.38281,242.308599 200.740238,243.244137 199.935547,243.990234 C199.130855,244.736332 198.199224,245.318357 197.140625,245.736328 C196.082026,246.154299 194.974615,246.363281 193.818359,246.363281 C192.662104,246.363281 191.558599,246.154299 190.507812,245.736328 C189.457026,245.318357 188.529301,244.736332 187.724609,243.990234 C186.919918,243.244137 186.279299,242.308599 185.802734,241.183594 C185.326169,240.058588 185.087891,238.832038 185.087891,237.503906 Z M188.521484,237.480469 C188.521484,238.402348 188.673827,239.234371 188.978516,239.976562 C189.283205,240.718754 189.689451,241.314451 190.197266,241.763672 C190.705081,242.212893 191.267575,242.554686 191.884766,242.789062 C192.501956,243.023439 193.146481,243.140625 193.818359,243.140625 C194.357425,243.140625 194.880857,243.06836 195.388672,242.923828 C195.896487,242.779296 196.378904,242.554689 196.835938,242.25 C197.292971,241.945311 197.691405,241.574221 198.03125,241.136719 C198.371095,240.699217 198.642577,240.166019 198.845703,239.537109 C199.048829,238.9082 199.150391,238.22266 199.150391,237.480469 C199.150391,236.738278 199.048829,236.052738 198.845703,235.423828 C198.642577,234.794919 198.371095,234.261721 198.03125,233.824219 C197.691405,233.386717 197.292971,233.015627 196.835938,232.710938 C196.378904,232.406248 195.896487,232.181641 195.388672,232.037109 C194.880857,231.892577 194.357425,231.820312 193.818359,231.820312 C193.146481,231.820312 192.501956,231.937499 191.884766,232.171875 C191.267575,232.406251 190.705081,232.748045 190.197266,233.197266 C189.689451,233.646487 189.283205,234.242184 188.978516,234.984375 C188.673827,235.726566 188.521484,236.558589 188.521484,237.480469 Z M208.439453,232.125 L208.439453,228.984375 L222.525391,228.984375 L222.525391,232.125 L217.146484,232.125 L217.146484,246 L213.818359,246 L213.818359,232.125 L208.439453,232.125 Z M240.763672,246 L240.763672,228.984375 L251.416016,228.984375 L251.416016,232.101562 L244.080078,232.101562 L244.080078,235.992188 L250.724609,235.992188 L250.724609,238.945312 L244.080078,238.945312 L244.080078,242.882812 L251.416016,242.882812 L251.416016,246 L240.763672,246 Z M259.720703,246 L259.720703,228.984375 L263.845703,228.984375 L270.923828,240.234375 L270.923828,228.984375 L274.240234,228.984375 L274.240234,246 L270.759766,246 L263.037109,233.929688 L263.037109,246 L259.720703,246 Z M281.560547,232.125 L281.560547,228.984375 L295.646484,228.984375 L295.646484,232.125 L290.267578,232.125 L290.267578,246 L286.939453,246 L286.939453,232.125 L281.560547,232.125 Z M302.966797,246 L302.966797,228.984375 L309.611328,228.984375 C311.244149,228.984375 312.556636,229.478511 313.548828,230.466797 C314.541021,231.455083 315.037109,232.703117 315.037109,234.210938 C315.037109,235.390631 314.712894,236.410152 314.064453,237.269531 C313.416012,238.128911 312.533209,238.718748 311.416016,239.039062 L315.060547,246 L311.369141,246 L308.029297,239.449219 L306.306641,239.449219 L306.306641,246 L302.966797,246 Z M306.306641,236.589844 L308.990234,236.589844 C309.818364,236.589844 310.468748,236.375002 310.941406,235.945312 C311.414065,235.515623 311.650391,234.945316 311.650391,234.234375 C311.650391,233.507809 311.414065,232.931643 310.941406,232.505859 C310.468748,232.080076 309.818364,231.867188 308.990234,231.867188 L306.306641,231.867188 L306.306641,236.589844 Z M321.021484,228.984375 L324.912109,228.984375 L328.732422,235.722656 L332.552734,228.984375 L336.267578,228.984375 L330.267578,238.851562 L330.267578,246 L326.951172,246 L326.951172,238.851562 L321.021484,228.984375 Z" id="JACKPOT-ENTRY" fill="#FFFFFF"></path>
            </g>
        </g>
    </g>
</svg>