<svg id="レイヤー_1" data-name="レイヤー 1" xmlns="http://www.w3.org/2000/svg" viewBox="0 0 1000 270"><defs><style>.cls-1{fill:#e2e2e0;}.cls-2{fill:#34a58f;}.cls-3{fill:#633b28;}.cls-4{fill:#fff;}.cls-5{fill:#197f6c;}.cls-6{fill:#f4b20c;}.cls-7{fill:none;stroke:#fff;stroke-linecap:round;stroke-linejoin:round;stroke-width:4px;}.cls-8{fill:#c9c9c9;}.cls-9{fill:#398e2d;}.cls-10{fill:#ed480f;}.cls-11{fill:#696a7f;}.cls-12{fill:#754c2e;}.cls-13{fill:#365489;}.cls-14{fill:#aac696;}</style></defs><title>4</title><path class="cls-1" d="M990.27,266.28s-3.33-19.89-19.13-29.36-52.27-7.58-52.27-7.58-32.44-17-52.41-18.94S819.87,218,819.87,218s-35.77-11.37-71.54-8.52-42.43,14.21-42.43,14.21-31.61-9.47-61.56-8.52-47.51,9.4-47.51,9.4a170.94,170.94,0,0,0-59-5.62c-31.61,2.84-39,5.62-39,5.62a133.87,133.87,0,0,0-25.07-2.77c-12.48,0-19.13,6.63-19.13,6.63s-39.93-14.21-96.5-12.31-87.31,7.21-87.31,7.21-36.64-5.32-64.09-4.37S150.21,235,150.21,235,47.89,212.3,25.43,223.66-16.17,248.29-17,264.39C-18.66,263.44,985.9,266.28,990.27,266.28Z"/><path class="cls-1" d="M1642.27,266.28s-3.33-19.89-19.13-29.36-52.27-7.58-52.27-7.58-32.44-17-52.41-18.94-46.58,7.58-46.58,7.58-35.77-11.37-71.54-8.52-42.43,14.21-42.43,14.21-31.61-9.47-61.56-8.52-47.51,9.4-47.51,9.4a170.94,170.94,0,0,0-59-5.62c-31.61,2.84-39,5.62-39,5.62a133.87,133.87,0,0,0-25.07-2.77c-12.48,0-19.13,6.63-19.13,6.63s-39.93-14.21-96.5-12.31-87.31,7.21-87.31,7.21-36.64-5.32-64.09-4.37S802.21,235,802.21,235,699.89,212.3,677.43,223.66,635.83,248.29,635,264.39C633.34,263.44,1637.9,266.28,1642.27,266.28Z"/><path class="cls-2" d="M111.43,44.71,99.14,64.1c-.63,1-.05,2.44,1,2.44H124.7c1,0,1.6-1.44,1-2.44l-12.3-19.39A1.1,1.1,0,0,0,111.43,44.71Z"/><path class="cls-2" d="M110.85,54.65l-19.67,31c-1,1.59-.08,3.9,1.55,3.9h39.34c1.64,0,2.56-2.31,1.55-3.9L114,54.65A1.76,1.76,0,0,0,110.85,54.65Z"/><path class="cls-2" d="M109.69,68.28,75.26,122.57c-1.76,2.78-.15,6.82,2.72,6.82h68.85c2.87,0,4.48-4,2.72-6.82L115.13,68.28A3.08,3.08,0,0,0,109.69,68.28Z"/><rect class="cls-3" x="99.32" y="146.11" width="26.17" height="93.89"/><path class="cls-2" d="M108.71,87.53,62,160.25c-2.39,3.77-.2,9.26,3.69,9.26l46.72,1h46.72c3.89,0,6.08-5.49,3.69-9.26L116.1,87.53A4.18,4.18,0,0,0,108.71,87.53Z"/><path class="cls-4" d="M111.82,42.88,104.45,54.1a.89.89,0,0,0,.58,1.41l2.14.6a19.46,19.46,0,0,0,10.47,0l2.14-.6a.89.89,0,0,0,.58-1.41L113,42.88A.7.7,0,0,0,111.82,42.88Z"/><rect class="cls-4" x="90.76" y="83.88" width="21.64" height="5.41" rx="2.71" ry="2.71"/><rect class="cls-4" x="120.52" y="121.76" width="32.47" height="8.12" rx="4.06" ry="4.06"/><rect class="cls-4" x="69.12" y="162.34" width="32.47" height="8.12" rx="4.06" ry="4.06"/><path class="cls-2" d="M752.88,44.71,740.58,64.1c-.63,1-.05,2.44,1,2.44h24.59c1,0,1.6-1.44,1-2.44l-12.3-19.39A1.1,1.1,0,0,0,752.88,44.71Z"/><path class="cls-2" d="M752.29,54.65l-19.67,31c-1,1.59-.08,3.9,1.55,3.9h39.34c1.64,0,2.56-2.31,1.55-3.9l-19.67-31A1.76,1.76,0,0,0,752.29,54.65Z"/><path class="cls-2" d="M751.13,68.28,716.7,122.57c-1.76,2.78-.15,6.82,2.72,6.82h68.85c2.87,0,4.48-4,2.72-6.82L756.57,68.28A3.08,3.08,0,0,0,751.13,68.28Z"/><rect class="cls-3" x="740.76" y="146.11" width="26.17" height="93.89"/><path class="cls-2" d="M750.16,87.53l-46.72,72.72c-2.39,3.77-.2,9.26,3.69,9.26l46.72,1h46.72c3.89,0,6.08-5.49,3.69-9.26L757.54,87.53A4.18,4.18,0,0,0,750.16,87.53Z"/><path class="cls-4" d="M753.26,42.88,745.89,54.1a.89.89,0,0,0,.58,1.41l2.14.6a19.46,19.46,0,0,0,10.47,0l2.14-.6a.89.89,0,0,0,.58-1.41l-7.38-11.22A.7.7,0,0,0,753.26,42.88Z"/><rect class="cls-4" x="732.2" y="83.88" width="21.64" height="5.41" rx="2.71" ry="2.71"/><rect class="cls-4" x="761.96" y="121.76" width="32.47" height="8.12" rx="4.06" ry="4.06"/><rect class="cls-4" x="710.56" y="162.34" width="32.47" height="8.12" rx="4.06" ry="4.06"/><path class="cls-2" d="M397.39,38.49,386.32,56c-.57.89,0,2.19.88,2.19h22.15c.92,0,1.44-1.3.88-2.19L399.14,38.49A1,1,0,0,0,397.39,38.49Z"/><path class="cls-2" d="M396.87,47.44,379.14,75.39c-.91,1.43-.08,3.51,1.4,3.51H416c1.48,0,2.31-2.08,1.4-3.51L399.67,47.44A1.59,1.59,0,0,0,396.87,47.44Z"/><path class="cls-2" d="M395.82,59.72l-31,48.91c-1.59,2.5-.13,6.14,2.45,6.14h62c2.58,0,4-3.64,2.45-6.14l-31-48.91A2.78,2.78,0,0,0,395.82,59.72Z"/><rect class="cls-3" x="383.21" y="115.91" width="30.11" height="124.09"/><path class="cls-2" d="M394.94,77.06l-42.09,66.38c-2.15,3.39-.18,8.34,3.33,8.34h84.18c3.51,0,5.48-4.95,3.33-8.34L401.59,77.06A3.77,3.77,0,0,0,394.94,77.06Z"/><path class="cls-4" d="M397.74,36.84,391.1,46.95a.81.81,0,0,0,.53,1.27l1.93.54a17.53,17.53,0,0,0,9.43,0l1.93-.54a.81.81,0,0,0,.53-1.27l-6.65-10.11A.63.63,0,0,0,397.74,36.84Z"/><rect class="cls-4" x="377.83" y="74.71" width="19.5" height="4.88" rx="2.44" ry="2.44"/><rect class="cls-4" x="395.83" y="107.9" width="29.25" height="7.31" rx="3.66" ry="3.66"/><rect class="cls-3" x="560.94" y="138.85" width="30.53" height="93.15"/><path class="cls-5" d="M572,42.15,560.32,60.64c-.6.95-.05,2.32.93,2.32H584.7c1,0,1.53-1.38.93-2.32L573.9,42.15A1,1,0,0,0,572,42.15Z"/><path class="cls-5" d="M571.49,51.63,552.73,81.21c-1,1.51-.08,3.72,1.48,3.72h37.52c1.56,0,2.44-2.2,1.48-3.72L574.46,51.63A1.68,1.68,0,0,0,571.49,51.63Z"/><path class="cls-5" d="M570.38,64.63,537.55,116.4c-1.68,2.65-.14,6.5,2.59,6.5h65.66c2.73,0,4.27-3.86,2.59-6.5L575.57,64.63A2.94,2.94,0,0,0,570.38,64.63Z"/><path class="cls-5" d="M569.46,83,524.9,153.25c-2.28,3.59-.19,8.83,3.52,8.83h89.11c3.71,0,5.8-5.24,3.52-8.83L576.5,83A4,4,0,0,0,569.46,83Z"/><path class="cls-6" d="M573.62,34.65l1.46,3a.66.66,0,0,0,.5.36l3.27.48a.66.66,0,0,1,.37,1.12l-2.37,2.31a.66.66,0,0,0-.19.58l.56,3.26a.66.66,0,0,1-1,.69l-2.92-1.54a.66.66,0,0,0-.61,0l-2.92,1.54a.66.66,0,0,1-1-.69l.56-3.26a.66.66,0,0,0-.19-.58l-2.37-2.31a.66.66,0,0,1,.37-1.12l3.27-.48a.66.66,0,0,0,.5-.36l1.46-3A.66.66,0,0,1,573.62,34.65Z"/><path class="cls-7" d="M579.6,52s-2.5,18.12-22.81,22.81"/><path class="cls-7" d="M561.47,67.66s5,37.49,40,35.62"/><path class="cls-7" d="M599.9,103.28s-14.06,40.62-67.8,38.43"/><path class="cls-7" d="M549.6,97.34s8.75,39.68,65,45.3"/><circle class="cls-6" cx="562.72" cy="100.78" r="3.12"/><circle class="cls-8" cx="576.16" cy="114.21" r="3.12"/><circle class="cls-9" cx="550.85" cy="128.27" r="3.12"/><circle class="cls-10" cx="580.22" cy="82.66" r="3.12"/><circle class="cls-10" cx="585.22" cy="148.89" r="3.12"/><polygon class="cls-8" points="908.83 139.27 908.44 139.27 849.76 139.27 849.76 224.5 908.44 224.5 908.83 224.5 946.89 224.5 946.89 139.27 908.83 139.27"/><polygon class="cls-9" points="927.07 102 927.07 140.46 903.74 140.46 927.07 102"/><polygon class="cls-11" points="927.47 102.65 927.47 102 869.59 102 869.59 102.65 846.65 140.46 869.59 140.46 869.98 140.46 927.07 140.46 927.47 140.46 950.4 140.46 927.47 102.65"/><ellipse class="cls-12" cx="923.76" cy="186.05" rx="9.91" ry="12.69"/><rect class="cls-12" x="913.85" y="184.86" width="19.82" height="39.65"/><rect class="cls-13" x="862.84" y="154.73" width="13.88" height="13.88"/><rect class="cls-13" x="879.5" y="154.73" width="13.88" height="13.88"/><rect class="cls-13" x="862.84" y="171.78" width="13.88" height="13.88"/><rect class="cls-13" x="879.5" y="171.78" width="13.88" height="13.88"/><rect class="cls-14" x="195.53" y="119.38" width="86.67" height="110.7"/><polygon class="cls-9" points="239.72 79.82 239.72 120.67 189.58 120.67 239.72 79.82"/><polygon class="cls-9" points="238.86 79.82 238.86 120.67 289 120.67 238.86 79.82"/><ellipse class="cls-9" cx="215.26" cy="188.89" rx="10.73" ry="13.73"/><rect class="cls-9" x="204.54" y="187.6" width="21.45" height="42.91"/><rect class="cls-12" x="232.85" y="191.89" width="15.45" height="8.58"/><rect class="cls-13" x="202.82" y="154.99" width="8.58" height="13.3"/><rect class="cls-13" x="216.12" y="154.99" width="8.58" height="13.3"/><rect class="cls-13" x="229.42" y="154.99" width="8.58" height="13.3"/><rect class="cls-13" x="242.72" y="154.99" width="8.58" height="13.3"/><rect class="cls-13" x="256.02" y="154.99" width="8.58" height="13.3"/><rect class="cls-13" x="269.32" y="154.99" width="8.58" height="13.3"/><rect class="cls-13" x="202.82" y="137.4" width="8.58" height="13.3"/><rect class="cls-13" x="216.12" y="137.4" width="8.58" height="13.3"/><rect class="cls-13" x="229.42" y="137.4" width="8.58" height="13.3"/><rect class="cls-13" x="242.72" y="137.4" width="8.58" height="13.3"/><rect class="cls-13" x="256.02" y="137.4" width="8.58" height="13.3"/><rect class="cls-13" x="269.32" y="137.4" width="8.58" height="13.3"/></svg>