<?xml version="1.0" encoding="UTF-8"?>
<svg width="713px" height="205px" viewBox="0 0 713 205" version="1.1" xmlns="http://www.w3.org/2000/svg" xmlns:xlink="http://www.w3.org/1999/xlink">
    <!-- Generator: Sketch 48.2 (47327) - http://www.bohemiancoding.com/sketch -->
    <title>SKNE</title>
    <desc>Created with Sketch.</desc>
    <defs></defs>
    <g id="Artboard" stroke="none" stroke-width="1" fill="none" fill-rule="evenodd">
        <path d="M137.953125,50.46875 L110.8125,50.46875 C107.249982,31.4374048 94.8751059,21.921875 73.6875,21.921875 C62.8124456,21.921875 54.0000338,24.570286 47.25,29.8671875 C40.4999662,35.164089 37.125,42.0780823 37.125,50.609375 C37.125,62.4219341 47.7186441,72.82808 68.90625,81.828125 L95.90625,93.21875 C112.875085,100.437536 124.687467,107.960898 131.34375,115.789062 C138.000033,123.617227 141.328125,133.906186 141.328125,146.65625 C141.328125,164.56259 134.976626,178.624949 122.273438,188.84375 C109.570249,199.062551 92.0626116,204.171875 69.75,204.171875 C29.343548,204.171875 6.37502766,186.687675 0.84375,151.71875 L30.09375,151.71875 L30.515625,154.109375 C34.2656438,172.390716 47.9061323,181.53125 71.4375,181.53125 C83.5313105,181.53125 93.4452738,178.648466 101.179687,172.882812 C108.914101,167.117159 112.78125,159.687545 112.78125,150.59375 C112.78125,138.031187 102.187606,127.29692 81,118.390625 L56.8125,108.265625 C39.0936614,100.765587 26.6484734,92.9375408 19.4765625,84.78125 C12.3046516,76.6249592 8.71875,66.1250642 8.71875,53.28125 C8.71875,18.1248242 30.0935362,0.546875 72.84375,0.546875 C111.562694,0.546875 133.218727,16.6717138 137.8125,48.921875 L137.953125,50.46875 Z M218.953125,5.046875 L218.953125,197 L193.640625,197 L193.640625,5.046875 L218.953125,5.046875 Z M317.671875,5.046875 L254.390625,97.71875 L329.765625,197 L296.296875,197 L223.3125,99.6875 L286.734375,5.046875 L317.671875,5.046875 Z M542.390625,5.046875 L542.390625,197 L509.203125,197 L400.5,39.078125 L400.5,197 L375.1875,197 L375.1875,5.046875 L408.65625,5.046875 L517.078125,163.390625 L517.078125,5.046875 L542.390625,5.046875 Z M710.71875,5.046875 L710.71875,28.8125 L630,28.8125 L630,85.765625 L708.890625,85.765625 L708.890625,109.671875 L630,109.671875 L630,172.25 L712.96875,172.25 L712.96875,197 L604.6875,197 L604.6875,5.046875 L710.71875,5.046875 Z" id="SKNE" fill="#E74C3C"></path>
    </g>
</svg>