<?xml version="1.0" encoding="UTF-8"?>
<svg width="317px" height="274px" viewBox="0 0 317 274" version="1.1" xmlns="http://www.w3.org/2000/svg" xmlns:xlink="http://www.w3.org/1999/xlink">
    <!-- Generator: Sketch 48.2 (47327) - http://www.bohemiancoding.com/sketch -->
    <title>Icon</title>
    <desc>Created with Sketch.</desc>
    <defs></defs>
    <g id="Artboard" stroke="none" stroke-width="1" fill="none" fill-rule="evenodd">
        <g id="Layer_1" fill-rule="nonzero">
            <g id="Icon">
                <path d="M167,48.47 C166.31474,50.1742988 165.227101,51.687387 163.83,52.88 C163.63,53.05 163.66,53.17 163.83,53.35 C164.164324,53.7148909 164.331644,54.2024951 164.291802,54.6957801 C164.251959,55.1890652 164.008552,55.6434952 163.62,55.95 C163.37188,56.1419247 163.072818,56.2566813 162.76,56.28 L157.76,56.28 C157.729126,55.2396825 157.819738,54.1993153 158.03,53.18 C158.53,50.84 166.03,47.18 160.53,33.34 C158.74,28.83 158.29,25.81 158.53,23.79 L162.8,23.79 C163.356727,23.8630151 163.845789,24.1958537 164.117972,24.6869673 C164.390155,25.1780809 164.413172,25.7692093 164.18,26.28 C163.895349,26.9148953 163.275279,27.3334423 162.58,27.36 C162.2,27.36 162.2,27.36 162.32,27.74 C162.79,29.03 163.27,30.32 163.73,31.62 C163.804503,31.8649014 163.942511,32.0857147 164.13,32.26 C165.045523,33.0756832 165.813453,34.0432068 166.4,35.12 C167.360531,36.8335541 167.959531,38.7258507 168.16,40.68 C168.460684,43.3334187 168.060731,46.019308 167,48.47 Z" id="Shape" fill="#F4F4F4"></path>
                <path d="M167.17,73 C146.05,80.42 130.83,65.33 129.33,58 C128.03,51.65 122.33,48.67 120.86,48 C121.709434,47.4950768 122.747424,47.4209347 123.66,47.8 L136.96,51.64 C138.96,52.23 139.85,53.85 139.1,55.51 C138.779939,56.1442972 138.254848,56.6517678 137.61,56.95 C136.12,57.77 134.61,58.61 133.14,59.4 C132.72,59.62 132.68,59.78 132.96,60.17 C137.74531,67.0072894 145.192133,71.5095124 153.47,72.57 C160.779455,73.6576932 168.229557,71.9354154 174.32,67.75 C179.781434,64.1393024 183.889631,58.8176403 186,52.62 L186,52.5 C186.21,51.89 186.4,51.29 186.57,50.67 C187.209,48.3020245 187.545015,45.8625506 187.57,43.41 C187.86,54.26 182.38,67.66 167.17,73 Z" id="Shape" fill="#E0E0E0"></path>
                <path d="M146.86,9.07 C167.98,1.65 183.2,16.74 184.7,24.07 C186,30.42 191.7,33.4 193.17,34.07 C192.320566,34.5749232 191.282576,34.6490653 190.37,34.27 L177.07,30.43 C175.07,29.84 174.18,28.22 174.93,26.56 C175.250061,25.9257028 175.775152,25.4182322 176.42,25.12 C177.91,24.3 179.42,23.46 180.89,22.67 C181.31,22.45 181.35,22.29 181.07,21.9 C176.28469,15.0627106 168.837867,10.5604876 160.56,9.5 C153.250545,8.41230679 145.800443,10.1345846 139.71,14.32 C134.235613,17.9283294 130.116239,23.2543181 128,29.46 C128,29.46 128,29.53 128,29.58 C127.79,30.19 127.6,30.79 127.43,31.41 C126.791,33.7779755 126.454985,36.2174494 126.43,38.67 C126.17,27.82 131.65,14.42 146.86,9.07 Z" id="Shape" fill="#E0E0E0"></path>
                <path d="M196.14,42.88 C196.166737,49.2952017 194.537545,55.6087513 191.41,61.21 C185.98,70.89 177.93,77.44 167.13,80.04 C152.33,83.61 139.56,79.64 129,68.64 C127.734511,67.3019183 126.596272,65.8489891 125.6,64.3 C125.32,63.89 125.13,63.8 124.66,64.07 C123.17,64.94 121.66,65.75 120.13,66.58 C117.96,67.77 116.55,67.32 115.51,65.1 L115.51,63.8 C116.139299,62.1155776 116.670193,60.3960131 117.1,58.65 C117.97,55.78 118.76,52.89 119.6,50.01 C119.766439,49.2137523 120.213645,48.5039008 120.86,48.01 C121.709434,47.5050768 122.747424,47.4309347 123.66,47.81 L136.96,51.65 C138.96,52.24 139.85,53.86 139.1,55.52 C138.779939,56.1542972 138.254848,56.6617678 137.61,56.96 C136.12,57.78 134.61,58.62 133.14,59.41 C132.72,59.63 132.68,59.79 132.96,60.18 C137.74531,67.0172894 145.192133,71.5195124 153.47,72.58 C160.779455,73.6676932 168.229557,71.9454154 174.32,67.76 C179.783182,64.1467491 183.891566,58.8213259 186,52.62 L186,52.5 C186.21,51.89 186.4,51.29 186.57,50.67 C187.209,48.3020245 187.545015,45.8625506 187.57,43.41 C187.574963,43.3501026 187.574963,43.2898974 187.57,43.23 C187.44511,41.5980299 188.234337,40.0311264 189.62,39.16 C190.899809,38.3215743 192.545766,38.2866365 193.86,39.07 C195.308643,39.7751162 196.203284,41.2701086 196.14,42.88 Z" id="Shape" fill="#F4F4F4"></path>
                <path d="M308,113 C307.962535,169.778259 276.077827,221.736254 225.472725,247.483016 C174.867622,273.229778 114.097037,268.412758 68.1800545,235.01511 C22.2630723,201.617462 -1.03793289,145.285136 7.87,89.21 C7.87,89.9966667 7.87,90.9166667 7.87,91.97 C7.95,95.86 8.11,101.53 8.77,108.62 C8.86,109.51 8.95,110.42 9.05,111.35 L9.12,112.07 L9.22,112.76 C9.28,113.24 9.35,113.76 9.41,114.2 C9.68,116.14 9.9,118.2 10.23,120.27 C10.56,122.34 10.96,124.53 11.35,126.79 C11.74,129.05 12.35,131.32 12.82,133.7 C13.29,136.08 14.04,138.47 14.67,140.97 C15.3,143.47 16.18,145.97 16.97,148.54 C18.74,153.64 20.63,158.97 23.09,164.32 C28.1316826,175.889867 34.5622596,186.803379 42.24,196.82 C46.4401563,202.230939 51.0040558,207.349456 55.9,212.14 C61.0398991,217.089148 66.5018451,221.692549 72.25,225.92 C78.2426592,230.188233 84.5356881,234.018191 91.08,237.38 C97.7552158,240.849322 104.709577,243.752827 111.87,246.06 L114.57,246.95 C115.48,247.25 116.4,247.46 117.32,247.72 L120.07,248.48 C120.99,248.73 121.9,249 122.84,249.19 L128.42,250.47 L134.08,251.47 L135.5,251.72 L136.92,251.9 L139.78,252.25 L142.64,252.61 L145.41,252.81 L148.19,253.02 L149.58,253.12 L151.12,253.12 L157.31,253.3 L162.83,253.17 L164.28,253.17 L165.72,253.06 L168.6,252.86 L171.48,252.65 L174.34,252.3 L177.2,251.95 L178.63,251.78 L180.05,251.53 C187.599326,250.375801 195.041035,248.603169 202.3,246.23 C216.498108,241.618974 229.901753,234.849694 242.04,226.16 C247.81543,221.942353 253.30419,217.345558 258.47,212.4 C263.379243,207.596161 267.956448,202.464345 272.17,197.04 C276.143577,191.861831 279.816298,186.459592 283.17,180.86 C283.98,179.5 284.72,178.11 285.48,176.76 C285.87,176.08 286.24,175.4 286.62,174.76 C287,174.12 287.31,173.38 287.62,172.7 C288.32,171.33 289,169.98 289.69,168.64 C290.38,167.3 290.92,165.91 291.54,164.57 C292.79,161.89 293.82,159.19 294.89,156.57 C295.45,155.26 295.89,153.93 296.33,152.62 L297.7,148.74 C298.5,146.15 299.26,143.61 299.98,141.14 C300.7,138.67 301.27,136.22 301.82,133.84 C302.37,131.46 302.82,129.14 303.27,126.9 C303.72,124.66 303.99,122.53 304.35,120.45 C304.71,118.37 304.85,116.21 305.12,114.24 L305.3,112.76 L305.39,112.04 C305.39,112.17 305.39,112.04 305.39,112.04 L305.39,111.95 L305.39,111.77 L305.39,111.42 C305.47,110.493333 305.55,109.583333 305.63,108.69 C305.93,105.14 306.09,101.94 306.21,99.15 C306.33,96.36 306.29,93.97 306.31,92.03 L306.31,91.16 C307.394152,98.3903018 307.958931,105.688983 308,113 Z" id="Shape" fill="#F4F4F4"></path>
                <path d="M150.15,177.81 C148.916574,176.71497 147.803598,175.491367 146.83,174.16 C146.564245,173.769233 146.501079,173.275049 146.66,172.83 C147.197853,170.230015 147.382852,167.569402 147.21,164.92 C146.992233,160.388683 146.147531,155.909408 144.7,151.61 C144.618291,151.136749 144.34674,150.717442 143.948311,150.449306 C143.549882,150.181169 143.059185,150.087493 142.59,150.19 C141.05591,150.407426 139.491573,150.19631 138.07,149.58 C135.07,148 132.07,146.3 130.07,143.36 C129.365518,142.205136 128.239467,141.369563 126.93,141.03 C126.294086,140.862064 125.750925,140.448399 125.42,139.88 C124.76,138.83 124.48,138.8 123.54,139.64 C117.725081,144.798713 111.185614,149.077498 104.13,152.34 C94.77,156.72 85.13,159.97 74.8,161.13 C74.0812478,161.245129 73.3487522,161.245129 72.63,161.13 L72.43,161.01 C72.211296,160.474312 72.1090334,159.898233 72.13,159.32 C72.13,158.46 72.13,157.59 72.07,156.72 C82.22,154.96 116.07,146.16 122.75,132.8 C125,127.3 139.25,144.55 147.75,145.8 C154.52,146.76 149.56,176.76 150.15,177.81 Z" id="Shape" fill="#E0E0E0"></path>
                <path d="M244.35,156.66 C244.35,157.53 244.3,158.4 244.29,159.26 C244.321372,159.854208 244.222393,160.448086 244,161 L243.8,161.12 C243.081248,161.235129 242.348752,161.235129 241.63,161.12 C231.32,159.96 221.63,156.71 212.3,152.33 C205.244386,149.067498 198.704919,144.788713 192.89,139.63 C191.95,138.79 191.67,138.82 191.01,139.87 C190.679075,140.438399 190.135914,140.852064 189.5,141.02 C188.756123,141.208418 188.069549,141.575736 187.5,142.09 C186.28,140.86 185.03,139.57 183.75,138.2 L183.3,136.93 C188.3,133.05 192.57,129.93 193.72,132.75 C200.35,146.1 234.2,154.9 244.35,156.66 Z" id="Shape" fill="#E0E0E0"></path>
                <path d="M221.79,203.14 C220.24,205.48 218.69,207.82 217.08,210.14 C216.18,211.43 216.08,211.43 214.98,210.24 C213.77,208.9 212.57,207.55 211.36,206.24 C204.88,199.09 198.36,192.01 192.14,184.62 C184.26,175.23 176.34,165.88 168.28,156.62 C167.07413,154.962976 164.946156,154.259015 162.99,154.87 C162.866326,154.90239 162.745835,154.945901 162.63,155 C162.63,152.51 163.51,150.61 166.17,151.19 C171.42,152.32 216.48,198 221.79,203.14 Z" id="Shape" fill="#E0E0E0"></path>
                <path d="M139.33,166.81 C137.203333,169.29 135.086667,171.773333 132.98,174.26 C130.08,177.673333 127.193333,181.096667 124.32,184.53 C120.43,189.16 116.41,193.67 112.32,198.16 L107.49,203.47 L105.06,206.15 C103.85,207.48 102.65,208.83 101.44,210.15 C101.238519,210.384456 101.021353,210.604963 100.79,210.81 C100.25,211.26 100.02,211.02 99.34,210.05 C97.73,207.75 96.18,205.41 94.63,203.05 C98.5,199.29 123.42,174.05 138.72,160.2 C139.038494,161.794858 139.219161,163.414164 139.26,165.04 C139.31,165.68 139.32,166.24 139.33,166.81 Z" id="Shape" fill="#E0E0E0"></path>
                <path d="M312.35,127.79 C312.25,130.22 312.13,132.73 311.98,135.34 C311.089181,147.06893 308.70319,158.635946 304.88,169.76 C302.703396,176.17056 300.076864,182.419432 297.02,188.46 C295.37,191.55 293.74,194.75 291.79,197.81 C290.79,199.35 289.94,200.96 288.88,202.47 L285.74,207.08 C276.591458,219.924019 265.603926,231.352938 253.13,241 C239.684128,251.324535 224.670386,259.427296 208.66,265 L205.59,266.07 C204.59,266.42 203.51,266.69 202.47,267.01 L199.34,267.93 C198.34,268.25 197.25,268.56 196.18,268.79 L189.81,270.33 C187.66,270.76 185.5,271.14 183.34,271.53 L181.72,271.83 L180.09,272.05 L176.83,272.47 L173.56,272.9 L170.27,273.16 L166.98,273.42 L165.33,273.55 L163.68,273.55 L156.83,273.74 L150.64,273.6 L149.09,273.6 L147.39,273.47 L144,273.21 L140.6,272.95 L137.33,272.53 L134.06,272.1 L132.43,271.88 L130.81,271.59 C122.181799,270.197845 113.694877,268.039302 105.45,265.14 C97.3226997,262.358775 89.4419597,258.903425 81.89,254.81 C67.4145712,246.972703 54.2552662,236.917644 42.89,225.01 C37.5856553,219.413546 32.6676643,213.463177 28.17,207.2 L25,202.64 C23.93,201.13 23,199.52 22.06,197.98 C20.06,194.93 18.47,191.71 16.77,188.63 C15.97,187.06 15.23,185.48 14.47,183.92 L13.37,181.59 C13.01,180.81 12.71,180.01 12.37,179.23 L10.46,174.56 C9.86,173.01 9.33,171.45 8.79,169.92 C4.92187266,158.763581 2.53481875,147.147706 1.69,135.37 C1.57,132.75 1.4,130.23 1.35,127.79 C1.3,125.35 1.41,123.02 1.44,120.79 C1.72,116.3 1.97,112.19 2.44,108.52 C3.19037367,102.85443 4.36025436,97.2523723 5.94,91.76 C7.04,87.97 7.79,86.02 7.79,86.02 L7.79,87.55 C7.79,88.02 7.79,88.55 7.79,89.25 C7.79,89.95 7.79,90.96 7.79,92.01 C7.87,95.9 8.03,101.57 8.69,108.66 C8.78,109.55 8.87,110.46 8.97,111.39 L9.04,112.11 L9.14,112.8 C9.2,113.28 9.27,113.8 9.33,114.24 C9.6,116.18 9.82,118.24 10.15,120.31 C10.48,122.38 10.88,124.57 11.27,126.83 C11.66,129.09 12.27,131.36 12.74,133.74 C13.21,136.12 13.96,138.51 14.59,141.01 C15.22,143.51 16.1,146.01 16.89,148.58 C18.66,153.68 20.55,159.01 23.01,164.36 C28.0516826,175.929867 34.4822596,186.843379 42.16,196.86 C46.3601563,202.270939 50.9240558,207.389456 55.82,212.18 C60.9598991,217.129148 66.4218451,221.732549 72.17,225.96 C78.1626592,230.228233 84.4556881,234.058191 91,237.42 C97.6752158,240.889322 104.629577,243.792827 111.79,246.1 L114.49,246.99 C115.4,247.29 116.32,247.5 117.24,247.76 L119.99,248.52 C120.91,248.77 121.82,249.04 122.76,249.23 L128.34,250.51 L134,251.51 L135.42,251.76 L136.84,251.94 L139.7,252.29 L142.56,252.65 L145.33,252.85 L148.11,253.06 L149.5,253.16 L151.04,253.16 L157.23,253.34 L162.75,253.21 L164.2,253.21 L165.64,253.1 L168.52,252.9 L171.4,252.69 L174.26,252.34 L177.12,251.99 L178.55,251.82 L179.97,251.57 C187.519326,250.415801 194.961035,248.643169 202.22,246.27 C216.418108,241.658974 229.821753,234.889694 241.96,226.2 C247.73543,221.982353 253.22419,217.385558 258.39,212.44 C263.299243,207.636161 267.876448,202.504345 272.09,197.08 C276.063577,191.901831 279.736298,186.499592 283.09,180.9 C283.9,179.54 284.64,178.15 285.4,176.8 C285.79,176.12 286.16,175.44 286.54,174.8 C286.92,174.16 287.23,173.42 287.54,172.74 C288.24,171.37 288.92,170.02 289.61,168.68 C290.3,167.34 290.84,165.95 291.46,164.61 C292.71,161.93 293.74,159.23 294.81,156.61 C295.37,155.3 295.81,153.97 296.25,152.66 L297.62,148.78 C298.42,146.19 299.18,143.65 299.9,141.18 C300.62,138.71 301.19,136.26 301.74,133.88 C302.29,131.5 302.74,129.18 303.19,126.94 C303.64,124.7 303.91,122.57 304.27,120.49 C304.63,118.41 304.77,116.25 305.04,114.28 L305.22,112.8 L305.31,112.08 C305.31,112.21 305.31,112.08 305.31,112.08 L305.31,111.99 L305.31,111.81 L305.31,111.46 C305.39,110.533333 305.47,109.623333 305.55,108.73 C305.85,105.18 306.01,101.98 306.13,99.19 C306.25,96.4 306.21,94.01 306.23,92.07 L306.23,91.2 C306.23,89.67 306.23,88.47 306.23,87.62 C306.23,86.62 306.23,86.09 306.23,86.09 L306.7,87.55 C307.01,88.55 307.43,89.95 307.95,91.85 C308.47,93.75 309.03,96.1 309.61,98.85 C310.19,101.6 310.76,104.9 311.22,108.56 C311.34,109.48 311.45,110.42 311.54,111.39 L311.54,111.76 L311.54,111.94 L311.54,112.21 L311.6,112.93 C311.6,113.42 311.67,113.93 311.71,114.42 C311.84,116.42 312.02,118.48 312.09,120.71 C312.16,122.94 312.36,125.32 312.35,127.79 Z" id="Shape" fill="#F4F4F4"></path>
                <path d="M167,48.47 C166.31474,50.1742988 165.227101,51.687387 163.83,52.88 C163.63,53.05 163.66,53.17 163.83,53.35 C164.164324,53.7148909 164.331644,54.2024951 164.291802,54.6957801 C164.251959,55.1890652 164.008552,55.6434952 163.62,55.95 C163.37188,56.1419247 163.072818,56.2566813 162.76,56.28 L154.19,56.28 C153.769489,56.2129554 153.392285,55.9830401 153.14,55.64 C152.610323,54.9486322 152.648138,53.9780611 153.23,53.33 C153.39,53.14 153.4,53.05 153.23,52.88 C151.637185,51.5013505 150.439603,49.723959 149.76,47.73 C149.071214,45.83584 148.768601,43.8229548 148.87,41.81 C148.945065,39.1208539 149.769332,36.5060554 151.25,34.26 C151.53,33.85 151.54,33.85 151.94,34.13 C153.461878,35.2101401 155.545706,35.0105548 156.834889,33.6611764 C158.124072,32.311798 158.228419,30.2210363 157.08,28.75 C156.445728,27.8830661 155.453024,27.3499474 154.38,27.3 C153.585133,27.2527223 152.931099,26.6570092 152.81,25.87 C152.664139,25.0555135 153.070894,24.2420031 153.81,23.87 C153.95,23.81 154.1,23.87 154.23,23.75 L162.8,23.75 C163.356727,23.8230151 163.845789,24.1558537 164.117972,24.6469673 C164.390155,25.1380809 164.413172,25.7292093 164.18,26.24 C163.895349,26.8748953 163.275279,27.2934423 162.58,27.32 C162.2,27.32 162.2,27.32 162.32,27.7 C162.79,28.99 163.27,30.28 163.73,31.58 C163.804503,31.8249014 163.942511,32.0457147 164.13,32.22 C165.045523,33.0356832 165.813453,34.0032068 166.4,35.08 C167.360531,36.7935541 167.959531,38.6858507 168.16,40.64 C168.467807,43.3065826 168.067716,46.0071986 167,48.47 Z" id="Shape" fill="#F4F4F4"></path>
                <path d="M151.1,28.52 C150.909527,28.7890199 150.735863,29.0695546 150.58,29.36 C150.113313,30.2722034 150.048079,31.3376778 150.4,32.3 C150.47,32.52 150.4,32.59 150.23,32.66 C149.44,32.98 148.65,33.32 147.86,33.66 C147.634897,33.714357 147.4878,33.9306772 147.52,34.16 C147.52,37.25 147.52,40.34 147.52,43.43 C147.579768,44.1113759 147.246012,44.767246 146.66,45.12 C146.101333,45.4518949 145.404762,45.4469046 144.850908,45.1070394 C144.297053,44.7671743 143.977121,44.1484014 144.02,43.5 C144.02,42.13 144.02,40.75 144.02,39.38 C144.02,36.84 144.02,34.3 144.02,31.76 C144.02,31.6 144.02,31.47 144.22,31.39 C146.46,30.47 148.7,29.53 150.93,28.6 L151.1,28.52 Z" id="Shape" fill="#F4F4F4"></path>
                <path d="M156.16,31.15 C156.118424,32.002836 155.566957,32.7465499 154.762966,33.0340516 C153.958976,33.3215533 153.060964,33.0961639 152.48803,32.4630724 C151.915096,31.8299808 151.780192,30.9139964 152.146275,30.1426076 C152.512359,29.3712189 153.30726,28.8964994 154.16,28.94 C155.316906,29.009839 156.205637,29.9918864 156.16,31.15 Z" id="Shape" fill="#F4F4F4"></path>
                <path d="M198.72,18.28 C198.090701,19.9644224 197.559807,21.6839869 197.13,23.43 C196.26,26.3 195.47,29.19 194.63,32.07 C194.01,34.22 192.74,34.91 190.57,34.28 L177.27,30.44 C175.27,29.85 174.38,28.23 175.13,26.57 C175.450061,25.9357028 175.975152,25.4282322 176.62,25.13 C178.11,24.31 179.62,23.47 181.09,22.68 C181.51,22.46 181.55,22.3 181.27,21.91 C176.5078,15.088183 169.090519,10.5898909 160.84,9.52 C144.447194,7.23854923 129.276808,18.5895673 126.84,34.96 C126.62,36.39 126.58,37.82 126.5,39.25 C126.31,42.37 123.69,44.25 120.89,43.32 C119.182153,42.7391247 118.0433,41.1237304 118.07,39.32 C118.03214,33.49111 119.379096,27.7365585 122,22.53 C127.28,12 135.61,4.84 147.1,2 C161.9,-1.59 174.67,2.4 185.23,13.4 C186.495489,14.7380817 187.633728,16.1910109 188.63,17.74 C188.91,18.15 189.1,18.24 189.57,17.97 C191.06,17.1 192.57,16.3 194.1,15.46 C196.28,14.27 197.68,14.72 198.72,16.94 L198.72,18.28 Z" id="Shape" fill="#F4F4F4"></path>
                <path d="M139.33,166.81 C137.203333,169.29 135.086667,171.773333 132.98,174.26 C130.08,177.673333 127.193333,181.096667 124.32,184.53 C120.43,189.16 116.41,193.67 112.32,198.16 L107.49,203.47 L105.06,206.15 C103.85,207.48 102.65,208.83 101.44,210.15 C101.238519,210.384456 101.021353,210.604963 100.79,210.81 C100.23,211.31 100.01,211.09 99.31,210.09 C96.89,206.64 94.61,203.09 92.25,199.59 C89.17,195.01 86.06,190.45 83.25,185.71 C83.204606,185.646894 83.1364886,185.603873 83.06,185.59 L82.06,183.79 C82.0405209,182.931944 82.3687127,182.102448 82.97,181.49 C84.9306462,178.868401 87.3956167,176.665227 90.22,175.01 C95.5945565,172.029662 100.790104,168.737368 105.78,165.15 C109.18,162.8 112.69,160.58 116.16,158.32 C117.58,157.4 119.03,156.53 120.39,155.53 C120.903892,155.121539 121.512794,154.849769 122.16,154.74 C124.196276,154.344648 126.201456,153.803249 128.16,153.12 L128.54,152.98 C130.393476,154.33484 132.356981,155.532344 134.41,156.56 C135.615781,157.18976 136.910733,157.631527 138.25,157.87 C138.44,158.65 138.62,159.43 138.77,160.22 C139.088494,161.814858 139.269161,163.434164 139.31,165.06 C139.31,165.68 139.32,166.24 139.33,166.81 Z" id="Shape" fill="#FFFFFF"></path>
                <path d="M314.32,50.66 C312.75,51.22 312.77,51.22 312.73,52.85 C312.66,55.45 313.22,55.55 310,55.85 C309.005925,55.9476305 308.046046,56.2653128 307.19,56.78 C299.25,61.32 291.306667,65.8466667 283.36,70.36 C282.346629,70.7706574 281.653207,71.7197534 281.57,72.81 C281.588916,73.1437859 281.439779,73.4649447 281.172563,73.6658589 C280.905347,73.8667731 280.555405,73.9208617 280.24,73.81 C279.278353,73.6862154 278.305078,73.9250778 277.51,74.48 C272.123333,77.58 266.72,80.6633333 261.3,83.73 C261.06976,83.8555417 260.852097,84.0028834 260.65,84.17 C260.243706,84.4858117 260.096675,85.0330967 260.29,85.51 C260.409326,86.0186583 260.154387,86.5410734 259.68,86.76 C259.3,87.01 258.89,87.24 258.49,87.46 C249.616667,92.5333333 240.74,97.5966667 231.86,102.65 C230.884613,103.183313 230.059234,103.953666 229.46,104.89 C228.46,106.43 227.53,108.03 226.46,109.57 C224.91,111.88 222.88,113.21 219.98,112.81 C219.24801,112.719052 218.506942,112.881382 217.88,113.27 L217.64,113.41 L206.64,119.67 C205.64,120.26 205.64,120.36 206.25,121.34 C209.59,126.53 214.35,130.07 219.67,132.99 C227.008302,136.914678 235.041585,139.370519 243.32,140.22 C245.25,140.45 245.32,140.55 245.05,142.46 C244.55,146.31 244.55,150.2 244.39,154.07 C244.31,155.8 244.24,157.53 244.22,159.25 C244.275139,159.842396 244.200051,160.439685 244,161 L243.8,161.12 C243.084599,161.235083 242.355401,161.235083 241.64,161.12 C231.32,159.96 221.64,156.71 212.3,152.33 C205.244386,149.067498 198.704919,144.788713 192.89,139.63 C191.95,138.79 191.67,138.82 191.01,139.87 C190.675121,140.430825 190.132506,140.836889 189.5,141 C188.75714,141.191034 188.071161,141.558033 187.5,142.07 C186.28,140.84 185.03,139.55 183.75,138.18 L183.3,136.91 C182.87,135.7 182.44,134.49 182,133.28 C181.4,131.61 180.8,129.94 180.22,128.28 C179.223429,124.937987 176.45326,122.425956 173.03,121.76 L166.25,117.89 L200.11,98.57 C200.339483,98.4432208 200.557035,98.2959548 200.76,98.13 C201.120205,97.834034 201.419134,97.4705629 201.64,97.06 C202.41,95.59 203.92,94.91 205.23,94.06 C207.089173,92.8319918 209.053525,91.771175 211.1,90.89 C212.136673,90.3981607 213.138952,89.8368841 214.1,89.21 C224.9,82.86 236.03,77.11 246.84,70.79 C247.633899,70.3167468 248.514559,70.0073259 249.43,69.88 C249.86,69.82 250.29,69.75 250.71,69.67 C254.096958,69.0122141 257.327776,67.7158146 260.23,65.85 C263.98,63.52 267.9,61.46 271.72,59.24 C272.696129,58.591901 273.939929,58.5008912 275,59 C277.010194,59.8772929 279.09093,60.5831377 281.22,61.11 C282.821783,61.5598913 284.538458,61.3244822 285.96,60.46 C290.11,57.98 294.33,55.59 298.56,53.25 C300.076917,52.6603905 300.929362,51.0450075 300.56,49.46 C300.13,46.7 299.91,43.9 299.65,41.1 C299.57,40.19 298.98,39.36 299.19,38.41 L303.19,36.12 C303.8,36.33 304.02,36.89 304.31,37.38 C305.81,40 307.31,42.63 308.81,45.25 C309.49,46.43 309.67,46.48 310.9,45.93 L311.43,45.69 C313.61,44.77 314.05,44.87 315.66,46.69 C315.771114,46.8464641 315.918712,46.9734672 316.09,47.06 C316.16,47.2 316.24,47.33 316.32,47.46 C316.49294,48.1504611 316.377511,48.8815682 316.000264,49.4851647 C315.623016,50.0887612 315.016422,50.5128899 314.32,50.66 Z" id="Shape" fill="#F4F4F4"></path>
                <path d="M234.38,183.82 C234.03,184.42 233.69,185.02 233.38,185.62 C233.302689,185.631715 233.233799,185.675225 233.19,185.74 C230.36,190.48 227.25,195.04 224.19,199.62 C223.4,200.79 222.62,201.97 221.84,203.14 C220.29,205.48 218.74,207.82 217.13,210.14 C216.23,211.43 216.13,211.43 215.03,210.24 C213.82,208.9 212.62,207.55 211.41,206.24 C204.93,199.09 198.41,192.01 192.19,184.62 C184.31,175.23 176.39,165.88 168.33,156.62 C167.12413,154.962976 164.996156,154.259015 163.04,154.87 C162.916326,154.90239 162.795835,154.945901 162.68,155 C162.340774,155.158163 162.170083,155.542217 162.28,155.9 C162.439637,156.77148 162.52992,157.654247 162.55,158.54 C162.42,164.22 162.33,169.91 161.95,175.54 C161.949569,176.041566 161.81861,176.534384 161.57,176.97 C160.098398,179.593066 156.986327,180.821185 154.12,179.91 C152.671537,179.499505 151.332529,178.771932 150.2,177.78 C148.966574,176.68497 147.853598,175.461367 146.88,174.13 C146.614245,173.739233 146.551079,173.245049 146.71,172.8 C147.247853,170.200015 147.432852,167.539402 147.26,164.89 C147.042233,160.358683 146.197531,155.879408 144.75,151.58 C144.668291,151.106749 144.39674,150.687442 143.998311,150.419306 C143.599882,150.151169 143.109185,150.057493 142.64,150.16 C141.10591,150.377426 139.541573,150.16631 138.12,149.55 C135.12,147.97 132.12,146.27 130.12,143.33 C129.415518,142.175136 128.289467,141.339563 126.98,141 C126.344086,140.832064 125.800925,140.418399 125.47,139.85 C124.81,138.8 124.53,138.77 123.59,139.61 C117.775081,144.768713 111.235614,149.047498 104.18,152.31 C94.82,156.69 85.18,159.94 74.85,161.1 C74.1312478,161.215129 73.3987522,161.215129 72.68,161.1 L72.48,160.98 C72.261296,160.444312 72.1590334,159.868233 72.18,159.29 C72.18,158.43 72.18,157.56 72.12,156.69 C72.06,155.82 72,155 72,154.1 C71.84,150.23 71.84,146.34 71.34,142.49 C71.09,140.58 71.14,140.49 73.07,140.25 C81.3360792,139.389205 89.3553761,136.926693 96.68,133 C102,130.08 106.76,126.54 110.1,121.35 C110.74,120.35 110.74,120.27 109.71,119.68 L98.51,113.28 C97.8830581,112.891382 97.1419896,112.729052 96.41,112.82 C93.51,113.22 91.48,111.89 89.93,109.58 C88.93,108.04 87.99,106.44 86.93,104.9 C86.330766,103.963666 85.505387,103.193313 84.53,102.66 C75.6433333,97.6133333 66.7666667,92.55 57.9,87.47 C57.5,87.25 57.09,87.02 56.71,86.77 C56.2356129,86.5510734 55.9806744,86.0286583 56.1,85.52 C56.38,84.52 55.81,84.15 55.1,83.74 C49.6866667,80.6666667 44.2833333,77.5833333 38.89,74.49 C38.0949221,73.9350778 37.121647,73.6962154 36.16,73.82 C35.8445947,73.9308617 35.4946528,73.8767731 35.2274369,73.6758589 C34.9602211,73.4749447 34.8110839,73.1537859 34.83,72.82 C34.7467925,71.7297534 34.0533714,70.7806574 33.04,70.37 C25.08,65.87 17.1366667,61.3433333 9.21,56.79 C8.35395411,56.2753128 7.39407531,55.9576305 6.4,55.86 C3.18,55.56 3.74,55.46 3.67,52.86 C3.67,51.23 3.67,51.23 2.08,50.67 C1.39452059,50.5220009 0.796984054,50.105377 0.421095282,49.5133522 C0.0452065106,48.9213274 -0.0776558168,48.2033231 0.08,47.52 C0.16,47.39 0.24,47.26 0.31,47.12 C0.481287633,47.0334672 0.628885843,46.9064641 0.74,46.75 C2.35,44.91 2.79,44.81 4.98,45.75 L5.5,45.99 C6.73,46.54 6.91,46.49 7.59,45.31 C9.1,42.69 10.59,40.06 12.09,37.44 C12.38,36.95 12.6,36.39 13.21,36.18 L17.21,38.47 C17.42,39.42 16.84,40.25 16.75,41.16 C16.49,43.96 16.27,46.76 15.84,49.52 C15.470638,51.1050075 16.3230829,52.7203905 17.84,53.31 C22.07,55.65 26.29,58.04 30.44,60.52 C31.8642176,61.3873138 33.5851342,61.6228077 35.19,61.17 C37.3158146,60.6431032 39.3932269,59.9372513 41.4,59.06 C42.4556263,58.5617072 43.6945183,58.6488464 44.67,59.29 C48.49,61.51 52.41,63.57 56.16,65.9 C59.4288685,67.9976704 63.1133652,69.3622988 66.96,69.9 C67.8754413,70.0273259 68.7561007,70.3367468 69.55,70.81 C80.36,77.13 91.5,82.88 102.29,89.23 C103.251048,89.8568841 104.253327,90.4181607 105.29,90.91 C107.336475,91.791175 109.300827,92.8519918 111.16,94.08 C112.47,94.9 113.98,95.58 114.75,97.08 C115.099808,97.7232939 115.632159,98.248686 116.28,98.59 L169.44,128.92 C169.87857,129.234839 170.392629,129.428042 170.93,129.48 C171.93,129.48 172.31,130.08 172.61,130.92 C173.8,134.33 175.05,137.72 176.24,141.12 C176.532816,141.958973 176.995829,142.728392 177.6,143.38 C180.43,146.38 183.35,149.38 186.4,152.17 C186.914233,152.6332 187.525963,152.974948 188.19,153.17 C190.147774,153.855738 192.153137,154.397186 194.19,154.79 C194.835845,154.90424 195.44369,155.175538 195.96,155.58 C197.32,156.58 198.77,157.45 200.18,158.37 C203.66,160.63 207.18,162.85 210.57,165.2 C215.587131,168.769813 220.809442,172.042105 226.21,175 C229.038406,176.6497 231.504396,178.853785 233.46,181.48 C234.074096,182.101151 234.406628,182.946941 234.38,183.82 Z" id="Shape" fill="#F4F4F4"></path>
            </g>
        </g>
    </g>
</svg>