<?xml version="1.0" encoding="UTF-8"?>
<svg width="100px" height="67px" viewBox="0 0 100 67" version="1.1" xmlns="http://www.w3.org/2000/svg" xmlns:xlink="http://www.w3.org/1999/xlink">
    <!-- Generator: Sketch 48.2 (47327) - http://www.bohemiancoding.com/sketch -->
    <title>Icon</title>
    <desc>Created with Sketch.</desc>
    <defs></defs>
    <g id="Artboard" stroke="none" stroke-width="1" fill="none" fill-rule="evenodd">
        <g id="Layer_1" fill="#F21439" fill-rule="nonzero">
            <g id="Icon">
                <path d="M47.3659306,56.0914826 C46.9768372,55.7460472 46.6257408,55.3600527 46.318612,54.9400631 C46.2347776,54.8167927 46.2148513,54.6608987 46.2649842,54.5205047 C46.434654,53.7003201 46.4930131,52.8610101 46.4384858,52.0252366 C46.3697896,50.5957991 46.1033222,49.1827785 45.6466877,47.8264984 C45.620912,47.677208 45.5352491,47.5449345 45.4095618,47.4603487 C45.2838746,47.375763 45.1290806,47.3462124 44.9810726,47.3785489 C44.4971324,47.4471376 44.0036507,47.3805395 43.555205,47.1861199 C42.6088328,46.6876972 41.6624606,46.1514196 41.0315457,45.2239748 C40.8093117,44.8596644 40.4540904,44.5960766 40.0410095,44.488959 C39.8404056,44.4359825 39.6690616,44.3054887 39.5646688,44.126183 C39.3564669,43.7949527 39.2681388,43.785489 38.9716088,44.0504732 C37.1372495,45.6778273 35.0743261,47.027602 32.8485804,48.0567823 C29.8958991,49.4384858 26.8548896,50.4637224 23.5962145,50.829653 C23.3694788,50.8659714 23.1384076,50.8659714 22.9116719,50.829653 L22.8485804,50.7917981 C22.7795887,50.6228114 22.7473292,50.4410829 22.7539432,50.2586751 C22.7539432,49.9873817 22.7539432,49.7129338 22.7350158,49.4384858 C25.9369085,48.8832808 36.615142,46.1072555 38.7223975,41.8927445 C39.4321767,40.1577287 43.9274448,45.5993691 46.6088328,45.9936909 C48.7444795,46.29653 47.1798107,55.7602524 47.3659306,56.0914826 Z" id="Shape"></path>
                <path d="M77.0820189,49.4195584 C77.0820189,49.6940063 77.0662461,49.9684543 77.0630915,50.2397476 C77.0729881,50.4271949 77.0417642,50.6145383 76.9716088,50.7886435 L76.9085174,50.8264984 C76.6817816,50.8628168 76.4507105,50.8628168 76.2239748,50.8264984 C72.9716088,50.4605678 69.9148265,49.4353312 66.9716088,48.0536278 C64.7458632,47.0244474 62.6829398,45.6746728 60.8485804,44.0473186 C60.5520505,43.7823344 60.4637224,43.7917981 60.2555205,44.1230284 C60.1511277,44.3023341 59.9797836,44.4328279 59.7791798,44.4858044 C59.5445184,44.5452423 59.3279334,44.6611153 59.148265,44.8233438 C58.7634069,44.4353312 58.3690852,44.0283912 57.9652997,43.5962145 L57.8233438,43.1955836 C59.4006309,41.9716088 60.7476341,40.9873817 61.1104101,41.8769716 C63.2018927,46.0883281 73.8801262,48.8643533 77.0820189,49.4195584 Z" id="Shape"></path>
                <path d="M69.9652997,64.0820189 C69.4763407,64.8201893 68.9873817,65.5583596 68.4794953,66.2902208 C68.1955836,66.6971609 68.1640379,66.6971609 67.8170347,66.3217666 C67.4353312,65.8990536 67.0567823,65.4731861 66.6750789,65.0599369 C64.6309148,62.8044164 62.5741325,60.5709779 60.6119874,58.2397476 C58.126183,55.2776025 55.6277603,52.3280757 53.0851735,49.4069401 C52.7047729,48.8842197 52.0334878,48.6621499 51.4164038,48.8548896 C51.3773898,48.8651072 51.33938,48.878833 51.3028391,48.8958991 C51.3028391,48.1104101 51.5804416,47.511041 52.4195584,47.6940063 C54.0757098,48.0504732 68.2902208,62.4605678 69.9652997,64.0820189 Z" id="Shape"></path>
                <path d="M43.9526814,52.6214511 C43.2818086,53.4037855 42.6140904,54.1871714 41.9495268,54.9716088 C41.0347003,56.0483701 40.1240799,57.128286 39.2176656,58.2113565 C37.9905363,59.6719243 36.7223975,61.0946372 35.4321767,62.511041 L33.9085174,64.1861199 L33.1419558,65.0315457 C32.7602524,65.4511041 32.3817035,65.8769716 32,66.2933754 C31.9364414,66.3673364 31.8679348,66.436897 31.7949527,66.5015773 C31.6246057,66.6435331 31.5520505,66.5678233 31.3375394,66.2618297 C30.829653,65.5362776 30.340694,64.7981073 29.851735,64.0536278 C31.0725552,62.8675079 38.9337539,54.9053628 43.7602524,50.5362776 C43.8607238,51.0393873 43.9177164,51.5502095 43.9305994,52.0630915 C43.9463722,52.2649842 43.9495268,52.4416404 43.9526814,52.6214511 Z" id="Shape"></path>
                <g id="grenade" transform="translate(36.277603, 0.000000)">
                    <path d="M26.4100946,5.76656151 C26.2115778,6.29792506 26.0441031,6.84037443 25.9085174,7.39116719 C25.6340694,8.29652997 25.384858,9.20820189 25.1198738,10.1167192 C24.9242902,10.7949527 24.5236593,11.0126183 23.8391167,10.8138801 L19.6435331,9.60252366 C19.0126183,9.41640379 18.7318612,8.90536278 18.9684543,8.38170347 C19.0694198,8.18160972 19.2350636,8.02152436 19.4384858,7.92744479 C19.9085174,7.66876972 20.384858,7.40378549 20.8485804,7.15457413 C20.9810726,7.0851735 20.9936909,7.03470032 20.9053628,6.91167192 C19.4030915,4.75967918 17.0632553,3.34065958 14.4605678,3.00315457 C9.28933569,2.28345402 4.50372503,5.86421682 3.73501577,11.0283912 C3.66561514,11.4794953 3.65299685,11.9305994 3.62776025,12.3817035 C3.56782334,13.3659306 2.74132492,13.9589905 1.85804416,13.6656151 C1.3192913,13.4823737 0.96003169,12.9727856 0.968454259,12.4037855 C0.956510973,10.5650189 1.38141816,8.74970301 2.20820189,7.10725552 C3.87381703,3.78548896 6.50157729,1.52681388 10.126183,0.630914826 C14.7949527,-0.501577287 18.8233438,0.757097792 22.1545741,4.22712934 C22.553782,4.64923714 22.912848,5.10757441 23.2271293,5.59621451 C23.3154574,5.72555205 23.3753943,5.75394322 23.5236593,5.66876972 C23.9936909,5.39432177 24.4700315,5.14195584 24.9526814,4.87697161 C25.6403785,4.50157729 26.0820189,4.64353312 26.4100946,5.34384858 L26.4100946,5.76656151 Z" id="Shape"></path>
                    <path d="M25.5962145,13.5268139 C25.604649,15.5505368 25.0907084,17.5421928 24.1041009,19.3091483 C22.3911672,22.362776 19.851735,24.4290221 16.444795,25.2492114 C11.7760252,26.3753943 7.74763407,25.1230284 4.41640379,21.6529968 C4.01719595,21.230889 3.65812989,20.7725518 3.34384858,20.2839117 C3.2555205,20.1545741 3.1955836,20.126183 3.04731861,20.2113565 C2.57728707,20.4858044 2.10094637,20.7413249 1.61829653,21.0031546 C0.933753943,21.3785489 0.488958991,21.2365931 0.160883281,20.5362776 L0.160883281,20.126183 C0.35940016,19.5948194 0.526874819,19.0523701 0.662460568,18.5015773 C0.936908517,17.5962145 1.18611987,16.6845426 1.4511041,15.7760252 C1.50360851,15.524843 1.64468309,15.3009151 1.84858044,15.1451104 C2.1165407,14.9858286 2.44398231,14.96244 2.7318612,15.0820189 L6.92744479,16.2933754 C7.55835962,16.4794953 7.83911672,16.9905363 7.60252366,17.5141956 C7.50155815,17.7142893 7.33591428,17.8743747 7.13249211,17.9684543 C6.66246057,18.2271293 6.18611987,18.4921136 5.72239748,18.7413249 C5.58990536,18.8107256 5.57728707,18.8611987 5.66561514,18.9842271 C7.1751768,21.1411007 9.52433206,22.5613604 12.1356467,22.8958991 C14.4414683,23.2390199 16.7916582,22.6957146 18.7129338,21.3753943 C20.4363349,20.2355675 21.7323553,18.5556233 22.3974763,16.5993691 L22.3974763,16.5615142 C22.4637224,16.3690852 22.5236593,16.1798107 22.5772871,15.9842271 C22.7788643,15.2372317 22.8848629,14.4676816 22.8927445,13.6940063 C22.89431,13.6751112 22.89431,13.656119 22.8927445,13.637224 C22.853347,13.1224069 23.1023144,12.6281156 23.5394322,12.3533123 C23.9431574,12.0888247 24.4623868,12.0778033 24.8769716,12.3249211 C25.3339567,12.5473553 25.6161779,13.0189617 25.5962145,13.5268139 Z" id="Shape"></path>
                    <path d="M11.3880126,8.99684543 C11.3279265,9.08170973 11.2731428,9.1702065 11.2239748,9.26182965 C11.0767547,9.54959097 11.0561765,9.88570276 11.1671924,10.1892744 C11.1892744,10.2586751 11.1671924,10.2807571 11.1135647,10.3028391 C10.8643533,10.4037855 10.615142,10.511041 10.3659306,10.6182965 C10.2949203,10.6354438 10.2485173,10.7036836 10.2586751,10.7760252 C10.2586751,11.7507886 10.2586751,12.7255521 10.2586751,13.7003155 C10.2775295,13.9152606 10.1722435,14.1221596 9.9873817,14.2334385 C9.81114608,14.3381372 9.59140756,14.336563 9.4166901,14.22935 C9.24197265,14.122137 9.14104778,13.9269405 9.15457413,13.7223975 C9.15457413,13.2902208 9.15457413,12.8548896 9.15457413,12.4227129 C9.15457413,11.6214511 9.15457413,10.8201893 9.15457413,10.0189274 C9.15457413,9.96845426 9.15457413,9.92744479 9.21766562,9.9022082 C9.92429022,9.61198738 10.6309148,9.31545741 11.3343849,9.02208202 L11.3880126,8.99684543 Z" id="Shape"></path>
                    <path d="M12.9842271,9.82649842 C12.9711118,10.0955319 12.7971473,10.3301419 12.5435225,10.4208365 C12.2898978,10.511531 12.0066131,10.4404303 11.825877,10.2407168 C11.6451408,10.0410034 11.6025841,9.75204932 11.7180678,9.50870902 C11.8335516,9.26536872 12.0843092,9.11561494 12.3533123,9.12933754 C12.718267,9.15136877 12.9986237,9.46116291 12.9842271,9.82649842 Z" id="Shape"></path>
                    <path d="M16.4037855,15.2902208 C16.1876151,15.8278545 15.8445112,16.3051694 15.4037855,16.681388 C15.340694,16.7350158 15.3501577,16.7728707 15.4037855,16.829653 C15.5092503,16.9447605 15.5620328,17.0985789 15.5494642,17.2541893 C15.5368957,17.4097997 15.4601109,17.5531531 15.3375394,17.6498423 C15.2592682,17.7103863 15.1649267,17.7465871 15.0662461,17.7539432 L12.362776,17.7539432 C12.2301229,17.7327935 12.1111308,17.660265 12.0315457,17.5520505 C11.8644554,17.3339534 11.8763842,17.0277795 12.0599369,16.8233438 C12.1104101,16.7634069 12.1135647,16.7350158 12.0599369,16.681388 C11.5574717,16.2464828 11.1796855,15.6857915 10.9652997,15.0567823 C10.7480169,14.4592555 10.6525555,13.8242759 10.6845426,13.1892744 C10.7082223,12.3409634 10.9682436,11.5161058 11.4353312,10.807571 C11.5236593,10.6782334 11.5268139,10.6782334 11.6529968,10.7665615 C12.1330845,11.1072997 12.7904435,11.0443391 13.1971258,10.6186676 C13.6038082,10.1929962 13.6367254,9.53344994 13.2744479,9.06940063 C13.0743621,8.7959199 12.7612064,8.62774366 12.4227129,8.61198738 C12.1719663,8.59707329 11.9656462,8.40915118 11.9274448,8.16088328 C11.8814318,7.90394746 12.0097458,7.64731958 12.2429022,7.52996845 C12.2870662,7.51104101 12.3343849,7.52996845 12.3753943,7.49211356 L15.0788644,7.49211356 C15.2544881,7.51514671 15.4087661,7.62014313 15.4946284,7.77506856 C15.5804907,7.92999399 15.5877515,8.11646982 15.5141956,8.27760252 C15.4244002,8.47788497 15.2287947,8.60991871 15.0094637,8.61829653 C14.8895899,8.61829653 14.8895899,8.61829653 14.9274448,8.73817035 C15.0757098,9.14511041 15.2271293,9.55205047 15.3722397,9.96214511 C15.3957423,10.0394011 15.439278,10.1090583 15.4984227,10.1640379 C15.7872312,10.4213512 16.0294803,10.7265637 16.214511,11.0662461 C16.5175176,11.6067994 16.7064767,12.2037384 16.7697161,12.8201893 C16.866816,13.6613825 16.7406043,14.5133118 16.4037855,15.2902208 Z" id="Shape"></path>
                </g>
                <path d="M43.9526814,52.6214511 C43.2818086,53.4037855 42.6140904,54.1871714 41.9495268,54.9716088 C41.0347003,56.0483701 40.1240799,57.128286 39.2176656,58.2113565 C37.9905363,59.6719243 36.7223975,61.0946372 35.4321767,62.511041 L33.9085174,64.1861199 L33.1419558,65.0315457 C32.7602524,65.4511041 32.3817035,65.8769716 32,66.2933754 C31.9364414,66.3673364 31.8679348,66.436897 31.7949527,66.5015773 C31.6182965,66.659306 31.5488959,66.5899054 31.3280757,66.2744479 C30.5646688,65.1861199 29.8454259,64.0662461 29.1009464,62.9621451 C28.1293375,61.5173502 27.148265,60.0788644 26.2618297,58.5835962 C26.2475098,58.563689 26.2260216,58.5501176 26.2018927,58.5457413 L25.8864353,57.977918 C25.8802905,57.7072379 25.983821,57.4455673 26.1735016,57.2523659 C26.7920019,56.425363 27.5695952,55.7303555 28.4605678,55.2082019 C30.1560115,54.2680321 31.7949854,53.2294536 33.3690852,52.0977918 C34.4416404,51.3564669 35.5488959,50.6561514 36.6435331,49.9432177 C37.0914826,49.6529968 37.5488959,49.3785489 37.977918,49.0630915 C38.1400289,48.9342393 38.3321115,48.8485075 38.5362776,48.8138801 C39.178636,48.6891634 39.811185,48.5183752 40.4290221,48.3028391 L40.5488959,48.2586751 C41.1335886,48.6860693 41.7529909,49.0638308 42.4006309,49.3880126 C42.7810035,49.586675 43.1895057,49.7260338 43.6119874,49.8012618 C43.6719243,50.0473186 43.7287066,50.2933754 43.7760252,50.5425868 C43.8764967,51.0456965 43.9334892,51.5565187 43.9463722,52.0694006 C43.9463722,52.2649842 43.9495268,52.4416404 43.9526814,52.6214511 Z" id="Shape"></path>
                <path d="M99.1545741,15.9810726 C98.659306,16.1577287 98.6656151,16.1577287 98.6529968,16.6719243 C98.6309148,17.4921136 98.807571,17.5236593 97.7917981,17.6182965 C97.4782097,17.6490948 97.1754088,17.74931 96.9053628,17.9116719 C94.4006309,19.3438486 91.8948475,20.7718191 89.3880126,22.1955836 C89.0683371,22.3251285 88.8495923,22.6245279 88.8233438,22.9684543 C88.8293111,23.0737495 88.7822647,23.1750614 88.6979694,23.2384413 C88.6136742,23.3018212 88.5032824,23.3188838 88.4037855,23.2839117 C88.1004268,23.2448629 87.7934,23.3202138 87.5425868,23.4952681 C85.8433228,24.4731861 84.1388013,25.4458465 82.4290221,26.4132492 C82.3563913,26.4528523 82.2877276,26.4993323 82.2239748,26.5520505 C82.0958064,26.6516756 82.0494242,26.8243207 82.1104101,26.9747634 C82.1480522,27.1352235 82.06763,27.3000232 81.9179811,27.3690852 C81.7981073,27.4479495 81.6687697,27.5205047 81.5425868,27.5899054 C78.743428,29.190326 75.9432177,30.787592 73.1419558,32.3817035 C72.8342628,32.5499409 72.5738908,32.7929547 72.384858,33.0883281 C72.0694006,33.5741325 71.7760252,34.0788644 71.4384858,34.5646688 C70.9495268,35.2933754 70.3091483,35.7129338 69.3943218,35.5867508 C69.1634102,35.5580607 68.9296347,35.6092687 68.7318612,35.7318612 L68.6561514,35.7760252 L65.1861199,37.7507886 C64.8706625,37.9369085 64.8706625,37.9684543 65.0630915,38.2776025 C66.1167192,39.9148265 67.6182965,41.0315457 69.29653,41.9526814 C71.6114517,43.1907501 74.1456104,43.9654633 76.7570978,44.2334385 C77.3659306,44.3059937 77.3880126,44.3375394 77.3028391,44.9400631 C77.1451104,46.1545741 77.1451104,47.3817035 77.0946372,48.6025237 C77.0694006,49.148265 77.0473186,49.6940063 77.0410095,50.2365931 C77.0584034,50.4234689 77.0347164,50.6118879 76.9716088,50.7886435 L76.9085174,50.8264984 C76.6828387,50.8628023 76.452808,50.8628023 76.2271293,50.8264984 C72.9716088,50.4605678 69.9179811,49.4353312 66.9716088,48.0536278 C64.7458632,47.0244474 62.6829398,45.6746728 60.8485804,44.0473186 C60.5520505,43.7823344 60.4637224,43.7917981 60.2555205,44.1230284 C60.1498805,44.2999449 59.9787084,44.4280406 59.7791798,44.4794953 C59.5448391,44.5397584 59.328442,44.6555308 59.148265,44.8170347 C58.7634069,44.4290221 58.3690852,44.022082 57.9652997,43.5899054 L57.8233438,43.1892744 C57.6876972,42.807571 57.5520505,42.4258675 57.4132492,42.044164 C57.2239748,41.5173502 57.0347003,40.9905363 56.851735,40.466877 C56.5373594,39.412614 55.663489,38.6201753 54.5835962,38.4100946 L52.444795,37.1892744 L63.126183,31.0946372 C63.1985752,31.0546438 63.2672036,31.0081876 63.3312303,30.955836 C63.4448596,30.8624713 63.5391591,30.7478116 63.6088328,30.6182965 C63.851735,30.1545741 64.3280757,29.9400631 64.7413249,29.6719243 C65.3278149,29.28454 65.9474842,28.9498975 66.5930599,28.6719243 C66.920086,28.5167699 67.2362626,28.3397111 67.5394322,28.1419558 C70.9463722,26.1388013 74.4574132,24.3249211 77.8675079,22.3312303 C78.1179493,22.1819391 78.3957598,22.0843299 78.6845426,22.044164 C78.8201893,22.0252366 78.955836,22.0031546 79.0883281,21.977918 C80.1567692,21.7704146 81.1759545,21.3614557 82.0914826,20.7728707 C83.2744479,20.0378549 84.511041,19.3880126 85.7160883,18.6876972 C86.0240154,18.4832495 86.4163815,18.4545398 86.7507886,18.6119874 C87.3849191,18.8887359 88.041303,19.1113999 88.7129338,19.2776025 C89.218228,19.4195241 89.759766,19.3452625 90.2082019,19.0725552 C91.5173502,18.2902208 92.8485804,17.5362776 94.1829653,16.7981073 C94.661488,16.6121106 94.9303981,16.102526 94.8138801,15.6025237 C94.6782334,14.7318612 94.6088328,13.8485804 94.5268139,12.9652997 C94.5015773,12.6782334 94.3154574,12.4164038 94.3817035,12.1167192 L95.6435331,11.3943218 C95.8359621,11.4605678 95.9053628,11.637224 95.9968454,11.7917981 C96.4700315,12.6182965 96.9432177,13.4479495 97.4164038,14.2744479 C97.6309148,14.6466877 97.6876972,14.6624606 98.0757098,14.488959 L98.2429022,14.4132492 C98.9305994,14.1230284 99.0694006,14.1545741 99.5772871,14.7287066 C99.6123389,14.7780644 99.6588998,14.8181285 99.7129338,14.8454259 C99.7350158,14.8895899 99.7602524,14.9305994 99.785489,14.9716088 C99.8400441,15.1894199 99.8036313,15.420053 99.6846257,15.610462 C99.5656201,15.800871 99.3742655,15.9346656 99.1545741,15.9810726 Z" id="Shape"></path>
                <path d="M73.9369085,57.9873817 C73.8264984,58.1766562 73.7192429,58.3659306 73.6214511,58.555205 C73.5970629,58.5589008 73.575331,58.5726261 73.5615142,58.5930599 C72.6687697,60.0883281 71.6876972,61.5268139 70.7223975,62.9716088 C70.4731861,63.340694 70.2271293,63.7129338 69.9810726,64.0820189 C69.4921136,64.8201893 69.0031546,65.5583596 68.4952681,66.2902208 C68.2113565,66.6971609 68.1798107,66.6971609 67.8328076,66.3217666 C67.4511041,65.8990536 67.0725552,65.4731861 66.6908517,65.0599369 C64.6466877,62.8044164 62.5899054,60.5709779 60.6277603,58.2397476 C58.1419558,55.2776025 55.6435331,52.3280757 53.1009464,49.4069401 C52.7205458,48.8842197 52.0492606,48.6621499 51.4321767,48.8548896 C51.3931627,48.8651072 51.3551529,48.878833 51.318612,48.8958991 C51.2116005,48.9457928 51.1577549,49.0669456 51.192429,49.1798107 C51.2427878,49.4547256 51.2712683,49.7332009 51.2776025,50.0126183 C51.2365931,51.8044164 51.2082019,53.5993691 51.0883281,55.3753943 C51.0881922,55.5336169 51.0468802,55.6890802 50.9684543,55.8264984 C50.5042265,56.653964 49.5225005,57.0413833 48.6182965,56.7539432 C48.1613681,56.6244496 47.7389682,56.3949313 47.3817035,56.0820189 C46.9926101,55.7365835 46.6415137,55.3505889 46.3343849,54.9305994 C46.2505504,54.807329 46.2306241,54.651435 46.2807571,54.511041 C46.4504269,53.6908564 46.508786,52.8515464 46.4542587,52.0157729 C46.3855625,50.5863354 46.1190951,49.1733148 45.6624606,47.8170347 C45.6366849,47.6677442 45.5510219,47.5354707 45.4253347,47.450885 C45.2996475,47.3662993 45.1448535,47.3367487 44.9968454,47.3690852 C44.5129052,47.4376739 44.0194236,47.3710757 43.5709779,47.1766562 C42.6246057,46.6782334 41.6782334,46.1419558 41.0473186,45.214511 C40.8250846,44.8502006 40.4698633,44.5866128 40.0567823,44.4794953 C39.8561785,44.4265188 39.6848345,44.296025 39.5804416,44.1167192 C39.3722397,43.785489 39.2839117,43.7760252 38.9873817,44.0410095 C37.1530223,45.6683636 35.090099,47.0181383 32.8643533,48.0473186 C29.9116719,49.4290221 26.8706625,50.4542587 23.6119874,50.8201893 C23.3852517,50.8565077 23.1541805,50.8565077 22.9274448,50.8201893 L22.8643533,50.7823344 C22.7953615,50.6133477 22.763102,50.4316192 22.7697161,50.2492114 C22.7697161,49.977918 22.7697161,49.70347 22.7507886,49.4290221 C22.7318612,49.1545741 22.7129338,48.8958991 22.7129338,48.6119874 C22.6624606,47.3911672 22.6624606,46.1640379 22.5047319,44.9495268 C22.4258675,44.3470032 22.4416404,44.318612 23.0504732,44.2429022 C25.6580692,43.971358 28.1878158,43.1945404 30.4984227,41.955836 C32.1766562,41.0347003 33.6782334,39.9179811 34.7318612,38.2807571 C34.9337539,37.9652997 34.9337539,37.9400631 34.6088328,37.7539432 L31.0757098,35.7350158 C30.8779363,35.6124233 30.6441608,35.5612153 30.4132492,35.5899054 C29.4984227,35.7160883 28.8580442,35.29653 28.3690852,34.5678233 C28.0536278,34.0820189 27.7570978,33.5772871 27.4227129,33.0914826 C27.2336801,32.7961093 26.9733082,32.5530955 26.6656151,32.384858 C23.8622503,30.7928496 21.06204,29.1955836 18.2649842,27.5930599 C18.1388013,27.5236593 18.0094637,27.4511041 17.8895899,27.3722397 C17.739941,27.3031777 17.6595187,27.138378 17.6971609,26.977918 C17.785489,26.6624606 17.6056782,26.5457413 17.3817035,26.4164038 C15.6740273,25.446898 13.9695058,24.4742376 12.2681388,23.4984227 C12.0173256,23.3233684 11.7102987,23.2480175 11.4069401,23.2870662 C11.3074431,23.3220384 11.1970514,23.3049757 11.1127561,23.2415959 C11.0284609,23.178216 10.9814145,23.0769041 10.9873817,22.9716088 C10.9611333,22.6276825 10.7423884,22.3282831 10.4227129,22.1987382 C7.91167192,20.7791798 5.40588854,19.3512093 2.90536278,17.9148265 C2.63531675,17.7524646 2.33251587,17.6522494 2.01892744,17.6214511 C1.00315457,17.5268139 1.17981073,17.4952681 1.15772871,16.6750789 C1.15772871,16.1608833 1.15772871,16.1608833 0.65615142,15.9842271 C0.439911859,15.9375397 0.251414528,15.8061126 0.132837629,15.619354 C0.0142607289,15.4325954 -0.0244971031,15.2060956 0.0252365931,14.9905363 C0.0504731861,14.9495268 0.0757097792,14.9085174 0.0977917981,14.8643533 C0.151825752,14.8370559 0.198386701,14.7969918 0.233438486,14.7476341 C0.741324921,14.1671924 0.880126183,14.1356467 1.57097792,14.4321767 L1.73501577,14.5078864 C2.12302839,14.681388 2.17981073,14.6656151 2.39432177,14.2933754 C2.87066246,13.466877 3.34069401,12.637224 3.81388013,11.8107256 C3.90536278,11.6561514 3.97476341,11.4794953 4.16719243,11.4132492 L5.42902208,12.1356467 C5.49526814,12.4353312 5.31230284,12.6971609 5.28391167,12.9842271 C5.20189274,13.8675079 5.13249211,14.7507886 4.99684543,15.6214511 C4.88032745,16.1214535 5.1492375,16.631038 5.62776025,16.8170347 C6.96214511,17.555205 8.29337539,18.3091483 9.60252366,19.0914826 C10.0518037,19.3650832 10.5946795,19.4393715 11.1009464,19.29653 C11.7715503,19.1303165 12.4268855,18.9076503 13.0599369,18.6309148 C13.392942,18.4737247 13.7837597,18.5012134 14.0914826,18.70347 C15.29653,19.4037855 16.533123,20.0536278 17.7160883,20.7886435 C18.7472771,21.4503692 19.9095789,21.8808513 21.1230284,22.0504732 C21.4118111,22.0906391 21.6896217,22.1882482 21.9400631,22.3375394 C25.3501577,24.3312303 28.8643533,26.1451104 32.2681388,28.148265 C32.5713084,28.3460202 32.8874849,28.5230791 33.214511,28.6782334 C33.8600868,28.9562066 34.479756,29.2908491 35.0662461,29.6782334 C35.4794953,29.9369085 35.955836,30.1514196 36.1987382,30.6246057 C36.3090878,30.8275375 36.4770218,30.9932763 36.681388,31.1009464 L53.4511041,40.6687697 C53.5894542,40.768088 53.751618,40.8290354 53.9211356,40.8454259 C54.2365931,40.8454259 54.3564669,41.0347003 54.4511041,41.2996845 C54.8264984,42.3753943 55.2208202,43.444795 55.5962145,44.5173502 C55.6885854,44.7820103 55.8346463,45.0247292 56.0252366,45.2302839 C56.9179811,46.1766562 57.8391167,47.1230284 58.8012618,48.0031546 C58.9634805,48.1492743 59.1564554,48.2570815 59.3659306,48.318612 C59.9835248,48.5349332 60.6161314,48.705737 61.2586751,48.829653 C61.4624116,48.8656907 61.6541608,48.9512737 61.8170347,49.0788644 C62.2460568,49.3943218 62.70347,49.6687697 63.148265,49.9589905 C64.2460568,50.6719243 65.3564669,51.3722397 66.4258675,52.1135647 C68.0085586,53.2396887 69.6559754,54.2719576 71.3596215,55.2050473 C72.2518631,55.7254576 73.0297779,56.4207524 73.6466877,57.2492114 C73.8404087,57.445158 73.9453086,57.7119686 73.9369085,57.9873817 Z" id="Shape"></path>
            </g>
        </g>
    </g>
</svg>