<?xml version="1.0" encoding="UTF-8"?>
<svg width="597px" height="78px" viewBox="0 0 597 78" version="1.1" xmlns="http://www.w3.org/2000/svg" xmlns:xlink="http://www.w3.org/1999/xlink">
    <!-- Generator: Sketch 48.2 (47327) - http://www.bohemiancoding.com/sketch -->
    <title>Text</title>
    <desc>Created with Sketch.</desc>
    <defs></defs>
    <g id="Artboard" stroke="none" stroke-width="1" fill="none" fill-rule="evenodd" transform="translate(-358.000000, -94.000000)">
        <g id="Layer_1" fill-rule="nonzero">
            <g id="Text" transform="translate(358.000000, 94.000000)">
                <polygon id="Shape" fill="#E0E0E0" points="231 38.13 231 60.48 235.57 56.69 235.57 42.05"></polygon>
                <polygon id="Shape" fill="#E0E0E0" points="564.46 38.13 564.46 60.48 569.03 56.69 569.03 42.05"></polygon>
                <polygon id="Shape" fill="#E0E0E0" points="231 38.13 255.25 38.13 255.25 42.05 233.25 42.05"></polygon>
                <path d="M231,60.47 L225.55,65.27 L262.55,65.27 L262.55,60.41 C262.55,60.41 231.12,60.35 231,60.47 Z" id="Shape" fill="#E0E0E0"></path>
                <polygon id="Shape" fill="#E0E0E0" points="596.04 15.26 596.04 16.99 593.34 19.69 569.05 19.69 569.05 33.56 564.48 38.13 564.48 15.26"></polygon>
                <polygon id="Shape" fill="#E0E0E0" points="564.48 38.13 588.73 38.13 588.73 42.05 566.73 42.05"></polygon>
                <path d="M564.48,60.47 L559.03,65.27 L596.03,65.27 L596.03,60.41 C596.03,60.41 564.6,60.35 564.48,60.47 Z" id="Shape" fill="#E0E0E0"></path>
                <polygon id="Shape" fill="#E0E0E0" points="303.58 11.21 290.17 36.93 285.58 36.93 271.58 11.21 276.82 11.21 287.62 32.02 288.39 32.02 299.18 11.21"></polygon>
                <polygon id="Shape" fill="#E0E0E0" points="305.9 65.18 300.72 65.18 288.39 43.59 287.62 43.59 281.41 54.45 281.41 54.46 275.28 65.18 270.92 65.18 285.75 40.43 291.08 40.43"></polygon>
                <path d="M325.78,24.7 L325.78,51.7 C325.776288,53.0346312 326.335406,54.3089848 327.32,55.21 C328.350633,56.2117994 329.743352,56.7530114 331.18,56.71 L353.54,56.71 L353.54,61.15 L329.88,61.15 C322.62,61.15 320.38,57.78 320.38,51.65 L320.38,29.26 C320.38,22.43 320.5,14.76 330.25,14.76 L353.54,14.76 L353.54,17 L350.84,19.7 L331.18,19.7 C329.743352,19.6569886 328.350633,20.1982006 327.32,21.2 C326.337981,22.0986678 325.779101,23.3688482 325.78,24.7 Z" id="Shape" fill="#E0E0E0"></path>
                <polyline id="Shape" fill="#E0E0E0" points="365.25 11.21 365.25 38.01 370.5 33.56 370.5 11.21"></polyline>
                <polyline id="Shape" fill="#E0E0E0" points="395.25 11.21 395.25 38.01 400.5 33.56 400.5 11.21"></polyline>
                <path d="M395.25,38 L390.54,42 L370.54,42 L365.29,38 C365.29,38 395.4,37.85 395.25,38 Z" id="Shape" fill="#E0E0E0"></path>
                <polygon id="Shape" fill="#E0E0E0" points="370.5 65.18 370.5 42.05 365.25 38.01 365.25 65.18"></polygon>
                <polygon id="Shape" fill="#E0E0E0" points="395.25 38.01 395.25 65.18 400.5 65.18 400.5 42.05"></polygon>
                <polygon id="Shape" fill="#E0E0E0" points="395.25 38.01 400.5 33.56 400.5 42.05"></polygon>
                <polygon id="Shape" fill="#E0E0E0" points="416.12 49.01 420.61 53.61 439.89 53.61 444.87 48.98"></polygon>
                <polygon id="Shape" fill="#E0E0E0" points="453.38 60.93 453.38 65.18 449.91 65.18 434.27 15.68 436.8 11.21 451.45 55.12 451.45 55.12"></polygon>
                <polygon id="Shape" fill="#E0E0E0" points="434.27 15.68 426.37 15.68 429.86 22 430.63 22"></polygon>
                <polygon id="Shape" fill="#E0E0E0" points="429.86 22 422.92 45.13 420.61 53.61 419.06 58.79 417.14 65.18 410.85 65.18 426.38 15.68"></polygon>
                <polygon id="Shape" fill="#FFFFFF" points="422.92 45.13 416.12 49.01 422.44 49"></polygon>
                <polygon id="Shape" fill="#E0E0E0" points="500.02 11.21 500.02 65.18 489.62 65.18 469.57 28.17 468.8 28.17 469.96 42.05 469.96 65.18 464.62 65.18 464.62 18.13 468 18.13 492.38 58.63 495.12 58.63 495.12 11.21"></polygon>
                <path d="M539,56.49 L539,56.69 L524.7,56.69 C523.263352,56.7330114 521.870633,56.1917994 520.84,55.19 C519.855406,54.2889848 519.296288,53.0146312 519.3,51.68 L519.3,24.68 C519.296288,23.3453688 519.855406,22.0710152 520.84,21.17 C521.870633,20.1682006 523.263352,19.6269886 524.7,19.67 L544.36,19.67 L547.05,16.97 L547.05,14.97 L525.38,14.97 C519.12,14.97 514.12,16.85 514.12,28.97 L514.12,50.59 C514.12,57.09 514.88,60.85 524.38,60.85 L543.25,60.85 L539,56.6 L539,56.49 Z" id="Shape" fill="#E0E0E0"></path>
                <polygon id="Shape" fill="#E0E0E0" points="548.98 35.49 548.98 65.18 543.25 60.89 543.19 35.47"></polygon>
                <polygon id="Shape" fill="#E0E0E0" points="262.56 15.26 262.56 16.99 259.86 19.69 235.57 19.69 235.57 33.56 231 38.13 231 15.26"></polygon>
                <polygon id="Shape" fill="#F21439" points="259.86 19.69 262.56 16.99 262.56 11.21 225.56 11.21 225.56 65.21 262.56 65.21 262.56 56.72 235.56 56.72 235.56 42.05 255.22 42.05 255.22 33.56 235.57 33.56 235.57 19.69"></polygon>
                <polygon id="Shape" fill="#F21439" points="304.17 50.81 295.71 37.81 304.81 22.74 309.2 15.46 309.2 11.22 299.2 11.22 288.39 32 287.62 32 276.82 11.19 266.82 11.19 266.82 15.43 280.31 37.78 265.31 60.91 265.31 65.16 275.31 65.16 281.44 54.44 281.44 54.44 287.65 43.58 288.42 43.58 300.75 65.17 310.75 65.17 310.75 60.92"></polygon>
                <path d="M327.32,21.19 C328.350633,20.1882006 329.743352,19.6469886 331.18,19.69 L350.84,19.69 L353.54,16.99 L353.54,11.21 L328.48,11.21 C326.704471,11.1866897 324.939374,11.4848251 323.27,12.09 C321.789481,12.6469109 320.431055,13.4857388 319.27,14.56 C318.132746,15.6086376 317.247333,16.9008609 316.68,18.34 C316.078055,19.8747344 315.779213,21.5115718 315.8,23.16 L315.8,53.22 C315.779213,54.8684282 316.078055,56.5052656 316.68,58.04 C317.247333,59.4791391 318.132746,60.7713624 319.27,61.82 C320.428555,62.8975459 321.787664,63.7367953 323.27,64.29 C324.938744,64.8985806 326.70386,65.2001071 328.48,65.18 L353.54,65.18 L353.54,56.69 L331.18,56.69 C329.743352,56.7330114 328.350633,56.1917994 327.32,55.19 C326.335406,54.2889848 325.776288,53.0146312 325.78,51.68 L325.78,24.68 C325.781906,23.3523295 326.340547,22.0863172 327.32,21.19 Z" id="Shape" fill="#F21439"></path>
                <polygon id="Shape" fill="#F21439" points="390.54 11.21 390.54 33.56 370.54 33.56 370.54 11.21 360.54 11.21 360.54 65.21 370.54 65.21 370.54 42.05 390.54 42.05 390.54 65.18 400.54 65.18 400.54 11.18"></polygon>
                <path d="M451.45,55.13 L436.8,11.21 L423.7,11.21 L407.12,60.93 L407.12,65.18 L417.12,65.18 L419.04,58.79 L420.59,53.61 L439.87,53.61 L443.34,65.18 L453.34,65.18 L453.34,60.93 L451.45,55.13 Z M422.92,45.13 L429.86,22 L430.63,22 L437.57,45.13 L422.92,45.13 Z" id="Shape" fill="#F21439"></path>
                <polygon id="Shape" fill="#F21439" points="490 11.21 490 34.34 491.16 48.21 490.39 48.21 470.39 11.21 459.93 11.21 459.93 65.21 469.93 65.21 469.93 42.05 468.77 28.17 469.54 28.17 489.54 65.17 500 65.17 500 11.17"></polygon>
                <path d="M539,35.49 L539,56.69 L524.7,56.69 C523.263352,56.7330114 521.870633,56.1917994 520.84,55.19 C519.855406,54.2889848 519.296288,53.0146312 519.3,51.68 L519.3,24.68 C519.296288,23.3453688 519.855406,22.0710152 520.84,21.17 C521.870633,20.1682006 523.263352,19.6269886 524.7,19.67 L544.36,19.67 L547.05,16.97 L547.05,11.19 L522.05,11.19 C520.274471,11.1666897 518.509374,11.4648251 516.84,12.07 C515.35835,12.6246066 513.999501,13.463696 512.84,14.54 C511.702746,15.5886376 510.817333,16.8808609 510.25,18.32 C509.648055,19.8547344 509.349213,21.4915718 509.37,23.14 L509.37,53.2 C509.349213,54.8484282 509.648055,56.4852656 510.25,58.02 C510.817333,59.4591391 511.702746,60.7513624 512.84,61.8 C513.997439,62.8790104 515.356855,63.7184497 516.84,64.27 C518.508744,64.8785806 520.27386,65.1801071 522.05,65.16 L549.05,65.16 L549.05,35.49 L539,35.49 Z" id="Shape" fill="#F21439"></path>
                <polygon id="Shape" fill="#F21439" points="593.32 19.69 596 17 596 11.22 559 11.22 559 65.22 596 65.22 596 56.73 569 56.73 569 42.05 588.66 42.05 588.66 33.56 569 33.56 569 19.69"></polygon>
                <path d="M0.18,0.59 L0.18,77.68 L208.18,77.68 L208.18,0.59 L0.18,0.59 Z M73.93,25.64 L66.32,28.64 C64.09,29.56 63.32,29.26 62.47,27.03 C61.47,24.11 58.94,23.03 55.4,23.03 C50.17,23.03 47.87,24.34 47.4,27.03 C46.86,30.33 51.16,31.03 56.7,31.72 C65.31,32.95 76.3,36.94 73.76,51.01 C71.69,62.31 62.08,67.15 47.86,67.15 C36.4,67.15 28.25,63.08 26.72,55.24 C26.33,52.93 27.18,51.86 29.56,51.01 L37.25,48.4 C39.71,47.63 40.71,47.86 41.48,50.09 C42.4,52.78 45.09,54.16 49.39,54.16 C54.62,54.16 57.85,53.09 58.47,49.78 C59,46.78 55.16,45.94 50.24,45.25 C41.48,44.02 29.56,41.17 32.1,26.18 C33.94,16.03 42.55,10.27 57.24,10.27 C68.61,10.27 73.92,14.5 76.24,21.65 C77,23.87 76.39,24.64 73.93,25.64 Z M119.82,66 L111.51,66 C107.44,66 106.21,65.46 105.29,62.77 L101,49 C100.23,46.54 99.31,45.16 96.39,45.16 L95.08,45.16 L92,62.77 C91.54,65.16 90.62,66 88.16,66 L79.47,66 C77.01,66 76.32,65.16 76.78,62.77 L85.23,14.65 C85.7,12.27 86.62,11.42 89.08,11.42 L97.76,11.42 C100.22,11.42 100.92,12.27 100.45,14.65 L97.45,31.72 L99.14,31.72 L113.21,14.27 C115.13,11.88 115.9,11.42 119.82,11.42 L128.73,11.42 C131.04,11.42 131.58,12.8 130.04,14.8 L111.82,37.4 C113.739806,38.7611223 115.12581,40.7481989 115.74,43.02 L122.51,62.24 C123.2,64.31 122.35,66 119.82,66 Z M181.62,14.65 L173.09,62.77 C172.7,65.16 171.7,66 169.24,66 L160.79,66 C159.17,66 158.48,65.54 157.94,64.46 L149.41,46.25 C147.03,41.09 146.26,37.33 145.41,30.41 L144.8,30.41 C145.18,37.79 145.33,41.71 143.87,50.24 L141.64,62.77 C141.18,65.16 140.26,66 137.8,66 L129.73,66 C127.27,66 126.58,65.16 127.04,62.77 L135.49,14.65 C135.96,12.27 136.88,11.42 139.34,11.42 L148.1,11.42 C149.79,11.42 150.56,11.88 151.1,12.96 L160.17,32.64 C162.4,37.4 163.09,41.56 164.17,46.71 L164.78,46.71 C163.78,38.79 163.4,35.1 164.78,27.26 L167,14.65 C167.39,12.27 168.31,11.42 170.77,11.42 L178.84,11.42 C181.31,11.42 182,12.27 181.62,14.65 Z" id="Shape" fill="#F21439"></path>
            </g>
        </g>
    </g>
</svg>