<?xml version="1.0" encoding="UTF-8"?>
<svg width="55px" height="77px" viewBox="0 0 55 77" version="1.1" xmlns="http://www.w3.org/2000/svg" xmlns:xlink="http://www.w3.org/1999/xlink">
    <!-- Generator: Sketch 48.2 (47327) - http://www.bohemiancoding.com/sketch -->
    <title>Asset 1</title>
    <desc>Created with Sketch.</desc>
    <defs></defs>
    <g id="Page-1" stroke="none" stroke-width="1" fill="none" fill-rule="evenodd">
        <g id="Asset-1" transform="translate(-1.000000, 0.000000)">
            <path d="M28.35,76.81 C30.0286148,76.8310087 31.7047049,76.6734563 33.35,76.34 C35.7266561,75.8044043 38.0252295,74.9676429 40.19,73.85 C43.8823484,71.9712078 46.9935839,69.1226989 49.19,65.61 C55.9,55.27 57,41.69 54,29.79 C52.9004011,25.1860304 51.2202806,20.7404316 49,16.56 C45.59,10.17 41.31,3.78 34.5,1.16 C27.69,-1.46 20.37,0.51 15.15,5.73 C12.111569,8.96672128 9.54006502,12.6119291 7.51,16.56 C5.3113079,20.7447843 3.64823043,25.1897368 2.56,29.79 C-0.44,41.69 0.68,55.27 7.36,65.61 C9.55641614,69.1226989 12.6676516,71.9712078 16.36,73.85 C20.0878284,75.7132789 24.1833256,76.7243441 28.35,76.81 Z" id="Shape" fill="#4D7BBE" fill-rule="nonzero"></path>
            <path d="M45.58,61.47 C45.31,62.01 44.32,61.71 44.58,61.07 C46.12,56.45 48.01,51.79 48.43,46.85 C48.6,44.8 48.66,41.85 46.77,40.63 C46.2131934,40.2446995 45.5251745,40.0986748 44.8598668,40.2245946 C44.1945591,40.3505144 43.6074905,40.7378692 43.23,41.3 C40.59,44.3 39.44,48.87 38.51,52.71 C37.6601091,55.8809157 37.0879481,59.1198155 36.8,62.39 C36.8,62.96 35.74,62.9 35.68,62.39 C35.27,58.64 35.15,54.87 34.54,51.14 C33.96,47.63 33.13,42.23 29.92,40.22 C28.1266421,39.1683404 25.84323,39.5052373 24.43,41.03 C22.8113184,43.0307823 21.8229134,45.4669917 21.59,48.03 C21.1935503,50.5319073 21.1565095,53.0776173 21.48,55.59 C22.02,59.39 23.58,62.85 24.57,66.51 C24.74,67.13 23.85,67.07 23.57,66.84 C21.21,64.84 19.42,61.96 17.28,59.66 C15.84,58.13 11.69,53.34 9.37,55.66 C5.59,59.45 9.72,65.39 12.37,68.39 C13.69,69.9 15.12,71.24 16.57,72.61 C17.4438978,73.3389817 18.2566152,74.138321 19,75 C21.9915794,76.1544366 25.1637826,76.7705956 28.37,76.82 C30.0486148,76.8410087 31.7247049,76.6834563 33.37,76.35 C35.7466561,75.8144043 38.0452295,74.9776429 40.21,73.86 C43.9023484,71.9812078 47.0135839,69.1326989 49.21,65.62 C51.9220838,61.3491978 53.7860454,56.5959257 54.7,51.62 C50.8162578,54.0073281 47.6618031,57.4142776 45.58,61.47 Z" id="Shape" fill="#FAB332" fill-rule="nonzero"></path>
            <path d="M36.17,1.9 C34.1290551,2.61808785 32.2667958,3.76750431 30.71,5.27 C29.38,6.6 25.56,11.77 28.96,13.08 C31.96,14.23 34.82,11.77 37.45,10.56 C37.89,10.36 38.64,10.7 38.19,11.25 C36.26,13.59 34.28,16.35 33.69,19.48 C33.3045058,21.2468874 33.4542075,23.0885669 34.12,24.77 C34.46,25.56 35.03,26.91 35.99,27.02 C37.66,27.23 39.18,25.02 39.99,23.75 C40.9345541,22.3308465 41.7193208,20.8116187 42.33,19.22 C42.54,18.67 43.52,18.69 43.44,19.38 C43.15,21.93 42.57,25 43.54,27.47 C44.36,29.54 47.42,31.47 49.18,29.39 C50.52,27.8 50.82,25.29 50.93,23.25 C50.93,22.34 50.99,21.44 50.93,20.54 C50.3662123,19.1747304 49.732028,17.8396055 49.03,16.54 C45.89,10.72 42,4.86 36.17,1.9 Z" id="Shape" fill="#FECD35" fill-rule="nonzero"></path>
            <path d="M3.92,47.36 C6.08,48.61 8.99,48.55 10.13,45.76 C11.47,42.49 8.62,38.76 6.59,36.59 C6.14,36.1 7.04,35.45 7.46,35.84 C9.04885165,37.2399788 10.9318617,38.2652111 12.97,38.84 C14.87,39.42 17.79,40.13 19.48,38.6 C21.17,37.07 21.14,34.92 18.96,34.04 C18.2521322,33.7605028 17.513657,33.5658139 16.76,33.46 C15.8721102,33.5456091 14.9765747,33.505209 14.1,33.34 C13.43,33.21 13.93,32.34 14.4,32.34 C15.3040975,32.2809663 16.2118113,32.3111118 17.11,32.43 C19.3154017,32.1090074 21.4416872,31.3798983 23.38,30.28 C25.8,29 29.51,26.48 29,23.05 C27.82,15.05 16.93,21.44 13.45,23.81 C12.92,24.18 12.19,23.63 12.8,23.14 C14.9667567,21.5388178 16.7076319,19.4305389 17.87,17 C18.97,14.28 17.69,11.5 14.7,11.53 C12.9614184,11.5889937 11.2559974,12.0221707 9.7,12.8 C8.93,14 8.2,15.3 7.51,16.56 C5.3113079,20.7447843 3.64823043,25.1897368 2.56,29.79 C1.32424228,34.7602072 0.822260255,39.8844667 1.07,45 C1.89651276,45.9248907 2.85722411,46.7204271 3.92,47.36 Z" id="Shape" fill="#FFDA5D" fill-rule="nonzero"></path>
            <path d="M25.42,71.06 C23.93,68.78 21.93,66.06 19.17,65.65 C18.55,65.55 17.17,65.34 16.91,66.23 C16.8204204,67.0142576 17.0040812,67.8054117 17.43,68.47 C18.5916705,70.6119633 20.0160006,72.6006506 21.67,74.39 C22.2,75 22.74,75.63 23.31,76.25 C24.9545839,76.5982389 26.6291251,76.7857875 28.31,76.81 L28.58,76.81 C27.56,74.88 26.61,72.87 25.42,71.06 Z" id="Shape" fill="#FDDEA2" fill-rule="nonzero"></path>
            <path d="M33,55.36 C32.7451513,53.2690025 32.2033895,51.2230944 31.39,49.28 C30.78,48 29.61,46.38 28.05,46.69 C26.49,47 25.75,48.55 25.43,50 C24.996682,52.3504111 24.872296,54.7473619 25.06,57.13 C25.3951124,61.530209 26.1723649,65.8855028 27.38,70.13 C27.8640316,72.4304979 28.608844,74.6682901 29.6,76.8 C30.8696409,76.7533655 32.1335935,76.6062388 33.38,76.36 L33.68,76.29 C33.7,69.31 34.16,62.25 33,55.36 Z" id="Shape" fill="#FDDEA2" fill-rule="nonzero"></path>
            <path d="M44.64,54 C44.64,53.3 44.71,51.31 43.75,51.15 C42.39,51 41.11,53 40.57,54.05 C39.06,57.05 38.57,60.45 38.01,63.73 C37.38,67.49 37.77,71.33 37.41,75.1 C38.41,74.73 39.3,74.3 40.22,73.85 L40.46,73.72 C41.6999917,70.2944728 42.6696267,66.777038 43.36,63.2 C44.077559,60.1808839 44.5061579,57.1003289 44.64,54 Z" id="Shape" fill="#FDDEA2" fill-rule="nonzero"></path>
            <path d="M42.72,72.38 C45.3180573,70.5812559 47.5284243,68.2790736 49.22,65.61 C50.6571096,63.3774263 51.8506028,60.997145 52.78,58.51 C48.12,61.32 45.27,67.21 42.72,72.38 Z" id="Shape" fill="#FDDEA2" fill-rule="nonzero"></path>
            <path d="M34.59,7.11 C34.5534308,7.5218567 34.6920057,7.93007118 34.9717469,8.23455132 C35.251488,8.53903145 35.6465262,8.71162032 36.06,8.71 C38.25,8.95 40.61,7.92 42.59,7.06 L42.65,7.06 C41.488763,5.73695231 40.1878686,4.54334817 38.77,3.5 C38.0384247,3.88029346 37.3304707,4.30439797 36.65,4.77 C35.9,5.29 34.72,6.07 34.59,7.11 Z" id="Shape" fill="#FDDEA2" fill-rule="nonzero"></path>
            <path d="M39.71,12.81 C39.09,14.11 38.03,18.12 40.71,17.24 C42.7780736,16.352402 44.6302351,15.0289422 46.14,13.36 C46.37,13.14 46.6,12.92 46.82,12.69 C45.8255876,11.0549766 44.7231366,9.48815986 43.52,8 C41.948806,9.33984674 40.6545567,10.973794 39.71,12.81 Z" id="Shape" fill="#FDDEA2" fill-rule="nonzero"></path>
            <path d="M45.33,20.05 C45.33,20.56 45.33,22.85 46.33,22.35 C47.0860632,21.8297906 47.6955948,21.123836 48.1,20.3 C48.640311,19.4196947 49.134316,18.5117935 49.58,17.58 C49.41,17.24 49.23,16.9 49.05,16.58 C48.47,15.58 47.87,14.47 47.24,13.43 C47,13.95 46.78,14.43 46.59,15 C45.8954639,16.6026966 45.4697616,18.3088844 45.33,20.05 Z" id="Shape" fill="#FDDEA2" fill-rule="nonzero"></path>
            <path d="M3.74,41.41 C4.9,40.3 5,38.41 4.8,36.91 C4.50592737,35.0685975 4.03371071,33.2601081 3.39,31.51 C3.34,31.37 3.57,31.27 3.65,31.38 C4.46455526,32.4968462 5.48232138,33.4501538 6.65,34.19 C7.85,35 9.76,36 11.06,35 C13.58,33.12 7.94,31.47 6.73,31.45 C6.55,31.45 6.67,31.21 6.79,31.18 C9.14,30.64 11.54,30.4 13.89,29.87 C15.2492392,29.5832996 16.5860383,29.1989699 17.89,28.72 C18.9435933,28.370497 19.9019541,27.7817896 20.69,27 C21.318188,26.3601751 21.4708341,25.3920773 21.07,24.59 C20.5498916,24.0119013 19.7602066,23.7563027 19,23.92 C16.6886459,24.2499618 14.4560374,24.9952939 12.41,26.12 C10.7078689,26.8371959 9.10208242,27.7643865 7.63,28.88 C7.53,28.97 7.31,28.88 7.42,28.75 C8.7793316,26.9601967 10.0347326,25.0937893 11.18,23.16 C12.07,21.41 12.97,18.11 10.65,17.05 C9.39482696,16.6303655 8.01334504,16.8587405 6.96,17.66 C5.04673465,21.527094 3.57093756,25.5955983 2.56,29.79 C1.59256301,33.6681094 1.06920177,37.6436419 1,41.64 C1.86900866,42.1551341 2.96902931,42.0627966 3.74,41.41 Z" id="Shape" fill="#FDDEA2" fill-rule="nonzero"></path>
            <path d="M20.42,4.84 C18.73,4.84 18,8 20,8 C21.72,8 22.49,4.84 20.42,4.84 Z" id="Shape" fill="#FECD35" fill-rule="nonzero"></path>
            <path d="M26.31,2.37 C24.82,2.37 24.14,5.11 25.97,5.11 C27.45,5.11 28.14,2.37 26.31,2.37 Z" id="Shape" fill="#FECD35" fill-rule="nonzero"></path>
            <path d="M23.7,12.81 C23.01,12.81 22.7,14.09 23.55,14.09 C24.24,14.09 24.56,12.81 23.7,12.81 Z" id="Shape" fill="#FECD35" fill-rule="nonzero"></path>
            <path d="M32.8,26.25 C31.4,26.25 30.75,28.85 32.48,28.85 C33.88,28.85 34.53,26.25 32.8,26.25 Z" id="Shape" fill="#FECD35" fill-rule="nonzero"></path>
            <path d="M25.39,33 C24.15,33 23.59,35.29 25.11,35.29 C26.35,35.27 26.92,33 25.39,33 Z" id="Shape" fill="#FECD35" fill-rule="nonzero"></path>
            <path d="M36.45,33.58 C34.17,33.58 33.12,37.8 35.93,37.8 C38.21,37.8 39.25,33.58 36.45,33.58 Z" id="Shape" fill="#FECD35" fill-rule="nonzero"></path>
            <path d="M48.25,36.92 C47.982861,36.664381 47.6182385,36.5367632 47.25,36.57 C46.800998,36.6222248 46.3874978,36.8396689 46.09,37.18 C45.7669524,37.5096477 45.5568668,37.9333205 45.49,38.39 C45.4235143,38.7893422 45.541134,39.1973357 45.81,39.5 C46.0739371,39.7615927 46.4398888,39.8933354 46.81,39.86 C47.2685709,39.8112185 47.6926692,39.5938236 48,39.25 C48.3215628,38.9153144 48.5312225,38.4890062 48.6,38.03 C48.6486065,37.6268637 48.5210547,37.2223423 48.25,36.92 Z" id="Shape" fill="#FECD35" fill-rule="nonzero"></path>
            <path d="M51.25,33.51 C50.08,33.51 49.54,35.68 50.98,35.68 C52.15,35.68 52.69,33.51 51.25,33.51 Z" id="Shape" fill="#FECD35" fill-rule="nonzero"></path>
            <path d="M52,44.56 C51.09,44.56 50.67,46.24 51.79,46.24 C52.66,46.24 53.07,44.56 52,44.56 Z" id="Shape" fill="#FECD35" fill-rule="nonzero"></path>
            <path d="M37.23,41.66 C35.89,41.66 35.28,44.13 36.92,44.13 C38.26,44.13 38.87,41.66 37.23,41.66 Z" id="Shape" fill="#FECD35" fill-rule="nonzero"></path>
            <path d="M16,47.32 C14.35,47.32 13.59,50.38 15.63,50.38 C17.26,50.38 18,47.32 16,47.32 Z" id="Shape" fill="#FECD35" fill-rule="nonzero"></path>
            <path d="M16.2,41.79 C15.2,41.79 14.71,43.69 15.97,43.69 C17,43.69 17.46,41.79 16.2,41.79 Z" id="Shape" fill="#FECD35" fill-rule="nonzero"></path>
            <path d="M6.16,52.05 C5.06,52.05 4.55,54.1 5.91,54.1 C7,54.1 7.53,52.05 6.16,52.05 Z" id="Shape" fill="#FECD35" fill-rule="nonzero"></path>
            <path d="M18,54.24 C17,54.24 16.6,56 17.76,56 C18.7,56 19.13,54.24 18,54.24 Z" id="Shape" fill="#FECD35" fill-rule="nonzero"></path>
            <path d="M40.91,29.66 C39.64,29.66 39.06,32.01 40.62,32.01 C41.9,32 42.48,29.66 40.91,29.66 Z" id="Shape" fill="#FECD35" fill-rule="nonzero"></path>
            <path d="M20.38,14.53 C19.01,14.53 18.38,17.07 20.07,17.07 C21.44,17.07 22.07,14.53 20.38,14.53 Z" id="Shape" fill="#FECD35" fill-rule="nonzero"></path>
            <path d="M15.18,7.7 C14.04,7.7 13.52,9.81 14.92,9.81 C16.06,9.81 16.59,7.7 15.18,7.7 Z" id="Shape" fill="#FECD35" fill-rule="nonzero"></path>
            <path d="M53.41,39.12 C52.72,39.12 52.41,40.4 53.25,40.4 C54.09,40.4 54.27,39.12 53.41,39.12 Z" id="Shape" fill="#FECD35" fill-rule="nonzero"></path>
            <path d="M50.38,51.81 C50.38,51.81 50.38,51.81 50.38,51.81 C50.38,51.81 50.4,51.81 50.38,51.81 Z" id="Shape" fill="#FECD35" fill-rule="nonzero"></path>
            <path d="M36.63,47.51 C35.36,47.51 34.77,49.87 36.34,49.87 C37.61,49.87 38.19,47.51 36.63,47.51 Z" id="Shape" fill="#FECD35" fill-rule="nonzero"></path>
            <path d="M20.16,60.06 C19.42,60.06 19.08,61.44 19.99,61.44 C20.74,61.44 21.08,60.06 20.16,60.06 Z" id="Shape" fill="#FECD35" fill-rule="nonzero"></path>
            <path d="M28.35,76.81 C30.0286148,76.8310087 31.7047049,76.6734563 33.35,76.34 C35.7266561,75.8044043 38.0252295,74.9676429 40.19,73.85 C43.8823484,71.9712078 46.9935839,69.1226989 49.19,65.61 C55.9,55.27 57,41.69 54,29.79 C52.9004011,25.1860304 51.2202806,20.7404316 49,16.56 C45.59,10.17 41.31,3.78 34.5,1.16 C27.69,-1.46 20.37,0.51 15.15,5.73 C12.111569,8.96672128 9.54006502,12.6119291 7.51,16.56 C5.3113079,20.7447843 3.64823043,25.1897368 2.56,29.79 C-0.44,41.69 0.68,55.27 7.36,65.61 C9.55641614,69.1226989 12.6676516,71.9712078 16.36,73.85 C20.0878284,75.7132789 24.1833256,76.7243441 28.35,76.81 Z" id="Shape"></path>
            <path d="M54,29.79 C52.9004011,25.1860304 51.2202806,20.7404316 49,16.56 C45.59,10.17 41.31,3.78 34.5,1.16 C27.69,-1.46 20.37,0.51 15.15,5.73 C12.111569,8.96672128 9.54006502,12.6119291 7.51,16.56 C5.3113079,20.7447843 3.64823043,25.1897368 2.56,29.79 C-0.44,41.69 0.68,55.27 7.36,65.61 C9.55641614,69.1226989 12.6676516,71.9712078 16.36,73.85 C20.0876391,75.7285776 24.1868701,76.7533853 28.36,76.85 C30.0386148,76.8710087 31.7147049,76.7134563 33.36,76.38 C35.7366561,75.8444043 38.0352295,75.0076429 40.2,73.89 C43.8923484,72.0112078 47.0035839,69.1626989 49.2,65.65 C55.9,55.27 57,41.69 54,29.79 Z M42.63,56.85 C40.8440441,59.6982463 38.3172432,62.0072792 35.32,63.53 C33.5635226,64.4321434 31.6981824,65.104338 29.77,65.53 C28.4205091,65.8005629 27.0462298,65.9279351 25.67,65.91 C22.2871106,65.8454781 18.9619223,65.0218703 15.94,63.5 C12.9427568,61.9772792 10.4159559,59.6682463 8.63,56.82 C3.2,48.42 2.32,37.39 4.73,27.72 C5.62044416,23.9938415 6.97080576,20.3928772 8.75,17 C10.4099989,13.787874 12.5139825,10.8254651 15,8.2 C19.2,4 25.13,2.36 30.68,4.49 C36.23,6.62 39.68,11.82 42.51,17 C44.2846056,20.4033081 45.6282873,24.0144527 46.51,27.75 C48.94,37.42 48.06,48.45 42.63,56.85 Z" id="Shape" fill="#9CB2BB" fill-rule="nonzero" opacity="0.3" style="mix-blend-mode: multiply;"></path>
        </g>
    </g>
</svg>