<?xml version="1.0" encoding="UTF-8"?>
<svg width="56px" height="78px" viewBox="0 0 56 78" version="1.1" xmlns="http://www.w3.org/2000/svg" xmlns:xlink="http://www.w3.org/1999/xlink">
    <!-- Generator: Sketch 48.2 (47327) - http://www.bohemiancoding.com/sketch -->
    <title>10</title>
    <desc>Created with Sketch.</desc>
    <defs>
        <radialGradient cx="27.5263258%" cy="31.801415%" fx="27.5263258%" fy="31.801415%" r="37.9592505%" gradientTransform="translate(0.275263,0.318014),scale(1.000000,0.710300),translate(-0.275263,-0.318014)" id="radialGradient-1">
            <stop stop-color="#35D24C" offset="16%"></stop>
            <stop stop-color="#A0AD40" offset="100%"></stop>
        </radialGradient>
    </defs>
    <g id="Page-1" stroke="none" stroke-width="1" fill="none" fill-rule="evenodd">
        <g id="10" fill-rule="nonzero">
            <path d="M28.05,77.41 C29.728624,77.431236 31.4047382,77.2736812 33.05,76.94 C35.4253209,76.3998618 37.7233319,75.5633052 39.89,74.45 C43.5800397,72.5678781 46.6904702,69.7201061 48.89,66.21 C55.58,55.87 56.66,42.29 53.69,30.38 C52.5858828,25.7774189 50.9059734,21.3323785 48.69,17.15 C45.3,10.77 41,4.36 34.21,1.75 C27.42,-0.86 20.08,1.11 14.86,6.32 C11.8161287,9.55228141 9.24405757,13.1982932 7.22,17.15 C5.0213079,21.3347843 3.35823043,25.7797368 2.27,30.38 C-0.73,42.29 0.39,55.87 7.07,66.21 C9.26952976,69.7201061 12.3799603,72.5678781 16.07,74.45 C19.7959466,76.3087063 23.887154,77.3195555 28.05,77.41 Z" id="Shape" fill="url(#radialGradient-1)"></path>
            <path d="M18.22,8.06 C21.28,8.35 24.41,8.48 27.48,8.49 C32.2509898,8.40604947 37.0028549,7.86355323 41.67,6.87 C39.5904477,4.63510813 37.0431723,2.88684407 34.21,1.75 C27.38,-0.88 20.08,1.11 14.86,6.32 C14.53,6.64 14.22,6.98 13.86,7.32 C15.2881118,7.69733015 16.7473641,7.94500141 18.22,8.06 Z" id="Shape" fill="#8BBE48"></path>
            <path d="M19.3,2.94 C18.4464227,3.4167869 17.6306943,3.95837708 16.86,4.56 C20.6750027,5.84082848 24.7057628,6.35401969 28.72,6.07 C32.1657767,6.03846976 35.5848094,5.46131815 38.85,4.36 C37.7562003,3.5233832 36.5761747,2.80598127 35.33,2.22 C30.11,4 24.34,5 19.3,2.94 Z" id="Shape" fill="#B6FAEB"></path>
            <path d="M28.36,6.8 C24.36,6.88 20.04,6.61 16.26,5.04 C15.78,5.44 15.31,5.87 14.86,6.32 C14.41,6.77 14.22,6.98 13.86,7.32 C15.2750571,7.6949723 16.7208173,7.94262566 18.18,8.06 C21.24,8.35 24.37,8.48 27.44,8.49 C32.2109898,8.40604947 36.9628549,7.86355323 41.63,6.87 C40.9517793,6.15958368 40.2304114,5.49165039 39.47,4.87 C35.9129008,6.17635318 32.1492748,6.83016038 28.36,6.8 Z" id="Shape" fill="#E63700"></path>
            <path d="M26.35,11 C21.79,10.77 16.59,11 12.12,9.42 C10.5996667,11.4515479 9.22298798,13.5867365 8,15.81 C10.2400277,16.9425161 12.6417554,17.7217283 15.12,18.12 C19.3226167,18.7858956 23.5757145,19.0803665 27.83,19 C34.65,19 41.83,18.5 48.44,16.52 C47.0591141,13.9589187 45.4774994,11.5112614 43.71,9.2 C38,10.34 32.22,11.33 26.35,11 Z" id="Shape" fill="#FFFFFF"></path>
            <path d="M41.18,9.7 C40.24,9.87 39.31,10.03 38.37,10.18 C36.76,12.56 33.73,13.07 31.83,10.97 C30.2293866,11.085044 28.6237967,11.1150863 27.02,11.06 C24.64,13.59 20.5,13.76 18.7,10.73 C17.81,10.66 16.92,10.56 16.05,10.43 C14.35,12.09 11.81,13.22 10.67,11.43 L9.98,12.43 C10.84,13.51 12.13,14.53 13.49,13.97 C14.35,13.61 15.04,12.97 15.86,12.57 C16.8561208,11.9206489 18.1335842,11.8896801 19.16,12.49 C19.9335916,13.1803132 20.7901915,13.7715351 21.71,14.25 C22.835128,14.5904922 24.0549921,14.379148 25,13.68 C26.3115681,12.655823 27.936283,12.1154287 29.6,12.15 C31.4,12.31 32.5,13.94 34.17,14.37 C36.25,14.91 37.7,12.97 39.4,12.1 C40.7125694,11.3772415 42.2664376,11.2323587 43.69,11.7 C44.35,11.9 45.14,12.2 45.94,12.42 C45.51,11.74 45.06,11.09 44.59,10.42 C43.4034714,10.7343642 42.1381626,10.4672022 41.18,9.7 Z" id="Shape" fill="#F02000"></path>
            <path d="M45.42,14.68 C44.1747951,14.0574017 42.728361,13.9742318 41.42,14.45 C40.52,14.89 39.71,15.45 38.85,15.99 C36.9688914,17.301021 34.6062234,17.7179625 32.39,17.13 C31.24,16.77 30.12,15.89 28.97,15.66 C28.0056198,15.4919587 27.0137156,15.5887298 26.1,15.94 C24.49,16.48 22.78,17.33 21.1,17.05 C20.1207783,16.9195803 19.2021332,16.5020144 18.46,15.85 C17.46,14.96 16.46,14.58 15.15,15.29 C14.02,15.91 12.42,17.08 11.15,16.29 C10.3974859,15.6721503 9.59090002,15.1232703 8.74,14.65 L8,15.81 C10.2400277,16.9425161 12.6417554,17.7217283 15.12,18.12 C19.3226167,18.7858956 23.5757145,19.0803665 27.83,19 C34.65,19 41.83,18.5 48.44,16.52 C48.17,16.04 47.91,15.52 47.63,15.09 C46.8751137,15.0827069 46.1272681,14.9439664 45.42,14.68 Z" id="Shape" fill="#F02000"></path>
            <path d="M49.68,18.92 C42.29,21.29 34.29,21.86 26.68,21.83 C22.1342452,21.9290625 17.5903512,21.5604576 13.12,20.73 C10.832931,20.2747992 8.61446898,19.5252279 6.52,18.5 C4.68119193,22.2960435 3.25631863,26.2789834 2.27,30.38 C2.05,31.28 1.85,32.19 1.67,33.09 C4.36,34.19 7.67,34.37 10.16,34.62 C15.3742056,35.24293 20.618894,35.5767739 25.87,35.62 C32.0389292,35.4853832 38.1922728,34.9442096 44.29,34 C47.6169961,33.6139172 50.8989091,32.9073013 54.09,31.89 C53.98,31.37 53.86,30.89 53.73,30.34 C52.7776909,26.4037774 51.420457,22.5767131 49.68,18.92 Z" id="Shape" fill="#F02000"></path>
            <path d="M5.51,28.12 C3.15,27.85 2.45,31.23 2,33.22 C3.84520309,33.8408939 5.75941031,34.2338101 7.7,34.39 C7.87,32.26 8,28.41 5.51,28.12 Z" id="Shape" fill="#E63700"></path>
            <path d="M19.32,29.71 C16.4,28.8 15.32,32.63 15.19,35.1 C17.19,35.28 19.25,35.43 21.28,35.51 C21.29,33.45 21.2,30.3 19.32,29.71 Z" id="Shape" fill="#E63700"></path>
            <path d="M37,28.65 C34.06,27.92 33.27,33 33.19,35.27 C35.4,35.11 37.6,34.89 39.8,34.63 C39.53,32.37 38.9,29.12 37,28.65 Z" id="Shape" fill="#E63700"></path>
            <path d="M53.28,28.67 C52.65,27.33 51.66,26.41 50.28,27.79 C48.9,29.17 48.79,31.44 48.51,33.36 C50.4009535,33.0285576 52.2632434,32.5504473 54.08,31.93 C53.97,31.41 53.85,30.93 53.72,30.38 C53.59,29.83 53.44,29.24 53.28,28.67 Z" id="Shape" fill="#E63700"></path>
            <path d="M5.13,26.2 C7.42,26.2 8.28,29.14 9.85,30.35 C11.3937346,31.7384386 13.7362654,31.7384386 15.28,30.35 C15.9467311,29.4981089 16.7552174,28.7674267 17.67,28.19 C19.76,27.3 21.18,29.8 22.51,31.07 C25.64,34.07 29.51,32.07 32.16,29.66 C33.67,28.3 35.4,26.66 37.48,27.55 C38.0288065,27.8426952 38.5393416,28.202085 39,28.62 C39.8595123,29.3385573 40.8950873,29.8149218 42,30 C43.9419082,30.4084053 45.9662966,30.0805114 47.68,29.08 C49.08,28.2 50.21,27.01 51.53,26.08 C51.7996158,25.8799176 52.0875669,25.7058076 52.39,25.56 C52.1433333,24.78 51.8733333,24.01 51.58,23.25 C49.32,24.14 46.52,27.76 44.96,28.32 C42.54,29.19 40.86,28.18 38.88,26.79 C37.52,25.85 35.96,24.79 34.33,25.72 C33.1474446,26.5136686 32.0244553,27.392675 30.97,28.35 C28.97,29.89 26.04,30.66 23.75,29.21 C21.46,27.76 19.52,23.51 16.39,25.6 C14.69,26.74 12.58,28.77 10.45,27.36 C9.57893546,26.5889014 8.76044073,25.7603843 8,24.88 C6.84755808,23.7805832 5.02284084,23.8208343 3.92,24.97 C3.72,25.56 3.53,26.17 3.35,26.78 C3.89228261,26.4555227 4.50065592,26.2572887 5.13,26.2 Z" id="Shape" fill="#F5D8D4"></path>
            <path d="M10.1,50.09 C15.8411623,51.1248246 21.6496451,51.7431038 27.48,51.94 C36.8501237,52.2336928 46.1955367,50.8206989 55.06,47.77 C55.4775014,43.3242775 55.3127759,38.8430716 54.57,34.44 C51.492954,35.3879163 48.3369174,36.0572772 45.14,36.44 C38.58959,37.4511324 31.9772229,38.0091239 25.35,38.11 C19.6433479,38.069704 13.9438136,37.699084 8.28,37 C5.90751083,36.7900896 3.56228129,36.3411456 1.28,35.66 C0.741852564,39.3678666 0.607733871,43.12319 0.88,46.86 C3.12,49.27 7,49.57 10.1,50.09 Z" id="Shape" fill="#000CFF"></path>
            <path d="M6.23,49.42 L5.3,47.34 C4.35766007,45.313991 3.54599994,43.2297279 2.87,41.1 C2.52,39.9 2.26,38.68 1.92,37.48 C1.76,36.87 1.59,36.26 1.38,35.67 L1.25,35.62 C0.711852564,39.3278666 0.577733871,43.08319 0.85,46.82 C2.33515405,48.2183639 4.21243766,49.1290907 6.23,49.43 L6.23,49.42 Z" id="Shape" fill="#F02000"></path>
            <path d="M9.88,37.14 C8.94668618,38.2589076 8.08815762,39.4381316 7.31,40.67 C7.15,40.95 6.85,40.77 6.77,40.52 C6.38,39.19 5.83,37.93 5.49,36.59 C5.02,36.52 4.54,36.44 4.07,36.34 C4.43,37.52 4.87,38.67 5.32,39.82 C5.74640789,41.286259 6.26067082,42.7255273 6.86,44.13 C8.13779002,41.7158879 9.6375975,39.4260033 11.34,37.29 C10.85,37.25 10.36,37.19 9.88,37.14 Z" id="Shape" fill="#8BBE48"></path>
            <path d="M7.11,39.74 C7.73000929,38.8095685 8.39756143,37.9117109 9.11,37.05 L8.31,36.96 C7.59,36.88 6.85,36.79 6.1,36.68 C6.34,37.73 6.76,38.72 7.11,39.74 Z" id="Shape" fill="#F5D8D4"></path>
            <path d="M7.11,44.84 C7.03,45 6.72,45.25 6.56,45.01 C5.86836491,43.6096947 5.31249159,42.1463415 4.9,40.64 C4.33,39.17 3.75,37.71 3.32,36.18 C2.79,36.07 2.26,35.94 1.75,35.78 C1.82,36.03 1.87,36.26 1.93,36.45 C2.34,37.82 2.66,39.21 3.02,40.59 C3.67036181,42.7851955 4.48602726,44.9279887 5.46,47 C5.77,47.71 6.08,48.41 6.4,49.12 C8.59,45.12 11.01,41.36 13.34,37.51 L12,37.37 C10.1196983,39.6868537 8.4811802,42.189866 7.11,44.84 Z" id="Shape" fill="#32A1F9"></path>
            <path d="M17.14,50.88 C15.84,46.54 14.42,42.24 13.45,37.81 C11.11,41.65 8.71,45.45 6.52,49.4 C6.54361754,49.4310248 6.56373932,49.4645611 6.58,49.5 C7.78,49.74 9,49.9 10.1,50.09 C12.41,50.48 14.72,50.83 17.04,51.09 C17.0699761,51.0184501 17.1033473,50.9483705 17.14,50.88 Z" id="Shape" fill="#F02000"></path>
            <path d="M23.42,38.1 C21.4169541,40.5050268 19.6047787,43.0628022 18,45.75 C17.9,45.93 17.55,46.03 17.42,45.82 C16.0488622,43.2473941 15.0969005,40.4725268 14.6,37.6 L13.72,37.53 C14.65,41.92 16.05,46.17 17.34,50.46 C19.24,46 22,42.14 24.71,38.2 C24.7153878,38.1736055 24.7153878,38.1463945 24.71,38.12 L23.42,38.1 Z" id="Shape" fill="#32A1F9"></path>
            <path d="M20.24,38 C19.15,37.95 18.07,37.89 16.98,37.81 C17.2222155,38.845856 17.5776884,39.8519113 18.04,40.81 C18.76,39.84 19.54,39 20.24,38 Z" id="Shape" fill="#F5D8D4"></path>
            <path d="M20.93,38 C20.08,39.21 19.06,40.3 18.19,41.5 C18.04,41.7 17.71,41.82 17.6,41.5 C17.0271007,40.2914167 16.5878327,39.0239106 16.29,37.72 L15.29,37.64 C15.7565121,40.1937065 16.5742727,42.6705453 17.72,45 C19.2063856,42.5893696 20.856954,40.2839199 22.66,38.1 L20.93,38 Z" id="Shape" fill="#8BBE48"></path>
            <path d="M30.6,51.88 C29.6,49.63 28.48,47.4 27.51,45.13 C26.54,42.86 26,40.57 24.85,38.45 C22.15,42.45 19.32,46.38 17.44,50.86 C17.44,50.96 17.51,51.07 17.54,51.18 C20.84,51.58 24.14,51.86 27.48,51.94 C28.48,51.94 29.54,51.94 30.57,51.94 C30.57,51.93 30.59,51.91 30.6,51.88 Z" id="Shape" fill="#F02000"></path>
            <path d="M29.52,38.89 C29.85,39.73 30.14,40.59 30.52,41.4 C31.26,40.2 32.06,39.05 32.76,37.84 C31.57,37.92 30.39,37.99 29.19,38.04 L29.19,38.12 C29.33,38.38 29.43,38.63 29.52,38.89 Z" id="Shape" fill="#F5D8D4"></path>
            <path d="M33.44,37.78 C32.6,39.28 31.59,40.66 30.74,42.15 C30.63,42.32 30.34,42.49 30.2,42.25 C29.6441144,41.1228745 29.1630732,39.9603582 28.76,38.77 C28.68,38.57 28.56,38.32 28.47,38.06 L27.23,38.06 C28.62,40.63 29.33,43.55 30.61,46.19 C32.47,43.58 33.61,40.5 34.98,37.62 C34.47,37.7 34,37.75 33.44,37.78 Z" id="Shape" fill="#8BBE48"></path>
            <path d="M35.64,37.6 C34.01,40.77 32.85,44.21 30.72,47.06 C30.6779624,47.1272115 30.6042751,47.1680369 30.525,47.1680369 C30.4457249,47.1680369 30.3720376,47.1272115 30.33,47.06 C28.85,44.17 28.14,40.88 26.5,38.06 L25.35,38.06 L25.08,38.06 L25,38.16 C26.13,40.32 26.76,42.72 27.73,44.96 C28.7,47.2 29.73,49.33 30.73,51.5 C30.86,51.18 30.98,50.92 31.02,50.8 C31.83,48.7 32.74,46.64 33.67,44.6 C34.67,42.41 35.67,40.23 36.73,38.07 L37.06,37.39 L35.64,37.6 Z" id="Shape" fill="#32A1F9"></path>
            <path d="M40.69,44.76 C39.59,42.35 38.26,40.04 37.34,37.54 L36.98,38.28 C35.98,40.28 35.04,42.28 34.12,44.36 C33.2,46.44 32.34,48.36 31.54,50.36 C31.48,50.51 31.16,51.24 30.9,51.96 C35.0911413,51.9028592 39.2710539,51.5116194 43.4,50.79 C42.44,48.81 41.61,46.77 40.69,44.76 Z" id="Shape" fill="#F02000"></path>
            <path d="M43.5,36.68 L41.73,36.92 C42.08,37.51 42.36,38.18 42.65,38.8 C42.8873691,38.0757607 43.171294,37.3676184 43.5,36.68 Z" id="Shape" fill="#F5D8D4"></path>
            <path d="M45.14,36.46 L44.29,36.58 C43.742619,37.5990043 43.3099729,38.6755887 43,39.79 C42.92,40.06 42.58,39.94 42.49,39.79 C42.13,39.15 41.81,38.48 41.49,37.84 C41.36,37.58 41.23,37.3 41.08,37.03 L39.53,37.21 C40.8242408,39.1389049 41.9612401,41.168783 42.93,43.28 C43.76,40.98 44.58,38.67 45.56,36.43 L45.14,36.46 Z" id="Shape" fill="#8BBE48"></path>
            <path d="M48.14,36 L46.27,36.3 C45.14,38.85 44.27,41.5 43.27,44.12 C43.19,44.34 42.8,44.54 42.66,44.27 C41.5606354,41.8245083 40.2454289,39.4819013 38.73,37.27 L37.53,37.41 C38.43,39.83 39.71,42.05 40.78,44.41 C41.78,46.53 42.61,48.69 43.63,50.78 C43.94,49.64 44.19,48.46 44.47,47.3 C44.91,45.57 45.47,43.88 46.08,42.19 C46.76,40.19 47.44,38.19 48.08,36.12 C48.0932753,36.0769768 48.1135467,36.0364342 48.14,36 Z" id="Shape" fill="#32A1F9"></path>
            <path d="M50.07,35.62 C49.57,35.73 49.07,35.83 48.55,35.92 C48.5541965,35.9665723 48.5541965,36.0134277 48.55,36.06 C50,38.36 51.47,40.67 52.82,43.06 C53.59,44.41 54.34,45.78 55.17,47.06 C55.29,45.56 55.34,44.06 55.33,42.55 C53.4228357,40.3609024 51.6655132,38.0456466 50.07,35.62 Z" id="Shape" fill="#32A1F9"></path>
            <path d="M55,37.68 C54.89,36.59 54.75,35.52 54.57,34.44 C53.88,34.67 53.18,34.87 52.48,35.06 C53.24,36 54.15,36.81 55,37.68 Z" id="Shape" fill="#F5D8D4"></path>
            <path d="M51.88,35.21 L50.65,35.5 C52.0513286,37.6512213 53.5912533,39.7089081 55.26,41.66 C55.26,40.66 55.17,39.59 55.08,38.56 C54,37.42 52.81,36.45 51.88,35.21 Z" id="Shape" fill="#8BBE48"></path>
            <path d="M52.59,43.27 C51.26,40.94 49.82,38.66 48.39,36.4 C47.7,38.4 47.01,40.47 46.33,42.5 C45.76,44.19 45.16,45.87 44.75,47.61 C44.51,48.61 44.29,49.61 44.01,50.68 C47.7459177,49.9937528 51.4234528,49.0208776 55.01,47.77 C55.0155176,47.6934326 55.0155176,47.6165674 55.01,47.54 C54.2,46.15 53.4,44.69 52.59,43.27 Z" id="Shape" fill="#F02000"></path>
            <path d="M2.77,46.86 C2.03,44.86 1.39,42.86 0.77,40.77 C0.678582483,42.7698318 0.705295611,44.7733164 0.85,46.77 C1.56258801,47.5178178 2.42460948,48.1072633 3.38,48.5 C3.17,48 3,47.42 2.77,46.86 Z" id="Shape" fill="#8BBE48"></path>
            <path d="M12.71,43.74 C11.2975109,45.7057052 10.0179923,47.7636255 8.88,49.9 L10.1,50.09 C11.71,50.36 13.33,50.61 14.94,50.84 C14.13,48.49 13.34,46.14 12.71,43.74 Z" id="Shape" fill="#8BBE48"></path>
            <path d="M26.22,47.9 C25.7584257,46.4835187 25.2243886,45.0916845 24.62,43.73 C23.62,45.4 22.44,47 21.39,48.67 C20.89,49.47 20.55,50.58 20.04,51.46 C22.51,51.71 24.98,51.88 27.48,51.94 L27.87,51.94 C27.24,50.65 26.76,49.27 26.22,47.9 Z" id="Shape" fill="#8BBE48"></path>
            <path d="M37.1,44.15 C36.58,45.4 36.03,46.65 35.47,47.89 C34.7917174,49.1717931 34.2262516,50.5101738 33.78,51.89 C36.12,51.77 38.4533333,51.55 40.78,51.23 C39.36,49 38.28,46.53 37.1,44.15 Z" id="Shape" fill="#8BBE48"></path>
            <path d="M51.11,45.91 C50.41,44.81 49.71,43.7 49.11,42.53 C48.24,45.06 47.53,47.66 46.58,50.16 C48.69,49.69 50.79,49.16 52.88,48.49 C52.28,47.63 51.65,46.79 51.11,45.91 Z" id="Shape" fill="#8BBE48"></path>
            <path d="M11.52,65.89 C16.6461564,66.6136448 21.8273347,66.8713649 27,66.66 C35.26197,66.472747 43.4399232,64.9566855 51.22,62.17 C52.9309033,58.5184608 54.1031067,54.6380631 54.7,50.65 C45.3125437,53.6304123 35.4668323,54.9038858 25.63,54.41 C19.657301,54.0690037 13.7121201,53.350906 7.83,52.26 C5.56083473,51.9645793 3.34727358,51.337909 1.26,50.4 C1.9288105,55.0061247 3.37254027,59.4657958 5.53,63.59 C7.52,64.42 9.49,65.57 11.52,65.89 Z" id="Shape" fill="#F4F8FC"></path>
            <path d="M13.75,57.46 C18.934496,57.9516498 24.1446613,58.1186423 29.35,57.96 C37.6989792,57.6661678 45.9790893,56.3359757 54,54 C54.26,52.9 54.49,51.78 54.66,50.65 C45.2725437,53.6304123 35.4268323,54.9038858 25.59,54.41 C19.617301,54.0690037 13.6721201,53.350906 7.79,52.26 C5.52083473,51.9645793 3.30727358,51.337909 1.22,50.4 C1.44,51.81 1.71,53.22 2.06,54.59 C5.81996946,56.0360548 9.74785073,57.0003849 13.75,57.46 Z" id="Shape" fill="#F02000"></path>
            <path d="M28.49,62.13 C23.1001946,62.3134499 17.7041532,62.1263426 12.34,61.57 C9.43667625,61.2188332 6.56927015,60.6165775 3.77,59.77 C4.28709701,61.0742487 4.87462845,62.349459 5.53,63.59 C7.53,64.42 9.53,65.59 11.53,65.89 C16.6528586,66.6130412 21.8306626,66.8707599 27,66.66 C35.26197,66.472747 43.4399232,64.9566855 51.22,62.17 C51.8,60.95 52.31,59.71 52.77,58.43 C44.8558962,60.6398457 36.7031037,61.88224 28.49,62.13 Z" id="Shape" fill="#F02000"></path>
            <path d="M27.1,69.76 C21.7549515,70.019372 16.3973481,69.7682344 11.1,69.01 C10.2845607,68.8709706 9.47940674,68.6771991 8.69,68.43 C10.6954456,70.9399187 13.2197604,72.9866605 16.09,74.43 C19.8188084,76.3054303 23.9173196,77.3300581 28.09,77.43 C29.768624,77.451236 31.4447382,77.2936812 33.09,76.96 C35.4653209,76.4198618 37.7633319,75.5833052 39.93,74.47 C43.6200397,72.5878781 46.7304702,69.7401061 48.93,66.23 L49.06,66.02 C41.961726,68.3316009 34.5632864,69.5916266 27.1,69.76 Z" id="Shape" fill="#79F3A3"></path>
            <polygon id="Shape" fill="#3B85F8" points="9.56 53.9 10.9 56.78 13.9 57.24 11.73 59.48 12.24 62.64 9.56 61.15 6.88 62.64 7.39 59.48 5.22 57.24 8.22 56.78"></polygon>
            <polygon id="Shape" fill="#3B85F8" points="21.81 56.39 22.96 58.86 25.52 59.25 23.67 61.18 24.1 63.88 21.81 62.61 19.51 63.88 19.95 61.18 18.09 59.25 20.66 58.86"></polygon>
            <polygon id="Shape" fill="#3B85F8" points="35.7 55.81 37.02 58.66 39.99 59.12 37.84 61.33 38.35 64.45 35.7 62.98 33.05 64.45 33.56 61.33 31.41 59.12 34.37 58.66"></polygon>
            <polygon id="Shape" fill="#3B85F8" points="47.03 55.24 47.96 57.24 50.04 57.56 48.53 59.12 48.89 61.31 47.03 60.27 45.16 61.31 45.52 59.12 44.01 57.56 46.09 57.24"></polygon>
            <path d="M7,30.55 C6.94017921,31.4943334 6.13668828,32.2177627 5.1912771,32.1784978 C4.24586591,32.1392329 3.50512973,31.3516685 3.52382019,30.4056269 C3.54251065,29.4595853 4.31377568,28.7018928 5.26,28.7 C6.2503331,28.7326316 7.02806164,29.5595269 7,30.55 Z" id="Shape" fill="#32A1F9"></path>
            <path d="M20.35,32.39 C20.2955387,33.336037 19.4940723,34.0645525 18.5471454,34.0287557 C17.6002185,33.9929588 16.8560414,33.2060129 16.87316,32.2585642 C16.8902786,31.3111155 17.662398,30.5515663 18.61,30.55 C19.0847995,30.5630772 19.5349344,30.7643271 19.8612867,31.1094354 C20.1876391,31.4545436 20.3634476,31.9152109 20.35,32.39 Z" id="Shape" fill="#32A1F9"></path>
            <path d="M38,31.86 C37.9347438,32.8038836 37.1272373,33.5226409 36.1821516,33.4780573 C35.237066,33.4334736 34.5008085,32.6418904 34.5246983,31.6960554 C34.5485881,30.7502204 35.3238687,29.9968155 36.27,30 C36.7466263,30.01561 37.1973203,30.2207642 37.522103,30.5699526 C37.8468857,30.9191409 38.0189046,31.383493 38,31.86 Z" id="Shape" fill="#32A1F9"></path>
            <path d="M52.73,29.3 C52.6864143,30.077857 52.0281855,30.6776895 51.2496357,30.6490304 C50.4710858,30.6203713 49.8587394,29.9737677 49.8724614,29.1948114 C49.8861834,28.4158551 50.5209238,27.7912202 51.3,27.79 C51.6899164,27.8004655 52.0596875,27.9654701 52.327895,28.2486822 C52.5961025,28.5318943 52.7407542,28.9100915 52.73,29.3 Z" id="Shape" fill="#32A1F9"></path>
            <path d="M27.67,26.2 C27.7017988,26.4607714 27.5805448,26.716534 27.3585348,26.8569776 C27.1365248,26.9974213 26.8534752,26.9974213 26.6314652,26.8569776 C26.4094552,26.716534 26.2882012,26.4607714 26.32,26.2 C26.2882012,25.9392286 26.4094552,25.683466 26.6314652,25.5430224 C26.8534752,25.4025787 27.1365248,25.4025787 27.3585348,25.5430224 C27.5805448,25.683466 27.7017988,25.9392286 27.67,26.2 Z" id="Shape" fill="#F5D8D4"></path>
            <ellipse id="Oval" fill="#F5D8D4" cx="11.56" cy="24.28" rx="1.06" ry="1.12"></ellipse>
            <path d="M43.78,25.31 C43.7367569,25.8053702 43.3077227,26.1767325 42.8112701,26.1485104 C42.3148176,26.1202884 41.9306333,25.7026968 41.9438084,25.2056173 C41.9569836,24.7085378 42.3627495,24.3118839 42.86,24.31 C43.1165658,24.3149335 43.3599614,24.4245435 43.5337031,24.6133931 C43.7074448,24.8022428 43.796427,25.0539131 43.78,25.31 Z" id="Shape" fill="#F5D8D4"></path>
            <g id="Group" opacity="0.3" style="mix-blend-mode: multiply;" fill="#989593">
                <path d="M53.73,30.38 C52.6258828,25.7774189 50.9459734,21.3323785 48.73,17.15 C45.3,10.77 41,4.36 34.21,1.75 C27.42,-0.86 20.08,1.11 14.86,6.32 C11.8161287,9.55228141 9.24405757,13.1982932 7.22,17.15 C5.0213079,21.3347843 3.35823043,25.7797368 2.27,30.38 C-0.73,42.29 0.39,55.87 7.07,66.21 C9.26952976,69.7201061 12.3799603,72.5678781 16.07,74.45 C19.7988084,76.3254303 23.8973196,77.3500581 28.07,77.45 C29.748624,77.471236 31.4247382,77.3136812 33.07,76.98 C35.4453209,76.4398618 37.7433319,75.6033052 39.91,74.49 C43.6000397,72.6078781 46.7104702,69.7601061 48.91,66.25 C55.62,55.87 56.7,42.29 53.73,30.38 Z M42.34,57.44 C40.5433555,60.2927485 38.0066464,62.6048171 35,64.13 C33.2390076,65.0298162 31.3706676,65.701881 29.44,66.13 C28.0943704,66.4047789 26.7233105,66.5355156 25.35,66.52 C21.9682225,66.4470756 18.6448608,65.6239202 15.62,64.11 C12.6243622,62.5803849 10.0984356,60.2686956 8.31,57.42 C2.91,49 2,38 4.44,28.34 C5.31748927,24.6031753 6.66136322,20.991514 8.44,17.59 C10.0794194,14.3808389 12.1669957,11.4211945 14.64,8.8 C18.87,4.56 24.81,2.94 30.35,5.08 C35.89,7.22 39.35,12.41 42.18,17.59 C43.96294,20.9895959 45.3070211,24.6018139 46.18,28.34 C48.65,38 47.77,49 42.34,57.44 Z" id="Shape"></path>
            </g>
        </g>
    </g>
</svg>