<?xml version="1.0" encoding="UTF-8"?>
<svg width="56px" height="78px" viewBox="0 0 56 78" version="1.1" xmlns="http://www.w3.org/2000/svg" xmlns:xlink="http://www.w3.org/1999/xlink">
    <!-- Generator: Sketch 48.2 (47327) - http://www.bohemiancoding.com/sketch -->
    <title>11</title>
    <desc>Created with Sketch.</desc>
    <defs>
        <radialGradient cx="33.1437283%" cy="40.3455816%" fx="33.1437283%" fy="40.3455816%" r="40.4720418%" gradientTransform="translate(0.331437,0.403456),scale(1.000000,0.710510),translate(-0.331437,-0.403456)" id="radialGradient-1">
            <stop stop-color="#F4BE4A" offset="10%"></stop>
            <stop stop-color="#E30812" offset="63%"></stop>
            <stop stop-color="#7C0A02" offset="100%"></stop>
        </radialGradient>
    </defs>
    <g id="Page-1" stroke="none" stroke-width="1" fill="none" fill-rule="evenodd">
        <g id="11" fill-rule="nonzero">
            <path d="M28.06,77.39 C29.7385964,77.410556 31.4146386,77.2530081 33.06,76.92 C35.4361663,76.382736 37.7345322,75.5460502 39.9,74.43 C43.5925237,72.5560445 46.7041385,69.7106457 48.9,66.2 C55.58,55.86 56.67,42.29 53.7,30.38 C52.5985837,25.7829687 50.9185087,21.3442106 48.7,17.17 C45.3,10.78 41,4.38 34.2,1.76 C27.4,-0.86 20.08,1.12 14.86,6.34 C11.8201763,9.57334845 9.25154832,13.2192517 7.23,17.17 C5.02877668,21.3466324 3.36553583,25.7853015 2.28,30.38 C-0.72,42.29 0.4,55.86 7.08,66.2 C9.27429046,69.7119539 12.3863134,72.557726 16.08,74.43 C19.8035117,76.2953171 23.8962299,77.3065396 28.06,77.39 Z" id="Shape" fill="url(#radialGradient-1)"></path>
            <g id="Group" opacity="0.7" style="mix-blend-mode: screen;" transform="translate(17.000000, 0.000000)" fill="#ECF9F4">
                <path d="M4.42,5 C5.94015635,4.44923712 7.22278084,3.38921688 8.05,2 C8.33,1.62 8.65,1.16 9.05,0.7 C5.81626697,1.10999272 2.74887593,2.36938274 0.16,4.35 C1.42430745,5.15902313 2.97195469,5.39516649 4.42,5 Z" id="Shape"></path>
            </g>
            <g id="Group" opacity="0.7" style="mix-blend-mode: screen;" transform="translate(10.000000, 3.000000)" fill="#ECF9F4">
                <path d="M27.07,0.17 C25.2398905,0.585415449 23.5143706,1.37159907 22,2.48 C20.544259,3.80324872 19.2457088,5.2897028 18.13,6.91 C16.5,8.91 14.28,10.84 11.61,10.13 C9.38,9.54 7.61,7.82 5.8,6.46 C5.04471506,5.86540228 4.19671475,5.39917103 3.29,5.08 C2.29129532,6.25651195 1.35981303,7.48847241 0.5,8.77 C0.811162307,8.77378236 1.12177736,8.79716199 1.43,8.84 C3.43732182,9.22698201 5.22371396,10.3595546 6.43,12.01 C7.85,13.66 9.24,15.33 11.43,15.76 C14.72,16.41 17.62,14.15 19.99,12.03 C22.36,9.91 24.41,7.51 27.13,6.1 C28.8613802,5.1190512 30.8783004,4.76582524 32.84,5.1 C31.1983848,3.15300591 29.2493126,1.4876808 27.07,0.17 Z" id="Shape"></path>
            </g>
            <g id="Group" opacity="0.7" style="mix-blend-mode: screen;" transform="translate(6.000000, 14.000000)" fill="#ECF9F4">
                <path d="M46,20.81 C45.5606243,19.2877598 44.8857981,17.8436317 44,16.53 C43.4075443,15.5898009 42.5570323,14.8399617 41.55,14.37 C40.784008,14.1642957 39.99302,14.0666844 39.2,14.08 C38.01,14 36.78,13.83 36.08,12.66 C35.6868147,12.0099557 35.6640314,11.2011473 36.02,10.53 C36.92,8.64 39.3,7.53 41.02,6.84 C41.9897702,6.43978164 42.9938978,6.12850208 44.02,5.91 C43.6,4.97 43.15,4.06 42.66,3.17 L42.16,2.26 C41.0312496,2.69103345 39.9677738,3.27661824 39,4 C34.48,7.24 31.32,12 27.13,15.5 C22.94,19 16.36,23 11.74,18.05 C9.9,16.05 9.31,13.53 8.74,10.92 C8.17,8.31 7.61,5.02 5.93,2.76 C5.18592842,1.58405367 3.85859241,0.908876973 2.47,1 C2.04,1.73 1.63,2.46 1.23,3.2 C0.83,3.94 0.52,4.55 0.23,5.2 C0.82893745,5.04329167 1.4642555,5.1071784 2.02,5.38 C4.49,6.65 3.44,10.06 2.9,12.21 C1.39,18.21 1.51,25.12 4.9,30.43 C6.66282465,33.2747875 9.35483868,35.4227462 12.52,36.51 C16.3399924,37.715463 20.4980505,37.1622765 23.87,35 C25.5153461,33.9919287 26.9763657,32.7101545 28.19,31.21 C29.13,29.99 29.93,28.66 30.76,27.36 C32.31,24.91 34.04,21.91 36.64,20.56 C37.5764288,19.9375971 38.7408767,19.7631228 39.8186017,20.0837363 C40.8963267,20.4043499 41.7760542,21.186948 42.22,22.22 C43.48,24.41 43.91,27 44.46,29.48 C45.11,32.48 45.98,36.39 48.39,38.41 C48.9386259,35.5785966 49.2331305,32.7038301 49.27,29.82 C47.7,27 46.8,23.08 46,20.81 Z" id="Shape"></path>
            </g>
            <g id="Group" opacity="0.7" style="mix-blend-mode: screen;" transform="translate(1.000000, 22.000000)" fill="#ECF9F4">
                <path d="M0.92,10 C1.34538777,9.9841492 1.75774719,9.8490062 2.11,9.61 C3.24771797,8.7680371 4.09102414,7.58880814 4.52,6.24 C5.12395471,4.76262646 5.21549334,3.12549321 4.78,1.59 C4.59254212,1.07632298 4.29176166,0.61148045 3.9,0.23 C2.8422153,2.90093192 1.96687172,5.64055686 1.28,8.43 C1.15,8.9 1,9.43 0.92,10 Z" id="Shape"></path>
            </g>
            <g id="Group" opacity="0.7" style="mix-blend-mode: screen;" transform="translate(0.000000, 37.000000)" fill="#ECF9F4">
                <path d="M53.47,17.85 C52.867177,16.8305124 51.7642448,16.2122598 50.58,16.23 C49.257375,16.5268186 48.0858925,17.2900572 47.28,18.38 C44.15,22.21 43.93,28.7 39.48,31.38 C37.1697919,32.9545266 34.0716793,32.6914794 32.06,30.75 C31.0435461,29.6762664 30.1940763,28.4559964 29.54,27.13 C28.8738724,25.5720855 28.0951451,24.0647636 27.21,22.62 C26.82,22.08 26.27,21.48 25.57,21.53 C24.9555326,21.6133452 24.3786773,21.8739726 23.91,22.28 C22.38,23.43 21.11,24.93 19.53,26 C18.3166158,26.9528988 16.8318708,27.4956712 15.29,27.55 C13.5514625,27.4122686 11.9196762,26.6566806 10.69,25.42 C7.99536187,22.752464 6.24057316,19.281492 5.69,15.53 C5.09,12.53 4.85,9.4 4.35,6.37 C4.12,5 3.12,-0.21 1,1.17 C0.13,10.31 1.65,19.8 6.17,27.65 C6.53302542,27.1815473 7.09756124,26.9141356 7.69,26.93 C9.4,26.99 10.78,28.74 11.57,30.18 C12.49,31.87 13.21,34.47 15.11,35.18 C17.57,36.18 19.18,34.12 20.49,32.25 C21.8,30.38 23.87,28 25.94,30 C28.01,32 28.39,34.95 29.62,37.37 C30.12168,38.3959937 30.7984912,39.3266091 31.62,40.12 C32.1,40.05 32.62,39.98 33.06,39.88 C35.4361663,39.342736 37.7345322,38.5060502 39.9,37.39 C43.5925237,35.5160445 46.7041385,32.6706457 48.9,29.16 C51.0634749,25.7646395 52.6861693,22.0536959 53.71,18.16 C53.65,18.08 53.56,18 53.47,17.85 Z" id="Shape"></path>
            </g>
            <g id="Group" opacity="0.7" style="mix-blend-mode: screen;" transform="translate(21.000000, 9.000000)" fill="#ECF9F4">
                <path d="M10.35,10.67 C7.71,11.67 -1.74,13.55 1.51,18.49 C3,20.74 5.76,19.69 7.62,18.62 C9.93914422,17.2259694 12.0584667,15.5237834 13.92,13.56 C17.27,10.17 20.33,4.87 24.92,3.33 C24.23,2.27 23.51,1.24 22.74,0.26 C20.3358554,1.88244376 18.1540481,3.81211615 16.25,6 C14.5,7.75 12.68,9.77 10.35,10.67 Z" id="Shape"></path>
            </g>
            <g id="Group" opacity="0.3" style="mix-blend-mode: multiply;" fill="#9C8943">
                <path d="M53.72,30.38 C52.6185837,25.7829687 50.9385087,21.3442106 48.72,17.17 C45.3,10.78 41,4.38 34.2,1.76 C27.4,-0.86 20.08,1.12 14.86,6.34 C11.8201763,9.57334845 9.25154832,13.2192517 7.23,17.17 C5.02877668,21.3466324 3.36553583,25.7853015 2.28,30.38 C-0.72,42.29 0.4,55.86 7.08,66.2 C9.27429046,69.7119539 12.3863134,72.557726 16.08,74.43 C19.8063415,76.3120662 23.9063734,77.3370742 28.08,77.43 C29.7585964,77.450556 31.4346386,77.2930081 33.08,76.96 C35.4561663,76.422736 37.7545322,75.5860502 39.92,74.47 C43.6125237,72.5960445 46.7241385,69.7506457 48.92,66.24 C55.6,55.86 56.69,42.29 53.72,30.38 Z M42.34,57.43 C40.5464654,60.2853497 38.0089489,62.5981542 35,64.12 C33.2390076,65.0198162 31.3706676,65.691881 29.44,66.12 C28.0981217,66.3963826 26.7298384,66.5238207 25.36,66.5 C21.9751145,66.4353415 18.6474193,65.6153756 15.62,64.1 C12.6260743,62.5679187 10.1007407,60.2567722 8.31,57.41 C2.92,49 2,38 4.45,28.34 C5.32563802,24.6058091 6.66961611,20.9972279 8.45,17.6 C10.0952719,14.3943771 12.1822926,11.4355205 14.65,8.81 C18.89,4.58 24.82,2.96 30.36,5.09 C35.9,7.22 39.36,12.42 42.19,17.61 C43.9719543,21.0030183 45.3160287,24.6084978 46.19,28.34 C48.64,38 47.76,49 42.34,57.43 Z" id="Shape"></path>
            </g>
        </g>
    </g>
</svg>