<?xml version="1.0" encoding="UTF-8"?>
<svg width="56px" height="78px" viewBox="0 0 56 78" version="1.1" xmlns="http://www.w3.org/2000/svg" xmlns:xlink="http://www.w3.org/1999/xlink">
    <!-- Generator: Sketch 48.2 (47327) - http://www.bohemiancoding.com/sketch -->
    <title>12</title>
    <desc>Created with Sketch.</desc>
    <defs>
        <radialGradient cx="33.3218933%" cy="40.343313%" fx="33.3218933%" fy="40.343313%" r="40.4903715%" gradientTransform="translate(0.333219,0.403433),scale(1.000000,0.710235),translate(-0.333219,-0.403433)" id="radialGradient-1">
            <stop stop-color="#F3BFAF" offset="10%"></stop>
            <stop stop-color="#E7105F" offset="63%"></stop>
            <stop stop-color="#A5121A" offset="100%"></stop>
        </radialGradient>
    </defs>
    <g id="Page-1" stroke="none" stroke-width="1" fill="none" fill-rule="evenodd">
        <g id="12">
            <path d="M28.05,77.41 C29.7289578,77.4274164 31.4050195,77.2665145 33.05,76.93 C35.4279657,76.3988756 37.7271009,75.5619097 39.89,74.44 C43.5796337,72.5618695 46.6902379,69.7173947 48.89,66.21 C55.57,55.87 56.66,42.29 53.69,30.38 C52.5841564,25.77795 50.9043272,21.3331219 48.69,17.15 C45.3,10.77 41,4.37 34.21,1.75 C27.42,-0.87 20.08,1.11 14.86,6.32 C11.8184015,9.55413717 9.24656818,13.1998119 7.22,17.15 C5.02295243,21.3355203 3.35995417,25.7802611 2.27,30.38 C-0.73,42.29 0.39,55.87 7.07,66.21 C9.26976207,69.7173947 12.3803663,72.5618695 16.07,74.44 C19.7939883,76.305306 23.8859501,77.3197573 28.05,77.41 Z" id="Shape" fill="url(#radialGradient-1)" fill-rule="nonzero"></path>
            <path d="M28.05,77.41 C29.7289578,77.4274164 31.4050195,77.2665145 33.05,76.93 C35.4279657,76.3988756 37.7271009,75.5619097 39.89,74.44 C43.5796337,72.5618695 46.6902379,69.7173947 48.89,66.21 C55.57,55.87 56.66,42.29 53.69,30.38 C52.5841564,25.77795 50.9043272,21.3331219 48.69,17.15 C45.3,10.77 41,4.37 34.21,1.75 C27.42,-0.87 20.08,1.11 14.86,6.32 C11.8184015,9.55413717 9.24656818,13.1998119 7.22,17.15 C5.02295243,21.3355203 3.35995417,25.7802611 2.27,30.38 C-0.73,42.29 0.39,55.87 7.07,66.21 C9.26976207,69.7173947 12.3803663,72.5618695 16.07,74.44 C19.7939883,76.305306 23.8859501,77.3197573 28.05,77.41 Z" id="Shape" fill="#9F0056" fill-rule="nonzero"></path>
            <path d="M35.73,2.42 C35.24,2.18 34.73,1.95 34.21,1.75 C32.0138644,0.895901529 29.6641513,0.507688062 27.31,0.61 C23.93,5.45 20.71,10.43 17.54,15.43 L17.93,16.43 C20.62,23.14 23.15,29.91 25.8,36.62 C26.19,37.62 26.59,38.62 26.99,39.62 C30.36,33.45 33.71,27.28 37.17,21.17 L40.4,15.51 C38.5746388,11.2472413 37.0149878,6.87554275 35.73,2.42 Z" id="Shape" fill="#ED83A1" fill-rule="nonzero"></path>
            <path d="M40.89,14.59 L42.53,11.7 C42.97,10.93 43.43,10.2 43.9,9.47 C41.9574561,6.8603064 39.5171468,4.66130901 36.72,3 C37.8950746,6.9373192 39.2872043,10.8065718 40.89,14.59 Z" id="Shape" fill="#F8D6A9" fill-rule="nonzero"></path>
            <path d="M49.77,35.33 C50.86,32.91 51.97,30.5 53.12,28.12 C52.0803792,24.3055123 50.6249883,20.6167337 48.78,17.12 C47.4541478,14.6474865 45.9606593,12.2685967 44.31,10 L44.31,10.05 C43.2,11.74 42.2,13.51 41.21,15.3 C43.21,20.07 45.37,24.78 47.34,29.48 C48.1333333,31.4333333 48.9433333,33.3833333 49.77,35.33 Z" id="Shape" fill="#ED83A1" fill-rule="nonzero"></path>
            <path d="M53.45,29.3 C52.33,31.63 51.25,33.98 50.19,36.3 C51.81,40.14 53.4333333,43.9866667 55.06,47.84 C55.6082746,41.9734171 55.1585769,36.0563422 53.73,30.34 C53.64,30 53.54,29.66 53.45,29.3 Z" id="Shape" fill="#F8D6A9" fill-rule="nonzero"></path>
            <path d="M41.66,53.61 C44.27,47.87 46.74,42.06 49.32,36.31 C48.38,34.09 47.4466667,31.8633333 46.52,29.63 C44.65,25.16 42.61,20.7 40.7,16.18 C40.12,17.23 39.55,18.28 38.96,19.32 C35.24,25.85 31.64,32.45 28,39.05 L27.28,40.35 C30.44,48.06 33.86,55.64 37.4,63.16 C38.8133333,59.96 40.2333333,56.7766667 41.66,53.61 Z" id="Shape" fill="#F8D6A9" fill-rule="nonzero"></path>
            <path d="M42.15,54.5 C40.7166667,57.7 39.2966667,60.9133333 37.89,64.14 C39.31,67.14 40.7466667,70.14 42.2,73.14 C44.8976412,71.323441 47.1892294,68.9671572 48.93,66.22 C52.1205416,61.1501083 54.1490801,55.4367329 54.87,49.49 C53.17,45.43 51.4633333,41.3766667 49.75,37.33 C47.19,43 44.73,48.79 42.15,54.5 Z" id="Shape" fill="#F8D6A9" fill-rule="nonzero"></path>
            <path d="M11,70.89 C15.68,60.42 21.12,50.34 26.61,40.32 L25.61,37.8 C22.81,30.91 20.23,24 17.47,17.06 C17.34,16.75 17.22,16.44 17.1,16.13 L15.91,18 C10.91,26 5.4,33.71 0.72,41.92 C0.54,50.48 2.49,59.1 7.07,66.2 C8.18154279,67.9194454 9.50157147,69.4947467 11,70.89 Z" id="Shape" fill="#F8D6A9" fill-rule="nonzero"></path>
            <path d="M34.88,69.1 C35.61,67.39 36.33,65.68 37.07,63.98 C33.51,56.44 30.07,48.84 26.89,41.12 C21.47,51 16.1,61 11.49,71.36 C12.8754372,72.5824968 14.4152365,73.617995 16.07,74.44 C19.7976391,76.3185776 23.8968701,77.3433853 28.07,77.44 C29.3617099,77.4498581 30.652241,77.3595877 31.93,77.17 C33,74.5 33.81,71.66 34.88,69.1 Z" id="Shape" fill="#F8D6A9" fill-rule="nonzero"></path>
            <path d="M35.39,70 C34.45,72.23 33.74,74.66 32.83,77 L33.09,77 C35.4679657,76.4688756 37.7671009,75.6319097 39.93,74.51 C40.51,74.22 41.08,73.9 41.63,73.51 C40.25,70.67 38.8833333,67.8266667 37.53,64.98 C36.81,66.64 36.09,68.32 35.39,70 Z" id="Shape" fill="#F8D6A9" fill-rule="nonzero"></path>
            <path d="M13.94,7.41 C13.9353165,7.3801828 13.9353165,7.3498172 13.94,7.32 C11.3247935,10.3194107 9.07565922,13.61926 7.24,17.15 C5.04295243,21.3355203 3.37995417,25.7802611 2.29,30.38 C1.49407387,33.603914 0.998622185,36.8946506 0.81,40.21 C5.4,32.36 10.65,24.9 15.48,17.21 L16.75,15.21 C15.71,12.65 14.73,10.07 13.94,7.41 Z" id="Shape" fill="#ED83A1" fill-rule="nonzero"></path>
            <path d="M35.73,2.42 C35.24,2.18 34.73,1.95 34.21,1.75 C32.984605,1.2759502 31.7100057,0.940529335 30.41,0.75 C30.2,3.02 29.76,5.27 29.46,7.51 C29.16,9.75 28.91,12.04 28.67,14.32 L30.86,14.32 C34.0075646,14.3462379 37.1491036,14.6002346 40.26,15.08 C38.4953734,10.9554906 36.9825947,6.72772466 35.73,2.42 Z" id="Shape" fill="#E95A81" fill-rule="nonzero"></path>
            <path d="M28.76,7.26 C29.08,5.09 29.51,2.89 29.76,0.68 C28.962546,0.601748992 28.1606591,0.578360626 27.36,0.61 C24.19,5.15 21.17,9.8 18.19,14.49 C21.4501689,14.2349287 24.7226632,14.1748217 27.99,14.31 C28.18,12 28.43,9.6 28.76,7.26 Z" id="Shape" fill="#F6D9CE" fill-rule="nonzero"></path>
            <path d="M27.32,20.16 C27.52,18.45 27.69,16.73 27.87,15.01 C24.4737265,14.7911656 21.065071,14.8580676 17.68,15.21 L17.54,15.43 L17.93,16.43 C20.62,23.14 23.15,29.91 25.8,36.62 C26,37.14 26.21,37.62 26.42,38.17 C26.3835981,32.1545737 26.6840685,26.1418283 27.32,20.16 Z" id="Shape" fill="#E95A81" fill-rule="nonzero"></path>
            <path d="M31,15.08 L28.59,15.08 C28.41,16.88 28.22,18.67 28.01,20.46 C27.3600785,26.7451501 27.0596162,33.0615372 27.11,39.38 C30.44,33.29 33.75,27.19 37.17,21.16 L40.17,15.87 C37.1369661,15.3811453 34.0719534,15.1170929 31,15.08 Z" id="Shape" fill="#F6D9CE" fill-rule="nonzero"></path>
            <path d="M50.21,34.36 C51.21,32.27 52.12,30.19 53.12,28.12 C52.1479498,24.5378191 50.8074636,21.0659596 49.12,17.76 L48.77,17.67 C49.23,23.23 50,28.78 50.21,34.36 Z" id="Shape" fill="#F6D9CE" fill-rule="nonzero"></path>
            <path d="M48,17.47 L45.85,17 C44.4,16.6 43,16.3 41.5,16 C43.4,20.52 45.44,25 47.31,29.44 C48.0166667,31.14 48.73,32.84 49.45,34.54 C49.19,28.86 48.44,23.18 48,17.47 Z" id="Shape" fill="#E95A81" fill-rule="nonzero"></path>
            <path d="M47.79,15.38 C46.7333683,13.5218782 45.5714764,11.7256201 44.31,10 L44.31,10.05 C43.21,11.73 42.21,13.5 41.23,15.28 C42.9833333,15.5666667 44.7333333,15.94 46.48,16.4 L47.92,16.76 C47.85,16.31 47.82,15.84 47.79,15.38 Z" id="Shape" fill="#F6D9CE" fill-rule="nonzero"></path>
            <path d="M6.77,19.06 L6.1,19.39 C4.46724558,22.9228225 3.18445461,26.6070785 2.27,30.39 C2.12,30.98 1.99,31.58 1.87,32.17 C3.11871117,27.6657333 4.75826885,23.27908 6.77,19.06 Z" id="Shape" fill="#E95A81" fill-rule="nonzero"></path>
            <path d="M15.8,15.54 C13.0009,16.2302683 10.2948496,17.25427 7.74,18.59 C4.40895771,25.2608603 2.15120325,32.4154783 1.05,39.79 C5.57,32.09 10.72,24.79 15.46,17.24 L16.63,15.38 L15.8,15.54 Z" id="Shape" fill="#F6D9CE" fill-rule="nonzero"></path>
            <path d="M10.45,11.79 C9.28,13.53 8.21,15.35 7.22,17.15 C7.03,17.5 6.85,17.86 6.67,18.21 L7.32,17.9 C8.31,15.84 9.36,13.81 10.45,11.79 Z" id="Shape" fill="#F6D9CE" fill-rule="nonzero"></path>
            <path d="M13.94,7.41 C13.9353165,7.3801828 13.9353165,7.3498172 13.94,7.32 C13.74,7.53 13.55,7.76 13.36,7.98 C11.6,11.08 9.89,14.22 8.36,17.42 C10.7644886,16.1660071 13.3378386,15.2666819 16,14.75 L16.52,14.68 C15.58,12.29 14.67,9.89 13.94,7.41 Z" id="Shape" fill="#E95A81" fill-rule="nonzero"></path>
            <path d="M14.47,6.78 C15.25,9.42 16.18,11.97 17.18,14.52 C20.18,9.85 23.18,5.21 26.3,0.68 C21.9507091,1.18565334 17.9095421,3.17797692 14.86,6.32 L14.46,6.74 C14.4585036,6.75409598 14.4620463,6.76826655 14.47,6.78 Z" id="Shape" fill="#F8D6A9" fill-rule="nonzero"></path>
            <path d="M54.54,37.1 C52.87,40.76 51.54,44.77 49.18,48.02 C49.18,48.22 48.95,48.39 48.86,48.17 C46.49,42.51 43.9,36.84 42,31 C41.55,29.58 41.11,28.14 40.61,26.72 C38.61,30.2 36.54,33.63 34.54,37.11 C33.06,39.68 31.66,42.28 30.4,45 C29.4242733,47.2230342 28.2879341,49.3720522 27,51.43 C26.86,51.64 26.43,51.43 26.6,51.21 C26.6,51.21 26.6,51.21 26.6,51.21 C23.06,41.66 18.92,32.38 14.73,23.14 C12.52,26.54 10.31,29.94 8.25,33.45 C6.25,36.8 4.34,40.19 2.52,43.63 C1.94,44.73 1.37,45.84 0.84,46.97 C1.27389576,53.8288198 3.40803824,60.4718108 7.05,66.3 C9.24976207,69.8073947 12.3603663,72.6518695 16.05,74.53 C19.7776391,76.4085776 23.8768701,77.4333853 28.05,77.53 C29.7289578,77.5474164 31.4050195,77.3865145 33.05,77.05 C35.4279657,76.5188756 37.7271009,75.6819097 39.89,74.56 C43.5796337,72.6818695 46.6902379,69.8373947 48.89,66.33 C54.46,57.7 56.14,46.83 54.82,36.55 C54.76,36.65 54.65,36.87 54.54,37.1 Z" id="Shape" fill="#F0A0B0" fill-rule="nonzero"></path>
            <path d="M14.69,32.87 C15.54,31.43 16.38,29.98 17.22,28.54 C16.4066667,26.7 15.5833333,24.87 14.75,23.05 C13.9,24.34 13.07,25.64 12.23,26.94 C13.0433333,28.92 13.8633333,30.8966667 14.69,32.87 Z" id="Shape" fill="#F0A0B0" fill-rule="nonzero"></path>
            <path d="M14.11,39.76 C14.63,38.81 15.11,37.85 15.66,36.89 C15.32,36.11 14.99,35.33 14.66,34.54 L13.1,37.19 C13.42,38.05 13.76,38.91 14.11,39.76 Z" id="Shape" fill="#F6D9CE" fill-rule="nonzero"></path>
            <path d="M12.66,37.92 L10.82,41.09 C8.68,44.79 6.53,48.5 4.63,52.34 C3.96333333,53.72 3.29666667,55.1066667 2.63,56.5 C3.07212576,57.9917215 3.60648809,59.4545383 4.23,60.88 C6.10973031,55.7528426 8.29703611,50.7437454 10.78,45.88 C11.78,44.07 12.71,42.28 13.69,40.5 C13.34,39.65 13,38.79 12.66,37.92 Z" id="Shape" fill="#F6D9CE" fill-rule="nonzero"></path>
            <path d="M27.92,70.13 L27.65,70.6 C26.53,72.76 25.15,74.8 24.23,77.07 C25.4930883,77.2783148 26.7699759,77.3919645 28.05,77.41 C29.2070347,77.4168232 30.3631474,77.3433132 31.51,77.19 C30.33,74.83 29.1333333,72.4766667 27.92,70.13 Z" id="Shape" fill="#F6D9CE" fill-rule="nonzero"></path>
            <path d="M26.12,72 C26.25,71.77 26.95,70.46 27.53,69.37 C22.78,60.11 18,50.9 14,41.28 C13.1066667,42.9 12.23,44.5333333 11.37,46.18 C8.80825256,51.2216774 6.54762098,56.4107785 4.6,61.72 C5.31508614,63.2718017 6.137063,64.7720765 7.06,66.21 C9.25976207,69.7173947 12.3703663,72.5618695 16.06,74.44 C18.4323373,75.6295053 20.9554737,76.4907359 23.56,77 C24.2858912,75.2710991 25.1416715,73.599653 26.12,72 Z" id="Shape" fill="#F6D9CE" fill-rule="nonzero"></path>
            <path d="M37.85,41.71 L39,45.11 C39.63,43.76 40.25,42.41 40.89,41.05 C40.52,39.88 40.16,38.71 39.78,37.55 C39.16,38.71 38.55,39.89 37.94,41.06 C37.85,41.22 37.77,41.38 37.69,41.54 C37.7681412,41.566757 37.8280236,41.6303821 37.85,41.71 Z" id="Shape" fill="#F6D9CE" fill-rule="nonzero"></path>
            <path d="M49.56,60.54 C51.19,57.43 52.9,54.36 54.56,51.28 C54.82,49.76 55.01,48.22 55.13,46.68 C54.1433333,48.3533333 53.1966667,50.05 52.29,51.77 C51.1,54.1 50.06,56.91 48.41,59 C48.27,59.25 47.9,59.4 47.76,59.12 C45.4268397,54.2271916 43.4451585,49.1744057 41.83,44 L41.23,42.14 L39.37,46.14 C41.68,52.72 44.19,59.22 46.77,65.69 C47.72,64 48.66,62.26 49.56,60.54 Z" id="Shape" fill="#F6D9CE" fill-rule="nonzero"></path>
            <path d="M50.24,61 C49.24,62.9 48.24,64.77 47.17,66.64 C47.34,67.08 47.52,67.52 47.69,67.95 C48.13,67.39 48.54,66.81 48.93,66.21 C51.3286793,62.4443994 53.0606771,58.2936939 54.05,53.94 C52.76,56.28 51.47,58.62 50.24,61 Z" id="Shape" fill="#F6D9CE" fill-rule="nonzero"></path>
            <path d="M28,68.23 C28.14,67.82 28.28,67.41 28.43,67.01 C28.58,66.61 28.6,66.47 28.68,66.21 C28.6963748,66.1265284 28.7425876,66.0518769 28.81,66 C30.74,61.13 33.57,56.66 35.81,52 C36.75,50.07 37.65,48.13 38.56,46.19 C38.12,44.95 37.69,43.69 37.27,42.44 C35.6,45.61 33.86,48.76 32.44,52.05 C31.02,55.34 29.68,59.05 27.65,62.18 C27.42,62.54 26.65,62.18 26.91,61.84 C23.19,53.84 19.49,45.84 15.98,37.72 C15.46,38.72 14.93,39.65 14.41,40.6 C18.35,50.2 23.11,59.38 27.84,68.6 C27.88,68.41 27.92,68.32 28,68.23 Z" id="Shape" fill="#F6D9CE" fill-rule="nonzero"></path>
            <path d="M38.89,47.14 C38.06,48.91 37.23,50.68 36.37,52.43 C33.74,57.8 30.37,62.94 28.54,68.68 C28.5220163,68.7209768 28.5019912,68.7610269 28.48,68.8 C28.41,68.97 28.35,69.15 28.28,69.33 C29.6,71.91 30.92,74.49 32.22,77.08 C32.5133333,77.04 32.8033333,76.99 33.09,76.93 C35.4679657,76.3988756 37.7671009,75.5619097 39.93,74.44 C40.9790887,73.9105513 41.9825193,73.2951139 42.93,72.6 C44,70.6 45.12,68.6 46.24,66.6 C43.7,60.13 41.2,53.68 38.89,47.14 Z" id="Shape" fill="#F6D9CE" fill-rule="nonzero"></path>
            <path d="M44.57,71.3 C45.4845863,70.4919402 46.3369983,69.6161287 47.12,68.68 C46.97,68.3 46.82,67.92 46.66,67.54 C46,68.79 45.26,70 44.57,71.3 Z" id="Shape" fill="#F6D9CE" fill-rule="nonzero"></path>
            <path d="M15.58,66 C14.0486615,58.1954381 13.3348063,50.2525414 13.45,42.3 C12.75,43.59 12.06,44.88 11.38,46.18 C8.92684112,50.9907139 6.75323071,55.938933 4.87,61 C8.10008745,63.3146234 11.7315213,65.0099707 15.58,66 Z" id="Shape" fill="#F8D6A9" fill-rule="nonzero"></path>
            <path d="M15.05,66.67 C11.3741154,65.7071618 7.88805893,64.1281236 4.74,62 C5.41789221,63.4621954 6.19642868,64.87559 7.07,66.23 C9.26976207,69.7373947 12.3803663,72.5818695 16.07,74.46 C16.62,74.73 17.17,74.98 17.73,75.21 C16.97,72.46 16.31,69.68 15.73,66.89 L15.05,66.67 Z" id="Shape" fill="#ED83A1" fill-rule="nonzero"></path>
            <path d="M16.45,67.07 C17.03,69.9 17.7,72.71 18.45,75.5 C20.1040134,76.1548222 21.8144784,76.6569156 23.56,77 C24.2858912,75.2710991 25.1416715,73.599653 26.12,72 C26.25,71.77 26.95,70.46 27.53,69.37 L27.42,69.17 C23.710782,68.7797565 20.0411009,68.0772651 16.45,67.07 Z" id="Shape" fill="#F8D6A9" fill-rule="nonzero"></path>
            <path d="M27,68.33 C22.48,59.54 18,50.75 14.14,41.6 C13.9605153,49.8428919 14.674683,58.0809676 16.27,66.17 C19.7802405,67.1876896 23.3694006,67.9102046 27,68.33 Z" id="Shape" fill="#ED83A1" fill-rule="nonzero"></path>
            <path d="M37.77,68.21 C37.77,67.42 37.77,66.64 37.85,65.87 C38.14,59.93 38.55,54.02 38.45,48.08 C37.77,49.53 37.08,50.99 36.37,52.43 C33.78,57.73 30.49,62.81 28.61,68.43 C31.6630817,68.6603068 34.7314949,68.5866113 37.77,68.21 Z" id="Shape" fill="#F8D6A9" fill-rule="nonzero"></path>
            <path d="M28.32,69.23 L28.32,69.33 C29.64,71.91 30.96,74.49 32.26,77.08 C32.5533333,77.04 32.8433333,76.99 33.13,76.93 C34.6709768,76.5979455 36.177533,76.1225433 37.63,75.51 C37.76,73.34 37.76,71.15 37.8,68.98 C34.6582347,69.404621 31.4797785,69.488441 28.32,69.23 Z" id="Shape" fill="#ED83A1" fill-rule="nonzero"></path>
            <path d="M38.44,68.11 C41.0547624,67.7116879 43.6127787,67.0033658 46.06,66 C43.64,59.94 41.29,53.85 39.06,47.69 C39.16,53.9 38.67,60.06 38.45,66.28 C38.46,66.91 38.45,67.51 38.44,68.11 Z" id="Shape" fill="#ED83A1" fill-rule="nonzero"></path>
            <path d="M38.42,68.88 C38.42,70.98 38.42,73.11 38.27,75.22 C38.82,74.97 39.38,74.71 39.93,74.44 C40.9790887,73.9105513 41.9825193,73.2951139 42.93,72.6 C43.93,70.6 45.05,68.69 46.13,66.75 C43.6523701,67.7597433 41.0646029,68.4746518 38.42,68.88 Z" id="Shape" fill="#F8D6A9" fill-rule="nonzero"></path>
            <path d="M4,48.53 C3.94089767,49.0639429 3.47049286,49.4557904 2.93466039,49.4174286 C2.39882792,49.3790669 1.98904151,48.9242039 2.00660506,48.3872872 C2.0241686,47.8503705 2.46280597,47.4232611 3,47.42 C3.57676693,47.4625708 4.01763381,47.951933 4,48.53 Z" id="Shape" fill="#93D0F2" fill-rule="nonzero"></path>
            <path d="M7.42,42.89 C7.46181081,43.3503948 7.23980833,43.7948737 6.84661332,44.0379975 C6.45341831,44.2811213 5.95658169,44.2811213 5.56338668,44.0379975 C5.17019167,43.7948737 4.94818919,43.3503948 4.99,42.89 C4.94818919,42.4296052 5.17019167,41.9851263 5.56338668,41.7420025 C5.95658169,41.4988787 6.45341831,41.4988787 6.84661332,41.7420025 C7.23980833,41.9851263 7.46181081,42.4296052 7.42,42.89 Z" id="Shape" fill="#93D0F2" fill-rule="nonzero"></path>
            <path d="M10.09,37.16 C10.0574051,37.6423724 9.64568062,38.0105004 9.16268083,37.9891276 C8.67968104,37.9677548 8.30208153,37.5646992 8.31222066,37.0813331 C8.3223598,36.597967 8.71652882,36.2111 9.2,36.21 C9.44404315,36.217828 9.6749648,36.3223477 9.84189939,36.5005364 C10.008834,36.678725 10.0980875,36.9159653 10.09,37.16 Z" id="Shape" fill="#93D0F2" fill-rule="nonzero"></path>
            <path d="M12.27,33.23 C12.2108977,33.7639429 11.7404929,34.1557904 11.2046604,34.1174286 C10.6688279,34.0790669 10.2590415,33.6242039 10.2766051,33.0872872 C10.2941686,32.5503705 10.732806,32.1232611 11.27,32.12 C11.8492273,32.1575204 12.2929127,32.6500111 12.27,33.23 Z" id="Shape" fill="#93D0F2" fill-rule="nonzero"></path>
            <path d="M15.67,28 C15.7118108,28.4603948 15.4898083,28.9048737 15.0966133,29.1479975 C14.7034183,29.3911213 14.2065817,29.3911213 13.8133867,29.1479975 C13.4201917,28.9048737 13.1981892,28.4603948 13.24,28 C13.1981892,27.5396052 13.4201917,27.0951263 13.8133867,26.8520025 C14.2065817,26.6088787 14.7034183,26.6088787 15.0966133,26.8520025 C15.4898083,27.0951263 15.7118108,27.5396052 15.67,28 Z" id="Shape" fill="#93D0F2" fill-rule="nonzero"></path>
            <path d="M17.63,33.23 C17.6027563,33.7196188 17.1885583,34.0973135 16.6985095,34.0793981 C16.2084606,34.0614827 15.8229472,33.6545519 15.8315278,33.1642508 C15.8401084,32.6739497 16.2396244,32.2807574 16.73,32.28 C17.2397348,32.2963279 17.6412291,32.7201274 17.63,33.23 Z" id="Shape" fill="#93D0F2" fill-rule="nonzero"></path>
            <path d="M25.32,51.33 C25.2661292,51.8659397 24.7974432,52.2629172 24.2599444,52.2278682 C23.7224456,52.1928192 23.3092812,51.7383383 23.3254653,51.1999412 C23.3416494,50.661544 23.7813664,50.2327006 24.32,50.23 C24.8952135,50.2674484 25.3373793,50.7538308 25.32,51.33 Z" id="Shape" fill="#93D0F2" fill-rule="nonzero"></path>
            <path d="M28,56.82 C27.9408977,57.3539429 27.4704929,57.7457904 26.9346604,57.7074286 C26.3988279,57.6690669 25.9890415,57.2142039 26.0066051,56.6772872 C26.0241686,56.1403705 26.462806,55.7132611 27,55.71 C27.5792273,55.7475204 28.0229127,56.2400111 28,56.82 Z" id="Shape" fill="#93D0F2" fill-rule="nonzero"></path>
            <path d="M22.41,44.17 C22.3718808,44.8277988 21.8144452,45.3341765 21.1560193,45.3091233 C20.4975934,45.2840702 19.9802494,44.7367971 19.9922265,44.0780036 C20.0042036,43.4192101 20.5410986,42.8911036 21.2,42.89 C21.8864986,42.9117728 22.4268294,43.4833624 22.41,44.17 Z" id="Shape" fill="#93D0F2" fill-rule="nonzero"></path>
            <path d="M20,39 C19.9462864,39.4803453 19.5227539,39.8324945 19.0406732,39.7976396 C18.5585924,39.7627846 18.1901217,39.3533727 18.2060645,38.8702965 C18.2220072,38.3872204 18.6166701,38.0029939 19.1,38 C19.3540237,38.0074686 19.5939258,38.1185652 19.7639321,38.3074611 C19.9339384,38.496357 20.0192381,38.7465958 20,39 Z" id="Shape" fill="#93D0F2" fill-rule="nonzero"></path>
            <path d="M31.05,51.33 C30.9961292,51.8659397 30.5274432,52.2629172 29.9899444,52.2278682 C29.4524456,52.1928192 29.0392812,51.7383383 29.0554653,51.1999412 C29.0716494,50.661544 29.5113664,50.2327006 30.05,50.23 C30.6252135,50.2674484 31.0673793,50.7538308 31.05,51.33 Z" id="Shape" fill="#93D0F2" fill-rule="nonzero"></path>
            <path d="M33.87,45.11 C33.8108977,45.6439429 33.3404929,46.0357904 32.8046604,45.9974286 C32.2688279,45.9590669 31.8590415,45.5042039 31.8766051,44.9672872 C31.8941686,44.4303705 32.332806,44.0032611 32.87,44 C33.4467669,44.0425708 33.8876338,44.531933 33.87,45.11 Z" id="Shape" fill="#93D0F2" fill-rule="nonzero"></path>
            <path d="M37.12,38.59 C37.0608977,39.1239429 36.5904929,39.5157904 36.0546604,39.4774286 C35.5188279,39.4390669 35.1090415,38.9842039 35.1266051,38.4472872 C35.1441686,37.9103705 35.582806,37.4832611 36.12,37.48 C36.6992273,37.5175204 37.1429127,38.0100111 37.12,38.59 Z" id="Shape" fill="#93D0F2" fill-rule="nonzero"></path>
            <path d="M40.91,32.87 C40.8508977,33.4039429 40.3804929,33.7957904 39.8446604,33.7574286 C39.3088279,33.7190669 38.8990415,33.2642039 38.9166051,32.7272872 C38.9341686,32.1903705 39.372806,31.7632611 39.91,31.76 C40.4867669,31.8025708 40.9276338,32.291933 40.91,32.87 Z" id="Shape" fill="#93D0F2" fill-rule="nonzero"></path>
            <path d="M44.3,40.21 C44.3,40.7871376 43.8321376,41.255 43.255,41.255 C42.6778624,41.255 42.21,40.7871376 42.21,40.21 C42.21,39.6328624 42.6778624,39.165 43.255,39.165 C43.8321376,39.165 44.3,39.6328624 44.3,40.21 Z" id="Shape" fill="#93D0F2" fill-rule="nonzero"></path>
            <path d="M46.51,47.42 C46.4508977,47.9539429 45.9804929,48.3457904 45.4446604,48.3074286 C44.9088279,48.2690669 44.4990415,47.8142039 44.5166051,47.2772872 C44.5341686,46.7403705 44.972806,46.3132611 45.51,46.31 C46.0892273,46.3475204 46.5329127,46.8400111 46.51,47.42 Z" id="Shape" fill="#93D0F2" fill-rule="nonzero"></path>
            <path d="M48.93,53.87 C48.8761292,54.4059397 48.4074432,54.8029172 47.8699444,54.7678682 C47.3324456,54.7328192 46.9192812,54.2783383 46.9354653,53.7399412 C46.9516494,53.201544 47.3913664,52.7727006 47.93,52.77 C48.5052135,52.8074484 48.9473793,53.2938308 48.93,53.87 Z" id="Shape" fill="#93D0F2" fill-rule="nonzero"></path>
            <path d="M52.7,48.08 C52.6408977,48.6139429 52.1704929,49.0057904 51.6346604,48.9674286 C51.0988279,48.9290669 50.6890415,48.4742039 50.7066051,47.9372872 C50.7241686,47.4003705 51.162806,46.9732611 51.7,46.97 C52.2792273,47.0075204 52.7229127,47.5000111 52.7,48.08 Z" id="Shape" fill="#93D0F2" fill-rule="nonzero"></path>
            <path d="M54.1,43.48 C54.1,43.7561424 53.8761424,43.98 53.6,43.98 C53.3238576,43.98 53.1,43.7561424 53.1,43.48 C53.1,43.2038576 53.3238576,42.98 53.6,42.98 C53.8761424,42.98 54.1,43.2038576 54.1,43.48 Z" id="Shape" fill="#93D0F2" fill-rule="nonzero"></path>
            <path d="M53.73,30.38 C52.6241564,25.77795 50.9443272,21.3331219 48.73,17.15 C45.3,10.77 41,4.37 34.21,1.75 C27.42,-0.87 20.08,1.11 14.86,6.32 C11.8184015,9.55413717 9.24656818,13.1998119 7.22,17.15 C5.02295243,21.3355203 3.35995417,25.7802611 2.27,30.38 C-0.73,42.29 0.39,55.87 7.07,66.21 C9.26976207,69.7173947 12.3803663,72.5618695 16.07,74.44 C19.7976391,76.3185776 23.8968701,77.3433853 28.07,77.44 C29.7489578,77.4574164 31.4250195,77.2965145 33.07,76.96 C35.4479657,76.4288756 37.7471009,75.5919097 39.91,74.47 C43.5996337,72.5918695 46.7102379,69.7473947 48.91,66.24 C55.61,55.87 56.7,42.29 53.73,30.38 Z M42.34,57.44 C40.5464654,60.2953497 38.0089489,62.6081542 35,64.13 C33.2396599,65.0313209 31.3711233,65.7034564 29.44,66.13 C28.0943704,66.4047789 26.7233105,66.5355156 25.35,66.52 C21.9676017,66.451757 18.6432248,65.6283502 15.62,64.11 C12.6220628,62.5837007 10.0953361,60.2712791 8.31,57.42 C2.91,49 2,38 4.44,28.34 C5.32040562,24.6072513 6.66416561,20.9992557 8.44,17.6 C10.0827355,14.3873345 12.1736335,11.4243872 14.65,8.8 C18.89,4.56 24.82,2.95 30.36,5.08 C35.9,7.21 39.36,12.41 42.2,17.6 C43.9758344,20.9992557 45.3195944,24.6072513 46.2,28.34 C48.65,38 47.77,49 42.34,57.44 Z" id="Shape" fill="#BA859F" fill-rule="nonzero" opacity="0.3" style="mix-blend-mode: multiply;"></path>
            <path d="M28.05,77.41 C29.7289578,77.4274164 31.4050195,77.2665145 33.05,76.93 C35.4279657,76.3988756 37.7271009,75.5619097 39.89,74.44 C43.5796337,72.5618695 46.6902379,69.7173947 48.89,66.21 C55.57,55.87 56.66,42.29 53.69,30.38 C52.5841564,25.77795 50.9043272,21.3331219 48.69,17.15 C45.3,10.77 41,4.37 34.21,1.75 C27.42,-0.87 20.08,1.11 14.86,6.32 C11.8184015,9.55413717 9.24656818,13.1998119 7.22,17.15 C5.02295243,21.3355203 3.35995417,25.7802611 2.27,30.38 C-0.73,42.29 0.39,55.87 7.07,66.21 C9.26976207,69.7173947 12.3803663,72.5618695 16.07,74.44 C19.7939883,76.305306 23.8859501,77.3197573 28.05,77.41 Z" id="Shape"></path>
        </g>
    </g>
</svg>