<?xml version="1.0" encoding="UTF-8"?>
<svg width="56px" height="78px" viewBox="0 0 56 78" version="1.1" xmlns="http://www.w3.org/2000/svg" xmlns:xlink="http://www.w3.org/1999/xlink">
    <!-- Generator: Sketch 48.2 (47327) - http://www.bohemiancoding.com/sketch -->
    <title>13</title>
    <desc>Created with Sketch.</desc>
    <defs>
        <radialGradient cx="6.30258661%" cy="20.3300014%" fx="6.30258661%" fy="20.3300014%" r="44.4348118%" gradientTransform="translate(0.063026,0.203300),scale(1.000000,0.710063),translate(-0.063026,-0.203300)" id="radialGradient-1">
            <stop stop-color="#7F76A6" offset="2%"></stop>
            <stop stop-color="#514A8A" offset="36%"></stop>
            <stop stop-color="#201B6C" offset="100%"></stop>
        </radialGradient>
    </defs>
    <g id="Page-1" stroke="none" stroke-width="1" fill="none" fill-rule="evenodd">
        <g id="13">
            <path d="M28.05,77.4 C29.7291627,77.4222984 31.4057472,77.2613462 33.05,76.92 C35.4251988,76.3903316 37.7212124,75.5532783 39.88,74.43 C43.5707868,72.5535346 46.6817935,69.7086917 48.88,66.2 C55.56,55.86 56.64,42.29 53.67,30.38 C52.5834387,25.7838505 50.9237776,21.342409 48.73,17.16 C45.3,10.77 41,4.38 34.21,1.76 C27.42,-0.86 20.08,1.12 14.86,6.33 C11.8192428,9.56258697 9.25051705,13.2086289 7.23,17.16 C5.02897143,21.3402291 3.36576054,25.7821781 2.28,30.38 C-0.72,42.29 0.4,55.86 7.07,66.2 C9.26546933,69.7109723 12.3771859,72.5564642 16.07,74.43 C19.7914078,76.3022857 23.8849714,77.3171341 28.05,77.4 Z" id="Shape" fill="url(#radialGradient-1)" fill-rule="nonzero"></path>
            <path d="M5.24,27.64 C7.42,26.22 9.68,24.99 11.9,23.64 C12.58,23.24 13.25,22.82 13.9,22.37 C14.05,22.26 14.74,21.91 14.63,21.63 C14.52,21.35 14.33,20.91 14.17,20.56 C13.6,19.23 12.99,17.92 12.38,16.56 C11.67,15.04 10.96,13.56 10.28,11.99 C9.18,13.65 8.16,15.38 7.23,17.1 C5.18543503,20.9603321 3.61408098,25.0532393 2.55,29.29 C3.47,28.81 4.36,28.22 5.24,27.64 Z" id="Shape" fill="#007AC0" fill-rule="nonzero"></path>
            <path d="M20.34,22.39 C17.92,17.61 15.54,12.8 13.44,7.86 C12.3604116,9.11427848 11.3585415,10.4334074 10.44,11.81 C11.9,15.17 13.57,18.44 14.96,21.81 C14.9934783,21.8580796 14.9934783,21.9219204 14.96,21.97 C12.31,23.97 9.3,25.36 6.52,27.16 C5.19,28.02 3.85,28.94 2.46,29.75 C2.4,29.95 2.35,30.15 2.3,30.35 C1.77843511,32.426798 1.3876677,34.5342701 1.13,36.66 C8.07,32.96 14.83,28.86 21.94,25.53 C21.4,24.5 20.87,23.44 20.34,22.39 Z" id="Shape" fill="#3550A3" fill-rule="nonzero"></path>
            <path d="M20.94,52.22 C22.64,51.2 24.33,50.1666667 26.01,49.12 C26.52,48.8 27.01,48.48 27.53,48.12 L27.98,47.81 C28.08,47.74 28.09,47.66 28.1,47.81 C28.0899593,47.7842785 28.0899593,47.7557215 28.1,47.73 C25.43,42.37 23.74,36.46 20.53,31.41 C13.88,34.92 7,38.18 0.72,42.45 C0.574778065,49.0681069 1.8999642,55.6359753 4.6,61.68 C5.6,61.15 6.55,60.61 7.51,60.06 C12.03,57.52 16.5066667,54.9066667 20.94,52.22 Z" id="Shape" fill="#007AC0" fill-rule="nonzero"></path>
            <path d="M29.69,41.39 C27.23,36.39 24.79,31.31 22.29,26.29 C15,29.71 8.11,33.91 1,37.69 C0.84,39.15 0.75,40.63 0.73,42.11 C6.99,37.88 13.81,34.63 20.45,31.11 C20.4395863,31.0702968 20.4544919,31.0282619 20.4875917,31.0039887 C20.5206916,30.9797155 20.5652629,30.9781339 20.6,31 C20.72,30.93 20.77,31.11 20.72,31.22 C23.98,36.36 25.72,42.36 28.43,47.8 C28.5,47.95 28.35,48.02 28.25,47.94 C27.7886151,48.3327147 27.281635,48.668463 26.74,48.94 C25.22,49.94 23.69,50.83 22.16,51.75 C17.78,54.4166667 13.3666667,57.01 8.92,59.53 C7.51,60.33 6.1,61.13 4.67,61.9 C5.36304475,63.381457 6.15482732,64.8146836 7.04,66.19 L7.12,66.3 C10.9813921,63.6488458 14.9876106,61.215068 19.12,59.01 C24.12,56.14 28.91,52.79 33.83,49.71 C32.45,46.94 31.05,44.18 29.69,41.39 Z" id="Shape" fill="#3550A3" fill-rule="nonzero"></path>
            <path d="M15.93,68.65 C18.04,67.26 20.18,65.95 22.25,64.51 C26.14,61.8 29.93,58.87 33.99,56.43 C34.0295804,56.4044949 34.0804196,56.4044949 34.12,56.43 C34.19,56.38 34.27,56.43 34.29,56.43 C34.6918326,57.8942569 35.2977771,59.294662 36.09,60.59 C36.88,62.1 37.69,63.59 38.38,65.14 C39.57,67.83 40.65,70.59 41.91,73.25 C42.6380966,72.8172961 43.3363322,72.3362151 44,71.81 C42.36,68.17 40.82,64.48 39.18,60.81 C37.54,57.14 35.93,53.87 34.18,50.44 C29.39,53.44 24.77,56.72 19.87,59.51 C15.6474771,61.7827939 11.5514504,64.2831395 7.6,67 C8.77618912,68.7082423 10.1714304,70.2547748 11.75,71.6 C12.16,71.31 12.55,71.01 12.95,70.71 C13.92,70 14.93,69.31 15.93,68.65 Z" id="Shape" fill="#453694" fill-rule="nonzero"></path>
            <path d="M37.91,64.86 C37.22,63.34 36.41,61.86 35.65,60.43 C34.958428,59.2606735 34.4206533,58.006986 34.05,56.7 C29.79,59.27 25.86,62.4 21.73,65.18 C19.64,66.59 17.5,67.9 15.41,69.31 C14.41,69.96 13.48,70.63 12.55,71.31 L11.96,71.74 C13.2270351,72.7841823 14.6093533,73.680005 16.08,74.41 C19.8050315,76.295583 23.9058743,77.3207937 28.08,77.41 C29.7591627,77.4322984 31.4357472,77.2713462 33.08,76.93 C35.4551988,76.4003316 37.7512124,75.5632783 39.91,74.44 C40.5077411,74.1385338 41.088603,73.8047051 41.65,73.44 C40.33,70.64 39.2,67.7 37.91,64.86 Z" id="Shape" fill="#007AC0" fill-rule="nonzero"></path>
            <path d="M30.23,15.47 C27.9186663,16.6232923 25.6719925,17.90186 23.5,19.3 C25.09779,23.5222248 27.0132753,27.6172851 29.23,31.55 C31.2148672,30.6317937 33.1417892,29.5931927 35,28.44 C37.1466667,27.28 39.2966667,26.11 41.45,24.93 C44.39,23.3233333 47.3233333,21.69 50.25,20.03 C49.81,19.03 49.34,18.09 48.83,17.16 C47.2577812,14.1646402 45.4097881,11.3223465 43.31,8.67 C41.31,9.67 39.31,10.67 37.31,11.75 C34.93,13 32.59,14.24 30.23,15.47 Z" id="Shape" fill="#007AC0" fill-rule="nonzero"></path>
            <path d="M41.28,25.35 C39.15,26.52 36.99,27.64 34.87,28.83 C33.1013841,29.9560991 31.2569808,30.9584922 29.35,31.83 C29.35,31.93 29.24,31.99 29.17,31.91 L29.1,31.91 C28.96,31.91 28.81,31.7 28.96,31.64 C26.7505391,27.7050113 24.8385375,23.6102526 23.24,19.39 C23.1959231,19.3878498 23.1573977,19.3595667 23.1421419,19.3181582 C23.1268862,19.2767498 23.1378535,19.2302325 23.17,19.2 C23.11,19.05 23.27,18.96 23.36,19.07 C25.7112985,17.5884894 28.1378949,16.229996 30.63,15 C33.25,13.64 35.85,12.24 38.47,10.87 C40,10.07 41.55,9.28 43.1,8.5 C42.2990447,7.5327885 41.4337464,6.62071739 40.51,5.77 L33,10.12 C30.58,11.53 28.09,12.85 25.73,14.38 C23.7087809,15.8174564 21.6015111,17.1299081 19.42,18.31 C20.01,19.5 20.61,20.69 21.21,21.88 C23.69,26.78 26.1,31.71 28.5,36.64 C31.3987329,35.3441496 34.1878372,33.8158275 36.84,32.07 C39.6,30.41 42.47,28.94 45.31,27.44 C47.48,26.29 49.65,25.16 51.82,24 C51.3733333,22.7533333 50.8833333,21.5233333 50.35,20.31 C47.33,22.01 44.3066667,23.69 41.28,25.35 Z" id="Shape" fill="#3550A3" fill-rule="nonzero"></path>
            <path d="M20,8.54 C20.2544711,9.24718874 20.5654762,9.9327376 20.93,10.59 C21.19,11.04 21.27,11.45 21.77,11.15 L22.77,10.59 C24.22,9.79 25.77,9.09 27.23,8.39 C30.63,6.83 33.91,4.98 37.23,3.19 C36.3032318,2.62998006 35.3295728,2.15151533 34.32,1.76 C29.0387742,-0.257202673 23.1070671,0.41388927 18.41,3.56 C18.93,5.17 19.35,6.91 20,8.54 Z" id="Shape" fill="#007AC0" fill-rule="nonzero"></path>
            <path d="M33.49,5.46 C31.49,6.58 29.41,7.65 27.31,8.61 C25.2874029,9.48225154 23.3233076,10.484341 21.43,11.61 C21.3730599,11.6609288 21.2869401,11.6609288 21.23,11.61 C19.55,9.31 19.1,6.35 18.06,3.72 C16.9063365,4.48132344 15.8340288,5.35927537 14.86,6.34 L14.17,7.06 C15.68,10.62 17.32,14.11 19.03,17.57 C21.38,16.4 23.47,14.79 25.71,13.4 C27.95,12.01 30.57,10.57 33,9.16 L39.85,5.16 C39.0686043,4.49696338 38.2397229,3.89201367 37.37,3.35 C36.07,4 34.78,4.76 33.49,5.46 Z" id="Shape" fill="#6A53A2" fill-rule="nonzero"></path>
            <path d="M39.41,36.31 C38.32,36.9 37.24,37.5 36.13,38.06 C35.61,38.33 35.04,38.54 34.53,38.84 C34.35,38.95 34.17,39.09 33.99,39.18 C36.15,43.05 37.88,47.18 39.77,51.18 C39.842512,51.1986826 39.8923681,51.2651574 39.89,51.34 L39.89,51.44 C41.52,50.69 43.05,49.74 44.62,48.87 C46.19,48 47.95,47.13 49.62,46.33 C51.5,45.44 53.38,44.58 55.27,43.73 C55.3260463,39.2215502 54.8017414,34.7246271 53.71,30.35 C53.6,29.91 53.49,29.47 53.37,29.03 C50.92,30.32 48.46,31.57 46,32.83 C43.8,34 41.59,35.12 39.41,36.31 Z" id="Shape" fill="#007AC0" fill-rule="nonzero"></path>
            <path d="M49.5,46.76 C47.82,47.57 46.14,48.39 44.5,49.31 C42.9542128,50.2492847 41.358527,51.1038779 39.72,51.87 C39.6,51.93 39.5,51.76 39.56,51.65 L39.56,51.51 C37.56,47.31 35.79,43.01 33.56,38.99 C33.48,38.85 33.7,38.65 33.79,38.8 L33.79,38.86 C33.8203733,38.8255599 33.8640799,38.8058301 33.91,38.8058301 C33.9559201,38.8058301 33.9996267,38.8255599 34.03,38.86 L34.19,38.75 L34.44,38.62 C34.95,38.38 35.44,38.14 35.95,37.88 C37.05,37.32 38.13,36.72 39.22,36.13 C41.41,34.95 43.62,33.82 45.82,32.68 C48.31,31.41 50.82,30.15 53.27,28.84 C52.91,27.52 52.5,26.2 52.06,24.9 C50.06,26 48,27 46,28.11 C43,29.69 39.94,31.24 37,33 C34.4219618,34.7039332 31.7135663,36.2019099 28.9,37.48 L30.56,40.88 C33.19,46.27 36,51.6 38.49,57 C38.5527768,56.9124666 38.634908,56.8406018 38.73,56.79 C41.39,55.59 43.79,53.68 46.31,52.17 C48.52,50.85 50.68,49.45 52.91,48.17 C53.64,47.74 54.38,47.31 55.13,46.9 C55.21,45.97 55.25,45.03 55.27,44.09 C53.34,45 51.41,45.84 49.5,46.76 Z" id="Shape" fill="#6A53A2" fill-rule="nonzero"></path>
            <path d="M51.6,49.93 C49.6,51.15 47.6,52.41 45.6,53.58 C43.32,54.91 41.25,56.58 38.84,57.71 C39.24,58.58 39.64,59.45 40.03,60.32 C41.63,63.91 43.15,67.55 44.77,71.13 C46.3714663,69.6713787 47.7765679,68.0108041 48.95,66.19 C52.4141433,60.6588229 54.5119565,54.3825223 55.07,47.88 C53.87,48.55 52.72,49.25 51.6,49.93 Z" id="Shape" fill="#3550A3" fill-rule="nonzero"></path>
            <path d="M29.35,34.32 C29.3172799,34.94627 28.7888316,35.4308551 28.1620773,35.4093207 C27.535323,35.3877864 27.041381,34.8680734 27.0517227,34.2410346 C27.0620645,33.6139957 27.5728764,33.1108542 28.2,33.11 C28.512989,33.1178561 28.8100255,33.2497768 29.0257137,33.4767183 C29.241402,33.7036598 29.3580584,34.0070161 29.35,34.32 Z" id="Shape" fill="#00A5E3" fill-rule="nonzero"></path>
            <path d="M36.28,26.14 C36.1929108,27.5961031 34.957251,28.7151456 33.4996682,28.6579336 C32.0420854,28.6007217 30.8979397,27.3882688 30.9252504,25.9298193 C30.9525611,24.4713698 32.1412971,23.3026021 33.6,23.3 C34.3321007,23.3209125 35.0258705,23.6319521 35.5285327,24.1646241 C36.031195,24.697296 36.3015276,25.4079172 36.28,26.14 Z" id="Shape" fill="#00A5E3" fill-rule="nonzero"></path>
            <path d="M52,39.58 C51.8311834,42.4121809 49.4272077,44.5886074 46.5922401,44.4758865 C43.7572724,44.3631656 41.533686,42.0027431 41.5902669,39.1660996 C41.6468479,36.3294562 43.9627923,34.0595811 46.8,34.06 C49.7583834,34.1525047 52.0841227,36.6213663 52,39.58 Z" id="Shape" fill="#00A5E3" fill-rule="nonzero"></path>
            <path d="M8.59,47.28 C8.5572799,47.90627 8.02883164,48.3908551 7.40207734,48.3693207 C6.77532304,48.3477864 6.28138098,47.8280734 6.29172272,47.2010346 C6.30206446,46.5739957 6.81287645,46.0708542 7.44,46.07 C8.08938475,46.0917423 8.60128402,46.6303494 8.59,47.28 Z" id="Shape" fill="#00A5E3" fill-rule="nonzero"></path>
            <path d="M15.52,39.09 C15.4382774,40.5477902 14.2046594,41.6719163 12.7455694,41.6181811 C11.2864795,41.564446 10.1388895,40.3526251 10.1646173,38.8927727 C10.1903452,37.4329204 11.3799227,36.2622889 12.84,36.26 C14.3605764,36.3035875 15.5592058,37.5693043 15.52,39.09 Z" id="Shape" fill="#00A5E3" fill-rule="nonzero"></path>
            <path d="M25.4,48 C25.2311834,50.8321809 22.8272077,53.0086074 19.9922401,52.8958865 C17.1572724,52.7831656 14.933686,50.4227431 14.9902669,47.5860996 C15.0468479,44.7494562 17.3627923,42.4795811 20.2,42.48 C21.6217734,42.521807 22.9686274,43.1270239 23.9439498,44.1623661 C24.9192722,45.1977084 25.4430739,46.5782644 25.4,48 Z" id="Shape" fill="#00A5E3" fill-rule="nonzero"></path>
            <path d="M32.59,53.88 C32.5572799,54.50627 32.0288316,54.9908551 31.4020773,54.9693207 C30.775323,54.9477864 30.281381,54.4280734 30.2917227,53.8010346 C30.3020645,53.1739957 30.8128764,52.6708542 31.44,52.67 C32.0893848,52.6917423 32.601284,53.2303494 32.59,53.88 Z" id="Shape" fill="#00A5E3" fill-rule="nonzero"></path>
            <path d="M41.29,48.89 C41.2082032,50.3490845 39.972554,51.4736536 38.5122367,51.4180533 C37.0519193,51.362453 35.9053575,50.1471833 35.9347433,48.6861034 C35.9641291,47.2250234 37.158628,46.0568381 38.62,46.06 C40.1366292,46.1089727 41.3292758,47.3730887 41.29,48.89 Z" id="Shape" fill="#00A5E3" fill-rule="nonzero"></path>
            <path d="M42.33,64.58 C42.1666208,67.4125772 39.7667102,69.5936448 36.9314581,69.48626 C34.0962059,69.3788751 31.8681496,67.0225238 31.9194981,64.1857035 C31.9708466,61.3488832 34.2827189,59.0747078 37.12,59.07 C40.0783209,59.1571422 42.4084423,61.6214357 42.33,64.58 Z" id="Shape" fill="#00A5E3" fill-rule="nonzero"></path>
            <path d="M13.91,68.17 C13.8828205,68.5876662 13.5269885,68.9071316 13.1088189,68.8892991 C12.6906494,68.8714666 12.3633064,68.5228676 12.3717831,68.1044038 C12.3802598,67.6859401 12.7214513,67.3508834 13.14,67.35 C13.351333,67.3551969 13.5517671,67.4448761 13.6964751,67.5989807 C13.8411831,67.7530853 13.9180916,67.958758 13.91,68.17 Z" id="Shape" fill="#00A5E3" fill-rule="nonzero"></path>
            <path d="M18.55,62.68 C18.4900633,63.6588398 17.6575966,64.409576 16.6777883,64.3684005 C15.6979801,64.3272249 14.9314353,63.5092916 14.9538346,62.5288744 C14.9762339,61.5484572 15.7793336,60.7663851 16.76,60.77 C17.250738,60.7856575 17.7151239,60.9957508 18.0508682,61.3540031 C18.3866125,61.7122554 18.5661736,62.1892788 18.55,62.68 Z" id="Shape" fill="#00A5E3" fill-rule="nonzero"></path>
            <path d="M25.18,68.62 C25.0709955,70.5244364 23.4570558,71.9908693 21.5509177,71.9174005 C19.6447797,71.8439317 18.1485027,70.2576208 18.1864103,68.3504442 C18.2243178,66.4432675 19.7824481,64.9176668 21.69,64.92 C23.6721825,64.9852819 25.2305188,66.6373863 25.18,68.62 Z" id="Shape" fill="#00A5E3" fill-rule="nonzero"></path>
            <ellipse id="Oval" fill="#00A5E3" fill-rule="nonzero" cx="7.89" cy="22.73" rx="1" ry="1"></ellipse>
            <path d="M13.3,17.24 C13.2454339,18.2205305 12.4150044,18.9763585 11.4336806,18.9386587 C10.4523568,18.9009589 9.68236306,18.0836471 9.70318538,17.1018202 C9.72400771,16.1199933 10.5279602,15.3360613 11.51,15.34 C12.5279436,15.372645 13.3280495,16.2219194 13.3,17.24 Z" id="Shape" fill="#00A5E3" fill-rule="nonzero"></path>
            <path d="M19.93,23.18 C19.8263708,25.0861096 18.214487,26.5576279 16.3068457,26.4876437 C14.3992045,26.4176596 12.8994773,24.8319882 12.9357946,22.9234092 C12.9721119,21.0148301 14.5310773,19.4873608 16.44,19.49 C18.4181903,19.5552826 19.9749388,21.2012431 19.93,23.18 Z" id="Shape" fill="#00A5E3" fill-rule="nonzero"></path>
            <path d="M26.19,12.48 C26.1681854,12.8993573 25.814391,13.2239069 25.3947123,13.2095491 C24.9750335,13.1951912 24.644247,12.8472211 24.6511435,12.4273534 C24.6580401,12.0074858 25.0000761,11.670567 25.42,11.67 C25.6295433,11.6752377 25.8284153,11.7635361 25.9728325,11.9154555 C26.1172497,12.0673749 26.195372,12.2704601 26.19,12.48 Z" id="Shape" fill="#00A5E3" fill-rule="nonzero"></path>
            <path d="M30.84,7 C30.7855126,7.9792377 29.9571166,8.73462696 28.9770189,8.6987962 C27.9969212,8.66296543 27.2258945,7.84910389 27.2430556,6.8685016 C27.2602167,5.88789932 28.0592487,5.10151474 29.04,5.1 C29.5307103,5.11308309 29.9961029,5.3206562 30.3337061,5.67701523 C30.6713094,6.03337425 30.8534415,6.50929942 30.84,7 Z" id="Shape" fill="#00A5E3" fill-rule="nonzero"></path>
            <path d="M44.44,13.3 C44.325175,15.2023418 42.7054996,16.6608095 40.8015704,16.5762934 C38.8976412,16.4917774 37.4135655,14.8955332 37.4677512,12.9904995 C37.5219368,11.0854659 39.094345,9.57615847 41,9.6 C42.967298,9.68129254 44.5020096,11.3319998 44.44,13.3 Z" id="Shape" fill="#00A5E3" fill-rule="nonzero"></path>
            <path d="M53.72,30.38 C52.6334387,25.7838505 50.9737776,21.342409 48.78,17.16 C45.3,10.77 41,4.38 34.21,1.76 C27.42,-0.86 20.08,1.12 14.86,6.33 C11.8192428,9.56258697 9.25051705,13.2086289 7.23,17.16 C5.02897143,21.3402291 3.36576054,25.7821781 2.28,30.38 C-0.72,42.29 0.4,55.86 7.07,66.2 C9.26546933,69.7109723 12.3771859,72.5564642 16.07,74.43 C19.7950315,76.315583 23.8958743,77.3407937 28.07,77.43 C29.7491627,77.4522984 31.4257472,77.2913462 33.07,76.95 C35.4451988,76.4203316 37.7412124,75.5832783 39.9,74.46 C43.5907868,72.5835346 46.7017935,69.7386917 48.9,66.23 C55.61,55.86 56.69,42.29 53.72,30.38 Z M42.34,57.44 C40.5458466,60.2923207 38.0082547,62.6017368 35,64.12 C33.2415362,65.0256397 31.372428,65.6979808 29.44,66.12 C28.0950325,66.3991877 26.7234936,66.5299701 25.35,66.51 C21.9707684,66.441956 18.6496025,65.6184983 15.63,64.1 C12.6296631,62.5779283 10.0994678,60.2689523 8.31,57.42 C2.92,49 2,38 4.45,28.34 C5.3210825,24.6044341 6.66527107,20.9952879 8.45,17.6 C10.0941321,14.3906541 12.1812161,11.4283413 14.65,8.8 C18.89,4.57 24.82,2.96 30.36,5.09 C35.9,7.22 39.36,12.41 42.19,17.6 C43.9747289,20.9952879 45.3189175,24.6044341 46.19,28.34 C48.65,38 47.76,49 42.34,57.44 Z" id="Shape" fill="#929597" fill-rule="nonzero" opacity="0.3" style="mix-blend-mode: multiply;"></path>
            <path d="M28.05,77.4 C29.7291627,77.4222984 31.4057472,77.2613462 33.05,76.92 C35.4251988,76.3903316 37.7212124,75.5532783 39.88,74.43 C43.5707868,72.5535346 46.6817935,69.7086917 48.88,66.2 C55.56,55.86 56.64,42.29 53.67,30.38 C52.5834387,25.7838505 50.9237776,21.342409 48.73,17.16 C45.3,10.77 41,4.38 34.21,1.76 C27.42,-0.86 20.08,1.12 14.86,6.33 C11.8192428,9.56258697 9.25051705,13.2086289 7.23,17.16 C5.02897143,21.3402291 3.36576054,25.7821781 2.28,30.38 C-0.72,42.29 0.4,55.86 7.07,66.2 C9.26546933,69.7109723 12.3771859,72.5564642 16.07,74.43 C19.7914078,76.3022857 23.8849714,77.3171341 28.05,77.4 Z" id="Shape"></path>
        </g>
    </g>
</svg>