<?xml version="1.0" encoding="UTF-8"?>
<svg width="56px" height="78px" viewBox="0 0 56 78" version="1.1" xmlns="http://www.w3.org/2000/svg" xmlns:xlink="http://www.w3.org/1999/xlink">
    <!-- Generator: Sketch 48.2 (47327) - http://www.bohemiancoding.com/sketch -->
    <title>2</title>
    <desc>Created with Sketch.</desc>
    <defs></defs>
    <g id="Page-1" stroke="none" stroke-width="1" fill="none" fill-rule="evenodd">
        <g id="2">
            <path d="M28.05,77.37 C29.7286056,77.3907821 31.4046717,77.2332319 33.05,76.9 C35.4229773,76.3627577 37.7180382,75.5260517 39.88,74.41 C43.5725237,72.5360445 46.6841385,69.6906457 48.88,66.18 C55.56,55.85 56.65,42.28 53.68,30.39 C52.5916822,25.7929558 50.9285895,21.3513222 48.73,17.17 C45.28,10.79 41,4.4 34.21,1.78 C27.42,-0.84 20.09,1.14 14.87,6.35 C11.8325961,9.58162268 9.26417168,13.2238707 7.24,17.17 C5.02412857,21.3489145 3.34420358,25.7906362 2.24,30.39 C-0.76,42.28 0.36,55.85 7.04,66.18 C9.2358615,69.6906457 12.3474763,72.5360445 16.04,74.41 C19.7726132,76.27965 23.876063,77.2909915 28.05,77.37 Z" id="Shape" fill="#E44D31" fill-rule="nonzero"></path>
            <path d="M34.21,1.78 C32.173121,0.991628081 30.0039367,0.601242805 27.82,0.63 C26.56,1.93 25.34,3.29 24.13,4.63 C21.49,7.55 18.76,10.34 16,13.12 C13,16.18 9.91,19.23 7,22.38 C5.77,23.69 4.58,25.01 3.46,26.38 C3.05,27.69 2.68,29.02 2.34,30.38 C1.86691271,32.2326487 1.48974452,34.1084763 1.21,36 C5.69610888,29.7352277 10.7690414,23.9122379 16.36,18.61 C22.29,12.83 28.4,7.2 34.82,2 L34.21,1.78 Z" id="Shape" fill="#E98834" fill-rule="nonzero"></path>
            <path d="M12.35,11.16 C13.55,9.98 14.71,8.76 15.98,7.67 C17.25,6.58 18.3,5.75 19.44,4.77 C20.7063503,3.73034851 21.8961009,2.60075392 23,1.39 C19.9245359,2.36616472 17.1360973,4.08318354 14.88,6.39 C12.3796803,8.97525514 10.2189484,11.8685524 8.45,15 C9.74333333,13.72 11.0433333,12.44 12.35,11.16 Z" id="Shape" fill="#E44D31" fill-rule="nonzero"></path>
            <path d="M23.41,1.27 C22.3910335,2.43264751 21.2880679,3.5189016 20.11,4.52 C18.9,5.57 17.66,6.57 16.44,7.6 C15.22,8.63 14.05,9.82 12.88,11 C11.24,12.62 9.6,14.24 7.97,15.88 L7.24,17.2 C5.78376514,19.9247873 4.57878559,22.7765722 3.64,25.72 C4.8,24.27 6.1,22.94 7.37,21.6 C10.37,18.47 13.37,15.43 16.44,12.37 C19.18,9.6 21.86,6.8 24.44,3.91 C25.44,2.82 26.44,1.73 27.44,0.67 C26.0774705,0.707715092 24.7244218,0.909161561 23.41,1.27 Z" id="Shape" fill="#F79D36" fill-rule="nonzero"></path>
            <path d="M36.59,59.47 C35.16,62.2 33.59,64.88 32.04,67.47 C30.89,69.37 29.68,71.2 28.68,73.19 C28,74.6 27.33,76 26.59,77.31 C27.08,77.31 27.59,77.37 28.05,77.37 C29.7286056,77.3907821 31.4046717,77.2332319 33.05,76.9 C33.72,76.76 34.38,76.58 35.05,76.39 C35.997237,70.7979365 36.5120948,65.141187 36.59,59.47 Z" id="Shape" fill="#E44D31" fill-rule="nonzero"></path>
            <path d="M21.88,76.55 C23.3231871,76.9202451 24.7950973,77.1677936 26.28,77.29 C27.16,75.72 27.94,74.1 28.76,72.5 C29.76,70.6 30.91,68.86 32,67.05 C33.62,64.36 35.17,61.63 36.62,58.84 C36.69,58.71 36.85,58.84 36.85,58.93 C36.789168,64.7503946 36.2810043,70.5575019 35.33,76.3 C36.5841556,75.894699 37.8101596,75.4069699 39,74.84 C40.2533333,65.1 41.4,55.34 42.44,45.56 C34.79,55.27 28.87,66.32 21.88,76.55 Z" id="Shape" fill="#F79D36" fill-rule="nonzero"></path>
            <path d="M36,45.32 C32.86,49.04 29.76,52.7933333 26.7,56.58 C24.56,59.2 22.48,61.85 20.18,64.32 C17.9936564,66.5543149 15.9559638,68.9293959 14.08,71.43 L13.21,72.69 C14.1167905,73.3373896 15.0730694,73.9124945 16.07,74.41 C17.8475279,75.2911811 19.7105659,75.988145 21.63,76.49 C28.73,66.1 34.71,54.87 42.55,45.06 C42.5787969,45.0165423 42.6341443,44.9992673 42.6825484,45.0186289 C42.7309525,45.0379906 42.7591179,45.0886707 42.75,45.14 C41.6966667,55.0133333 40.54,64.87 39.28,74.71 L39.91,74.41 C43.0298341,72.8325706 45.7383658,70.548638 47.82,67.74 C48.71,59.96 49.65,52.18 50.37,44.38 C50.85,39.24 51.3,34.1 51.62,28.95 C51.62,28.61 51.67,28.26 51.69,27.95 C46.25,33.49 41.06,39.34 36,45.32 Z" id="Shape" fill="#FED070" fill-rule="nonzero"></path>
            <path d="M53.71,30.39 C53.41,29.21 53.09,28.03 52.71,26.86 L51.96,27.63 C51.96,27.76 51.96,27.88 51.96,28 C51.34,38.28 50.29,48.53 49.12,58.74 C48.8,61.6 48.46,64.46 48.12,67.32 C48.3933333,66.9533333 48.6533333,66.5733333 48.9,66.18 C55.59,55.85 56.68,42.28 53.71,30.39 Z" id="Shape" fill="#E44D31" fill-rule="nonzero"></path>
            <path d="M36.91,25 C40.16,21.35 43.91,18 47.1,14.31 C45.4650331,11.46627 43.4795065,8.83905877 41.19,6.49 C41.19,6.61 41.13,6.73 41.11,6.85 C40.71,8.67 40.43,10.53 40.05,12.35 C39.15,16.55 37.46,20.63 36.91,25 Z" id="Shape" fill="#E44D31" fill-rule="nonzero"></path>
            <path d="M47.23,14.48 C43.91,18.27 40.1,21.67 36.81,25.48 C36.73,25.56 36.58,25.48 36.6,25.39 C37.11,20.8 38.97,16.5 39.86,11.98 C40.24,10.08 40.52,8.16 40.98,6.28 C40.2356637,5.55711173 39.4402766,4.88871921 38.6,4.28 C37.72,8.71 36.78,13.13 35.85,17.56 C35.17,20.81 34.46,24.04 33.65,27.26 C32.8004085,30.3163101 32.2478457,33.4474994 32,36.61 C37.16,29.76 43.15,23.71 49,17.5 L48.82,17.17 C48.27,16.27 47.76,15.37 47.23,14.48 Z" id="Shape" fill="#FED070" fill-rule="nonzero"></path>
            <path d="M31.89,37.13 C31.81,37.23 31.69,37.13 31.69,37.02 C31.9064611,33.7642328 32.4628204,30.5400299 33.35,27.4 C34.16,24.19 34.88,20.97 35.56,17.72 C36.56,13.17 37.48,8.62 38.39,4.06 C37.6629318,3.53872342 36.9011649,3.06763077 36.11,2.65 C33.11,12.05 29.29,21.15 26,30.42 C22.71,39.69 20.09,49.34 17.31,58.84 C16.03,63.21 14.73,67.58 13.38,71.93 C13.96,71.09 14.58,70.28 15.2,69.52 C17.09,67.17 19.2,65.02 21.2,62.81 C23.79,59.97 26.13,56.81 28.57,53.81 C31.66,50.04 34.77,46.29 37.93,42.6 C42.39,37.39 46.93,32.33 51.74,27.45 C51.8,26.45 51.87,25.38 51.92,24.34 C51.1404832,22.0653137 50.1911439,19.8524173 49.08,17.72 C43.16,24 37.09,30.16 31.89,37.13 Z" id="Shape" fill="#F79D36" fill-rule="nonzero"></path>
            <path d="M52,27.21 L52.64,26.56 C52.47,26.03 52.3,25.51 52.12,24.98 C52.09,25.72 52.05,26.47 52,27.21 Z" id="Shape" fill="#FED070" fill-rule="nonzero"></path>
            <path d="M2.2,54.87 C2.82167941,57.3235777 3.67899684,59.7113407 4.76,62 C6.76,54.94 8.98,47.91 11.64,41.07 C8.5,45.63 5.91,50.77 2.2,54.87 Z" id="Shape" fill="#E44D31" fill-rule="nonzero"></path>
            <path d="M0.93,47.47 C1.14375501,49.8676953 1.54498199,52.2449651 2.13,54.58 C6,50.26 8.65,44.8 12,40.07 C12.1,39.93 12.26,40.07 12.2,40.19 C9.34,47.4 7.05,54.82 4.88,62.28 C5.52367947,63.6246798 6.25180091,64.9272824 7.06,66.18 C7.2,66.4 7.34,66.61 7.49,66.82 C9.34,59.94 11.59,53.19 13.81,46.44 C16.64,37.84 18.66,28.91 22.65,20.79 C14.8,29.09 8.09,38.48 0.93,47.47 Z" id="Shape" fill="#F79D36" fill-rule="nonzero"></path>
            <path d="M35.06,2.14 C32.64,4.14 30.27,6.14 27.94,8.19 C21.3357706,13.9088813 15.0685927,20.0057737 9.17,26.45 C6.29248682,29.6722072 3.62054274,33.0722561 1.17,36.63 C0.729908517,40.1091417 0.64948381,43.6243716 0.93,47.12 C8.16,38 15,28.43 23.05,20.05 C23.14,19.95 23.35,19.98 23.27,20.16 C22.68,21.31 22.12,22.48 21.61,23.67 C19.7772149,28.0899229 18.2078007,32.6145105 16.91,37.22 C15.56,41.81 14.13,46.36 12.64,50.9 C10.89,56.25 9.17,61.64 7.71,67.1 C9.14955011,69.1650904 10.9120885,70.9850295 12.93,72.49 C15.39,64.62 17.65,56.68 19.93,48.77 C21.33,44 22.75,39.24 24.27,34.51 C25.79,29.78 27.53,25.3 29.27,20.74 C31.56,14.74 33.88,8.68 35.83,2.53 C35.59,2.39 35.3333333,2.26 35.06,2.14 Z" id="Shape" fill="#FED070" fill-rule="nonzero"></path>
            <path d="M53.71,30.39 C52.6216822,25.7929558 50.9585895,21.3513222 48.76,17.17 C45.28,10.79 41,4.4 34.21,1.78 C27.42,-0.84 20.09,1.14 14.87,6.35 C11.8325961,9.58162268 9.26417168,13.2238707 7.24,17.17 C5.02412857,21.3489145 3.34420358,25.7906362 2.24,30.39 C-0.76,42.28 0.36,55.85 7.04,66.18 C9.2358615,69.6906457 12.3474763,72.5360445 16.04,74.41 C19.7663415,76.2920662 23.8663734,77.3170742 28.04,77.41 C29.7186056,77.4307821 31.3946717,77.2732319 33.04,76.94 C35.4129773,76.4027577 37.7080382,75.5660517 39.87,74.45 C43.5625237,72.5760445 46.6741385,69.7306457 48.87,66.22 C55.59,55.85 56.68,42.28 53.71,30.39 Z M42.33,57.39 C40.5459429,60.2546342 38.0107431,62.5753969 35,64.1 C33.2449183,65.0053493 31.3791525,65.6776973 29.45,66.1 C28.1073269,66.3710152 26.7396283,66.4983989 25.37,66.48 C21.9876017,66.411757 18.6632248,65.5883502 15.64,64.07 C12.6435281,62.5499839 10.1193084,60.2401499 8.34,57.39 C2.93,49 2.05,38 4.46,28.35 C5.34040562,24.6172513 6.68416561,21.0092557 8.46,17.61 C10.1077471,14.4058758 12.1945349,11.4473493 14.66,8.82 C18.89,4.59 24.82,2.98 30.36,5.11 C35.9,7.24 39.36,12.43 42.19,17.61 C43.9706775,21.0070969 45.3146697,24.6157161 46.19,28.35 C48.63,38 47.75,49 42.33,57.42 L42.33,57.39 Z" id="Shape" fill="#B8BABC" fill-rule="nonzero" opacity="0.3" style="mix-blend-mode: multiply;"></path>
            <path d="M28.05,77.37 C29.7286056,77.3907821 31.4046717,77.2332319 33.05,76.9 C35.4229773,76.3627577 37.7180382,75.5260517 39.88,74.41 C43.5725237,72.5360445 46.6841385,69.6906457 48.88,66.18 C55.56,55.85 56.65,42.28 53.68,30.39 C52.5916822,25.7929558 50.9285895,21.3513222 48.73,17.17 C45.28,10.79 41,4.4 34.21,1.78 C27.42,-0.84 20.09,1.14 14.87,6.35 C11.8325961,9.58162268 9.26417168,13.2238707 7.24,17.17 C5.02412857,21.3489145 3.34420358,25.7906362 2.24,30.39 C-0.76,42.28 0.36,55.85 7.04,66.18 C9.2358615,69.6906457 12.3474763,72.5360445 16.04,74.41 C19.7726132,76.27965 23.876063,77.2909915 28.05,77.37 Z" id="Shape"></path>
        </g>
    </g>
</svg>