<?xml version="1.0" encoding="UTF-8"?>
<svg width="56px" height="78px" viewBox="0 0 56 78" version="1.1" xmlns="http://www.w3.org/2000/svg" xmlns:xlink="http://www.w3.org/1999/xlink">
    <!-- Generator: Sketch 48.2 (47327) - http://www.bohemiancoding.com/sketch -->
    <title>3</title>
    <desc>Created with Sketch.</desc>
    <defs>
        <radialGradient cx="33.0377964%" cy="40.6055101%" fx="33.0377964%" fy="40.6055101%" r="40.486884%" gradientTransform="translate(0.330378,0.406055),scale(1.000000,0.710249),translate(-0.330378,-0.406055)" id="radialGradient-1">
            <stop stop-color="#BFA9FC" offset="10%"></stop>
            <stop stop-color="#0055FF" offset="63%"></stop>
            <stop stop-color="#070BBA" offset="100%"></stop>
        </radialGradient>
    </defs>
    <g id="Page-1" stroke="none" stroke-width="1" fill="none" fill-rule="evenodd">
        <g id="3" fill-rule="nonzero">
            <path d="M28.05,77.39 C29.7286056,77.4107821 31.4046717,77.2532319 33.05,76.92 C35.4251988,76.3903316 37.7212124,75.5532783 39.88,74.43 C43.5696337,72.5518695 46.6802379,69.7073947 48.88,66.2 C55.56,55.86 56.65,42.28 53.68,30.39 C52.5758828,25.7874189 50.8959734,21.3423785 48.68,17.16 C45.29,10.78 41,4.38 34.21,1.76 C27.42,-0.86 20.08,1.12 14.86,6.34 C11.8193922,9.56900769 9.25063276,13.2117308 7.23,17.16 C5.0313079,21.3447843 3.36823043,25.7897368 2.28,30.39 C-0.72,42.28 0.4,55.86 7.08,66.2 C9.27976207,69.7073947 12.3903663,72.5518695 16.08,74.43 C19.7989502,76.2980118 23.8890425,77.3094298 28.05,77.39 Z" id="Shape" fill="url(#radialGradient-1)"></path>
            <path d="M4.92,62.36 C5.56364726,63.6814742 6.28490716,64.963714 7.08,66.2 C9.27976207,69.7073947 12.3903663,72.5518695 16.08,74.43 C19.804792,76.3162255 23.9057833,77.3414733 28.08,77.43 C29.7586056,77.4507821 31.4346717,77.2932319 33.08,76.96 C35.4551988,76.4303316 37.7512124,75.5932783 39.91,74.47 C43.5996337,72.5918695 46.7102379,69.7473947 48.91,66.24 C49.7458269,64.9567962 50.4974096,63.6206493 51.16,62.24 C33.72,66.67 16.65,64.86 4.92,62.36 Z" id="Shape" fill="#DD7CFF"></path>
            <path d="M6.16,54.14 C6.63448698,52.8935829 7.17184297,51.6720158 7.77,50.48 C8.59,48.8266667 9.48,47.2166667 10.44,45.65 C9.93,44.22 9.44,42.79 8.97,41.34 C8.97,41.19 9.12,40.98 9.18,41.16 C9.63,42.58 10.12,43.98 10.62,45.37 C11.7270722,43.5963439 12.9567339,41.9022176 14.3,40.3 C14.4,40.17 14.59,40.41 14.48,40.54 C13.116494,42.1792251 11.8669012,43.9099445 10.74,45.72 C12.1139001,49.4660676 13.6827078,53.1377453 15.44,56.72 L15.56,56.41 C16.2026355,54.7488662 16.940527,53.1261727 17.77,51.55 C18.55,50.01 19.35,48.49 20.15,46.96 L18.71,42.81 C18.65,42.64 18.87,42.53 18.93,42.72 C19.39,44.03 19.84,45.35 20.3,46.67 C21.17,44.99 22.03,43.3 22.82,41.58 C22.89,41.44 23.17,41.49 23.1,41.66 C22.25,43.48 21.34,45.25 20.42,47.02 C21.83,51.02 23.3,55.07 25.01,58.96 C25.76,56.63 26.59,54.32 27.46,52.04 C28.09,50.38 28.72,48.73 29.41,47.11 L28.14,44.78 C28.05,44.62 28.34,44.59 28.42,44.72 C28.8,45.41 29.17,46.1 29.54,46.79 C29.6,46.65 29.66,46.52 29.71,46.38 C30.13,45.38 30.53,44.38 31.01,43.52 C31.5481242,42.651101 31.8894516,41.6749045 32.01,40.66 C32.01,40.46 32.28,40.54 32.27,40.66 C32.2328554,41.4803727 32.0070021,42.2811255 31.61,43 C31.15,43.93 30.72,44.85 30.3,45.79 L29.72,47.14 C31.98,51.34 34.13,55.61 36.12,59.96 C37.51,55.96 38.89,51.96 39.97,47.81 C39.9442623,47.7382491 39.9142074,47.668121 39.88,47.6 C39.54,46.82 38.88,45.6 39.09,44.6 C39.09,44.43 39.38,44.43 39.33,44.6 C39.2783451,45.0874179 39.3649847,45.5795311 39.58,46.02 C39.73,46.46 39.9,46.88 40.08,47.29 C40.4,46.07 40.69,44.84 40.94,43.59 C40.94,43.43 41.25,43.53 41.22,43.7 C40.94,45.06 40.62,46.4 40.22,47.7 C40.29,47.83 40.35,47.97 40.41,48.1 C40.99,49.36 41.64,50.58 42.23,51.84 C43.3,54.11 44.04,56.63 45.16,58.91 C45.25,58.59 45.36,58.27 45.46,57.91 C45.96,56.39 46.53,54.91 47,53.34 C47.7,50.99 48.34,48.62 49,46.25 C48.5,45.25 48,44.25 47.46,43.31 C47.37,43.13 47.57,43.01 47.67,43.18 C48.16,44.08 48.67,44.99 49.09,45.91 C49.59,44.09 50.09,42.27 50.59,40.46 C50.59,40.28 50.88,40.46 50.84,40.59 C50.3,42.49 49.84,44.39 49.29,46.29 C50.23,48.17 51.13,50.09 51.97,52.03 C52.468701,53.2393841 52.9026487,54.474466 53.27,55.73 L53.39,56.12 C55.6662091,48.0585941 55.8759911,39.5538257 54,31.39 C52.78,29.24 51.7,27 50.35,25 C48.56,22.33 46.52,19.87 44.54,17.37 C44.54,17.37 44.54,17.37 44.54,17.37 C44.25,18.37 43.99,19.42 43.72,20.44 C43.14,22.61 42.46,24.73 41.89,26.89 C41.48,28.51 41.09,30.14 40.7,31.76 C41.17,33.04 41.7,34.3 42.21,35.54 C42.27,35.68 42.01,35.82 41.95,35.67 C41.45,34.56 40.95,33.42 40.58,32.27 C39.95,34.88 39.31,37.48 38.58,40.04 C38.52,40.24 38.32,40.1 38.37,39.93 C39.17,37.27 39.82,34.57 40.47,31.87 C39.6,29.5 38.81,27.08 37.9,24.72 C37.34,23.28 36.75,21.85 36.08,20.47 C35.7671109,19.8078214 35.4061454,19.1694473 35,18.56 C33.6771168,20.8118507 32.5592873,23.1780347 31.66,25.63 C30.98,27.37 30.19,29.08 29.57,30.86 C29.51,31.02 29.46,31.19 29.41,31.36 C29.97,33.36 30.53,35.36 31.2,37.36 C31.2,37.52 30.96,37.61 30.91,37.45 C30.31,35.66 29.76,33.83 29.23,32.01 C29.0248102,32.9672212 28.7163374,33.8993456 28.31,34.79 C28.23,34.94 28.02,34.73 28.09,34.59 C28.4208942,33.8687036 28.6626756,33.1097788 28.81,32.33 C28.88,32.04 28.98,31.74 29.07,31.45 C28.48,29.45 27.9,27.38 27.26,25.37 C26.8,23.91 26.45,22.37 25.95,20.95 C25.690693,20.1307687 25.3559245,19.3373673 24.95,18.58 C23.5171662,21.1777563 22.264225,23.8707446 21.2,26.64 C20.61,28.06 19.95,29.44 19.35,30.85 C19.29,31.01 19.22,31.15 19.16,31.31 C19.55,33.13 19.97,34.94 20.52,36.72 C20.52,36.87 20.31,37.02 20.26,36.84 C19.74,35.17 19.34,33.47 18.96,31.77 C18.472569,32.8251942 18.2038367,33.9681571 18.17,35.13 C18.17,35.29 17.89,35.26 17.88,35.13 C17.9471522,33.7950718 18.2875043,32.48812 18.88,31.29 C18.46,29.35 18.05,27.39 17.51,25.46 C16.97,23.53 16.7,21.52 16,19.67 C13.17,22.58 11.09,26.24 9,29.81 C9.15,30.37 9.31,30.94 9.48,31.49 C9.48,31.64 9.26,31.76 9.21,31.6 C9.05666667,31.12 8.91666667,30.64 8.79,30.16 C8.26,31.05 7.73,31.93 7.19,32.8 C7.09,32.94 6.9,32.72 6.98,32.59 C7.56,31.67 8.12,30.73 8.68,29.78 C7.82645926,26.6439299 7.2311369,23.4432361 6.9,20.21 C6.07,21.13 5.28,22.1 4.52,23.1 C3.62231437,25.4828771 2.86763945,27.9172046 2.26,30.39 C1.4805464,33.5114695 0.991793501,36.6984062 0.8,39.91 C1.8,43.27 3.17,46.54 4.39,49.79 C5,51.25 5.53,52.71 6.16,54.14 Z" id="Shape" fill="#E4D4B0"></path>
            <path d="M46.19,12.66 C43.19,7.95 39.45,3.76 34.27,1.76 C27.45,-0.87 20.14,1.12 14.93,6.34 C13.0455548,8.26482802 11.3695987,10.3832365 9.93,12.66 C21.9205086,14.8161364 34.1994914,14.8161364 46.19,12.66 Z" id="Shape" fill="#BDE820"></path>
            <path d="M22.65,2.08 C24.72,2.22 26.81,2.41 28.89,2.43 C30.9836448,2.44362247 33.0765512,2.34682137 35.16,2.14 C34.87,2 34.57,1.88 34.27,1.76 C30.1091622,0.160047713 25.4883446,0.246149903 21.39,2 L22.65,2.08 Z" id="Shape" fill="#BDE820"></path>
            <path d="M25.8,5.22 C23.4302958,5.2353658 21.0630366,5.06484289 18.72,4.71 C18.22,4.62 17.72,4.53 17.16,4.39 C16.3723537,4.98750971 15.6272221,5.63908212 14.93,6.34 C14.63,6.64 14.34,6.95 14.05,7.27 C15.256756,7.57534506 16.4882714,7.77278911 17.73,7.86 C20.34,8.07 22.94,7.96 25.54,7.96 C30.85,7.96 36.3,7.89 41.54,6.65 C40.6919048,5.78833625 39.7792518,4.99269006 38.81,4.27 C34.5385739,5.18986404 30.1597428,5.50960959 25.8,5.22 Z" id="Shape" fill="#BDE820"></path>
            <path d="M38.11,11.09 C32.2735136,11.8212789 26.3736115,11.8984237 20.52,11.32 C17.943006,11.1890328 15.3845707,10.8106255 12.88,10.19 C12.58,10.11 12.23,10.01 11.88,9.89 C11.21,10.79 10.56,11.72 9.95,12.66 C21.9372556,14.8149378 34.2127444,14.8149378 46.2,12.66 C45.53,11.66 44.83,10.61 44.09,9.66 C42.1517747,10.3431753 40.1476097,10.8224322 38.11,11.09 Z" id="Shape" fill="#BDE820"></path>
            <path d="M2.88,28.14 C2.67333333,28.8933333 2.47333333,29.6433333 2.28,30.39 C1.12965322,35.005218 0.611583328,39.7553134 0.74,44.51 C13.14,47.63 34.22,50.77 55.27,44.1 C55.3553439,39.4818701 54.8342274,34.8725109 53.72,30.39 C53.51,29.55 53.28,28.72 53.05,27.9 C33.91,33.34 15,31 2.88,28.14 Z" id="Shape" fill="#E4F0A9"></path>
            <path d="M2,34.55 C2.95079036,33.9903869 4.15027106,34.0863453 5,34.79 C5.87413952,35.7611747 6.47159078,36.9491703 6.73,38.23 C7.11434644,39.7253033 7.89916354,41.0874968 9,42.17 C9.69897782,42.8000521 10.6211313,43.1239957 11.5605814,43.0695076 C12.5000316,43.0150195 13.3785501,42.5866369 14,41.88 C15.06,40.78 15.79,39.37 16.86,38.3 C17.93,37.23 19.27,36.6 20.58,37.46 C21.89,38.32 22.9,40.06 24.02,41.37 C25.14,42.68 26.74,43.98 28.64,43.87 C30.2814916,43.6260222 31.7724433,42.7771072 32.82,41.49 C33.7985638,40.3484811 34.8615591,39.282143 36,38.3 C36.8971719,37.4794148 38.118867,37.1114344 39.32,37.3 C42.45,38.3 43.38,42.99 47.07,42.82 C50.07,42.68 51.83,39.82 53.54,37.62 L54.79,36 C54.61,34.65 54.38,33.33 54.1,32 C53.88,32 53.66,32 53.45,32 C52.3820257,32.0191374 51.3415311,32.3416907 50.45,32.93 C49.1,33.76 47.87,35 46.39,35.57 C42.8,36.95 39.71,33.57 36.15,33.91 C32.35,34.3 29.47,37.82 25.5,37.45 C23.7681646,37.1467371 22.1410952,36.4106 20.77,35.31 C19.13,34.18 17.54,33.18 15.53,33.72 C14.13,34.1 12.86,34.9 11.45,35.23 C10.1931264,35.5471521 8.86103941,35.329964 7.77,34.63 C6.6,33.91 5.6,32.88 4.38,32.24 C3.75135295,31.7998609 2.95741395,31.6675377 2.22,31.88 C2.12223343,31.9251709 2.02855183,31.9787033 1.94,32.04 C1.72,33.04 1.54,34.04 1.38,35.04 C1.56667277,34.8528473 1.77477841,34.6883767 2,34.55 Z" id="Shape" fill="#BF96FF"></path>
            <path d="M6.21,40.6 C6.16629965,41.4289429 5.46564876,42.0695248 4.63611806,42.038948 C3.80658736,42.0083712 3.15499791,41.3179452 3.17244352,40.4880345 C3.18988914,39.6581238 3.86991715,38.99569 4.7,39 C5.55774254,39.0272122 6.23243602,39.7421192 6.21,40.6 Z" id="Shape" fill="#CD5F65"></path>
            <path d="M21.13,43 C21.0917684,43.8292816 20.3952535,44.474498 19.5654737,44.4492987 C18.7356938,44.4240994 18.0796151,43.7378066 18.0917758,42.9077332 C18.1039366,42.0776599 18.7798381,41.4108808 19.61,41.41 C20.4676962,41.4318353 21.1467774,42.14219 21.13,43 Z" id="Shape" fill="#CD5F65"></path>
            <ellipse id="Oval" fill="#CD5F65" cx="53.28" cy="40.11" rx="1" ry="1.05"></ellipse>
            <path d="M39.35,43 C39.3117684,43.8292816 38.6152535,44.474498 37.7854737,44.4492987 C36.9556938,44.4240994 36.2996151,43.7378066 36.3117758,42.9077332 C36.3239366,42.0776599 36.9998381,41.4108808 37.83,41.41 C38.6876962,41.4318353 39.3667774,42.14219 39.35,43 Z" id="Shape" fill="#CD5F65"></path>
            <path d="M24.9,28.55 C24.8727606,29.0340856 24.4630506,29.4073014 23.9785301,29.3893915 C23.4940096,29.3714816 23.1129712,28.9690366 23.1215448,28.484261 C23.1301185,27.9994854 23.5251492,27.6107658 24.01,27.61 C24.5142121,27.6263253 24.9112311,28.0456487 24.9,28.55 Z" id="Shape" fill="#8D98FF"></path>
            <path d="M36.32,28.55 C36.2980622,29.0425438 35.8839172,29.4257529 35.3911543,29.4094625 C34.8983915,29.3931721 34.5104602,28.983447 34.521101,28.4905298 C34.5317418,27.9976126 34.9369932,27.6050102 35.43,27.61 C35.9342121,27.6263253 36.3312311,28.0456487 36.32,28.55 Z" id="Shape" fill="#8D98FF"></path>
            <path d="M47.08,26.68 C47.0527606,27.1640856 46.6430506,27.5373014 46.1585301,27.5193915 C45.6740096,27.5014816 45.2929712,27.0990366 45.3015448,26.614261 C45.3101185,26.1294854 45.7051492,25.7407658 46.19,25.74 C46.4331481,25.7452111 46.6640931,25.8475345 46.8313032,26.0241385 C46.9985133,26.2007424 47.0880735,26.4369301 47.08,26.68 Z" id="Shape" fill="#8D98FF"></path>
            <path d="M15.38,27.9 C15.3527606,28.3840856 14.9430506,28.7573014 14.4585301,28.7393915 C13.9740096,28.7214816 13.5929712,28.3190366 13.6015448,27.834261 C13.6101185,27.3494854 14.0051492,26.9607658 14.49,26.96 C14.7331481,26.9652111 14.9640931,27.0675345 15.1313032,27.2441385 C15.2985133,27.4207424 15.3880735,27.6569301 15.38,27.9 Z" id="Shape" fill="#8D98FF"></path>
            <path d="M6.7,26.68 C6.67276055,27.1640856 6.26305058,27.5373014 5.77853007,27.5193915 C5.29400956,27.5014816 4.91297119,27.0990366 4.92154482,26.614261 C4.93011846,26.1294854 5.32514919,25.7407658 5.81,25.74 C6.05314813,25.7452111 6.28409309,25.8475345 6.45130319,26.0241385 C6.6185133,26.2007424 6.70807355,26.4369301 6.7,26.68 Z" id="Shape" fill="#8D98FF"></path>
            <path d="M7.11,49 C7.0935636,49.4928158 6.68363471,49.8806487 6.19066467,49.8697813 C5.69769462,49.8589138 5.30525504,49.4533929 5.31055208,48.9603316 C5.31584911,48.4672702 5.71691026,48.070274 6.21,48.07 C6.71418842,48.0809321 7.1156001,48.4957242 7.11,49 Z" id="Shape" fill="#8D98FF"></path>
            <path d="M16.27,49.92 C16.2427606,50.4040856 15.8330506,50.7773014 15.3485301,50.7593915 C14.8640096,50.7414816 14.4829712,50.3390366 14.4915448,49.854261 C14.5001185,49.3694854 14.8951492,48.9807658 15.38,48.98 C15.6231481,48.9852111 15.8540931,49.0875345 16.0213032,49.2641385 C16.1885133,49.4407424 16.2780735,49.6769301 16.27,49.92 Z" id="Shape" fill="#8D98FF"></path>
            <path d="M25.8,50.85 C25.8362372,51.1923418 25.6740145,51.5253635 25.3821152,51.7078624 C25.0902159,51.8903612 24.7197841,51.8903612 24.4278848,51.7078624 C24.1359855,51.5253635 23.9737628,51.1923418 24.01,50.85 C23.9737628,50.5076582 24.1359855,50.1746365 24.4278848,49.9921376 C24.7197841,49.8096388 25.0902159,49.8096388 25.3821152,49.9921376 C25.6740145,50.1746365 25.8362372,50.5076582 25.8,50.85 Z" id="Shape" fill="#8D98FF"></path>
            <path d="M36.32,50.85 C36.3034931,51.3441067 35.8915192,51.7323952 35.3973011,51.7196508 C34.9030831,51.7069063 34.5116691,51.2979007 34.5206503,50.8036 C34.5296316,50.3092992 34.9356452,49.9147825 35.43,49.92 C35.9302546,49.9362888 36.3257056,50.3495128 36.32,50.85 Z" id="Shape" fill="#8D98FF"></path>
            <path d="M45.77,49.92 C45.7427606,50.4040856 45.3330506,50.7773014 44.8485301,50.7593915 C44.3640096,50.7414816 43.9829712,50.3390366 43.9915448,49.854261 C44.0001185,49.3694854 44.3951492,48.9807658 44.88,48.98 C45.1231481,48.9852111 45.3540931,49.0875345 45.5213032,49.2641385 C45.6885133,49.4407424 45.7780735,49.6769301 45.77,49.92 Z" id="Shape" fill="#8D98FF"></path>
            <path d="M54.7,48.24 C54.6782093,48.6261618 54.351339,48.9238386 53.9648282,48.9095119 C53.5783175,48.8951851 53.2743818,48.5741262 53.2812393,48.1874109 C53.2880968,47.8006955 53.6032243,47.4906143 53.99,47.49 C54.1836323,47.4952323 54.3672464,47.5772077 54.5004125,47.7178761 C54.6335787,47.8585446 54.7053776,48.0463717 54.7,48.24 Z" id="Shape" fill="#8D98FF"></path>
            <path d="M8.43,68.1 C9.29,68.36 10.16,68.61 11.04,68.8 C13.42,69.29 15.8,69.8 18.2,70.1 C23.0598114,70.7846396 27.9824566,70.9054408 32.87,70.46 C37.5,70.05 42.08,69.27 46.67,68.46 L47.36,68.34 C47.9159978,67.6466957 48.4366597,66.9257792 48.92,66.18 C49.42,65.41 49.92,64.62 50.31,63.82 L49,64.15 C46.8466667,64.5966667 44.7033333,65.02 42.57,65.42 C37.9697602,66.3484533 33.2926634,66.843951 28.6,66.9 C26.24,66.9 23.83,66.9 21.47,66.73 C19.11,66.56 16.68,66.07 14.29,65.73 C12.29,65.4 10.18,65.29 8.14,64.97 C7.41255002,64.8514652 6.69659698,64.6708041 6,64.43 C6.33,65.03 6.7,65.62 7.07,66.2 C7.49123022,66.8557081 7.94513562,67.4898406 8.43,68.1 Z" id="Shape" fill="#DB7BFF"></path>
            <g id="Group" opacity="0.3" style="mix-blend-mode: multiply;" fill="#A7A9A4">
                <path d="M53.72,30.39 C52.6158828,25.7874189 50.9359734,21.3423785 48.72,17.16 C45.29,10.78 41,4.38 34.21,1.76 C27.42,-0.86 20.08,1.12 14.86,6.34 C11.8193922,9.56900769 9.25063276,13.2117308 7.23,17.16 C5.0313079,21.3447843 3.36823043,25.7897368 2.28,30.39 C-0.72,42.28 0.4,55.86 7.08,66.2 C9.27976207,69.7073947 12.3903663,72.5518695 16.08,74.43 C19.804792,76.3162255 23.9057833,77.3414733 28.08,77.43 C29.7586056,77.4507821 31.4346717,77.2932319 33.08,76.96 C35.4551988,76.4303316 37.7512124,75.5932783 39.91,74.47 C43.5996337,72.5918695 46.7102379,69.7473947 48.91,66.24 C55.6,55.86 56.69,42.28 53.72,30.39 Z M42.33,57.39 C40.5499669,60.2629937 38.0141957,62.5911984 35,64.12 C33.243169,65.02133 31.3779359,65.6934861 29.45,66.12 C28.1036698,66.3900598 26.7331066,66.5207492 25.36,66.51 C21.9814355,66.4369297 18.6613608,65.6137425 15.64,64.1 C12.6403257,62.5762085 10.1129916,60.2632311 8.33,57.41 C2.92,49 2,38 4.45,28.34 C5.32727231,24.606303 6.67117538,20.9979233 8.45,17.6 C10.0953899,14.391971 12.1860799,11.4326851 14.66,8.81 C18.89,4.57 24.82,2.96 30.36,5.09 C35.9,7.22 39.36,12.41 42.19,17.6 C43.9688246,20.9979233 45.3127277,24.606303 46.19,28.34 C48.64,38 47.76,49 42.33,57.43 L42.33,57.39 Z" id="Shape"></path>
            </g>
        </g>
    </g>
</svg>