<?xml version="1.0" encoding="UTF-8"?>
<svg width="56px" height="78px" viewBox="0 0 56 78" version="1.1" xmlns="http://www.w3.org/2000/svg" xmlns:xlink="http://www.w3.org/1999/xlink">
    <!-- Generator: Sketch 48.2 (47327) - http://www.bohemiancoding.com/sketch -->
    <title>4</title>
    <desc>Created with Sketch.</desc>
    <defs>
        <radialGradient cx="33.2290609%" cy="40.5960177%" fx="33.2290609%" fy="40.5960177%" r="40.4572104%" gradientTransform="translate(0.332291,0.405960),scale(1.000000,0.710884),translate(-0.332291,-0.405960)" id="radialGradient-1">
            <stop stop-color="#F3BFAF" offset="10%"></stop>
            <stop stop-color="#E7105F" offset="63%"></stop>
            <stop stop-color="#A5121A" offset="100%"></stop>
        </radialGradient>
    </defs>
    <g id="Page-1" stroke="none" stroke-width="1" fill="none" fill-rule="evenodd">
        <g id="4">
            <path d="M27.9,77.39 C29.5786056,77.4107821 31.2546717,77.2532319 32.9,76.92 C35.2726116,76.3815153 37.5675184,75.5448655 39.73,74.43 C43.4196337,72.5518695 46.5302379,69.7073947 48.73,66.2 C55.41,55.86 56.5,42.29 53.53,30.38 C52.4400578,25.7834503 50.7770398,21.3420162 48.58,17.16 C45.1,10.78 40.82,4.38 34.02,1.77 C27.22,-0.84 19.89,1.12 14.68,6.34 C11.6362783,9.56870214 9.06417351,13.2113951 7.04,17.16 C4.84296023,21.3420162 3.17994219,25.7834503 2.09,30.38 C-0.91,42.29 0.21,55.86 6.89,66.2 C9.08742635,69.7093419 12.1986352,72.5543696 15.89,74.43 C19.6226132,76.29965 23.726063,77.3109915 27.9,77.39 Z" id="Shape" fill="url(#radialGradient-1)" fill-rule="nonzero"></path>
            <path d="M13.15,43 C14.09,45.64 14.01,48.44 14.15,51.21 C14.1963869,54.5438945 14.6020642,57.8630726 15.36,61.11 C16.74,65.95 20.59,70.81 25.85,70.11 C31.28,69.39 35.92,65.11 39.71,61.26 C43.5,57.41 46.65,53.11 50.31,49.26 C51.7881916,47.6364702 53.3823883,46.1224847 55.08,44.73 C55.2305406,39.9024349 54.7157067,35.0771287 53.55,30.39 C52.4600578,25.7934503 50.7970398,21.3520162 48.6,17.17 C47.82,15.74 46.99,14.3 46.1,12.9 C45.7876499,12.9518146 45.4799863,13.0287305 45.18,13.13 C42.41,14.06 40.18,16.13 38.18,18.21 C34.23,22.21 29.61,27.94 23.49,27.21 C20.75,26.92 18.72,25.37 16.92,23.21 C15.72,21.91 14,19.2 12,19.52 C8.4,20.07 5.44,23.63 3.29,26.46 C2.89,27.75 2.53,29.04 2.2,30.34 C1.43848685,33.4138988 0.953223146,36.5497063 0.75,39.71 C4.92,37.25 11.17,37.45 13.15,43 Z" id="Shape" fill="#FFFFFF" fill-rule="nonzero" opacity="0.4"></path>
            <path d="M19.69,6.68 L14.18,7.06 L12.37,9.33 L15.07,9.14 L12.77,12.79 L14.3,16.85 L10.3,15.67 L7.13,18.47 L7.13,17.91 L7.13,17.96 C7.12509654,18.2719864 7.04261737,18.5778466 6.89,18.85 C6.5,19.51 6.16,20.2 5.8,20.85 C5.63015441,21.6628859 5.38922837,22.4592803 5.08,23.23 L5.08,23.86 L10.95,18.69 L18.29,20.88 L15.45,13.4 L19.69,6.68 Z" id="Shape" fill="#00B8C8" fill-rule="nonzero"></path>
            <path d="M38.51,4.21 L37.51,3.46 L36.87,3.21 L36.3,3.8 L36.8,6.89 L34.18,5.43 L31.56,6.89 L32.06,3.8 L29.94,1.61 L30.75,1.49 C29.53,1.23 28.31,1 27.07,0.78 L26.55,0.78 L30.27,4.63 L29.34,10.33 L34.18,7.64 L39,10.36 L38.07,4.66 L38.51,4.21 Z" id="Shape" fill="#00B8C8" fill-rule="nonzero"></path>
            <path d="M12.42,44.17 L10.86,35.45 L5.28,42.06 L1.11,41.5 C1.23,43.4 1.04,45.38 1.17,47.24 C1.38472662,50.0299547 1.83635422,52.796592 2.52,55.51 L5.79,54.76 L11.88,60.84 L12.73,52 L20.08,47.74 L12.42,44.17 Z M10.42,49.97 L10,54.76 L6.69,51.46 L2.26,52.46 L4.2,48.11 L1.88,44 L6.38,44.61 L9.38,41.03 L10.22,45.75 L14.37,47.75 L10.42,49.97 Z" id="Shape" fill="#00B8C8" fill-rule="nonzero"></path>
            <path d="M49.06,65.61 L39.79,61.28 L37.71,49.63 L30.25,58.47 L19.15,57 L24.78,67.25 L20.85,76.09 C21.18,76.29 21.51,76.48 21.85,76.66 C22.55,76.81 23.26,76.95 23.97,77.06 L30.97,75.47 L32.5,77 C33.33,76.82 34.18,76.73 35.03,76.46 C36.7275978,75.9195836 38.3878425,75.2681798 40,74.51 L40.26,71.76 L47.91,67.32 C48.25,66.74 48.68,66.19 49.06,65.61 Z M37.13,69 L36.52,75.39 L32.1,71 L26.17,72.36 L28.76,66.54 L25.76,60.99 L31.76,61.8 L35.76,57.01 L36.9,63.32 L42.44,65.91 L37.13,69 Z" id="Shape" fill="#00B8C8" fill-rule="nonzero"></path>
            <path d="M53.28,55.65 L53.5,55 C54.1060571,53.0710389 54.5640531,51.0986477 54.87,49.1 L54.78,48 L51.38,46 L55,44.37 L55.31,42.72 C55.2782698,40.447357 55.1314149,38.1777811 54.87,35.92 L54.56,35.54 L53.11,43 L46.5,46 L52.77,49.73 L53.28,55.65 Z" id="Shape" fill="#00B8C8" fill-rule="nonzero"></path>
            <path d="M48.9,24.31 L38.09,22.65 L33.25,12.26 L28.42,22.65 L17.6,24.31 L25.43,32.4 L23.58,43.81 L33.25,38.42 L42.92,43.81 L41.08,32.4 L48.9,24.31 Z M33.25,34 L28,36.87 L29,30.69 L24.76,26.31 L30.62,25.4 L33.24,19.78 L35.86,25.4 L41.72,26.31 L37.48,30.69 L38.48,36.87 L33.25,34 Z" id="Shape" fill="#00B8C8" fill-rule="nonzero"></path>
            <path d="M53.69,30.38 C52.5883576,25.7798483 50.908313,21.3378104 48.69,17.16 C45.27,10.78 41,4.38 34.18,1.77 C27.36,-0.84 20.06,1.12 14.84,6.34 C11.7962783,9.56870214 9.22417351,13.2113951 7.2,17.16 C5.00622244,21.342409 3.34656125,25.7838505 2.26,30.38 C-0.74,42.29 0.38,55.86 7.05,66.2 C9.24976207,69.7073947 12.3603663,72.5518695 16.05,74.43 C19.7763415,76.3120662 23.8763734,77.3370742 28.05,77.43 C29.7286148,77.4510087 31.4047049,77.2934563 33.05,76.96 C35.4226116,76.4215153 37.7175184,75.5848655 39.88,74.47 C43.5687714,72.5906249 46.6790752,69.7464249 48.88,66.24 C55.57,55.86 56.66,42.29 53.69,30.38 Z M42.31,57.43 C40.5246639,60.2812791 37.9979372,62.5937007 35,64.12 C33.2424698,65.0197202 31.3774474,65.6918003 29.45,66.12 C28.1046735,66.3959099 26.7331296,66.5233395 25.36,66.5 C21.9789431,66.4305184 18.6555488,65.6107706 15.63,64.1 C12.6320628,62.5737007 10.1053361,60.2612791 8.32,57.41 C2.9,49 2,38 4.43,28.34 C5.30533028,24.6057161 6.64932253,20.9970969 8.43,17.6 C10.0753899,14.391971 12.1660799,11.4326851 14.64,8.81 C18.88,4.57 24.81,3 30.36,5.1 C35.91,7.2 39.36,12.42 42.19,17.6 C43.9706775,20.9970969 45.3146697,24.6057161 46.19,28.34 C48.62,38 47.73,49 42.31,57.43 Z" id="Shape" fill="#B8BABC" fill-rule="nonzero" opacity="0.3" style="mix-blend-mode: multiply;"></path>
            <path d="M28.2,77.39 C29.8786056,77.4107821 31.5546717,77.2532319 33.2,76.92 C35.57162,76.3781526 37.8661132,75.5416537 40.03,74.43 C43.7213648,72.5543696 46.8325737,69.7093419 49.03,66.2 C55.71,55.86 56.8,42.29 53.83,30.38 C52.7241695,25.7811371 51.0443202,21.3396156 48.83,17.16 C45.35,10.78 41.07,4.38 34.26,1.77 C27.45,-0.84 20.23,1.12 15,6.34 C11.9625961,9.57162268 9.39417168,13.2138707 7.37,17.16 C5.15168701,21.3378104 3.47164243,25.7798483 2.37,30.38 C-0.63,42.29 0.49,55.86 7.17,66.2 C9.36742635,69.7093419 12.4786352,72.5543696 16.17,74.43 C19.9086797,76.302545 24.019286,77.313966 28.2,77.39 Z" id="Shape"></path>
        </g>
    </g>
</svg>