<?xml version="1.0" encoding="UTF-8"?>
<svg width="56px" height="78px" viewBox="0 0 56 78" version="1.1" xmlns="http://www.w3.org/2000/svg" xmlns:xlink="http://www.w3.org/1999/xlink">
    <!-- Generator: Sketch 48.2 (47327) - http://www.bohemiancoding.com/sketch -->
    <title>5</title>
    <desc>Created with Sketch.</desc>
    <defs>
        <radialGradient cx="33.3218933%" cy="40.6034773%" fx="33.3218933%" fy="40.6034773%" r="40.4903715%" gradientTransform="translate(0.333219,0.406035),scale(1.000000,0.710240),translate(-0.333219,-0.406035)" id="radialGradient-1">
            <stop stop-color="#009855" offset="11%"></stop>
            <stop stop-color="#004917" offset="100%"></stop>
        </radialGradient>
    </defs>
    <g id="Page-1" stroke="none" stroke-width="1" fill="none" fill-rule="evenodd">
        <g id="5">
            <path d="M28.05,77.41 C29.7287445,77.4225042 31.4042944,77.2616514 33.05,76.93 C35.4266561,76.3944043 37.7252295,75.5576429 39.89,74.44 C43.5796337,72.5618695 46.6902379,69.7173947 48.89,66.21 C55.57,55.87 56.66,42.29 53.69,30.38 C52.5857964,25.7806362 50.9058714,21.3389145 48.69,17.16 C45.3,10.77 41,4.37 34.21,1.75 C27.42,-0.87 20.08,1.11 14.86,6.32 C11.8159787,9.55585995 9.24394122,13.2051906 7.22,17.16 C5.02141054,21.3413222 3.35831775,25.7829558 2.27,30.38 C-0.73,42.29 0.39,55.87 7.07,66.21 C9.26976207,69.7173947 12.3803663,72.5618695 16.07,74.44 C19.7939883,76.305306 23.8859501,77.3197573 28.05,77.41 Z" id="Shape" fill="url(#radialGradient-1)" fill-rule="nonzero"></path>
            <path d="M2.94,45.08 C2.86248461,44.0179044 2.35726935,43.0327346 1.54,42.35 C1.28599711,42.1562996 1.01091847,41.9919233 0.72,41.86 C0.654628557,44.5819384 0.815179137,47.3046086 1.2,50 C2.69,49.22 3.11,46.64 2.94,45.08 Z" id="Shape" fill="#6FBE44" fill-rule="nonzero"></path>
            <path d="M1.24,50.28 C1.46,51.76 1.76,53.22 2.12,54.67 C2.4201437,54.6039134 2.71443977,54.513618 3,54.4 C7.15,52.8 8,47.64 6.75,43.61 C6.25249801,41.6886444 5.06770991,40.016421 3.42,38.91 C2.65572417,38.4862683 1.77830916,38.3114844 0.91,38.41 C0.82,39.41 0.76,40.47 0.73,41.51 C0.86381431,41.5651845 0.994065881,41.6286404 1.12,41.7 C2.21102226,42.3408333 2.94808553,43.4464282 3.12,44.7 C3.38,46.48 3,49.41 1.24,50.28 Z" id="Shape" fill="#BAD532" fill-rule="nonzero"></path>
            <path d="M7.53,46.18 C7.76484778,48.1502188 7.38408968,50.1448323 6.44,51.89 C5.51665284,53.4675886 3.98209125,54.593175 2.2,55 C2.62615443,56.6533415 3.16064245,58.2768489 3.8,59.86 C6.70141822,58.4908442 9.05278953,56.1782512 10.47,53.3 C12.1823812,50.2619927 12.919012,46.7708513 12.58,43.3 C12.13,40 10.47,36.93 7.26,36 C5.30036272,35.5016969 3.26246527,35.3896125 1.26,35.67 C1.14,36.47 1.04,37.28 0.97,38.09 C1.20958382,38.0700116 1.45041618,38.0700116 1.69,38.09 C5.29,38.43 7.24,42.8 7.53,46.18 Z" id="Shape" fill="#00B04C" fill-rule="nonzero"></path>
            <path d="M4.4,35.24 C6.95,35.35 9.4,36.11 11.04,38.33 C12.6868855,40.9402837 13.3002427,44.0712583 12.76,47.11 C11.99,52.37 8.76,58.11 3.91,60.11 C4.38,61.25 4.91,62.38 5.47,63.47 C9.10755979,61.3279244 12.0727904,58.2102754 14.03,54.47 C15.8210522,51.4042722 16.9518749,47.9981796 17.35,44.47 C17.66,41.12 17.17,37.47 15.06,34.78 C11.85,30.78 6.56,30.78 1.91,31.92 C1.67,33.05 1.46,34.19 1.29,35.33 C2.32314412,35.2251066 3.36251894,35.1950282 4.4,35.24 Z" id="Shape" fill="#BAD532" fill-rule="nonzero"></path>
            <path d="M13.8,33.16 C18.8,37.23 18.3,45.03 16.18,50.6 C14.18,55.85 10.52,61.13 5.61,63.72 C6.06,64.57 6.55,65.4 7.07,66.21 C7.54911278,66.9497941 8.0664821,67.6640975 8.62,68.35 C11.4932586,66.8910386 14.1296631,65.0064476 16.44,62.76 C20.52,58.91 24,54 25.21,48.26 C26.08,44.08 25.9,39.17 24,35.31 C22.3177207,32.0318149 19.4109117,29.5489904 15.91,28.4 C12.7858519,27.4070606 9.4875773,27.0833663 6.23,27.45 C5.12940372,27.5362047 4.03440477,27.6830948 2.95,27.89 C2.71,28.72 2.48,29.55 2.27,30.38 C2.17,30.79 2.07,31.21 1.98,31.62 C6,30.64 10.51,30.49 13.8,33.16 Z" id="Shape" fill="#6FBE44" fill-rule="nonzero"></path>
            <path d="M33.69,1.56 C33.88,3.1 34.24,4.92 35.36,5.95 C37.260911,7.5240924 39.809826,8.07268757 42.19,7.42 C40.004575,4.92912208 37.2641967,2.98687901 34.19,1.75 L33.69,1.56 Z" id="Shape" fill="#6FBE44" fill-rule="nonzero"></path>
            <path d="M33.44,1.48 C32.5060036,1.16425121 31.545452,0.9333172 30.57,0.79 C30.3753921,1.96457557 30.2551529,3.15026843 30.21,4.34 C30.1434372,5.34031434 30.1702196,6.34465481 30.29,7.34 C30.5068395,8.49632295 30.9857621,9.58758227 31.69,10.53 C33.3104403,12.7246704 35.6804877,14.2477639 38.35,14.81 C41.2449013,15.4848608 44.2807182,15.200582 47,14 C45.6766696,11.7550601 44.1502796,9.63618982 42.44,7.67 C39.7160504,8.44545522 36.7858833,7.67939845 34.79,5.67 C34.0343559,4.39094898 33.5731831,2.9596053 33.44,1.48 Z" id="Shape" fill="#00B04C" fill-rule="nonzero"></path>
            <path d="M30.29,0.75 C28.4802858,0.509283099 26.6436997,0.559924259 24.85,0.9 C24.5436829,3.27750583 24.5942408,5.68743283 25,8.05 C25.5648921,11.6176744 27.232962,14.9188442 29.77,17.49 C32.6163985,20.2641789 36.3798454,21.9004601 40.35,22.09 C43.6136844,22.161813 46.8364955,21.3535196 49.68,19.75 L49.98,19.59 C49.59,18.77 49.19,17.95 48.76,17.16 C48.23,16.16 47.69,15.23 47.12,14.28 C43.7294417,15.808236 39.8630407,15.891268 36.41,14.51 C34.1358226,13.6265687 32.2285743,11.997828 31,9.89 C30.1296548,8.14222177 29.7824176,6.1803318 30,4.24 C30.0328898,3.0722453 30.1297014,1.90716773 30.29,0.75 Z" id="Shape" fill="#BAD532" fill-rule="nonzero"></path>
            <path d="M19,3.12 C19,3.51 19,3.91 18.93,4.3 C18.61436,9.48361528 19.7465428,14.6528782 22.2,19.23 C26.1742194,25.9049674 33.4334543,29.9242911 41.2,29.75 C45.2402563,29.7195002 49.2181736,28.7506959 52.82,26.92 C52.0904917,24.5085044 51.2052993,22.146878 50.17,19.85 C49.73,20.09 49.28,20.3 48.85,20.5 C45.3917742,22.2343038 41.4528918,22.7623041 37.66,22 C34.1590128,21.2403391 31.0001063,19.3625447 28.66,16.65 C26.5682518,14.1311594 25.2057059,11.0879096 24.72,7.85 C24.3490744,5.58515249 24.2952243,3.27969601 24.56,1 C22.6034184,1.39859959 20.7252617,2.11473128 19,3.12 Z" id="Shape" fill="#6FBE44" fill-rule="nonzero"></path>
            <path d="M18.71,3.29 C17.4652526,4.06572834 16.3084657,4.97439283 15.26,6 C15.0759327,12.7765446 17.2932071,19.4000321 21.52,24.7 C26.9403534,31.0264272 35.1249743,34.2830763 43.41,33.41 C46.9978693,33.0156593 50.4898643,32.0005444 53.73,30.41 C53.46,29.34 53.16,28.26 52.84,27.2 C50.5763915,28.3749428 48.1440918,29.1913318 45.63,29.62 C40.0476306,30.7496753 34.2446359,29.7623108 29.35,26.85 C26.2611195,24.9746567 23.6952791,22.3503454 21.89,19.22 C20.2779979,16.2300697 19.2593027,12.9566624 18.89,9.58 C18.6327207,7.4936295 18.5724548,5.38766913 18.71,3.29 Z" id="Shape" fill="#BAD532" fill-rule="nonzero"></path>
            <path d="M52.47,39.53 C52.3642453,41.6279331 53.4414579,43.6086143 55.26,44.66 C55.3494942,41.6003945 55.1721566,38.5388104 54.73,35.51 C53.2885719,36.3263153 52.4183242,37.874278 52.47,39.53 Z" id="Shape" fill="#BAD532" fill-rule="nonzero"></path>
            <path d="M50.78,35.59 C49.18,37.45 48.09,40.06 49.06,42.59 C50.196665,45.1099289 52.3954696,46.9935715 55.06,47.73 C55.1533333,46.8233333 55.2133333,45.9133333 55.24,45 C53.2716876,43.909882 52.1046934,41.7859526 52.24,39.54 C52.1950761,37.7603787 53.1327059,36.1003129 54.68,35.22 C54.57,34.45 54.43,33.68 54.28,32.92 C52.9343892,33.5471031 51.7404035,34.4579436 50.78,35.59 Z" id="Shape" fill="#6FBE44" fill-rule="nonzero"></path>
            <path d="M53.28,47.23 C51.22,46.23 49.13,44.41 48.6,41.94 C48.1929075,39.409425 49.0566859,36.8405256 50.91,35.07 C51.849821,34.0502597 52.9725634,33.2158348 54.22,32.61 C54.09,31.96 53.95,31.31 53.8,30.67 C52.0028086,31.5507042 50.1281978,32.2637257 48.2,32.8 C41.2604927,34.7332571 33.8353944,33.8001661 27.59,30.21 C21.1506639,26.2019199 16.7436377,19.6205179 15.49,12.14 C15.1373219,10.1902979 14.9732311,8.21116214 15,6.23 L14.9,6.32 C11.8559787,9.55585995 9.28394122,13.2051906 7.26,17.16 C5.47542063,20.4658878 4.04739411,23.9521498 3,27.56 L3.73,27.44 C6.27994482,27.0105563 8.87441882,26.9097348 11.45,27.14 C16.8,27.68 22.34,30.49 24.52,36.01 C25.9580509,39.7984943 26.3045094,43.9144215 25.52,47.89 C24.6876735,51.8773966 22.938128,55.6161515 20.41,58.81 C18.1254086,61.7667563 15.3923744,64.3479552 12.31,66.46 C11.1760758,67.2403484 9.98995845,67.9419953 8.76,68.56 C10.7393362,71.016974 13.2215939,73.0218745 16.04,74.44 C19.7676391,76.3185776 23.8668701,77.3433853 28.04,77.44 C29.3789717,77.4513465 30.7166673,77.3543635 32.04,77.15 C31.3376601,74.7581354 30.960935,72.2825132 30.92,69.79 C30.8438683,66.3017697 31.6816012,62.8543094 33.35,59.79 C35.0720447,56.798992 37.5700173,54.3286595 40.58,52.64 C44.72,50.33 50.27,49.14 54.65,51.15 C54.83,50.09 54.97,49.02 55.08,47.95 C54.4613421,47.7595652 53.859328,47.5187595 53.28,47.23 Z" id="Shape" fill="#A6D05E" fill-rule="nonzero"></path>
            <path d="M13.2,22 C14.9054957,21.3969493 16.4729742,20.4585023 17.81,19.24 C16.9536958,17.4847572 16.2833804,15.6447414 15.81,13.75 C13.61,17.37 9.74,20.08 6.15,19.14 C5.72,20.04 5.32,20.96 4.95,21.89 C7.58156723,22.9956833 10.5398886,23.0351275 13.2,22 Z" id="Shape" fill="#F5F092" fill-rule="nonzero"></path>
            <path d="M22.78,32.89 C23.11,32.76 23.43,32.61 23.73,32.46 C24.9970063,31.8135335 26.1436532,30.954394 27.12,29.92 C25.0709365,28.6289984 23.2270932,27.0379673 21.65,25.2 C20.2519293,26.5768245 18.6153566,27.6882032 16.82,28.48 C19.1510506,29.4162311 21.2030733,30.9345902 22.78,32.89 Z" id="Shape" fill="#F5F092" fill-rule="nonzero"></path>
            <path d="M53.28,47.23 C51.22,46.23 49.13,44.41 48.6,41.94 C48.1929075,39.409425 49.0566859,36.8405256 50.91,35.07 C51.849821,34.0502597 52.9725634,33.2158348 54.22,32.61 C54.09,31.96 53.95,31.31 53.8,30.67 C52.0028086,31.5507042 50.1281978,32.2637257 48.2,32.8 C46.039082,33.3865661 43.8177578,33.7221136 41.58,33.8 C41.46,34.08 41.35,34.36 41.25,34.64 C40.3822008,36.629551 39.8873192,38.7616095 39.79,40.93 C39.79,44.29 40.6,48.68 42.68,51.66 C46.47,50.09 50.94,49.53 54.61,51.21 C54.79,50.15 54.93,49.08 55.04,48.01 C54.4331501,47.7981628 53.8445416,47.5373022 53.28,47.23 Z" id="Shape" fill="#F5F092" fill-rule="nonzero"></path>
            <path d="M25.23,57.87 C23.7495042,57.8693708 22.2724882,58.0133882 20.82,58.3 L20.44,58.81 C18.1554086,61.7667563 15.4223744,64.3479552 12.34,66.46 C11.2060758,67.2403484 10.0199585,67.9419953 8.79,68.56 C9.01,68.83 9.23,69.08 9.45,69.34 C11.5382955,67.8807286 13.8159796,66.7132893 16.22,65.87 C18.4551031,64.9764892 20.8177971,64.4431954 23.22,64.29 C25.5100222,64.2476204 27.7958391,64.503094 30.02,65.05 C30.4266667,65.1433333 30.8566667,65.2533333 31.31,65.38 C31.6571636,63.5153669 32.294929,61.716801 33.2,60.05 C30.7630457,58.6789367 28.0255219,57.9301535 25.23,57.87 Z" id="Shape" fill="#F5F092" fill-rule="nonzero"></path>
            <path d="M30.19,73.33 C28.0968595,71.911549 25.6284694,71.1490985 23.1,71.14 C19.9909065,71.1159168 16.9272636,71.886991 14.2,73.38 C14.8052092,73.7643923 15.4293274,74.1181705 16.07,74.44 C19.7976391,76.3185776 23.8968701,77.3433853 28.07,77.44 C29.4089717,77.4513465 30.7466673,77.3543635 32.07,77.15 C31.8,76.15 31.57,75.22 31.39,74.24 C31.009138,73.9122238 30.6083733,73.6083107 30.19,73.33 Z" id="Shape" fill="#F5F092" fill-rule="nonzero"></path>
            <path d="M32.16,57.31 C32.56,58.02 33.02,58.74 33.51,59.45 C34.2819484,58.1788785 35.198008,57.0010876 36.24,55.94 C33.67,51.53 32.83,45.81 33,40.8 C33.1075206,38.1393522 33.7076737,35.5217351 34.77,33.08 C33.1856456,32.7152303 31.6389024,32.2029972 30.15,31.55 C28.5109125,34.440299 27.5852724,37.6800395 27.45,41 C27.25,46.72 29.38,52.51 32.16,57.31 Z" id="Shape" fill="#F5F092" fill-rule="nonzero"></path>
            <path d="M53.72,51.11 C47.23,48.81 39.33,52.22 35.08,57.6 C30.83,62.98 30.42,70.45 32.29,77.07 L33.09,76.93 C33.71,76.8 34.31,76.65 34.91,76.47 C34.1629146,73.5799351 33.8993526,70.5861407 34.13,67.61 C34.4410434,64.2124837 36.0752279,61.0734127 38.68,58.87 C42.51,55.7 48.92,53.87 53.32,56.67 C53.8379413,54.9632918 54.2520328,53.226779 54.56,51.47 C54.2933333,51.3433333 54.0133333,51.2233333 53.72,51.11 Z" id="Shape" fill="#BAD532" fill-rule="nonzero"></path>
            <path d="M38.65,59.28 C36.0658759,61.5837786 34.5073899,64.8231259 34.32,68.28 C34.2167725,71.0016472 34.4927521,73.7244208 35.14,76.37 C36.1942256,76.0377746 37.2291572,75.6471714 38.24,75.2 C37.4568702,73.372687 37.1340992,71.3811214 37.3,69.4 C37.5884428,66.7894417 38.8923447,64.3971588 40.93,62.74 C43.84,60.37 48.41,58.98 51.68,61.06 C52.2762826,59.7077223 52.7938143,58.3220729 53.23,56.91 C48.85,54.19 42.35,56 38.65,59.28 Z" id="Shape" fill="#6FBE44" fill-rule="nonzero"></path>
            <path d="M42.46,66 C44.46,63.6 47.46,63.3 50.14,64.2 C50.65,63.27 51.14,62.32 51.57,61.35 C48.35,59.35 43.73,60.74 40.97,63.16 C39.0416046,64.7678219 37.8149672,67.0632837 37.55,69.56 C37.411016,71.4689019 37.7227344,73.3837433 38.46,75.15 C38.9533333,74.93 39.4433333,74.7 39.93,74.46 C40.31,74.27 40.69,74.06 41.06,73.85 C40.2562828,71.1593281 40.7756883,68.246947 42.46,66 Z" id="Shape" fill="#BAD532" fill-rule="nonzero"></path>
            <path d="M42.63,66.22 C41.0504736,68.3753259 40.5490287,71.1369603 41.27,73.71 C44.3706647,71.8381933 46.9931682,69.270468 48.93,66.21 C49.3,65.63 49.65,65.04 49.99,64.44 C47.4,63.61 44.5,63.89 42.63,66.22 Z" id="Shape" fill="#00B04C" fill-rule="nonzero"></path>
            <path d="M53.73,30.38 C52.6257964,25.7806362 50.9458714,21.3389145 48.73,17.16 C45.3,10.77 41,4.37 34.21,1.75 C27.42,-0.87 20.08,1.11 14.86,6.32 C11.8159787,9.55585995 9.24394122,13.2051906 7.22,17.16 C5.02141054,21.3413222 3.35831775,25.7829558 2.27,30.38 C-0.73,42.29 0.39,55.87 7.07,66.21 C9.26976207,69.7173947 12.3803663,72.5618695 16.07,74.44 C19.7976391,76.3185776 23.8968701,77.3433853 28.07,77.44 C29.7487445,77.4525042 31.4242944,77.2916514 33.07,76.96 C35.4466561,76.4244043 37.7452295,75.5876429 39.91,74.47 C43.5996337,72.5918695 46.7102379,69.7473947 48.91,66.24 C55.61,55.87 56.7,42.29 53.73,30.38 Z M42.34,57.44 C40.5489877,60.2949485 38.0105758,62.6051108 35,64.12 C33.2407229,65.0237694 31.3718636,65.696021 29.44,66.12 C28.0946735,66.3959099 26.7231296,66.5233395 25.35,66.5 C21.9669313,66.4368407 18.6414449,65.6131591 15.62,64.09 C12.6204389,62.5706317 10.0928252,60.2608562 8.31,57.41 C2.91,49 2,38 4.44,28.34 C5.32171267,24.6044527 6.6653944,20.9933081 8.44,17.59 C10.0853899,14.381971 12.1760799,11.4226851 14.65,8.8 C18.89,4.56 24.82,2.95 30.36,5.08 C35.9,7.21 39.36,12.41 42.2,17.59 C43.9746056,20.9933081 45.3182873,24.6044527 46.2,28.34 C48.65,38 47.77,49 42.34,57.44 Z" id="Shape" fill="#4A753A" fill-rule="nonzero" opacity="0.2" style="mix-blend-mode: multiply;"></path>
            <path d="M28.05,77.41 C29.7287445,77.4225042 31.4042944,77.2616514 33.05,76.93 C35.4266561,76.3944043 37.7252295,75.5576429 39.89,74.44 C43.5796337,72.5618695 46.6902379,69.7173947 48.89,66.21 C55.57,55.87 56.66,42.29 53.69,30.38 C52.5857964,25.7806362 50.9058714,21.3389145 48.69,17.16 C45.3,10.77 41,4.37 34.21,1.75 C27.42,-0.87 20.08,1.11 14.86,6.32 C11.8159787,9.55585995 9.24394122,13.2051906 7.22,17.16 C5.02141054,21.3413222 3.35831775,25.7829558 2.27,30.38 C-0.73,42.29 0.39,55.87 7.07,66.21 C9.26976207,69.7173947 12.3803663,72.5618695 16.07,74.44 C19.7939883,76.305306 23.8859501,77.3197573 28.05,77.41 Z" id="Shape"></path>
        </g>
    </g>
</svg>