<?xml version="1.0" encoding="UTF-8"?>
<svg width="56px" height="78px" viewBox="0 0 56 78" version="1.1" xmlns="http://www.w3.org/2000/svg" xmlns:xlink="http://www.w3.org/1999/xlink">
    <!-- Generator: Sketch 48.2 (47327) - http://www.bohemiancoding.com/sketch -->
    <title>6</title>
    <desc>Created with Sketch.</desc>
    <defs></defs>
    <g id="Page-1" stroke="none" stroke-width="1" fill="none" fill-rule="evenodd">
        <g id="6" fill-rule="nonzero">
            <path d="M28.05,77.41 C29.7287445,77.4225042 31.4042944,77.2616514 33.05,76.93 C35.4229773,76.3927577 37.7180382,75.5560517 39.88,74.44 C43.5716541,72.5647877 46.6829643,69.7196674 48.88,66.21 C55.56,55.88 56.65,42.3 53.68,30.4 C52.5741695,25.8011371 50.8943202,21.3596156 48.68,17.18 C45.29,10.8 41,4.4 34.21,1.78 C27.42,-0.84 20.08,1.14 14.87,6.36 C11.8262783,9.58870214 9.25417351,13.2313951 7.23,17.18 C5.03296023,21.3620162 3.36994219,25.8034503 2.28,30.4 C-0.72,42.3 0.4,55.88 7.08,66.21 C9.27703571,69.7196674 12.3883459,72.5647877 16.08,74.44 C19.7996704,76.3073401 23.8888518,77.321949 28.05,77.41 Z" id="Shape" fill="#5E2D91"></path>
            <path d="M8.19,58.74 C8.83368139,58.4390963 9.31010282,57.8673906 9.49,57.18 C9.48974772,56.3549946 9.14975622,55.5665037 8.55,55 C6.85,53 4.07,51.38 1.55,52 C2.04340156,54.6194751 2.77992137,57.187251 3.75,59.67 C5.28688494,59.7674417 6.82140799,59.4460213 8.19,58.74 Z" id="Shape" fill="#8955A2"></path>
            <path d="M22.16,54.49 C21.5591773,52.7440059 20.106409,51.4270808 18.31,51 C16.31,50.56 14.57,51.59 12.62,51.85 C10.67,52.11 9.36,51.36 7.84,50.3 C6.07,49.07 3.84,48.01 1.7,48.36 C1.4730932,48.3924321 1.24907492,48.4425855 1.03,48.51 C1.15,49.58 1.31,50.65 1.5,51.71 C4.38,51 7.24,52.86 9.07,55.15 C9.60205306,55.6752178 9.84422783,56.427084 9.71873665,57.1640957 C9.59324548,57.9011074 9.11589037,58.530459 8.44,58.85 C7.05094868,59.6541728 5.46417923,60.0525975 3.86,60 L3.94,60.21 L4.45,60.41 C7.38933611,61.5033638 10.5163101,62.0029999 13.65,61.88 C16.04,61.77 18.8,61.32 20.65,59.56 C22.0942043,58.3059953 22.6827668,56.3298285 22.16,54.49 Z" id="Shape" fill="#6A52A2"></path>
            <path d="M49.86,19.35 C49.7214344,20.7959211 49.4332248,22.2235641 49,23.61 C48.3173657,26.0602126 47.2106265,28.3718422 45.73,30.44 C44.37,32.27 42.54,33.98 40.29,34.36 C37.77,34.78 35.29,33.43 33.6,31.54 C32.6641373,30.5946456 32.0635422,29.3688696 31.89,28.05 C31.8111632,26.8238137 32.048762,25.5979415 32.58,24.49 C33.74,21.89 35.58,19.74 36.8,17.14 C37.87,14.76 38.06,11.44 35.8,9.74 C33.8,8.23 31.03,8.29 28.67,7.89 C26.31,7.49 23.82,6.59 23,4 C22.7365915,3.1907438 22.6247198,2.33984077 22.67,1.49 C20.6640892,2.15194833 18.7818758,3.1420534 17.1,4.42 C17.0587584,4.92448142 17.1234771,5.43201203 17.29,5.91 C17.8045486,7.19739813 18.856945,8.19498227 20.17,8.64 C22.56,9.58 25.32,9.58 27.54,10.99 C30.1998765,12.67317 31.5694741,15.8042443 31,18.9 C30.3505655,22.1776948 27.6831293,24.6761532 24.37,25.11 C21,25.59 17.37,24.78 14.28,26.72 C12.7145319,27.5847677 11.663926,29.1532255 11.46,30.93 C11.408216,32.4380507 11.9628862,33.9039647 13,35 C14.72,37 17.08,38.72 17.22,41.7 C17.32,44.08 16.83,47.08 14.22,47.7 C11.92,48.23 9.43,47.21 7.36,46.22 C5.55069365,45.3926051 3.58929036,44.9499273 1.6,44.92 C1.32,44.92 1.03,44.92 0.74,44.92 C0.74,46.07 0.86,47.21 0.98,48.35 C1.93077339,48.1300053 2.91922661,48.1300053 3.87,48.35 C5.19891868,48.6581275 6.45765965,49.214552 7.58,49.99 C8.76,50.79 9.93,51.74 11.4,51.81 C13.92,51.92 16.18,50.17 18.73,51.02 C20.6307731,51.5659787 22.0974212,53.0821499 22.58,55 C23.06,57.87 20.94,60.14 18.58,61.09 C16.157492,61.9745462 13.5630374,62.2860177 11,62 C8.63283064,61.8203265 6.30476581,61.2947431 4.09,60.44 C4.39,61.17 4.72,61.89 5.09,62.6 C8.73,64.37 12.18,66.76 16.26,66.95 C19.4025585,67.0445785 22.5122419,66.2878889 25.26,64.76 C28.26,63.1 30.57,60.03 29.87,56.26 C29.17,52.49 25.61,50.49 23.72,47.36 C22.08,44.65 21.07,40.6 23.87,38.3 C26.15,36.42 29.87,36.91 32.3,38.1 C33.94,38.9 35.6,39.92 37.43,40.1 C39.4068081,40.2351698 41.3778246,39.7642189 43.08,38.75 C47.72,36.16 51.08,30.93 52.3,25.41 C51.614112,23.3409923 50.7991801,21.3170222 49.86,19.35 Z" id="Shape" fill="#8955A2"></path>
            <path d="M53.87,33 C52.9691805,36.1460056 50.8584602,38.8068796 48,40.4 C46.65,41.13 45.09,41.17 43.77,41.93 C42.8432733,42.3753429 42.3158203,43.3734464 42.47,44.39 C42.6325358,45.3020339 43.0523562,46.1486139 43.68,46.83 C46.68,50.01 50.62,46.04 52.18,43.22 C53.4270496,40.6587964 54.2542691,37.9137781 54.63,35.09 C54.47,34.09 54.29,33.09 54.08,32.09 C54,32.42 54,32.72 53.87,33 Z" id="Shape" fill="#8955A2"></path>
            <path d="M52,44 C50.54,46.25 47.84,49.13 45,48 C42.66,47.11 40.78,43.17 43.67,41.68 C45.03,40.98 46.57,40.91 47.9,40.14 C49.5314038,39.2536067 50.9348762,38.0007508 52,36.48 C53.0377808,34.9352375 53.7207825,33.1799233 54,31.34 C53.93,31.02 53.85,30.71 53.78,30.4 C53.41,28.92 52.98,27.4 52.51,25.96 C51.4355789,30.7797132 48.7078247,35.0712383 44.8,38.09 C42.02,40.09 38.62,41.17 35.37,39.86 C33.8407666,39.0706204 32.2644615,38.3759774 30.65,37.78 C28.9508629,37.2248468 27.1191371,37.2248468 25.42,37.78 C23.6304599,38.4651231 22.4410497,40.1739091 22.42,42.09 C22.459095,44.1376035 23.1335257,46.1224567 24.35,47.77 C26.27,50.51 29.49,52.48 30.16,56.06 C31.49,63.26 23.89,66.53 18.47,67.12 C15.06,67.5 12,66.37 8.97,64.82 C7.75,64.18 6.53,63.51 5.29,62.91 C5.85142691,64.0258201 6.47231937,65.1107128 7.15,66.16 C7.81757732,67.2116161 8.55946767,68.2141706 9.37,69.16 C11.1043763,70.1588278 12.9640601,70.9222061 14.9,71.43 C18.9332741,72.5118365 23.2191639,72.1328363 27,70.36 C30.2012387,68.909716 32.7119448,66.2698879 34,63 C34.5912668,61.3134326 34.7695833,59.5096932 34.52,57.74 C34.2550488,56.0924405 33.7425942,54.4943913 33,53 C32.3578487,51.7152244 31.829172,50.3768024 31.42,49 C30.9901464,47.7698019 30.9901464,46.4301981 31.42,45.2 C31.8616827,44.1562509 32.8674359,43.4623592 34,43.42 C35.2569652,43.5849332 36.4043502,44.2211778 37.21,45.2 C39.54,47.57 41.21,50.66 44.42,51.86 C51.34,54.45 54.72,45.01 55.21,39.15 C55.13,38.06 55.01,36.97 54.86,35.89 C54.4474029,38.7546487 53.4756424,41.5102353 52,44 Z" id="Shape" fill="#6A52A2"></path>
            <path d="M25.18,77.2 L25.51,77.1 C29.94,75.64 34.51,73.69 37.1,69.34 C38.0091573,67.8490272 38.6520708,66.2112897 39,64.5 C39.25,63.16 39.36,61.81 39.63,60.5 C40.09,58.22 41.21,55.81 43.79,56.06 C44.7180919,56.2475529 45.6306888,56.504952 46.52,56.83 C47.433479,57.029388 48.3851568,56.9599225 49.26,56.63 C50.8938892,56.1506248 52.3890176,55.2864679 53.62,54.11 C53.81,53.92 54,53.71 54.18,53.51 C55.0815777,49.3709158 55.4346077,45.1311933 55.23,40.9 C54.8865774,43.954041 53.7753727,46.8713834 52,49.38 C50.38,51.47 48,53 45.42,52.49 C43.8445419,52.1310039 42.3920816,51.3616485 41.21,50.26 C40.1221084,49.2073571 39.1189938,48.0704939 38.21,46.86 C37.21,45.7 36.07,44.23 34.6,43.86 C33.8359125,43.6727022 33.0281052,43.8400478 32.4013093,44.3154812 C31.7745133,44.7909147 31.3956064,45.5237084 31.37,46.31 C31.11,49.31 33.01,51.97 34.04,54.61 C35.3007206,57.6602396 35.2391582,61.096871 33.87,64.1 C32.4246172,66.9630691 30.0575003,69.2562135 27.15,70.61 C23.7274531,72.2400831 19.8755654,72.7408285 16.15,72.04 C13.9580876,71.6106558 11.8418129,70.859176 9.87,69.81 C11.6458566,71.7251542 13.7530105,73.3038258 16.09,74.47 C18.94701,75.8793961 22.0192158,76.8020718 25.18,77.2 Z" id="Shape" fill="#8955A2"></path>
            <path d="M40.63,67.33 C41.49,65 42.63,62.49 44.93,61.45 C46.93,60.54 48.7,61.88 49.46,63.91 C49.57,64.22 49.67,64.54 49.75,64.91 C51.7144188,61.5021693 53.1634628,57.8222713 54.05,53.99 C52.9581622,55.1510124 51.6228984,56.0559865 50.14,56.64 C48.8528721,57.270971 47.3767195,57.3993321 46,57 C44.73,56.57 43.36,56 42,56.64 C40,57.64 39.73,60.45 39.45,62.5 C39.1489857,65.5469352 38.0447324,68.4594034 36.25,70.94 C34.2517005,73.3467938 31.6444611,75.173588 28.7,76.23 C27.77,76.61 26.82,76.97 25.86,77.3 C26.5666667,77.3666667 27.2766667,77.4066667 27.99,77.42 C29.6687445,77.4325042 31.3442944,77.2716514 32.99,76.94 C34.5069747,76.6165603 35.9901712,76.1511782 37.42,75.55 C38.6858327,72.8905649 39.7586045,70.1434672 40.63,67.33 Z" id="Shape" fill="#6A52A2"></path>
            <path d="M47.5,61.73 C45.02,60.42 42.59,63.45 41.64,65.55 C40.46,68.19 39.76,71.03 38.64,73.7 C38.42,74.22 38.19,74.79 37.91,75.36 C38.57,75.07 39.24,74.76 39.91,74.44 C40.58,74.12 41.09,73.82 41.66,73.44 C41.8141687,72.6160767 42.0144841,71.8014609 42.26,71 C42.6272822,69.2746106 43.4332224,67.6730627 44.6,66.35 C45.44,65.58 47.12,65.09 47.87,66.27 C48.0606721,66.5753606 48.1897632,66.915074 48.25,67.27 C48.48,66.95 48.71,66.62 48.92,66.27 C49.13,65.92 49.38,65.54 49.6,65.16 C49.4590473,63.7564642 48.6859513,62.4937407 47.5,61.73 Z" id="Shape" fill="#8955A2"></path>
            <path d="M46.6,13.43 L45.85,12.25 C45.8010373,12.5874069 45.7308988,12.9213997 45.64,13.25 C45.42,14 44.51,16.76 43.29,15.81 C42.07,14.86 42.29,12.89 42.62,11.48 C42.8,10.61 43.08,9.69 43.29,8.76 C40.9287851,5.67155238 37.7976038,3.25764602 34.21,1.76 C32.3660521,1.05135449 30.4147334,0.662443487 28.44,0.61 C28.6158307,1.77607594 29.0534409,2.88719554 29.72,3.86 C31.98,6.93 36.35,4.09 39.18,5.79 C42.01,7.49 42.26,12.31 41.18,15.27 C40.55,16.94 39.58,18.46 38.97,20.14 C38.36,21.82 38.09,24 39.74,25 C41.03,25.79 42.59,25 43.62,24.09 C44.8968032,22.9567981 45.8027988,21.46539 46.22,19.81 C46.798612,17.7345017 46.9281572,15.5595065 46.6,13.43 Z" id="Shape" fill="#8955A2"></path>
            <path d="M48.77,17.18 C48.19,16.13 47.6,15.07 47,14 C47.0869014,14.9780735 47.0869014,15.9619265 47,16.94 C46.81,19.55 46,22.35 44,24.09 C42.7,25.26 40.3,26.54 38.94,24.73 C37.23,22.44 38.76,19.73 39.83,17.49 C40.8156533,15.725867 41.3610881,13.7499523 41.42,11.73 C41.42,9.73 40.93,7.33 39.21,6.19 C36.83,4.62 33.78,6.19 31.21,5.31 C29.31,4.65 28.45,2.62 28.1,0.63 C26.3370373,0.623370404 24.58343,0.886411487 22.9,1.41 C22.6618788,3.4873394 23.6534959,5.5135177 25.44,6.6 C29.02,8.68 36.17,6.73 37.61,12.03 C38.34,14.68 37.28,17.03 35.93,19.27 C34.58,21.51 32.5,24 32.22,26.84 C31.9,30.02 34.58,32.75 37.22,33.76 C39.86,34.77 42.22,33.85 44.09,31.98 C46.0936666,29.8814444 47.5797671,27.344116 48.43,24.57 C49.0827814,22.7158557 49.4797693,20.7813808 49.61,18.82 C49.34,18.26 49.06,17.72 48.77,17.18 Z" id="Shape" fill="#6A52A2"></path>
            <path d="M21.88,13.92 C20.4888529,13.3035514 18.9909774,12.9638971 17.47,12.92 C16.2462426,12.8963571 15.0758472,12.4146395 14.19,11.57 C13.4121829,10.5841231 13.069196,9.32409756 13.24,8.08 C12.31587,9.17265621 11.4512835,10.314311 10.65,11.5 C11.52,12.37 13.19,12.64 14.19,13.14 C14.9088432,13.3968031 15.4353067,14.0186405 15.57,14.77 C15.5972048,15.3371833 15.3236189,15.8767555 14.85,16.19 C13.4335576,17.0736783 11.6742887,17.2081447 10.14,16.55 C9.41460449,16.2702748 8.79782872,15.7656401 8.38,15.11 C7.98,15.79 7.6,16.46 7.23,17.11 C5.32721954,20.716375 3.8409924,24.527558 2.8,28.47 C3.85,30.3 5.21,32.2 3.69,33.89 C3.15841116,34.5609323 2.20912741,34.728453 1.48,34.28 C1.21,35.82 1.02,37.39 0.89,38.96 C1.46,39.43 2.04,39.89 2.64,40.32 C3.85208213,41.3119937 5.317101,41.9457962 6.87,42.15 C8.53050087,42.2490898 9.97145348,41.0158819 10.13,39.36 C10.24,37.68 9.07,36.19 8.08,34.99 C7.1128731,33.9672978 6.24871081,32.8519255 5.5,31.66 C4.09462565,28.7262904 4.09462565,25.3137096 5.5,22.38 C6.25485242,20.8182186 7.56269771,19.5923363 9.17,18.94 C10.6627265,18.4847402 12.2572735,18.4847402 13.75,18.94 C16.43,19.6 19.51,21.2 22.03,19.14 C23.73,17.67 24,15.11 21.88,13.92 Z" id="Shape" fill="#8955A2"></path>
            <path d="M30.4,15.07 C29.8198635,13.4182739 28.6809151,12.0211167 27.18,11.12 C25.9736791,10.4874209 24.6739194,10.051917 23.33,9.83 C21.18,9.33 18.21,8.83 17.15,6.46 C16.8886477,5.89684466 16.7619718,5.28058353 16.78,4.66 C16.1080883,5.18578267 15.4701451,5.75358546 14.87,6.36 C14.42,6.8 14,7.26 13.58,7.73 C13.2829946,8.99602621 13.5612217,10.328588 14.34,11.37 C15.34,12.5 16.99,12.61 18.34,12.75 C19.6806162,12.754651 20.9982281,13.098675 22.17,13.75 C23.6500615,14.7054952 24.0753789,16.6798634 23.12,18.16 C21.9182713,19.9403984 19.7408491,20.7922601 17.65,20.3 C14.2,19.57 10.48,17.49 7.34,20.3 C4.52,22.84 3.85,27.67 5.51,31.13 C6.74,33.69 9.73,35.37 10.26,38.33 C10.4932458,39.5156269 10.0835274,40.7363372 9.18220851,41.5411595 C8.28088965,42.3459818 7.02176589,42.6154449 5.87,42.25 C3.99127537,41.6231326 2.26910475,40.6000609 0.82,39.25 C0.7,41 0.66,42.77 0.71,44.53 C1.32,44.53 1.94,44.53 2.54,44.62 C3.55297551,44.696325 4.55702588,44.8636667 5.54,45.12 C6.40264967,45.3931565 7.24477507,45.7273332 8.06,46.12 C10.06,47.01 13.37,48.38 15.36,46.71 C16.4026641,45.6478421 16.9506549,44.1962108 16.87,42.71 C16.9783233,41.0791774 16.5033803,39.4629535 15.53,38.15 C14.02,36.15 11.47,34.6 11.13,31.85 C10.75,28.68 13.33,26.39 15.95,25.55 C19.24,24.55 22.83,25.55 26.07,24.32 C29.7213082,22.8551592 31.6138268,18.81225 30.4,15.07 Z" id="Shape" fill="#6A52A2"></path>
            <path d="M53.72,30.37 C52.6157964,25.7706362 50.9358714,21.3289145 48.72,17.15 C45.29,10.76 41,4.37 34.21,1.75 C27.42,-0.87 20.08,1.11 14.87,6.32 C11.8261287,9.55228141 9.25405757,13.1982932 7.23,17.15 C5.03141054,21.3313222 3.36831775,25.7729558 2.28,30.37 C-0.72,42.27 0.4,55.84 7.08,66.18 C9.27976207,69.6873947 12.3903663,72.5318695 16.08,74.41 C19.8063415,76.2920662 23.9063734,77.3170742 28.08,77.41 C29.7586056,77.4307821 31.4346717,77.2732319 33.08,76.94 C35.4529773,76.4027577 37.7480382,75.5660517 39.91,74.45 C43.5996337,72.5718695 46.7102379,69.7273947 48.91,66.22 C55.6,55.84 56.69,42.27 53.72,30.37 Z M42.33,57.37 C40.5455982,60.2393749 38.0109623,62.5665372 35,64.1 C33.2390076,64.9998162 31.3706676,65.671881 29.44,66.1 C28.0943704,66.3747789 26.7233105,66.5055156 25.35,66.49 C21.9714355,66.4169297 18.6513608,65.5937425 15.63,64.08 C12.6320628,62.5537007 10.1053361,60.2412791 8.32,57.39 C2.92,49 2,38 4.45,28.33 C5.33040562,24.5972513 6.67416561,20.9892557 8.45,17.59 C10.0952719,14.3843771 12.1822926,11.4255205 14.65,8.8 C18.89,4.56 24.82,2.95 30.36,5.08 C35.9,7.21 39.36,12.4 42.19,17.59 C43.9658344,20.9892557 45.3095944,24.5972513 46.19,28.33 C48.64,38 47.76,49 42.33,57.41 L42.33,57.37 Z" id="Shape" fill="#B67493" opacity="0.3" style="mix-blend-mode: multiply;"></path>
        </g>
    </g>
</svg>