<?xml version="1.0" encoding="UTF-8"?>
<svg width="56px" height="78px" viewBox="0 0 56 78" version="1.1" xmlns="http://www.w3.org/2000/svg" xmlns:xlink="http://www.w3.org/1999/xlink">
    <!-- Generator: Sketch 48.2 (47327) - http://www.bohemiancoding.com/sketch -->
    <title>7</title>
    <desc>Created with Sketch.</desc>
    <defs></defs>
    <g id="Page-1" stroke="none" stroke-width="1" fill="none" fill-rule="evenodd">
        <g id="7">
            <path d="M28.05,77.41 C29.7287445,77.4225042 31.4042944,77.2616514 33.05,76.93 C35.4266561,76.3944043 37.7252295,75.5576429 39.89,74.44 C43.5796337,72.5618695 46.6902379,69.7173947 48.89,66.21 C55.57,55.87 56.66,42.29 53.69,30.38 C52.5857964,25.7806362 50.9058714,21.3389145 48.69,17.16 C45.3,10.77 41,4.37 34.21,1.75 C27.42,-0.87 20.08,1.11 14.86,6.32 C11.8159787,9.55585995 9.24394122,13.2051906 7.22,17.16 C5.02141054,21.3413222 3.35831775,25.7829558 2.27,30.38 C-0.73,42.29 0.39,55.87 7.07,66.21 C9.26976207,69.7173947 12.3803663,72.5618695 16.07,74.44 C19.7939883,76.305306 23.8859501,77.3197573 28.05,77.41 Z" id="Shape" fill="#005822" fill-rule="nonzero"></path>
            <path d="M1.92,32.56 C3.05,37.41 4.16,42.25 5.22,47.12 C6.92,55.03 8.74,62.92 10.81,70.73 C10.8715777,70.8015685 10.9384315,70.8684223 11.01,70.93 C10.93,69.47 10.87,68 10.83,66.53 C10.58,56.64 11.1,46.76 11.77,36.9 C12.37,27.9 12.39,18.8 12.77,9.75 C12.71,9.44 12.66,9.13 12.61,8.82 C10.5612603,11.4328863 8.75069202,14.2240397 7.2,17.16 C5.00141054,21.3413222 3.33831775,25.7829558 2.25,30.38 C2.1,31 1.96,31.62 1.83,32.25 C1.87,32.35 1.89,32.46 1.92,32.56 Z" id="Shape" fill="#C0DA69" fill-rule="nonzero"></path>
            <path d="M10,68.5 C7.51,58.72 5.43,48.83 3.22,39 C2.75,36.93 2.22,34.88 1.73,32.82 C-0.52,44.11 0.84,56.58 7.07,66.23 C8.05445267,67.7617344 9.2047307,69.1802989 10.5,70.46 C10.33,69.79 10.15,69.15 10,68.5 Z" id="Shape" fill="#76C370" fill-rule="nonzero"></path>
            <path d="M29.54,76.86 C27.1777081,70.7568494 25.2985925,64.4775271 23.92,58.08 C21.61,48.31 19.35,38.51 17,28.75 C15.81,23.75 14.61,18.85 13.59,13.87 C13.38,12.87 13.16,11.81 12.96,10.78 C12.8,14.34 12.7,17.92 12.59,21.49 C12.44,26.61 12.33,31.75 11.99,36.87 C11.66,41.76 11.36,46.66 11.17,51.57 C10.93,58.09 10.88,64.65 11.25,71.17 C12.6897959,72.4736908 14.3014554,73.5739259 16.04,74.44 C19.7676391,76.3185776 23.8668701,77.3433853 28.04,77.44 C28.54,77.44 29.04,77.44 29.54,77.44 C29.55,77.2 29.55,77 29.54,76.86 Z" id="Shape" fill="#76C370" fill-rule="nonzero"></path>
            <path d="M28.93,68.69 C28.41,64.07 27.83,59.47 27.66,54.82 C27.28,44.73 27.18,34.64 27.13,24.54 C27.13,19.44 27.03,14.34 27.13,9.24 C27.1205154,6.81939359 27.2708423,4.4008013 27.58,2 C27.64,1.55 27.72,1.08 27.79,0.62 C22.8996714,0.77055747 18.2609229,2.82265657 14.86,6.34 C14.25,6.95 13.67,7.6 13.11,8.27 C13.11,8.74 13.11,9.21 13.04,9.68 C13.04,9.68 13.04,9.68 13.04,9.74 C13.82,13.38 14.54,17.03 15.38,20.66 C17.71,30.6 19.94,40.56 22.38,50.47 C24.52,59.09 26.23,67.85 29.5,76.09 C29.43,73.6 29.2,71.14 28.93,68.69 Z" id="Shape" fill="#C0DA69" fill-rule="nonzero"></path>
            <path d="M28.39,0.68 C28.3846638,1.40770018 28.5382385,2.1277946 28.84,2.79 C29.12,3.64 29.42,4.48 29.74,5.32 C30.6,7.54 31.27,9.82 32,12.09 C33.53,16.87 35.15,21.61 36.77,26.34 C38.39,31.07 39.85,35.88 41.31,40.68 C43.85,49.07 46.31,57.48 49.21,65.76 C49.42,65.42 49.62,65.08 49.82,64.76 C49.82,64.13 49.72,63.5 49.68,62.87 C48.46,46 48.12,29 45.83,12.18 C42.83,7.66 39.22,3.68 34.21,1.75 C32.3491019,1.02916337 30.3753555,0.643216388 28.38,0.61 C28.3940241,0.630513899 28.3977192,0.656379923 28.39,0.68 Z" id="Shape" fill="#C0DA69" fill-rule="nonzero"></path>
            <path d="M8,33.85 C8.48,29.34 9,24.85 9.68,20.39 C10.11,17.39 10.52,14.39 10.75,11.39 C9.47710777,13.2611296 8.30219389,15.1970673 7.23,17.19 C5.62372523,20.1999902 4.32065145,23.3622053 3.34,26.63 C4.6,31.16 5.94,35.63 7.34,40.18 C7.54,38.06 7.76,35.95 8,33.85 Z" id="Shape" fill="#FFF161" fill-rule="nonzero"></path>
            <path d="M23.52,26.57 C23.83,21.47 24.04,16.39 24.22,11.29 C24.31,8.86 24.42,6.44 24.71,4.02 C24.84,2.97 24.97,1.92 25.06,0.86 C21.4039936,1.54971396 18.0271273,3.28678512 15.34,5.86 C15.58,7.19 15.83,8.52 16.11,9.86 C17.11,14.72 18.31,19.54 19.51,24.35 C20.71,29.16 21.76,33.8 22.89,38.52 C23.07,34.5266667 23.28,30.5433333 23.52,26.57 Z" id="Shape" fill="#FFF161" fill-rule="nonzero"></path>
            <path d="M44.3,30.36 C44.05,25.26 43.62,20.17 43.49,15.06 C43.4366667,13.0133333 43.3833333,10.9633333 43.33,8.91 L43.33,8.75 C40.9584116,5.65531956 37.8126372,3.24079974 34.21,1.75 C33.2383586,1.37713303 32.2339895,1.09590967 31.21,0.91 C32.44,5.48 33.86,10 35.38,14.48 C36.98,19.21 38.72,23.89 40.38,28.6 C41.88,32.94 43.38,37.3 44.76,41.67 C44.62,37.9 44.49,34.13 44.3,30.36 Z" id="Shape" fill="#FFF161" fill-rule="nonzero"></path>
            <path d="M50.06,64.34 C55.72,54.26 56.53,41.58 53.73,30.34 C52.6257964,25.7406362 50.9458714,21.2989145 48.73,17.12 C47.91,15.62 47.05,14.12 46.13,12.67 C48.45,29.82 48.75,47.13 50.06,64.34 Z" id="Shape" fill="#76C370" fill-rule="nonzero"></path>
            <path d="M44.38,51.78 C41.44,42.18 38.59,32.57 35.38,23.08 C33.76,18.33 32.16,13.56 30.67,8.76 C30.15,7.14 29.52,5.6 29,4 C28.66,3.06 28,1.71 28.18,0.67 C28.1688687,0.644494954 28.1688687,0.615505046 28.18,0.59 L28.08,0.59 C28.08,0.9 27.98,1.22 27.94,1.53 C27.6165878,3.89965608 27.4528852,6.28837774 27.45,8.68 C27.32,13.79 27.39,18.89 27.45,24 C27.5,34.28 27.59,44.55 27.98,54.82 C28.16,59.57 28.77,64.25 29.28,68.97 C29.56,71.57 29.8,74.18 29.86,76.8 C29.94,76.98 30.01,77.15 30.08,77.33 C31.1048138,77.2629158 32.1238508,77.1259305 33.13,76.92 C35.5066561,76.3844043 37.8052295,75.5476429 39.97,74.43 C43.6596337,72.5518695 46.7702379,69.7073947 48.97,66.2 C49.0003917,66.1555629 49.0271453,66.108744 49.05,66.06 C47.37,61.34 45.85,56.57 44.38,51.78 Z" id="Shape" fill="#76C370" fill-rule="nonzero"></path>
            <path d="M0.79,40.19 C0.28,49.31 2.18,58.63 7.07,66.19 C7.35,66.62 7.64,67.03 7.94,67.44 C5.34,58.44 2.5,49.43 0.79,40.19 Z" id="Shape" fill="#4BC0AF" fill-rule="nonzero"></path>
            <path d="M23.36,68.32 C20.71,60.05 18.08,51.77 16.11,43.32 C15.46,53.42 14.91,63.53 14.57,73.64 C15.06,73.94 15.57,74.21 16.07,74.47 C19.2630121,76.0607471 22.7263739,77.0376797 26.28,77.35 C25.3,74.32 24.32,71.33 23.36,68.32 Z" id="Shape" fill="#4BC0AF" fill-rule="nonzero"></path>
            <path d="M53.29,56.76 C55.8042051,48.1659193 55.9561998,39.0531474 53.73,30.38 C53.102094,27.846015 52.324054,25.3516122 51.4,22.91 C51.73,34.2 52.52,45.48 53.29,56.76 Z" id="Shape" fill="#4BC0AF" fill-rule="nonzero"></path>
            <path d="M45.85,65 C42.13,55.4666667 38.53,45.8966667 35.05,36.29 C33.69,32.51 32.3,28.75 31,25 C31,25.34 31,25.69 31,26 C31.2,31 31.51,35.9 31.74,40.86 C31.99,46.02 32.15,51.19 32.33,56.35 C32.55,63.2 32.79,70.06 33.24,76.9 C35.563381,76.3605861 37.8106362,75.5342411 39.93,74.44 C42.7664715,73.0102894 45.2627697,70.988015 47.25,68.51 C46.78,67.33 46.31,66.15 45.85,65 Z" id="Shape" fill="#4BC0AF" fill-rule="nonzero"></path>
            <path d="M20.19,5.94 C18.42,5.94 17.61,9.21 19.79,9.21 C21.56,9.21 22.37,5.94 20.19,5.94 Z" id="Shape" fill="#4BC0AF" fill-rule="nonzero"></path>
            <path d="M21.66,12.5 C21.4433951,12.2869441 21.1416763,12.1839182 20.84,12.22 C20.4854538,12.2637249 20.1586871,12.4342118 19.92,12.7 C19.6629315,12.9761964 19.4986056,13.325826 19.45,13.7 C19.3974154,14.0159666 19.4891501,14.3388728 19.7,14.58 C19.9166049,14.7930559 20.2183237,14.8960818 20.52,14.86 C20.8723789,14.8184388 21.196722,14.6473567 21.43,14.38 C21.6979506,14.1101637 21.8670643,13.7578435 21.91,13.38 C21.9570383,13.0643676 21.8659563,12.7437589 21.66,12.5 Z" id="Shape" fill="#4BC0AF" fill-rule="nonzero"></path>
            <path d="M21.18,18.59 C20.18,18.59 19.78,20.36 20.96,20.36 C21.92,20.36 22.36,18.59 21.18,18.59 Z" id="Shape" fill="#4BC0AF" fill-rule="nonzero"></path>
            <path d="M38.55,6 C37.84,5.24 36.68,6 36.39,6.84 C36.2113155,7.24940976 36.2769652,7.72440511 36.56,8.07 C36.8507097,8.37011685 37.2973676,8.45785322 37.68,8.29 C38.1338686,8.10413713 38.4941371,7.74386864 38.68,7.29 C38.8901381,6.87110829 38.8394918,6.3685414 38.55,6 Z" id="Shape" fill="#4BC0AF" fill-rule="nonzero"></path>
            <path d="M39.93,12.94 C39.9100296,12.8785666 39.8795805,12.8210516 39.84,12.77 C39.84,12.77 39.84,12.77 39.84,12.77 C39.7861917,12.5988318 39.6678237,12.4553555 39.51,12.37 C39.2804546,12.2698182 39.0195454,12.2698182 38.79,12.37 C38.5126753,12.4804626 38.2779189,12.6766768 38.12,12.93 C37.9782376,13.1680615 37.91199,13.4435122 37.93,13.72 C37.9463616,13.9387647 38.0342067,14.1460792 38.18,14.31 C38.4501268,14.5610188 38.8450374,14.6242045 39.18,14.47 C39.8075883,14.2523257 40.1423512,13.5694094 39.93,12.94 Z" id="Shape" fill="#4BC0AF" fill-rule="nonzero"></path>
            <path d="M40.8,19.41 C39.71,19.41 39.21,21.41 40.55,21.41 C41.65,21.42 42.15,19.41 40.8,19.41 Z" id="Shape" fill="#4BC0AF" fill-rule="nonzero"></path>
            <path d="M6.14,21.37 C4.92,21.37 4.35,23.63 5.86,23.63 C7.08,23.63 7.64,21.37 6.14,21.37 Z" id="Shape" fill="#4BC0AF" fill-rule="nonzero"></path>
            <path d="M6.18,27.32 C5.41,27.32 5.05,28.75 6.01,28.75 C6.79,28.75 7.14,27.32 6.18,27.32 Z" id="Shape" fill="#4BC0AF" fill-rule="nonzero"></path>
            <path d="M6.6,31.24 C5.66,31.24 5.23,32.98 6.38,32.98 C7.33,33 7.76,31.24 6.6,31.24 Z" id="Shape" fill="#4BC0AF" fill-rule="nonzero"></path>
            <path d="M17.49,53.85 C16.06,53.85 15.39,56.51 17.17,56.51 C18.6,56.51 19.26,53.85 17.49,53.85 Z" id="Shape" fill="#FFF161" fill-rule="nonzero"></path>
            <path d="M20,60.91 L19.58,60.59 C19.2721977,60.4312586 18.9238361,60.3685535 18.58,60.41 L18.01,60.55 C17.6062331,60.7112594 17.241466,60.9567102 16.94,61.27 C16.4409689,61.7244988 16.1097912,62.3340067 16,63 C15.9047025,63.5627892 16.0661054,64.1387041 16.44,64.57 L16.86,64.9 C17.1701443,65.051358 17.5172622,65.110368 17.86,65.07 L18.43,64.93 C19.4567231,64.5137813 20.1869278,63.5858128 20.35,62.49 C20.4611349,61.9375442 20.3340484,61.3638392 20,60.91 Z" id="Shape" fill="#FFF161" fill-rule="nonzero"></path>
            <path d="M19.45,67.67 C16.36,67.67 14.95,73.39 18.75,73.39 C21.84,73.39 23.26,67.67 19.45,67.67 Z" id="Shape" fill="#FFF161" fill-rule="nonzero"></path>
            <path d="M34.41,39 C33.21,39 32.65,41.23 34.14,41.23 C35.34,41.26 35.9,39 34.41,39 Z" id="Shape" fill="#FFF161" fill-rule="nonzero"></path>
            <path d="M37.86,47.82 C37.7833359,47.6335787 37.6712698,47.4637816 37.53,47.32 C37.26189,47.0409816 36.9114173,46.8552311 36.53,46.79 C35.624009,46.6955709 34.7277037,47.0414481 34.12,47.72 C33.6188764,48.236466 33.2934354,48.8978461 33.19,49.61 C33.0447703,50.4484633 33.4459892,51.2870107 34.19,51.7 C35.2471014,52.1231096 36.4563739,51.8207915 37.19,50.95 C37.5229464,50.6025186 37.7815469,50.1907995 37.95,49.74 C38.027515,49.5012461 38.044693,49.2470112 38,49 C38.0614237,48.6012526 38.0130231,48.1933046 37.86,47.82 Z" id="Shape" fill="#FFF161" fill-rule="nonzero"></path>
            <path d="M39.24,56.22 L38.74,55.84 C38.3504924,55.6452061 37.9124718,55.5687263 37.48,55.62 L36.79,55.79 C35.5528407,56.28831 34.6758964,57.4092735 34.49,58.73 C34.3759396,59.4011408 34.5624068,60.0885099 35,60.61 L35.51,61 C35.898943,61.1965017 36.3374807,61.2730718 36.77,61.22 L37.45,61.05 C37.9378286,60.8566493 38.3779376,60.5598316 38.74,60.18 C39.2846713,59.6136839 39.6349161,58.8886772 39.74,58.11 C39.8517212,57.4374652 39.6696694,56.7493097 39.24,56.22 Z" id="Shape" fill="#FFF161" fill-rule="nonzero"></path>
            <path d="M40.72,66.24 C40.2389024,65.7478815 39.5504861,65.517169 38.87,65.62 C37.2338329,65.8952546 35.9684203,67.2052811 35.75,68.85 C35.581291,69.795511 36.0205177,70.7458379 36.85,71.23 C37.2500273,71.4363906 37.7043372,71.5132738 38.15,71.45 L38.86,71.28 C39.1062276,71.1827791 39.3409804,71.0586955 39.56,70.91 C39.7904424,70.755319 40.0018946,70.5740742 40.19,70.37 L40.19,70.32 L40.31,70.18 L40.4,70.07 C40.5727991,69.8649666 40.7205103,69.6400426 40.84,69.4 C40.91,69.26 40.98,69.11 41.04,68.96 C41.1169881,68.7327117 41.1705987,68.4981653 41.2,68.26 C41.2,68.26 41.2,68.26 41.2,68.21 C41.3333364,67.5147949 41.1581866,66.7959508 40.72,66.24 Z" id="Shape" fill="#FFF161" fill-rule="nonzero"></path>
            <path d="M53.36,32.24 C52.72,32.24 52.42,33.43 53.22,33.43 C53.86,33.43 54.16,32.24 53.36,32.24 Z" id="Shape" fill="#FFF161" fill-rule="nonzero"></path>
            <path d="M54,41.61 C52.76,41.61 52.19,43.91 53.72,43.91 C55,43.91 55.55,41.61 54,41.61 Z" id="Shape" fill="#FFF161" fill-rule="nonzero"></path>
            <path d="M53.73,30.38 C52.6257964,25.7806362 50.9458714,21.3389145 48.73,17.16 C45.3,10.77 41,4.37 34.21,1.75 C27.42,-0.87 20.08,1.11 14.86,6.32 C11.8159787,9.55585995 9.24394122,13.2051906 7.22,17.16 C5.02141054,21.3413222 3.35831775,25.7829558 2.27,30.38 C-0.73,42.29 0.39,55.87 7.07,66.21 C9.26976207,69.7173947 12.3803663,72.5618695 16.07,74.44 C19.7976391,76.3185776 23.8968701,77.3433853 28.07,77.44 C29.7487445,77.4525042 31.4242944,77.2916514 33.07,76.96 C35.4466561,76.4244043 37.7452295,75.5876429 39.91,74.47 C43.5996337,72.5918695 46.7102379,69.7473947 48.91,66.24 C55.61,55.87 56.7,42.29 53.73,30.38 Z M42.34,57.44 C40.5489877,60.2949485 38.0105758,62.6051108 35,64.12 C33.2413997,65.025326 31.3723334,65.697652 29.44,66.12 C28.0947449,66.3963902 26.7231479,66.5238247 25.35,66.5 C21.9669313,66.4368407 18.6414449,65.6131591 15.62,64.09 C12.6204389,62.5706317 10.0928252,60.2608562 8.31,57.41 C2.91,49 2,38 4.44,28.34 C5.32171267,24.6044527 6.6653944,20.9933081 8.44,17.59 C10.0853899,14.381971 12.1760799,11.4226851 14.65,8.8 C18.9,4.56 24.84,3 30.38,5.08 C35.92,7.16 39.38,12.41 42.22,17.59 C43.9946056,20.9933081 45.3382873,24.6044527 46.22,28.34 C48.65,38 47.77,49 42.34,57.44 Z" id="Shape" fill="#B8BABC" fill-rule="nonzero" opacity="0.3" style="mix-blend-mode: multiply;"></path>
            <path d="M28.05,77.41 C29.7287445,77.4225042 31.4042944,77.2616514 33.05,76.93 C35.4266561,76.3944043 37.7252295,75.5576429 39.89,74.44 C43.5796337,72.5618695 46.6902379,69.7173947 48.89,66.21 C55.57,55.87 56.66,42.29 53.69,30.38 C52.5857964,25.7806362 50.9058714,21.3389145 48.69,17.16 C45.3,10.77 41,4.37 34.21,1.75 C27.42,-0.87 20.08,1.11 14.86,6.32 C11.8159787,9.55585995 9.24394122,13.2051906 7.22,17.16 C5.02141054,21.3413222 3.35831775,25.7829558 2.27,30.38 C-0.73,42.29 0.39,55.87 7.07,66.21 C9.26976207,69.7173947 12.3803663,72.5618695 16.07,74.44 C19.7939883,76.305306 23.8859501,77.3197573 28.05,77.41 Z" id="Shape"></path>
        </g>
    </g>
</svg>