<?xml version="1.0" encoding="UTF-8"?>
<svg width="56px" height="78px" viewBox="0 0 56 78" version="1.1" xmlns="http://www.w3.org/2000/svg" xmlns:xlink="http://www.w3.org/1999/xlink">
    <!-- Generator: Sketch 48.2 (47327) - http://www.bohemiancoding.com/sketch -->
    <title>9</title>
    <desc>Created with Sketch.</desc>
    <defs>
        <radialGradient cx="30.4184642%" cy="42.863178%" fx="30.4184642%" fy="42.863178%" r="38.1991554%" gradientTransform="translate(0.304185,0.428632),scale(1.000000,0.710232),translate(-0.304185,-0.428632)" id="radialGradient-1">
            <stop stop-color="#94D2DA" offset="29%"></stop>
            <stop stop-color="#64B2D1" offset="95%"></stop>
        </radialGradient>
    </defs>
    <g id="Page-1" stroke="none" stroke-width="1" fill="none" fill-rule="evenodd">
        <g id="9" fill-rule="nonzero">
            <path d="M28.05,77.41 C29.7286056,77.4307821 31.4046717,77.2732319 33.05,76.94 C35.4270305,76.4009114 37.7255824,75.5607975 39.89,74.44 C43.5816541,72.5647877 46.6929643,69.7196674 48.89,66.21 C55.57,55.87 56.66,42.29 53.69,30.38 C52.5903198,25.7792451 50.9101832,21.336964 48.69,17.16 C45.3,10.77 41,4.37 34.21,1.75 C27.42,-0.87 20.08,1.11 14.86,6.33 C11.8138347,9.56040718 9.24152249,13.2067608 7.22,17.16 C5.01710309,21.3393912 3.35380137,25.7815829 2.27,30.38 C-0.73,42.29 0.39,55.87 7.07,66.21 C9.26703571,69.7196674 12.3783459,72.5647877 16.07,74.44 C19.7935227,76.3065667 23.8857728,77.3210895 28.05,77.41 Z" id="Shape" fill="url(#radialGradient-1)"></path>
            <path d="M21.42,5 C22.9245319,4.4443968 24.1897723,3.38413951 25,2 C25.29,1.62 25.61,1.17 26,0.7 C22.7655662,1.11885506 19.6971607,2.37724608 17.1,4.35 C18.3828172,5.16908137 19.9529544,5.40532887 21.42,5 Z" id="Shape" fill="#EBE7F0"></path>
            <path d="M37.08,3.15 C35.2462058,3.56358344 33.5170572,4.34986952 32,5.46 C30.5359146,6.78739605 29.2275105,8.27696384 28.1,9.9 C26.47,11.9 24.24,13.83 21.58,13.12 C19.35,12.53 17.58,10.81 15.77,9.45 C15.0123817,8.85642863 14.1651164,8.38722596 13.26,8.06 C12.2548629,9.23731452 11.319912,10.4727854 10.46,11.76 C10.7713599,11.7587989 11.0823279,11.7822051 11.39,11.83 C13.3962066,12.2197895 15.1816505,13.3517608 16.39,15 C17.8,16.65 19.2,18.32 21.39,18.76 C24.67,19.4 27.58,17.14 29.95,15.02 C32.32,12.9 34.38,10.5 37.09,9.09 C38.8253222,8.10987715 40.8450714,7.75677415 42.81,8.09 C41.1731821,6.15075276 39.2391584,4.48337459 37.08,3.15 Z" id="Shape" fill="#EBE7F0"></path>
            <path d="M52.05,34.81 C51.6086914,33.2853667 50.9340371,31.8382331 50.05,30.52 C49.4569445,29.5827575 48.606331,28.8363007 47.6,28.37 C46.8335125,28.1658417 46.0431949,28.0649501 45.25,28.07 C44.05,27.99 42.83,27.82 42.13,26.66 C41.7336522,26.0117325 41.7070706,25.2028916 42.06,24.53 C42.97,22.64 45.35,21.53 47.06,20.83 C48.0299932,20.4304006 49.034064,20.1191386 50.06,19.9 C49.64,18.97 49.18,18.05 48.7,17.16 L48.2,16.25 C47.0570591,16.6815026 45.9799878,17.270526 45,18 C40.48,21.23 37.33,26 33.13,29.5 C28.93,33 22.36,37 17.74,32.05 C15.89,30.05 15.31,27.52 14.74,24.92 C14.17,22.32 13.58,19 11.9,16.75 C11.1584634,15.5827737 9.84005897,14.9120737 8.46,15 C8.04,15.73 7.62,16.46 7.22,17.2 C6.82,17.94 6.52,18.55 6.22,19.2 C6.82019268,19.0472855 7.45523981,19.1146927 8.01,19.39 C10.49,20.65 9.43,24.06 8.89,26.21 C7.39,32.21 7.5,39.13 10.89,44.44 C12.6515623,47.289934 15.3487164,49.4391735 18.52,50.52 C22.3405908,51.732507 26.5030751,51.1750641 29.87,49 C31.5147833,47.9952468 32.9758043,46.7168534 34.19,45.22 C35.13,44 35.94,42.66 36.76,41.36 C38.31,38.91 40.05,35.9 42.64,34.56 C43.5780209,33.9374807 44.7437872,33.7629327 45.823002,34.0834151 C46.9022167,34.4038974 47.7837736,35.1864162 48.23,36.22 C49.5,38.41 49.92,41.01 50.46,43.48 C51.12,46.48 51.99,50.39 54.4,52.42 C54.9530888,49.5858866 55.2476319,46.7073965 55.28,43.82 C53.71,41 52.81,37.07 52.05,34.81 Z" id="Shape" fill="#EBE7F0"></path>
            <path d="M1.91,32 C2.33709792,31.9850778 2.75060363,31.8460843 3.1,31.6 C4.23947512,30.7640624 5.08350152,29.5873285 5.51,28.24 C6.12390411,26.760989 6.21214372,25.1162025 5.76,23.58 C5.58015839,23.0654557 5.27819219,22.6022121 4.88,22.23 C3.82701703,24.9016821 2.95504647,27.6412064 2.27,30.43 C2.14,30.9 2,31.42 1.91,32 Z" id="Shape" fill="#EBE7F0"></path>
            <path d="M53.48,54.86 C52.877177,53.8405124 51.7742448,53.2222598 50.59,53.24 C49.2655928,53.5325827 48.0927379,54.2967155 47.29,55.39 C44.15,59.22 43.94,65.71 39.48,68.39 C37.1654402,69.9540021 34.0725666,69.6872313 32.06,67.75 C31.0435461,66.6762664 30.1940763,65.4559964 29.54,64.13 C28.8738724,62.5720855 28.0951451,61.0647636 27.21,59.62 C26.81,59.08 26.27,58.48 25.57,58.53 C24.9555326,58.6133452 24.3786773,58.8739726 23.91,59.28 C22.38,60.4 21.1,61.9 19.53,63 C18.312863,63.9530519 16.8249218,64.4957128 15.28,64.55 C13.5410418,64.4250567 11.9081266,63.6672987 10.69,62.42 C7.99817329,59.7463873 6.24408007,56.2732827 5.69,52.52 C5.1,49.52 4.86,46.4 4.36,43.36 C4.14,42 3.15,36.82 0.98,38.2 C0.12,47.34 1.64,56.84 6.16,64.69 C6.5260783,64.2253619 7.08857882,63.9589143 7.68,63.97 C9.39,64.03 10.77,65.78 11.56,67.22 C12.48,68.91 13.2,71.52 15.1,72.22 C17.56,73.22 19.17,71.22 20.49,69.3 C21.81,67.38 23.9,64.99 25.98,67.03 C28.06,69.07 28.43,72.03 29.66,74.41 C30.1609736,75.4364187 30.8378693,76.3671501 31.66,77.16 C32.14,77.0866667 32.62,77.0066667 33.1,76.92 C35.4770305,76.3809114 37.7755824,75.5407975 39.94,74.42 C43.6316541,72.5447877 46.7429643,69.6996674 48.94,66.19 C51.1056338,62.7957908 52.7284804,59.0844992 53.75,55.19 C53.66,55.09 53.57,55 53.48,54.86 Z" id="Shape" fill="#EBE7F0"></path>
            <path d="M31.35,19.66 C28.7,20.66 19.25,22.54 22.5,27.48 C23.99,29.73 26.76,28.69 28.62,27.61 C30.9318456,26.2292302 33.0503214,24.5479002 34.92,22.61 C38.27,19.21 41.33,13.91 45.92,12.37 C45.24,11.31 44.5,10.28 43.74,9.3 C41.3393308,10.907538 39.1577318,12.8202188 37.25,14.99 C35.5,16.74 33.69,18.76 31.35,19.66 Z" id="Shape" fill="#EBE7F0"></path>
            <g id="Group" opacity="0.1" style="mix-blend-mode: multiply;" fill="#8A9E8D">
                <path d="M53.73,30.38 C52.6303198,25.7792451 50.9501832,21.336964 48.73,17.16 C45.3,10.77 41,4.37 34.21,1.75 C27.42,-0.87 20.08,1.11 14.86,6.33 C11.8138347,9.56040718 9.24152249,13.2067608 7.22,17.16 C5.01710309,21.3393912 3.35380137,25.7815829 2.27,30.38 C-0.73,42.29 0.39,55.87 7.07,66.21 C9.26703571,69.7196674 12.3783459,72.5647877 16.07,74.44 C19.7971687,76.3198429 23.8966898,77.3447232 28.07,77.44 C29.7486056,77.4607821 31.4246717,77.3032319 33.07,76.97 C35.4470305,76.4309114 37.7455824,75.5907975 39.91,74.47 C43.6016541,72.5947877 46.7129643,69.7496674 48.91,66.24 C55.61,55.87 56.7,42.29 53.73,30.38 Z M42.34,57.44 C40.5464654,60.2953497 38.0089489,62.6081542 35,64.13 C33.2398157,65.0235911 31.3755818,65.6953871 29.45,66.13 C28.0997849,66.3955767 26.7260252,66.5229007 25.35,66.51 C21.9676017,66.441757 18.6432248,65.6183502 15.62,64.1 C12.6220628,62.5737007 10.0953361,60.2612791 8.31,57.41 C2.91,49 2,38 4.44,28.34 C5.31961083,24.6038166 6.66338801,20.9924155 8.44,17.59 C10.0876691,14.3803188 12.1780986,11.4180355 14.65,8.79 C18.88,4.56 24.82,2.94 30.36,5.08 C35.9,7.22 39.36,12.41 42.2,17.6 C43.9777589,20.9983983 45.3216109,24.6066408 46.2,28.34 C48.65,38 47.77,49 42.34,57.44 Z" id="Shape"></path>
            </g>
        </g>
    </g>
</svg>