<?xml version="1.0" encoding="UTF-8" standalone="no"?>
<svg width="74px" height="74px" viewBox="0 0 74 74" version="1.1" xmlns="http://www.w3.org/2000/svg" xmlns:xlink="http://www.w3.org/1999/xlink">
    <!-- Generator: Sketch 45.2 (43514) - http://www.bohemiancoding.com/sketch -->
    <title>check</title>
    <desc>Created with Sketch.</desc>
    <defs></defs>
    <g id="Page-1" stroke="none" stroke-width="1" fill="none" fill-rule="evenodd">
        <g id="check" fill-rule="nonzero" fill="#4CAF50">
            <path d="M36.296,52.952 C35.22,52.952 34.187,52.518 33.433,51.745 L16.606,34.495 C15.064,32.913 15.095,30.381 16.676,28.839 C18.257,27.296 20.79,27.327 22.332,28.909 L36.03,42.952 L66.9,5.137 C68.296,3.427 70.817,3.171 72.528,4.568 C74.239,5.965 74.494,8.485 73.097,10.196 L39.395,51.482 C38.674,52.364 37.611,52.898 36.473,52.948 C36.414,52.951 36.355,52.952 36.296,52.952 Z" id="Shape"></path>
            <path d="M68,74 L6,74 C2.691,74 0,71.309 0,68 L0,6 C0,2.691 2.691,0 6,0 L54,0 C56.209,0 58,1.791 58,4 C58,6.209 56.209,8 54,8 L8,8 L8,66 L66,66 L66,30 C66,27.791 67.791,26 70,26 C72.209,26 74,27.791 74,30 L74,68 C74,71.309 71.309,74 68,74 Z" id="Shape"></path>
        </g>
    </g>
</svg>